<svg width="938" height="927" viewBox="0 0 938 927" fill="none" xmlns="http://www.w3.org/2000/svg">
<path d="M163.968 344.017C194.314 348.541 215.245 376.851 210.721 407.196C206.197 437.542 177.887 458.473 147.541 453.949C117.196 449.425 96.2649 421.115 100.789 390.769C105.313 360.424 133.623 339.493 163.968 344.017Z" fill="url(#paint0_linear_921_6363)"/>
<path d="M214.986 457.14C214.395 458.779 213.305 461.507 212.539 463.805C211.732 466.224 210.911 468.683 210.077 471.183C208.544 476.182 207.131 481.222 205.907 486.369C203.391 496.595 201.466 506.93 200.146 517.332C197.519 538.095 197.393 558.887 199.699 578.966C200.959 589.019 202.825 598.871 205.254 608.508C207.872 618.118 210.934 627.473 214.722 636.532C222.31 654.611 232.439 671.386 244.409 686.67C257.468 703.393 254.518 727.543 237.836 740.615C221.113 753.674 196.963 750.724 183.891 734.042C182.856 732.711 181.916 731.367 181.083 729.969L180.801 729.472C167.65 706.983 157.241 682.722 150.555 657.642C147.212 645.101 144.917 632.373 143.254 619.632C141.82 606.878 141.192 594.123 141.329 581.49C141.847 556.17 145.456 531.388 151.793 507.561C154.954 495.668 158.801 484.004 163.28 472.595C165.499 466.883 167.92 461.239 170.502 455.649C171.793 452.854 173.124 450.072 174.549 447.277C176.002 444.402 177.319 441.929 179.269 438.503C184.728 428.854 196.959 425.498 206.607 430.957C215.315 435.878 218.914 446.309 215.525 455.393L214.865 457.099L214.986 457.14Z" fill="url(#paint1_linear_921_6363)"/>
<path opacity="0.7" d="M538.069 123.386C329.149 124.202 186.664 261.206 203.493 497.198C225.033 800.174 582.037 921.391 626.421 849.73C680.459 762.428 343.124 666.59 537.223 652.048C679.176 641.39 870.506 581.032 839.345 367.856C823.892 262.163 729.853 122.633 538.069 123.386Z" fill="url(#paint2_linear_921_6363)"/>
<path opacity="0.7" d="M810.783 424.862C804.46 398.156 791.995 373.611 776.075 351.902C759.9 330.287 740.256 311.546 718.824 295.749C675.866 264.167 625.352 244.491 575.533 238.711C525.579 232.797 476.872 241.278 435.069 261.56C414.087 271.674 394.636 284.45 376.797 299.511C359.08 314.881 342.947 332.348 328.064 351.038C298.729 387.801 245.183 393.861 208.367 364.552C171.604 335.217 165.544 281.672 194.853 244.855C198.55 240.219 202.677 236.041 207.073 232.4L208.242 231.446C235.074 209.439 263.8 189.409 294.81 172.739C326.008 156.311 359.436 143.539 393.804 135.471C428.184 127.363 463.532 124.147 498.098 125.958C532.678 127.728 566.45 134.471 598.151 145.272C661.607 166.981 716.981 204.453 759.424 252.081C780.585 275.942 798.627 302.437 811.884 331.188C824.899 359.993 833.062 391.121 833.752 422.355C833.898 428.766 828.816 434.06 822.405 434.206C816.855 434.325 812.125 430.507 810.863 425.292L810.769 424.902L810.783 424.862Z" fill="url(#paint3_linear_921_6363)"/>
<path d="M789.277 246.266C813.139 273.179 833.424 303.02 848.347 335.374" stroke="#407BFF" stroke-width="1.13232" stroke-miterlimit="10" stroke-linecap="round"/>
<path d="M436.085 105.326C455.761 103.558 475.437 103.133 494.897 104.16C533.885 106.147 571.904 113.724 607.623 125.91" stroke="#407BFF" stroke-width="1.13232" stroke-miterlimit="10" stroke-linecap="round"/>
<path d="M153.287 238.123C157.455 232.883 162.066 228.193 167.026 224.069L168.371 222.994C198.59 198.22 230.945 175.637 265.894 156.831C301.057 138.321 338.692 123.951 377.401 114.823" stroke="#407BFF" stroke-width="1.13232" stroke-miterlimit="10" stroke-linecap="round"/>
<path opacity="0.7" d="M189.908 391.814C249.337 253.173 417.403 194.059 536.81 206.524C762.899 230.119 834.66 401.374 788.555 524.119C749.309 628.722 635.645 643.353 514.584 632.89C401.532 623.129 343.084 620.519 341.624 652.155C340.353 679.599 411.522 703.702 445.027 705.472C474.567 707.039 526.699 706.288 573.448 685.416C628.934 660.648 681.049 674.586 688.514 702.301C697.657 736.265 649.843 768.386 617.236 778.968C526.16 808.617 410.223 785.617 348.799 753.519C202.946 677.303 136.088 517.137 189.881 391.76L189.908 391.814Z" fill="url(#paint4_linear_921_6363)"/>
<path d="M809.697 461.284C812.75 452.132 822.643 447.189 831.795 450.243C840.946 453.296 845.889 463.189 842.836 472.341C839.783 481.492 829.89 486.435 820.738 483.382C811.587 480.329 806.644 470.436 809.697 461.284Z" fill="url(#paint5_linear_921_6363)"/>
<path d="M547.345 807.724C497.133 811.581 432.92 806.509 364.453 775.781" stroke="#407BFF" stroke-width="1.13232" stroke-miterlimit="10" stroke-linecap="round"/>
<path d="M651.05 784.126C651.05 784.126 627.676 794.831 589.156 802.185" stroke="#407BFF" stroke-width="1.13232" stroke-miterlimit="10" stroke-linecap="round"/>
<path d="M143.898 700C148.746 711.116 154.522 722.272 161.454 733.322" stroke="#407BFF" stroke-width="1.13232" stroke-miterlimit="10" stroke-linecap="round"/>
<path d="M124.369 567.99C121.039 602.408 122.977 643.063 137.857 684.677" stroke="#407BFF" stroke-width="1.13232" stroke-miterlimit="10" stroke-linecap="round"/>
<path d="M149.095 472.388C149.095 472.388 135.984 499.196 128.339 539.97" stroke="#407BFF" stroke-width="1.13232" stroke-miterlimit="10" stroke-linecap="round"/>
<path d="M99.6937 466.837C101.241 462.201 106.241 459.703 110.877 461.249C115.513 462.796 118.012 467.797 116.465 472.433C114.918 477.069 109.918 479.567 105.281 478.021C100.645 476.474 98.1468 471.474 99.6937 466.837Z" stroke="#407BFF" stroke-width="0.561483" stroke-miterlimit="10" stroke-linecap="round"/>
<path d="M741.012 306.347C742.142 302.96 745.798 301.133 749.185 302.263C752.571 303.393 754.398 307.049 753.268 310.436C752.138 313.822 748.482 315.649 745.096 314.519C741.709 313.389 739.883 309.733 741.012 306.347Z" stroke="white" stroke-width="0.411754" stroke-miterlimit="10"/>
<path d="M750.6 528.855C751.73 525.469 755.386 523.642 758.773 524.772C762.159 525.902 763.986 529.558 762.856 532.944C761.726 536.331 758.07 538.158 754.684 537.028C751.297 535.898 749.47 532.242 750.6 528.855Z" fill="white"/>
<path d="M569.058 821.734C565.674 820.605 562.015 822.433 560.885 825.817C559.756 829.202 561.584 832.861 564.969 833.99C568.353 835.119 572.012 833.291 573.141 829.906C574.27 826.522 572.442 822.863 569.058 821.734Z" fill="white"/>
<path d="M871.625 378.803C873.172 374.167 878.172 371.668 882.809 373.215C887.445 374.762 889.943 379.762 888.396 384.399C886.85 389.035 881.849 391.533 877.213 389.986C872.577 388.44 870.079 383.439 871.625 378.803Z" stroke="#407BFF" stroke-width="0.561483" stroke-miterlimit="10" stroke-linecap="round"/>
<path d="M701.354 693.92C693.45 697.869 691.207 693.447 683.263 697.383C675.319 701.318 677.549 705.781 669.632 709.77C661.728 713.719 659.485 709.297 651.581 713.246C643.678 717.195 645.867 721.644 637.95 725.634C629.993 729.61 627.803 725.161 619.846 729.137C611.888 733.112 614.132 737.535 606.174 741.511C598.217 745.487 596.027 741.037 588.07 745.013" stroke="white" stroke-width="0.823508" stroke-miterlimit="10" stroke-linecap="round"/>
<path d="M708.254 673.238C700.35 677.187 698.107 672.765 690.163 676.701C682.26 680.65 684.449 685.099 676.532 689.088C668.615 693.078 666.385 688.615 658.482 692.564C650.578 696.513 652.767 700.962 644.85 704.952C636.893 708.928 634.703 704.478 626.746 708.454C618.789 712.43 621.032 716.853 613.075 720.829C605.117 724.804 602.928 720.355 594.97 724.331" stroke="white" stroke-width="0.823508" stroke-miterlimit="10" stroke-linecap="round"/>
<path d="M670.684 168.275C662.78 172.224 660.537 167.802 652.593 171.738C644.649 175.673 646.879 180.136 638.962 184.125C631.058 188.074 628.815 183.652 620.911 187.601C613.008 191.55 615.197 195.999 607.28 199.989C599.323 203.965 597.133 199.516 589.176 203.491C581.218 207.467 583.462 211.89 575.504 215.866C567.547 219.842 565.357 215.392 557.4 219.368" stroke="white" stroke-width="0.823508" stroke-miterlimit="10" stroke-linecap="round"/>
<path d="M290.232 347.345C282.329 351.294 280.086 346.872 272.142 350.808C264.238 354.757 266.428 359.206 258.51 363.195C250.607 367.144 248.364 362.722 240.46 366.671C232.556 370.62 234.746 375.069 226.829 379.059C218.912 383.048 216.682 378.585 208.725 382.561C200.767 386.537 203.01 390.96 195.053 394.935C187.096 398.911 184.906 394.462 176.949 398.438" stroke="white" stroke-width="0.823508" stroke-miterlimit="10" stroke-linecap="round"/>
<path d="M297.133 326.664C289.229 330.613 286.986 326.19 279.042 330.126C271.139 334.075 273.328 338.524 265.411 342.514C257.507 346.463 255.264 342.04 247.36 345.989C239.457 349.938 241.646 354.388 233.729 358.377C225.812 362.366 223.582 357.904 215.625 361.88C207.668 365.856 209.911 370.278 201.953 374.254C193.996 378.23 191.807 373.781 183.849 377.757" stroke="white" stroke-width="0.823508" stroke-miterlimit="10" stroke-linecap="round"/>
<path d="M367.151 629.93C359.194 633.906 357.004 629.457 349.047 633.433" stroke="white" stroke-width="0.823508" stroke-miterlimit="10" stroke-linecap="round"/>
<path d="M462.318 582.38C454.415 586.329 452.171 581.907 444.227 585.842C436.324 589.791 438.513 594.241 430.596 598.23C422.693 602.179 420.449 597.757 412.546 601.706C404.642 605.655 406.832 610.104 398.914 614.093C390.957 618.069 388.768 613.62 380.81 617.596" stroke="white" stroke-width="0.823508" stroke-miterlimit="10" stroke-linecap="round"/>
<path d="M469.216 561.698C461.313 565.647 459.07 561.225 451.126 565.161C443.222 569.11 445.411 573.559 437.494 577.548" stroke="white" stroke-width="0.823508" stroke-miterlimit="10" stroke-linecap="round"/>
<defs>
<linearGradient id="paint0_linear_921_6363" x1="147.723" y1="452.378" x2="165.49" y2="333.509" gradientUnits="userSpaceOnUse">
<stop stop-color="#186FD3"/>
<stop offset="1" stop-color="#1508A0"/>
</linearGradient>
<linearGradient id="paint1_linear_921_6363" x1="284.036" y1="615.303" x2="117.413" y2="559.711" gradientUnits="userSpaceOnUse">
<stop stop-color="#1847D3"/>
<stop offset="1" stop-color="#0824A0"/>
</linearGradient>
<linearGradient id="paint2_linear_921_6363" x1="136.023" y1="382.275" x2="807.212" y2="560.499" gradientUnits="userSpaceOnUse">
<stop stop-color="#4DFFFF"/>
<stop offset="1" stop-color="#624DFF"/>
</linearGradient>
<linearGradient id="paint3_linear_921_6363" x1="910.397" y1="426.825" x2="211.532" y2="193.655" gradientUnits="userSpaceOnUse">
<stop stop-color="#1872D3"/>
<stop offset="1" stop-color="#1508A0"/>
</linearGradient>
<linearGradient id="paint4_linear_921_6363" x1="768.378" y1="585.129" x2="189.089" y2="391.854" gradientUnits="userSpaceOnUse">
<stop stop-color="#2DD7EA"/>
<stop offset="1" stop-color="#1550CE"/>
</linearGradient>
<linearGradient id="paint5_linear_921_6363" x1="842.796" y1="472.327" x2="809.697" y2="461.284" gradientUnits="userSpaceOnUse">
<stop stop-color="#2DD4EA"/>
<stop offset="1" stop-color="#1534CE"/>
</linearGradient>
</defs>
</svg>
