<svg width="385" height="381" viewBox="0 0 385 381" fill="none" xmlns="http://www.w3.org/2000/svg">
<path d="M191.493 380.207C288.303 380.207 366.783 334.898 366.783 279.007C366.783 223.116 288.303 177.807 191.493 177.807C94.683 177.807 16.2031 223.116 16.2031 279.007C16.2031 334.898 94.683 380.207 191.493 380.207Z" fill="#F5F5F5"/>
<path d="M94.3885 331.701C115.473 331.701 132.566 321.832 132.566 309.658C132.566 297.485 115.473 287.616 94.3885 287.616C73.3036 287.616 56.2109 297.485 56.2109 309.658C56.2109 321.832 73.3036 331.701 94.3885 331.701Z" fill="#EBEBEB"/>
<path d="M292.072 331.701C313.157 331.701 330.25 321.832 330.25 309.658C330.25 297.485 313.157 287.616 292.072 287.616C270.987 287.616 253.895 297.485 253.895 309.658C253.895 321.832 270.987 331.701 292.072 331.701Z" fill="#EBEBEB"/>
<path d="M193.114 344.731C217.053 344.731 236.46 333.525 236.46 319.702C236.46 305.878 217.053 294.672 193.114 294.672C169.174 294.672 149.768 305.878 149.768 319.702C149.768 333.525 169.174 344.731 193.114 344.731Z" fill="#EBEBEB"/>
<path d="M21.1187 114.097C23.2548 118.285 24.1071 123.01 23.5687 127.681C23.0653 131.667 21.6808 135.526 22.1843 139.587C22.973 145.998 27.4704 151.108 31.1036 156.151C33.2148 158.855 34.9115 161.858 36.138 165.062C37.4637 169.005 37.1449 173.108 36.4065 177.136C35.0136 184.788 33.0502 191.979 37.3379 199.086C39.704 202.996 42.9009 206.31 45.1244 210.313C47.5217 214.73 49.0217 219.577 49.5379 224.577C49.5883 225.03 50.4609 225.181 50.4189 224.669C50.1234 220.473 49.0865 216.362 47.3563 212.528C45.6027 208.651 43.0519 205.396 40.5347 202.006C38.0175 198.616 35.8275 194.874 35.601 190.452C35.3912 186.324 36.4401 182.254 37.2791 178.243C38.0007 174.56 38.5377 170.759 37.7574 167.042C37.0126 163.935 35.6921 160.995 33.8641 158.374C30.189 152.82 24.9952 147.743 23.4681 141.081C22.3521 136.198 24.3071 131.574 24.626 126.741C24.9658 122.264 23.8948 117.792 21.5634 113.954C21.3872 113.669 20.9509 113.736 21.1271 114.097H21.1187Z" fill="#37474F"/>
<path d="M20.0121 121.262C19.8023 119.928 22.009 115.817 22.5293 115.741C23.0495 115.666 26.1121 118.863 26.3386 120.289C26.3541 120.572 26.2948 120.855 26.1667 121.108C26.0386 121.362 25.8461 121.577 25.6086 121.732C24.9709 122.193 24.2329 122.495 23.4554 122.615C22.6779 122.735 21.8831 122.668 21.1364 122.42C20.861 122.347 20.6104 122.201 20.411 121.997C20.2117 121.793 20.071 121.539 20.0037 121.262H20.0121Z" fill="#407BFF"/>
<path opacity="0.1" d="M20.0121 121.262C19.8023 119.928 22.009 115.817 22.5293 115.741C23.0495 115.666 26.1121 118.863 26.3386 120.289C26.3541 120.572 26.2948 120.855 26.1667 121.108C26.0386 121.362 25.8461 121.577 25.6086 121.732C24.9709 122.193 24.2329 122.495 23.4554 122.615C22.6779 122.735 21.8831 122.668 21.1364 122.42C20.861 122.347 20.6104 122.201 20.411 121.997C20.2117 121.793 20.071 121.539 20.0037 121.262H20.0121Z" fill="black"/>
<path d="M0.276892 94.5212C1.82078 104.775 11.8896 116.488 22.7975 117.319C32.925 112.737 38.9999 99.0689 37.4224 88.7903C35.845 78.5117 27.7732 69.9784 15.8164 71.816C3.85971 73.6535 -1.30056 84.2678 0.276892 94.5212Z" fill="#407BFF"/>
<path opacity="0.05" d="M37.43 94.3029C37.43 94.3029 36.2217 104.565 24.1224 107.216C12.5097 109.784 0.980871 98.3639 0.0327241 89.7803C-0.0491233 91.3647 0.0324159 92.9533 0.276053 94.521C1.81994 104.774 11.8888 116.488 22.7966 117.319C31.1873 113.526 36.7923 103.491 37.5726 94.328L37.43 94.3029Z" fill="black"/>
<path d="M361.874 154.716C359.979 157.36 358.698 160.392 358.123 163.593C357.569 166.773 358.123 169.945 358.282 173.133C358.534 177.329 357.628 180.844 354.842 184.041C352.635 186.559 349.967 188.656 347.97 191.375C343.959 196.837 343.053 202.946 343.876 209.549C344.807 217.025 346.544 224.056 342.944 231.155C341.014 234.964 338.464 238.438 337.113 242.533C335.906 246.519 335.389 250.682 335.586 254.842C335.586 255.303 336.467 255.446 336.475 254.934C336.406 250.965 336.918 247.008 337.994 243.187C339.093 239.68 341.073 236.601 342.869 233.42C344.689 230.428 345.834 227.075 346.225 223.595C346.389 220.465 346.178 217.327 345.596 214.248C345.042 210.665 344.371 207.032 344.547 203.399C344.766 199.792 345.907 196.302 347.861 193.263C351.301 187.8 357.98 184.444 359.13 177.656C359.684 174.367 358.979 171.027 358.819 167.738C358.601 163.174 360.103 159.012 362.31 155.085C362.453 154.842 362.041 154.447 361.857 154.707L361.874 154.716Z" fill="#37474F"/>
<path d="M362.973 162.217C363.258 160.892 361.295 156.654 360.8 156.537C360.305 156.419 357.024 159.432 356.713 160.841C356.679 161.122 356.718 161.407 356.829 161.668C356.939 161.929 357.117 162.156 357.343 162.326C357.953 162.823 358.67 163.169 359.438 163.338C360.206 163.507 361.003 163.494 361.765 163.3C362.043 163.241 362.301 163.11 362.513 162.92C362.725 162.73 362.884 162.488 362.973 162.217Z" fill="#407BFF"/>
<path opacity="0.1" d="M362.973 162.217C363.258 160.892 361.295 156.654 360.8 156.537C360.305 156.419 357.024 159.432 356.713 160.841C356.679 161.122 356.718 161.407 356.829 161.668C356.939 161.929 357.117 162.156 357.343 162.326C357.953 162.823 358.67 163.169 359.438 163.338C360.206 163.507 361.003 163.494 361.765 163.3C362.043 163.241 362.301 163.11 362.513 162.92C362.725 162.73 362.884 162.488 362.973 162.217Z" fill="black"/>
<path d="M384.37 136.835C382.146 146.963 371.381 158.014 360.456 158.148C350.639 152.92 345.454 138.9 347.685 128.78C349.917 118.661 358.518 110.623 370.34 113.224C382.163 115.825 386.601 126.658 384.37 136.835Z" fill="#407BFF"/>
<path opacity="0.05" d="M347.307 134.192C347.307 134.192 347.903 144.513 359.759 147.936C371.187 151.234 383.42 140.577 384.931 132.069C384.904 133.658 384.718 135.241 384.377 136.793C382.153 146.921 371.388 157.971 360.464 158.106C352.325 153.776 347.382 143.405 347.189 134.209L347.307 134.192Z" fill="black"/>
<path d="M237.029 8.95287C233.11 8.5669 227.799 15.1116 231.642 18.2581C233.773 20.0034 238.413 19.2482 238.354 15.9843C238.345 15.8937 238.306 15.8088 238.244 15.7422C238.182 15.6756 238.1 15.631 238.01 15.6151C234.931 14.9103 231.877 16.236 232.397 19.8104C232.676 21.3513 233.47 22.752 234.648 23.7837C235.826 24.8155 237.319 25.4173 238.883 25.4909C239.068 25.4909 239 25.1721 238.883 25.1385C236.198 24.5763 233.664 22.9066 233.135 20.037C233.016 19.5291 233.006 19.0017 233.106 18.4896C233.205 17.9776 233.413 17.4925 233.714 17.0667C234.073 16.6353 234.548 16.3152 235.082 16.1437C235.543 16.001 237.196 15.7409 237.599 16.1437C238.321 16.8905 236.357 18.1575 235.77 18.3588C235.19 18.567 234.571 18.6448 233.958 18.5868C233.345 18.5288 232.751 18.3364 232.221 18.0232C230.593 16.8821 230.996 14.7341 231.784 13.2153C232.85 11.1596 234.713 9.48988 237.113 9.40597C237.331 9.40597 237.213 8.99483 237.045 8.97805L237.029 8.95287Z" fill="#407BFF"/>
<path d="M238.331 137.867C239.564 135.09 239.43 132.212 243.021 131.297C244.599 130.895 248.332 130.526 249.516 131.927C249.731 132.265 249.818 132.67 249.761 133.067C249.704 133.464 249.507 133.827 249.205 134.092C248.274 134.931 247.577 133.924 247.334 133.034C247.147 132.213 247.219 131.354 247.54 130.576C247.862 129.797 248.417 129.138 249.13 128.688C250.636 127.696 252.46 127.304 254.242 127.589C256.023 127.875 257.633 128.818 258.754 130.232C258.888 130.4 259.031 130.232 258.972 130.047C256.22 123.712 243.03 128.117 247.225 134.192C248.509 136.03 250.774 134.41 250.346 132.464C249.876 130.307 246.201 130.416 244.573 130.526C242.924 130.526 241.333 131.139 240.11 132.246C238.675 133.655 238.482 135.887 238.18 137.783C238.18 137.867 238.255 137.993 238.314 137.867H238.331Z" fill="#407BFF"/>
<path d="M332.414 1.64448C334.99 0.889322 338.531 1.09909 340.687 2.83596C342.365 4.17847 343.305 7.09004 340.847 8.08853C339.882 8.4745 336.702 8.4745 336.324 7.16555C336.056 6.25097 337.037 5.70557 337.826 5.58811C340.133 5.22731 342.298 7.6606 342.24 9.83379C342.164 13.0978 338.363 14.1802 335.678 14.2053C335.502 14.2053 335.544 14.541 335.678 14.5494C340.251 14.9941 345.352 10.7568 341.283 6.51108C340.192 5.36995 338.481 4.55605 336.903 5.18535C336.014 5.54615 335.309 6.35166 335.754 7.31658C336.467 8.86886 339.336 9.13736 340.729 8.743C341.098 8.64476 341.444 8.47183 341.743 8.23488C342.043 7.99794 342.291 7.70203 342.472 7.36545C342.653 7.02886 342.763 6.65875 342.795 6.278C342.827 5.89725 342.781 5.51395 342.659 5.15179C341.535 1.02357 335.754 0.117379 332.33 1.40115C332.229 1.40115 332.271 1.67805 332.389 1.64448H332.414Z" fill="#407BFF"/>
<path d="M366.17 174.853C368.746 174.098 372.287 174.308 374.444 176.045C376.122 177.387 377.061 180.299 374.603 181.297C373.638 181.683 370.458 181.683 370.08 180.366C369.812 179.46 370.794 178.914 371.574 178.789C373.89 178.436 376.046 180.87 375.996 183.043C375.92 186.307 372.119 187.389 369.434 187.414C369.258 187.414 369.3 187.75 369.434 187.758C374.007 188.203 379.109 183.966 375.039 179.72C373.948 178.579 372.237 177.765 370.659 178.394C369.77 178.747 369.065 179.561 369.51 180.525C370.223 182.078 373.093 182.346 374.485 181.944C374.855 181.847 375.201 181.676 375.501 181.44C375.802 181.204 376.05 180.909 376.231 180.573C376.412 180.237 376.522 179.867 376.554 179.486C376.586 179.105 376.538 178.722 376.415 178.361C375.291 174.224 369.51 173.326 366.086 174.61C365.986 174.61 366.019 174.887 366.145 174.853H366.17Z" fill="#407BFF"/>
<path d="M347.292 49.3958C344.221 50.3104 341.368 55.714 344.221 58.1725C346.646 60.2618 351.546 59.7919 350.732 55.8063C350.725 55.7609 350.705 55.7183 350.676 55.6829C350.646 55.6476 350.608 55.6206 350.565 55.6049C347.343 54.833 346.277 58.592 346.957 61.0757C348.005 64.9354 351.899 64.885 354.71 62.8713C354.802 62.8041 354.76 62.5356 354.626 62.6028C352.327 63.7523 349.105 64.7759 347.703 61.8392C346.957 60.2702 346.931 57.6439 348.375 56.4608C348.75 56.1105 349.246 55.9182 349.759 55.9238C350.833 56.0496 350.648 57.2076 350.044 57.9459C349.079 59.1206 347.141 58.9948 345.849 58.5417C341.427 56.9726 344.464 51.2418 347.351 49.6308C347.435 49.5804 347.418 49.3623 347.292 49.3958Z" fill="#407BFF"/>
<path d="M279 35.8953C275.375 35.4338 267.58 38.488 269.611 43.4469C270.693 46.0899 275.526 47.7849 277.112 44.7558C277.146 44.6733 277.147 44.5808 277.114 44.4978C277.081 44.4149 277.017 44.3479 276.936 44.3111C269.384 40.0319 261.43 52.3914 269.443 56.8972C269.695 57.0398 269.686 56.6119 269.543 56.5028C268.852 56.0294 268.262 55.423 267.808 54.7188C267.354 54.0147 267.044 53.227 266.898 52.402C266.752 51.5769 266.772 50.731 266.957 49.9137C267.142 49.0964 267.488 48.3242 267.974 47.6422C268.791 46.3389 269.953 45.2874 271.331 44.6048C272.363 44.1181 274.955 43.4301 275.92 44.437C276.357 44.9069 276.348 44.3195 276.122 44.8649C275.906 45.1888 275.577 45.4196 275.199 45.511C274.375 45.7726 273.486 45.743 272.682 45.4271C271.003 44.8397 269.686 43.2958 270.164 41.4415C271.045 37.7244 275.778 36.4071 279.092 36.3484C279.319 36.3484 279.176 35.9204 279 35.8953Z" fill="#407BFF"/>
<path d="M295.496 2.44165C295.496 2.44165 295.278 6.50274 298.29 8.75983L301.445 7.7949C301.445 7.7949 299.339 6.78802 298.29 2.44165H295.496Z" fill="#455A64"/>
<path d="M242.35 100.755C242.35 100.755 242.123 104.816 245.135 107.074L248.299 106.109C248.299 106.109 246.184 105.102 245.135 100.755H242.35Z" fill="#455A64"/>
<path d="M268.143 146.518C268.143 146.518 267.916 150.571 270.937 152.828L274.092 151.871C274.092 151.871 271.985 150.856 270.937 146.518H268.143Z" fill="#37474F"/>
<path d="M367.034 22.7891C367.034 22.7891 365.188 26.4139 361.454 26.8586L359.197 24.4421C359.197 24.4421 361.53 24.6267 364.618 21.3962L367.034 22.7891Z" fill="#455A64"/>
<path d="M345.395 152.391C345.395 152.391 343.558 156.016 339.816 156.453L337.559 154.044C337.559 154.044 339.9 154.221 342.979 150.99L345.395 152.391Z" fill="#455A64"/>
<path d="M293.751 76.2628C293.751 76.2628 291.913 79.8876 288.171 80.3239L285.914 77.9158C285.914 77.9158 288.255 78.092 291.334 74.8616L293.751 76.2628Z" fill="#407BFF"/>
<path d="M260.18 31.5323C260.18 31.5323 258.343 35.157 254.609 35.6017L252.352 33.1852C252.352 33.1852 254.684 33.3698 257.772 30.1394L260.18 31.5323Z" fill="#455A64"/>
<path d="M329.897 36.9862C329.897 36.9862 325.861 37.4897 323.402 34.6284L324.149 31.4148C324.149 31.4148 325.299 33.4537 329.704 34.2005L329.897 36.9862Z" fill="#407BFF"/>
<path d="M271.381 17.1756C271.381 17.1756 267.353 17.679 264.895 14.8262L265.633 11.6125C265.633 11.6125 266.791 13.6431 271.196 14.3983L271.381 17.1756Z" fill="#407BFF"/>
<path d="M203.525 8.36551C203.525 8.36551 199.498 8.86896 197.039 6.01612L197.777 2.80249C197.777 2.80249 198.935 4.83304 203.332 5.5882L203.525 8.36551Z" fill="#407BFF"/>
<path d="M251.806 62.5021C251.806 62.5021 247.779 62.9971 245.32 60.1443L246.059 56.9307C246.059 56.9307 247.217 58.9696 251.622 59.7164L251.806 62.5021Z" fill="#407BFF"/>
<path d="M372.539 92.5492C372.539 92.5492 368.503 93.0442 366.053 90.1914L366.791 86.9778C366.791 86.9778 367.949 89.0167 372.346 89.7635L372.539 92.5492Z" fill="#407BFF"/>
<path d="M302.267 51.8795C302.267 51.8795 300.429 55.5043 296.687 55.949L294.43 53.5325C294.43 53.5325 297.19 53.9604 300.303 50.73L302.267 51.8795Z" fill="#455A64"/>
<path d="M306.327 57.2329C306.327 57.2329 305.606 61.2352 302.132 62.7288L299.279 61.0507C301.298 60.1399 302.975 58.6122 304.07 56.6875L306.327 57.2329Z" fill="#37474F"/>
<path d="M164.508 5.81471C168.435 5.42874 173.738 11.9651 169.895 15.1116C167.772 16.8652 163.123 16.1017 163.182 12.8377C163.193 12.7487 163.233 12.6656 163.295 12.6007C163.357 12.5357 163.438 12.4924 163.526 12.4769C166.614 11.7721 169.66 13.0894 169.139 16.6723C168.862 18.2116 168.07 19.611 166.893 20.6414C165.716 21.6719 164.224 22.2723 162.662 22.3444C162.469 22.3444 162.536 22.0255 162.662 22.0003C165.347 21.4298 167.881 19.76 168.401 16.8904C168.522 16.3841 168.534 15.8575 168.434 15.3465C168.334 14.8355 168.125 14.3519 167.822 13.9285C167.459 13.4823 166.971 13.155 166.421 12.9887C165.968 12.8461 164.306 12.586 163.946 12.9887C163.216 13.7439 165.187 15.0025 165.775 15.2039C166.353 15.4148 166.971 15.4941 167.583 15.4361C168.196 15.378 168.788 15.184 169.316 14.8683C170.943 13.7355 170.541 11.5875 169.752 10.0604C168.695 8.01307 166.824 6.33494 164.424 6.25942C164.214 6.25942 164.323 5.84827 164.491 5.83149L164.508 5.81471Z" fill="#407BFF"/>
<path d="M158.216 143.355C156.982 140.577 157.108 137.699 153.525 136.776C151.948 136.374 148.214 136.004 147.022 137.414C146.809 137.752 146.723 138.154 146.78 138.55C146.837 138.945 147.033 139.307 147.333 139.57C148.273 140.41 149.011 139.403 149.212 138.522C149.4 137.699 149.329 136.839 149.007 136.059C148.685 135.279 148.13 134.618 147.417 134.167C145.906 133.163 144.072 132.765 142.28 133.053C140.489 133.341 138.872 134.293 137.751 135.719C137.625 135.879 137.482 135.719 137.541 135.535C140.293 129.2 153.483 133.605 149.288 139.68C148.004 141.517 145.73 139.889 146.158 137.951C146.636 135.795 150.354 135.904 151.931 136.004C153.583 136.008 155.175 136.621 156.403 137.725C157.838 139.143 158.031 141.374 158.333 143.262C158.333 143.355 158.258 143.472 158.199 143.355H158.216Z" fill="#407BFF"/>
<path d="M55.1018 1.64448C52.5259 0.889322 48.985 1.09909 46.8202 2.83596C45.1421 4.17847 44.2107 7.09004 46.6692 8.08853C47.6341 8.4745 50.8142 8.4745 51.1918 7.16555C51.4603 6.25097 50.4786 5.70557 49.6899 5.58811C47.3824 5.22731 45.2176 7.6606 45.268 9.83379C45.3519 13.0978 49.1529 14.1802 51.8379 14.2053C52.0141 14.2053 51.9721 14.541 51.8379 14.5494C47.2649 14.9941 42.1634 10.7568 46.2245 6.51108C47.3237 5.36995 49.0354 4.55605 50.6128 5.18535C51.5022 5.54615 52.2071 6.35166 51.7624 7.31658C51.0491 8.86886 48.1795 9.13736 46.7867 8.743C46.4174 8.64476 46.0722 8.47183 45.7724 8.23488C45.4727 7.99794 45.2247 7.70203 45.0438 7.36545C44.8629 7.02886 44.753 6.65875 44.7209 6.278C44.6887 5.89725 44.735 5.51395 44.8568 5.15179C45.9812 1.02357 51.754 0.117379 55.1858 1.40115C55.2864 1.40115 55.2445 1.67805 55.127 1.64448H55.1018Z" fill="#407BFF"/>
<path d="M25.1388 171.749C22.5628 170.994 19.0219 171.203 16.8571 172.94C15.179 174.283 14.2393 177.194 16.7061 178.193C17.671 178.579 20.8427 178.579 21.2287 177.27C21.4888 176.355 20.5071 175.81 19.7268 175.692C17.4109 175.332 15.2545 177.765 15.3049 179.938C15.3804 183.202 19.1814 184.285 21.8664 184.31C22.051 184.31 22.0006 184.645 21.8664 184.662C17.2935 185.098 12.1919 180.861 16.253 176.615C17.3522 175.474 19.0555 174.66 20.633 175.29C21.5308 175.651 22.2356 176.456 21.7909 177.421C21.0777 178.973 18.1997 179.242 16.8068 178.847C16.4376 178.749 16.0926 178.576 15.7931 178.339C15.4936 178.102 15.246 177.806 15.0658 177.469C14.8856 177.132 14.7766 176.762 14.7455 176.381C14.7145 176.001 14.7621 175.618 14.8853 175.256C16.0013 171.128 21.7825 170.264 25.2143 171.506C25.315 171.506 25.273 171.782 25.1555 171.749H25.1388Z" fill="#407BFF"/>
<path d="M31.7422 50.9483C34.8132 51.8629 37.666 57.2665 34.8132 59.725C32.3883 61.8226 27.4881 61.3444 28.302 57.3588C28.3112 57.314 28.3313 57.2721 28.3606 57.237C28.3899 57.2019 28.4274 57.1745 28.4698 57.1574C31.6919 56.3939 32.7575 60.1529 32.0778 62.6365C31.029 66.4879 27.1357 66.4459 24.3248 64.4237C24.2325 64.3566 24.2745 64.0965 24.4087 64.1636C26.7078 65.3132 29.9298 66.3284 31.3311 63.3917C32.0778 61.8226 32.103 59.1964 30.6598 58.0217C30.2853 57.669 29.7897 57.4738 29.2753 57.4763C28.2013 57.6021 28.3859 58.7684 28.9901 59.4984C29.955 60.6731 31.8932 60.5473 33.1854 60.0942C37.6073 58.5335 34.5699 52.7943 31.6835 51.1833C31.5996 51.1329 31.6163 50.9148 31.7422 50.9483Z" fill="#407BFF"/>
<path d="M41.5014 119.668C36.274 120.087 37.2137 130.014 41.4342 131.356C41.6936 131.449 41.9689 131.489 42.244 131.475C42.5191 131.46 42.7886 131.392 43.0369 131.272C43.3465 131.044 43.5951 130.744 43.7605 130.397C43.9259 130.05 44.003 129.667 43.985 129.284C43.4816 127.605 40.6287 129.737 40.3015 130.4C39.7583 131.273 39.5047 132.296 39.5771 133.322C39.6494 134.348 40.0439 135.325 40.7042 136.114C42.8523 138.438 46.9637 138.513 49.6487 137.171C49.783 137.095 49.8081 137.355 49.7158 137.423C46.8211 139.277 41.9712 139.008 39.8232 136.072C38.1451 133.722 39.2946 127.488 43.0369 128.042C46.5274 128.554 44.1109 132.531 41.4678 132.002C38.8247 131.474 37.8682 127.966 37.6165 125.793C37.2976 123.058 38.1115 119.366 41.5014 119.425C41.6104 119.425 41.6021 119.659 41.5014 119.668Z" fill="#407BFF"/>
<path d="M107.151 35.8953C110.775 35.4338 118.57 38.488 116.54 43.4469C115.457 46.0899 110.624 47.7849 109.038 44.7558C109.004 44.6733 109.004 44.5808 109.037 44.4978C109.069 44.4149 109.133 44.3479 109.215 44.3111C116.766 40.0319 124.721 52.3914 116.708 56.8972C116.456 57.0398 116.464 56.6119 116.607 56.5028C117.299 56.0294 117.891 55.4225 118.345 54.7177C118.8 54.0129 119.11 53.2243 119.256 52.3982C119.402 51.5721 119.382 50.7252 119.197 49.9071C119.011 49.089 118.664 48.3161 118.176 47.6338C117.36 46.3305 116.198 45.279 114.82 44.5964C113.788 44.1097 111.195 43.4217 110.23 44.4286C109.794 44.8985 109.802 44.3111 110.029 44.8565C110.244 45.1804 110.573 45.4112 110.952 45.5026C111.775 45.7642 112.664 45.7346 113.469 45.4187C115.147 44.8313 116.464 43.2875 115.986 41.4331C115.105 37.716 110.373 36.3987 107.058 36.34C106.832 36.34 106.974 35.9121 107.151 35.8869V35.8953Z" fill="#407BFF"/>
<path d="M92.4412 9.82553C92.4412 9.82553 92.6677 13.8866 89.6471 16.1437L86.4922 15.1704C86.4922 15.1704 88.5982 14.1635 89.6471 9.81714L92.4412 9.82553Z" fill="#455A64"/>
<path d="M157.644 110.329C157.644 110.329 157.871 114.39 154.85 116.647L151.695 115.691C151.695 115.691 153.801 114.675 154.85 110.329H157.644Z" fill="#455A64"/>
<path d="M145.176 158.869C145.176 158.869 145.394 162.93 142.381 165.187L139.227 164.222C139.227 164.222 141.333 163.216 142.381 158.869H145.176Z" fill="#37474F"/>
<path d="M19.1152 22.7891C19.1152 22.7891 20.9612 26.4139 24.695 26.8586L26.9941 24.4421C26.9941 24.4421 24.6615 24.6267 21.5737 21.3962L19.1152 22.7891Z" fill="#455A64"/>
<path d="M58.1484 147.97C58.1484 147.97 59.986 151.595 63.7282 152.039L65.9853 149.623C65.9853 149.623 63.6443 149.807 60.565 146.577L58.1484 147.97Z" fill="#455A64"/>
<path d="M97.8867 80.9617C97.8867 80.9617 99.7243 84.5865 103.467 85.0312L105.715 82.6147C105.715 82.6147 103.383 82.7993 100.303 79.5688L97.8867 80.9617Z" fill="#407BFF"/>
<path d="M134.395 33.5208C134.395 33.5208 136.232 37.1456 139.974 37.5903L142.223 35.1737C142.223 35.1737 139.89 35.3583 136.811 32.1279L134.395 33.5208Z" fill="#455A64"/>
<path d="M56.2441 36.9862C56.2441 36.9862 60.2801 37.4897 62.7385 34.6284L61.9918 31.4148C61.9918 31.4148 60.8422 33.4537 56.4371 34.2005L56.2441 36.9862Z" fill="#407BFF"/>
<path d="M125.164 5.56302C125.164 5.56302 129.2 6.06647 131.658 3.21363L130.92 0C130.92 0 129.762 2.03055 125.357 2.78571L125.164 5.56302Z" fill="#407BFF"/>
<path d="M134.318 59.1124C134.318 59.1124 138.346 59.6075 140.804 56.7546L140.066 53.541C140.066 53.541 138.908 55.58 134.503 56.3267L134.318 59.1124Z" fill="#407BFF"/>
<path d="M3.5 138.899C3.5 138.899 7.53592 139.403 9.99439 136.55L9.25601 133.328C9.25601 133.328 8.09809 135.367 3.69299 136.114L3.5 138.899Z" fill="#407BFF"/>
<path d="M83.8828 51.8795C83.8828 51.8795 85.7204 55.5043 89.4626 55.949L91.7197 53.5325C91.7197 53.5325 88.9592 53.9604 85.8462 50.73L83.8828 51.8795Z" fill="#455A64"/>
<path d="M79.8555 57.2329C79.8555 57.2329 80.5771 61.2352 84.0508 62.7288L86.9036 61.0507C84.8851 60.1399 83.2076 58.6122 82.1126 56.6875L79.8555 57.2329Z" fill="#37474F"/>
<path d="M212.327 36.3485C212.327 36.3485 210.49 39.9733 206.747 40.418L204.49 38.0099C204.49 38.0099 207.251 38.4294 210.364 35.199L212.327 36.3485Z" fill="#455A64"/>
<path d="M194.238 32.0019C194.238 32.0019 193.516 36.0043 190.042 37.5062L187.189 35.8281C189.21 34.9161 190.888 33.3851 191.981 31.4565L194.238 32.0019Z" fill="#37474F"/>
<path d="M300.967 231.046C301.054 233.92 301.391 236.781 301.974 239.596C303.367 257.132 305.188 261.252 307.286 273.394C307.512 274.753 308.058 277.446 308.125 278.344C308.225 279.477 308.746 288.044 309.207 290.594C309.87 294.337 316.087 294.429 316.566 290.083C316.885 287.188 316.113 279.552 316.054 278.159C316.054 278.159 316.054 275.693 316.054 274.493C316.054 269.039 316.952 258.55 317.472 249.077C317.866 241.937 316.39 238.388 315.508 234.813C315.508 234.813 317.304 223.242 319.486 210.48C321.667 197.718 326.979 183.101 316.356 171.539L301.697 176.573C301.697 176.573 300.195 200 300.766 219.047C300.884 224.484 300.976 228.386 300.967 231.046Z" fill="#FFBDA7"/>
<path d="M294.161 251.704C296.418 254.699 297.862 258.332 299.347 261.772C298.696 263.574 297.828 265.29 296.762 266.882L290.771 259.071C291.938 256.612 293.045 254.154 294.161 251.704Z" fill="#263238"/>
<path d="M296.763 266.891C294.103 266.891 291.435 266.891 288.767 266.891C287.432 265.171 286.082 263.467 284.756 261.747C287.542 261.831 290.327 261.999 293.147 262.075L296.763 266.891Z" fill="black"/>
<path d="M287.104 248.339C288.782 247.106 288.933 248.574 290.377 249.245C291.383 249.715 293.062 250.344 294.043 251.687C295.419 253.566 294.337 256.914 293.666 259.322C293.024 261.666 293.051 264.142 293.741 266.471C294.538 269.945 294.463 272.781 291.803 275.818C289.68 278.252 282.942 281.205 280.627 279.703C276.675 277.186 282.473 271.548 282.389 268.191C282.289 263.917 281.727 259.666 280.711 255.513C280.559 254.85 280.484 254.145 280.887 253.835C282.691 252.215 285.426 249.572 287.104 248.339Z" fill="#37474F"/>
<path d="M290.068 171.522C286.837 175.34 271.248 194.689 267.186 201.309C264.518 205.656 266.347 211.378 267.824 216.161C269.746 222.546 272.481 229.846 274.084 234.553C277.079 243.33 279.294 247.978 281.702 255.58C283.095 257.032 285.587 255.781 286.963 254.808C288.146 253.969 289.413 250.999 289.262 249.505C288.826 245.176 288.885 244.471 288.331 239.436C287.492 231.398 287.643 218.846 282.181 211.588C290.362 202.517 299.331 196.149 305.297 185.535C298.853 182.061 294.775 165.959 290.068 171.522Z" fill="#FFBDA7"/>
<path d="M307.964 277.228C306.949 277.354 306.899 278.168 306.865 282.128C306.921 286.359 306.663 290.588 306.093 294.781C305.355 299.237 304.575 304.011 308.208 307.955C310.339 310.279 313.838 310.824 316.305 307.065C318.604 303.566 320.055 300.252 318.939 296.275C317.91 292.873 317.318 289.355 317.177 285.803C317.001 280.274 317.312 277.32 316.053 277.329V278.168C315.642 278.898 314.375 279.846 312.143 279.938C309.626 280.039 308.493 279.099 308.124 278.352C308.082 277.975 308.023 277.606 307.964 277.228Z" fill="#37474F"/>
<path d="M290.503 167.881C288.892 170.926 283.38 177.329 276.936 186.13C272.48 192.222 264.669 201.469 264.257 206.008C263.846 210.547 274.804 237.75 274.804 237.75C274.804 237.75 283.942 238.824 288.07 234.217C288.213 226.607 287.231 217.36 283.187 211.982C284.982 210.161 297.98 196.627 300.346 193.799C300.346 193.799 299.96 207.124 299.935 214.675C299.909 222.227 300.774 237.33 301.428 242.163C302.083 246.996 302.964 254.17 303.341 256.427C303.341 256.427 308.988 261.647 317.605 256.251C317.605 256.251 318.444 248.633 318.176 245.268C317.907 241.903 316.758 237.842 316.07 234.939C316.07 234.939 319.426 214.432 321.062 205.345C322.698 196.258 325.803 182.363 317.589 169.03C317.622 169.022 302.091 174.123 290.503 167.881Z" fill="#455A64"/>
<path d="M300.347 193.783C300.347 193.783 295.136 190.477 292.98 186.651C292.98 186.651 294.112 191.198 297.175 193.783L287.945 207.023L300.347 193.783Z" fill="#37474F"/>
<path d="M269.576 112.125C276.037 126.825 284.78 131.952 288.875 141.383C294.044 140.972 301.142 132.363 297.224 127.068C292.802 125.264 278.387 109.951 277.48 103.432C276.683 97.6423 273.453 88.6559 273.537 83.8313C273.571 83.027 273.892 82.2617 274.443 81.6748C276.012 79.9464 275.995 78.5787 276.96 76.6404C277.732 75.1637 278.596 74.6015 278.345 74.2743C278.015 73.9275 277.566 73.7183 277.088 73.6887C276.61 73.6592 276.139 73.8114 275.769 74.1148C275.037 74.6499 274.387 75.2887 273.839 76.0111C274.085 74.2073 274.585 72.4474 275.324 70.7837C277.002 66.7898 276.583 64.7676 271.238 66.2444C267.882 67.1758 265.809 69.995 265.406 78.0836C265.214 81.4378 265.234 84.8008 265.465 88.1525C266.128 94.3616 266.833 100.311 267.663 105.446C268.012 107.745 268.655 109.989 269.576 112.125Z" fill="#FFBDA7"/>
<path d="M289.891 163.761C289.429 161.596 288.884 157.51 288.557 154.531C283.111 149.43 284.638 143.867 286.618 139.772C290.579 131.583 294.413 126.934 297.996 127.069L307.813 127.798C313.167 128.428 316.833 129.04 318.125 129.317C321.431 130.039 321.331 132.439 321.482 135.937C321.89 139.541 321.768 143.185 321.121 146.753L316.607 156.511L316.204 162.519C316.204 162.519 321.675 173.503 322.665 180.635C319.929 179.844 317.486 178.265 315.642 176.095C315.642 176.095 311.388 182.514 300.832 183.043C290.277 183.571 285.058 174.191 285.058 174.191L289.891 163.761Z" fill="#407BFF"/>
<path opacity="0.1" d="M310.992 151.536C310.218 153.034 309.026 154.277 307.561 155.114C306.096 155.951 304.421 156.346 302.736 156.251C301.11 156.215 299.523 155.749 298.135 154.902C296.747 154.055 295.608 152.856 294.832 151.427C294.832 151.427 295.142 157.871 302.753 157.795C310.363 157.72 310.992 151.536 310.992 151.536Z" fill="black"/>
<path d="M313.426 90.9549C317.017 92.8092 318.855 95.0411 321.817 95.8634C324.779 96.6857 327.17 95.8047 329.369 93.9755C331.886 91.903 333.077 89.2851 335.687 87.6741C338.296 86.0631 341.56 85.0646 344.455 86.0547C348.08 87.2881 350.094 91.173 351.033 94.8817C352.191 99.4882 351.755 104.674 349.145 108.71C344.401 115.876 337.316 121.173 329.1 123.695C319.009 126.77 308.116 125.792 298.734 120.968C294.874 118.988 293.633 117.268 290.839 114.054C288.044 110.841 287.004 106.914 287.877 101.712C288.716 96.736 291.367 93.5308 296.444 90.8709C299.052 89.453 301.977 88.7172 304.946 88.7319C307.915 88.7465 310.832 89.5112 313.426 90.9549Z" fill="#407BFF"/>
<path opacity="0.5" d="M313.426 90.9549C317.017 92.8092 318.855 95.0411 321.817 95.8634C324.779 96.6857 327.17 95.8047 329.369 93.9755C331.886 91.903 333.077 89.2851 335.687 87.6741C338.296 86.0631 341.56 85.0646 344.455 86.0547C348.08 87.2881 350.094 91.173 351.033 94.8817C352.191 99.4882 351.755 104.674 349.145 108.71C344.401 115.876 337.316 121.173 329.1 123.695C319.009 126.77 308.116 125.792 298.734 120.968C294.874 118.988 293.633 117.268 290.839 114.054C288.044 110.841 287.004 106.914 287.877 101.712C288.716 96.736 291.367 93.5308 296.444 90.8709C299.052 89.453 301.977 88.7172 304.946 88.7319C307.915 88.7465 310.832 89.5112 313.426 90.9549Z" fill="black"/>
<path d="M295.101 97.2312C293.238 98.2716 290.906 102.828 290.855 112.511C290.855 120.708 293.457 122.798 294.774 123.419C296.091 124.039 298.676 123.737 301.184 123.419L301.067 128.344C301.067 128.344 293.977 135.736 299.708 136.6C302.569 137.037 306.236 135.308 308.719 133.437C310.318 132.122 311.472 130.347 312.025 128.352L312.227 117.646C312.227 117.646 313.661 119.114 316.212 116.991C318.318 115.238 319.082 112.217 317.513 110.547C317.105 110.15 316.609 109.855 316.065 109.687C315.522 109.519 314.946 109.483 314.385 109.582C313.825 109.68 313.296 109.91 312.842 110.253C312.387 110.596 312.021 111.042 311.773 111.554C311.773 111.554 310.305 111.638 308.904 108.877C306.44 109.088 303.975 108.474 301.898 107.132C300.157 106.024 298.657 104.576 297.489 102.875C296.322 101.174 295.509 99.254 295.101 97.2312Z" fill="#FFBDA7"/>
<path d="M301.504 110.186C301.48 110.463 301.567 110.738 301.744 110.951C301.921 111.165 302.176 111.3 302.452 111.327C302.732 111.341 303.006 111.244 303.215 111.057C303.424 110.87 303.551 110.609 303.568 110.329C303.577 110.193 303.56 110.057 303.517 109.929C303.473 109.8 303.405 109.681 303.316 109.578C303.227 109.476 303.118 109.392 302.997 109.331C302.875 109.271 302.743 109.235 302.607 109.226C302.472 109.216 302.336 109.234 302.207 109.277C302.078 109.32 301.959 109.388 301.856 109.477C301.754 109.567 301.67 109.675 301.61 109.797C301.549 109.918 301.513 110.051 301.504 110.186Z" fill="#263238"/>
<g style="mix-blend-mode:multiply" opacity="0.5">
<path d="M300.059 117.016L296.82 117.964C296.876 118.18 296.974 118.381 297.108 118.558C297.242 118.735 297.41 118.884 297.602 118.996C297.794 119.107 298.006 119.18 298.226 119.209C298.446 119.238 298.67 119.223 298.884 119.164C299.32 119.028 299.687 118.728 299.906 118.328C300.125 117.927 300.18 117.457 300.059 117.016Z" fill="#F0997A"/>
</g>
<path d="M292.265 106.755L294.388 105.362C294.304 105.218 294.192 105.092 294.059 104.993C293.925 104.894 293.773 104.824 293.611 104.786C293.449 104.748 293.281 104.744 293.117 104.774C292.953 104.804 292.797 104.867 292.659 104.959C292.376 105.151 292.177 105.444 292.103 105.778C292.03 106.112 292.088 106.462 292.265 106.755Z" fill="#263238"/>
<path d="M303.047 106.629L305.396 107.602C305.472 107.451 305.515 107.285 305.524 107.116C305.532 106.947 305.505 106.778 305.444 106.62C305.383 106.462 305.29 106.319 305.17 106.199C305.051 106.079 304.908 105.985 304.75 105.924C304.43 105.8 304.074 105.804 303.757 105.935C303.44 106.066 303.186 106.315 303.047 106.629Z" fill="#263238"/>
<path d="M292.76 109.75C292.754 109.952 292.808 110.151 292.914 110.323C293.02 110.495 293.175 110.632 293.358 110.717C293.542 110.802 293.746 110.831 293.946 110.801C294.146 110.771 294.333 110.683 294.483 110.547C294.633 110.412 294.74 110.235 294.791 110.04C294.842 109.844 294.834 109.638 294.768 109.446C294.703 109.255 294.582 109.087 294.422 108.964C294.262 108.84 294.069 108.766 293.868 108.751C293.729 108.744 293.591 108.763 293.46 108.809C293.329 108.855 293.209 108.927 293.106 109.02C293.003 109.112 292.919 109.225 292.86 109.35C292.8 109.476 292.767 109.611 292.76 109.75Z" fill="#263238"/>
<g style="mix-blend-mode:multiply" opacity="0.5">
<path d="M297.719 109.28L297.409 115.481L294.17 114.39L297.719 109.28Z" fill="#F0997A"/>
</g>
<g style="mix-blend-mode:multiply" opacity="0.5">
<path d="M301.186 123.41C303.837 123.133 309.291 121.732 310.189 119.575C309.827 120.654 309.142 121.594 308.226 122.269C306.548 123.62 301.152 125.055 301.152 125.055L301.186 123.41Z" fill="#F0997A"/>
</g>
<path d="M311.773 111.512L311.673 115.816C311.287 115.808 310.908 115.723 310.555 115.567C310.203 115.412 309.884 115.188 309.619 114.909C309.353 114.63 309.145 114.301 309.006 113.941C308.868 113.581 308.802 113.198 308.812 112.813L308.904 108.835L311.773 111.512Z" fill="#407BFF"/>
<path opacity="0.5" d="M311.773 111.512L311.673 115.816C311.287 115.808 310.908 115.723 310.555 115.567C310.203 115.412 309.884 115.188 309.619 114.909C309.353 114.63 309.145 114.301 309.006 113.941C308.868 113.581 308.802 113.198 308.812 112.813L308.904 108.835L311.773 111.512Z" fill="black"/>
<path d="M339.739 113.341C333.639 128.193 326.087 137.288 321.162 146.787C312.771 147.282 312.008 134.318 315.792 128.931C315.792 128.931 330.375 111.311 331.667 104.842C332.808 99.1107 335.342 89.9732 335.132 85.1486C335.087 84.3447 334.746 83.5859 334.176 83.0174C332.573 81.3392 332.557 79.9548 331.508 78.0753C330.669 76.6153 329.83 76.0783 330.065 75.7426C330.387 75.3872 330.832 75.1671 331.31 75.1266C331.788 75.0861 332.263 75.2283 332.64 75.5245C333.383 76.0416 334.047 76.6634 334.612 77.3704C334.32 75.5752 333.778 73.8297 333.001 72.185C331.197 68.233 331.6 66.194 336.978 67.5449C340.335 68.384 342.491 71.1697 343.095 79.2416C343.369 82.5906 343.428 85.9538 343.271 89.3104C342.768 95.5363 342.197 101.494 341.501 106.654C341.2 108.949 340.608 111.196 339.739 113.341Z" fill="#FFBDA7"/>
<path d="M172.555 288.9C173.167 290.528 174.082 292.147 175.911 292.751C179.67 294.001 184.553 290.771 186.576 288.363C189.026 285.443 189.395 282.33 191.19 279.905C192.986 277.48 195.52 275.945 196.745 273.847C197.249 273.063 197.547 272.164 197.61 271.233C197.673 270.303 197.5 269.372 197.106 268.527C196.529 267.476 195.653 266.621 194.589 266.069C194.312 265.901 193.825 265.884 193.523 265.716L172.555 288.9Z" fill="#263238"/>
<path d="M180.365 273.604C180.104 275.112 179.514 276.544 178.637 277.799C177.076 279.88 175.071 281.415 173.233 283.219C172.571 283.752 172.033 284.422 171.656 285.183C170.884 287.196 171.79 288.824 173.208 290.393C173.827 290.958 174.572 291.366 175.381 291.585C176.573 291.912 177.831 291.912 179.023 291.585C181.32 290.797 183.375 289.43 184.988 287.616C188.168 284.058 187.967 279.385 191.76 276.263C195.552 273.142 198.103 269.811 194.235 265.783C192.355 263.82 190.258 262.981 189.696 262.276C188.689 261.026 186.339 263.216 185.593 263.854C184.846 264.491 184.124 265.246 183.361 265.918C182.658 266.709 182.013 267.55 181.431 268.435C181.189 268.682 180.988 268.965 180.835 269.274C180.703 269.685 180.652 270.118 180.684 270.549C180.68 271.576 180.573 272.599 180.365 273.604Z" fill="#37474F"/>
<path d="M185.048 287.591C185.49 287.125 185.889 286.619 186.239 286.08C185.641 284.282 184.46 282.735 182.883 281.684C181.905 281.02 180.797 280.571 179.632 280.369C178.468 280.166 177.273 280.214 176.128 280.509C174.966 281.223 173.868 282.037 172.848 282.942C172.18 283.519 171.674 284.259 171.379 285.09C171.116 286.069 171.155 287.105 171.49 288.062C171.826 289.018 172.442 289.851 173.259 290.452C173.848 290.996 174.568 291.377 175.348 291.56C176.543 291.887 177.803 291.887 178.998 291.56C181.303 290.74 183.378 289.379 185.048 287.591Z" fill="#FAFAFA"/>
<path d="M187.037 255.916L189.303 262.855C189.303 262.855 191.039 265.129 188.304 267.764C185.569 270.398 182.506 270.281 181.189 268.678L177.287 261.311L187.037 255.916Z" fill="#B16668"/>
<path d="M244.084 241.887C245.083 242.356 247.717 242.533 249.169 241.543C252.198 239.478 252.844 233.395 251.896 230.031C250.738 225.953 248.472 223.889 247.7 221.439C246.929 218.988 247.138 215.481 246.115 213.342C245.699 212.513 245.109 211.783 244.384 211.204C243.66 210.625 242.819 210.209 241.919 209.985C241.349 209.829 240.75 209.805 240.169 209.914C239.587 210.023 239.038 210.263 238.563 210.615L237.648 211.286L244.084 241.887Z" fill="#263238"/>
<path d="M236.382 226.481C237.456 227.592 238.248 228.944 238.689 230.425C239.461 232.858 239.528 235.459 239.855 237.977C239.924 238.82 240.143 239.644 240.501 240.41C241.424 242.18 243.53 242.508 245.628 242.239C246.464 242.058 247.248 241.688 247.919 241.157C248.888 240.393 249.629 239.377 250.058 238.22C250.778 235.881 250.888 233.397 250.377 231.004C249.614 226.456 245.041 223.452 245.099 218.972C245.158 214.491 242.532 208.693 236.893 211.663C234.092 213.225 231.545 215.206 229.342 217.537C230.684 219.551 232.06 221.556 233.378 223.587C233.633 224.101 233.958 224.578 234.343 225.005C234.922 225.516 235.677 225.793 236.256 226.347L236.382 226.481Z" fill="#37474F"/>
<path d="M250.378 231.08C250.267 230.453 250.09 229.84 249.85 229.25C248.073 228.628 246.135 228.646 244.371 229.301C243.226 229.657 242.181 230.278 241.321 231.114C240.461 231.949 239.81 232.975 239.42 234.109C239.303 235.468 239.303 236.835 239.42 238.195C239.506 239.071 239.794 239.915 240.259 240.662C241.493 242.449 243.481 242.583 245.579 242.34C246.414 242.157 247.198 241.787 247.87 241.258C248.837 240.492 249.577 239.477 250.009 238.321C250.75 235.978 250.877 233.485 250.378 231.08Z" fill="#FAFAFA"/>
<path d="M230.619 214.785L234.168 214.634C235.086 215.044 235.893 215.667 236.523 216.45C237.153 217.234 237.588 218.155 237.793 219.14C237.956 220.151 237.908 221.186 237.651 222.178C237.394 223.171 236.933 224.099 236.299 224.904L230.426 225.676L230.602 215.02" fill="#B16668"/>
<path d="M230.886 214.332L206.377 214.575C206.377 214.575 210.824 181.692 209.356 162.444L170.02 157.921L169.903 158.164C163.451 175.34 156.637 197.743 152.929 214.625C151.787 219.828 152.375 221.246 156.419 228.89C162.1 239.613 171.766 253.961 178.688 264.852C184.159 264.365 187.079 262.704 188.337 258.181C184.041 248.171 180.408 226.574 170.717 217.411C176.129 207.762 181.205 196.678 186.374 186.03C186.533 192.81 187.213 215.037 189.571 224.191C191.031 229.938 194.219 233.37 200.579 232.355C209.44 230.937 232.85 225.693 232.85 225.693C237.549 225.021 236.374 216.236 230.886 214.332Z" fill="#407BFF"/>
<path opacity="0.2" d="M230.886 214.332L206.377 214.575C206.377 214.575 210.824 181.692 209.356 162.444L170.02 157.921L169.903 158.164C163.451 175.34 156.637 197.743 152.929 214.625C151.787 219.828 152.375 221.246 156.419 228.89C162.1 239.613 171.766 253.961 178.688 264.852C184.159 264.365 187.079 262.704 188.337 258.181C184.041 248.171 180.408 226.574 170.717 217.411C176.129 207.762 181.205 196.678 186.374 186.03C186.533 192.81 187.213 215.037 189.571 224.191C191.031 229.938 194.219 233.37 200.579 232.355C209.44 230.937 232.85 225.693 232.85 225.693C237.549 225.021 236.374 216.236 230.886 214.332Z" fill="black"/>
<path opacity="0.2" d="M206.402 214.575C206.402 214.575 206.738 219.014 204.842 222.328C206.185 221.069 207.226 219.523 207.888 217.805C208.895 215.07 216.748 215.716 222.622 214.449L206.402 214.575Z" fill="black"/>
<path opacity="0.2" d="M186.366 186.047L185.98 179.854C182.625 177.933 179.646 175.42 177.186 172.437C179.084 175.456 181.446 178.157 184.184 180.442L184.771 184.822L176.213 207.091L186.366 186.047Z" fill="black"/>
<path opacity="0.2" d="M170.726 217.386C170.197 218.156 169.528 218.819 168.754 219.341C171.045 220.596 173.064 222.293 174.695 224.333C176.467 226.744 178.081 229.266 179.528 231.885C177.187 226.163 174.409 220.893 170.726 217.386Z" fill="black"/>
<path d="M155.908 92.2724C157.116 95.3854 172.035 117.444 175.617 122.722C185.804 118.376 179.024 106.402 179.024 106.402C179.024 106.402 168.318 89.0756 166.581 86.1556C166.172 85.4111 165.915 84.5924 165.826 83.7475C165.607 82.2036 164.852 63.2574 165.775 57.535C165.948 56.5189 166.488 55.602 167.294 54.959C169.434 53.2222 170.18 51.6028 171.699 49.5722C172.882 47.9696 174.006 47.4662 173.763 47.055C173.438 46.5866 172.947 46.2587 172.39 46.1373C171.833 46.0159 171.25 46.1099 170.759 46.4006C169.652 47.0059 168.621 47.7411 167.688 48.5905C168.228 46.3917 169.121 44.2949 170.331 42.3814C173.084 37.9847 172.924 35.5262 166.354 36.2898C162.234 36.768 158.224 39.9565 156.285 49.4128C155.723 52.1314 155.597 56.2344 155.388 59.7585C154.934 67.7632 154.632 80.4332 154.783 85.9794C154.834 88.7651 154.708 89.1679 155.908 92.2724Z" fill="#B16668"/>
<path d="M185.477 104.112C181.944 103.591 170.373 90.9298 170.373 90.9298C167.143 90.7452 159.222 99.0268 160.791 102.4C165.498 110.237 171.481 117.503 173.109 122.538C174.46 125.374 178.076 122.965 179.637 117C181.827 108.752 188.346 104.565 185.477 104.112Z" fill="#407BFF"/>
<path opacity="0.3" d="M185.477 104.112C181.944 103.591 170.373 90.9298 170.373 90.9298C167.143 90.7452 159.222 99.0268 160.791 102.4C165.498 110.237 171.481 117.503 173.109 122.538C174.46 125.374 178.076 122.965 179.637 117C181.827 108.752 188.346 104.565 185.477 104.112Z" fill="black"/>
<path d="M211.664 119.072L210.825 134.108L209.91 166.085C198.306 171.514 181.172 168.242 169.518 158.852C169.518 158.852 170.18 122.051 172.58 113.543C174.98 105.035 179.293 103.348 185.292 103.533C191.627 103.734 199.766 104.623 199.766 104.623L206.697 106.469C206.697 106.469 211.807 116.06 211.664 119.072Z" fill="#455A64"/>
<path d="M216.571 94.3115C217.36 93.9087 220.993 95.7211 223.209 98.8508C225.424 101.981 225.575 106.402 224.887 107.242C224.199 108.081 215.279 104.112 215.279 104.112L216.571 94.3115Z" fill="#407BFF"/>
<path opacity="0.6" d="M216.571 94.3115C217.36 93.9087 220.993 95.7211 223.209 98.8508C225.424 101.981 225.575 106.402 224.887 107.242C224.199 108.081 215.279 104.112 215.279 104.112L216.571 94.3115Z" fill="black"/>
<path d="M231.205 96.6691C229.72 99.6562 212.788 120.205 208.718 125.13C198.993 119.844 206.872 108.567 206.872 108.567C206.872 108.567 219.139 92.3646 221.153 89.5789C221.632 88.8765 221.968 88.0868 222.143 87.2547C222.496 85.7276 225.038 66.9409 224.66 61.1597C224.583 60.1343 224.133 59.1728 223.393 58.4579C221.43 56.5197 220.834 54.8499 219.517 52.6683C218.485 50.9902 217.419 50.3609 217.696 49.9498C218.065 49.5151 218.585 49.2357 219.151 49.1672C219.717 49.0988 220.288 49.2464 220.75 49.5806C221.798 50.2876 222.755 51.1188 223.603 52.0558C223.268 49.814 222.574 47.6409 221.547 45.6202C219.223 40.9885 219.618 38.5468 226.087 39.9229C230.14 40.762 233.84 44.3532 234.905 53.9437C235.207 56.7043 234.947 60.7989 234.822 64.323C234.519 72.3445 233.63 84.9809 232.959 90.4935C232.606 93.2792 232.699 93.6904 231.205 96.6691Z" fill="#B16668"/>
<path d="M204.38 106.016L216.571 94.2695C216.571 94.2695 215.472 104.338 224.87 107.216L210.866 124.929C209.246 127.631 204.808 124.09 203.817 118.032C202.433 109.591 204.38 106.016 204.38 106.016Z" fill="#407BFF"/>
<path opacity="0.3" d="M204.38 106.016L216.571 94.2695C216.571 94.2695 215.472 104.338 224.87 107.216L210.866 124.929C209.246 127.631 204.808 124.09 203.817 118.032C202.433 109.591 204.38 106.016 204.38 106.016Z" fill="black"/>
<path d="M197.902 77.6895C197.803 79.8335 197.071 81.9 195.797 83.6276C194.524 85.3553 192.767 86.6665 190.748 87.3953C188.73 88.1242 186.54 88.2379 184.457 87.7222C182.374 87.2065 180.49 86.0844 179.045 84.498C177.599 82.9116 176.657 80.9321 176.336 78.81C176.016 76.6878 176.332 74.5183 177.245 72.576C178.158 70.6337 179.627 69.0057 181.465 67.8981C183.303 66.7906 185.429 66.2531 187.573 66.3537C190.444 66.4908 193.145 67.7611 195.081 69.8862C197.017 72.0113 198.032 74.8176 197.902 77.6895Z" fill="#263238"/>
<path d="M205.438 85.7698C205.438 85.7698 203.29 93.9339 202.526 95.2596C202.021 96.0883 201.215 96.6896 200.277 96.9378L200.68 91.1314L205.438 85.7698Z" fill="#263238"/>
<path d="M203.793 73.8381C204.41 73.7954 205.028 73.8941 205.601 74.1268C206.174 74.3594 206.686 74.7199 207.099 75.1806C208.475 76.7328 207.451 81.3225 205.421 85.7696L202.064 85.9878L203.793 73.8381Z" fill="#263238"/>
<path d="M201.116 85.9459C201.762 86.3739 202.794 85.1488 203.633 84.3265C204.472 83.5042 207.224 82.4638 208.424 85.3334C209.624 88.203 206.931 91.9201 204.8 92.4823C201.116 93.4472 200.688 91.0978 200.688 91.0978L199.782 104.523C195.008 110.086 182.522 109.004 188.035 103.214L188.228 99.2368C186.602 99.4105 184.962 99.4105 183.336 99.2368C180.685 98.6998 179.141 96.5098 178.436 93.5898C177.354 88.8995 177.043 85.132 178.57 76.0701C180.248 66.1355 191.878 66.5802 197.961 70.8259C204.044 75.0716 201.116 85.9459 201.116 85.9459Z" fill="#B16668"/>
<path d="M201.065 87.0619C201.401 87.0619 202.743 85.0397 203.624 84.3265C204.824 83.3364 203.792 73.8382 203.792 73.8382C204.224 73.0265 204.402 72.1038 204.303 71.1897C204.204 70.2756 203.833 69.4122 203.238 68.7115C201.753 66.9159 199.664 64.7007 192.515 65.2042C187.413 65.565 181.817 66.8823 177.462 64.491C176.976 65.9246 176.932 67.4711 177.336 68.9299C177.74 70.3887 178.573 71.6924 179.727 72.6719C179.727 72.6719 181.288 73.7962 185.509 74.5094C189.406 74.9822 193.338 75.0946 197.256 74.8451C198.489 74.7276 198.699 75.9359 199.211 79.225C199.689 82.1198 199.941 86.9864 201.065 87.0619Z" fill="#263238"/>
<path d="M203.751 74.5765L207.863 72.6047C207.747 72.3288 207.577 72.0791 207.363 71.8709C207.148 71.6627 206.893 71.5003 206.614 71.3936C206.334 71.2869 206.036 71.238 205.737 71.2501C205.439 71.2621 205.145 71.3348 204.875 71.4636C204.321 71.7358 203.894 72.2124 203.685 72.793C203.475 73.3737 203.499 74.0131 203.751 74.5765Z" fill="#263238"/>
<path d="M188.202 99.2786C188.202 99.2786 194.21 98.364 196.341 97.3572C197.593 96.7744 198.642 95.8306 199.353 94.647C198.982 95.8505 198.371 96.9665 197.557 97.9277C195.946 99.7989 188.135 100.864 188.135 100.864L188.202 99.2786Z" fill="#9A4A4D"/>
<path d="M190.359 83.9741C190.356 84.2099 190.423 84.4414 190.551 84.6397C190.678 84.8379 190.862 84.9941 191.078 85.0888C191.294 85.1834 191.533 85.2123 191.765 85.1719C191.997 85.1314 192.213 85.0234 192.384 84.8613C192.555 84.6992 192.675 84.4902 192.728 84.2605C192.781 84.0307 192.766 83.7904 192.683 83.5695C192.6 83.3486 192.455 83.157 192.264 83.0185C192.073 82.8801 191.845 82.8009 191.61 82.791C191.45 82.7865 191.291 82.8136 191.141 82.8707C190.992 82.9277 190.856 83.0136 190.739 83.1235C190.623 83.2334 190.53 83.365 190.465 83.511C190.4 83.6569 190.364 83.8143 190.359 83.9741Z" fill="#263238"/>
<path d="M191.836 79.5102L194.353 81.0373C194.552 80.6957 194.612 80.2904 194.52 79.9059C194.427 79.5214 194.19 79.1873 193.858 78.9732C193.692 78.8682 193.506 78.7987 193.312 78.7689C193.118 78.7391 192.92 78.7498 192.73 78.8002C192.54 78.8506 192.363 78.9397 192.209 79.0619C192.055 79.184 191.928 79.3367 191.836 79.5102Z" fill="#263238"/>
<path d="M189.083 92.1465L186.314 93.0359C186.363 93.2202 186.448 93.3929 186.564 93.5438C186.68 93.6947 186.826 93.8209 186.991 93.9147C187.157 94.0086 187.34 94.0683 187.529 94.0902C187.719 94.1122 187.91 94.0961 188.093 94.0428C188.475 93.9212 188.793 93.6537 188.979 93.2985C189.164 92.9433 189.202 92.5293 189.083 92.1465Z" fill="#9A4A4D"/>
<path d="M179.895 79.9381L182.303 78.26C182.202 78.0972 182.069 77.9568 181.912 77.8473C181.755 77.7378 181.577 77.6614 181.389 77.623C181.201 77.5845 181.008 77.5847 180.82 77.6235C180.633 77.6623 180.455 77.739 180.298 77.8488C179.977 78.0802 179.757 78.4253 179.682 78.8136C179.608 79.2019 179.684 79.6041 179.895 79.9381Z" fill="#263238"/>
<path d="M180.459 83.1351C180.44 83.2989 180.455 83.4648 180.503 83.6225C180.552 83.7801 180.632 83.9262 180.739 84.0516C180.846 84.1769 180.978 84.2788 181.126 84.3509C181.274 84.4231 181.436 84.4639 181.601 84.4708C181.765 84.4778 181.93 84.4507 182.083 84.3913C182.237 84.3318 182.377 84.2414 182.494 84.1255C182.612 84.0096 182.704 83.8708 182.765 83.7177C182.826 83.5646 182.855 83.4006 182.85 83.2358C182.869 83.072 182.854 82.906 182.806 82.7484C182.758 82.5907 182.678 82.4446 182.57 82.3193C182.463 82.1939 182.332 82.092 182.183 82.0199C182.035 81.9477 181.874 81.9069 181.709 81.9C181.544 81.8931 181.38 81.9201 181.226 81.9796C181.072 82.039 180.932 82.1295 180.815 82.2454C180.698 82.3612 180.606 82.5001 180.544 82.6531C180.483 82.8062 180.454 82.9703 180.459 83.1351Z" fill="#263238"/>
<path d="M186.591 82.2959L185.861 89.4531L182.178 87.9932L186.591 82.2959Z" fill="#9A4A4D"/>
<path d="M108.165 286.978L108.501 285.812C108.56 287.314 108.979 293.817 111.345 297.71C113.233 300.798 115.952 304.532 116.078 307.401C116.204 310.271 110.145 309.608 107.863 308.484C105.22 307.175 102.074 304.54 100.815 301.553C99.9256 299.455 99.6404 297.19 99.0362 295.57C98.4321 293.951 96.6029 291.794 96.519 290.091C96.4771 289.16 97.3581 287.406 98.1972 285.955C99.0362 284.503 100.085 283.093 100.538 283.37C100.488 283.546 100.06 284.327 100.06 284.327C100.454 285.166 101.906 286.282 103.727 286.886C104.943 287.28 107.905 287.868 108.165 286.978Z" fill="#263238"/>
<path d="M53.9613 264.667L54.8003 264.407C53.9613 265.649 50.7057 271.615 50.3113 276.154C49.9925 279.762 49.9673 284.377 48.3647 286.76C46.7621 289.143 42.2731 285.015 41.1151 282.758C39.7558 280.14 38.7909 276.146 39.5461 272.999C40.0831 270.784 41.2242 268.804 41.6689 267.126C42.1136 265.448 41.9542 262.645 42.894 261.252C43.4142 260.472 45.1678 259.574 46.7285 258.937C48.1633 258.341 49.9505 257.753 50.1519 258.249C50.0093 258.358 49.1954 258.727 49.1954 258.727C49.0276 259.633 49.5226 261.403 50.6302 262.972C51.4966 263.925 52.6813 264.528 53.9613 264.667Z" fill="#263238"/>
<path d="M128.52 235.938C129.359 233.362 131.465 227.891 131.037 225.214C129.199 212.704 125.122 198.431 123.754 193.925C121.916 187.884 119.768 178.973 117.452 168.753C117.511 165.909 117.536 163.375 117.536 163.375L90.6862 165.691C87.59 173.242 82.6731 186.223 84.5358 202.61C85.3971 210.257 85.8285 217.947 85.828 225.642C83.3108 227.203 80.5167 228.999 78.2763 230.551C72.2854 234.746 51.2919 256.906 51.2919 256.906L49.1271 258.634L48.9593 258.76V258.811C47.8014 260.203 46.4421 266.144 45.3429 269.719C44.6129 272.143 44.2521 275.97 45.9387 278.948C47.5329 281.742 49.2949 282.43 49.983 279.317C50.0753 278.201 50.1424 277.102 50.2347 276.079C50.5116 272.907 52.3156 269.274 53.6665 266.95C54.7656 265.062 55.4956 263.476 57.5597 262.142C57.5597 262.142 82.6563 245.763 94.7221 238.06C96.7109 236.822 98.4268 235.192 99.7654 233.269C101.104 231.346 102.037 229.171 102.509 226.876C103.348 222.529 106.326 211.831 107.342 206.444L113.215 228.822C111.881 230.987 109.397 238.681 107.929 248.121C105.966 260.707 101.326 279.947 101.326 279.947L100.142 284.343L100.084 284.545C99.983 286.349 102.408 291.945 103.675 295.495C104.514 297.878 106.494 301.175 109.599 302.551C112.544 303.852 114.39 303.34 113.081 300.437C112.521 299.478 112.025 298.483 111.596 297.458C110.25 294.546 109.334 291.454 108.877 288.279C108.62 286.155 108.909 284.001 109.716 282.019C109.716 282.019 124.064 249.715 128.52 235.938Z" fill="#FFA8A7"/>
<path d="M89.1856 169.685C89.1856 169.685 83.9414 177.58 82.8842 184.242C81.0718 195.587 83.547 213.702 83.547 213.702C83.547 213.702 87.0376 211.672 87.5326 207.829C87.5326 207.829 88.9758 211.294 91.6189 213.039C94.9332 215.246 100.01 216.496 106.428 214.558L107.326 206.436L108.593 213.274C112.754 213.666 116.95 213.115 120.869 211.663C127.137 209.264 128.529 202.333 128.529 202.333L117.672 169.676C117.672 169.676 118.284 175.105 105.346 175.608C92.4076 176.112 89.1856 169.685 89.1856 169.685Z" fill="#455A64"/>
<path d="M136.174 115.968C129.898 130.735 121.213 135.971 117.261 145.452C112.084 145.1 104.893 136.575 108.745 131.239C113.141 129.384 127.38 113.895 128.203 107.367C128.933 101.569 132.054 92.5408 131.911 87.7162C131.867 86.9145 131.536 86.1554 130.98 85.5765C129.394 83.8984 129.386 82.4888 128.37 80.6009C127.573 79.1325 126.692 78.5787 126.952 78.2515C127.278 77.8998 127.725 77.6843 128.202 77.6485C128.68 77.6127 129.154 77.7592 129.528 78.0585C130.264 78.5914 130.922 79.2239 131.483 79.938C131.212 78.1372 130.689 76.3833 129.931 74.7274C128.169 70.7502 128.597 68.7281 133.967 70.1377C137.323 71.0271 139.438 73.8296 139.941 81.8846C140.172 85.2364 140.191 88.5993 140 91.9535C139.413 98.171 138.775 104.12 138.011 109.272C137.689 111.573 137.072 113.824 136.174 115.968Z" fill="#FFA8A7"/>
<path d="M90.116 166.916L89.6378 160.908L85.0061 151.209C84.3238 147.646 84.1599 144.003 84.5194 140.393C84.6705 136.894 84.5194 134.519 87.8757 133.739C89.1679 133.445 92.8262 132.791 98.1795 132.061L107.98 131.222C111.563 131.037 115.447 135.644 119.509 143.808C121.539 147.886 123.133 153.432 117.747 158.592C117.747 159.658 117.881 163.258 117.747 165.414C113.5 167.576 108.848 168.826 104.09 169.085C99.3318 169.344 94.572 168.605 90.116 166.916Z" fill="#407BFF"/>
<path d="M115.817 105.337V105.035C114.936 95.6287 109.541 93.8834 99.6817 94.8903C92.3986 95.637 85.7951 99.0856 83.5968 105.504C82.7843 107.917 82.5388 110.485 82.8793 113.008C83.2198 115.532 84.1372 117.943 85.5602 120.054C88.5724 124.518 93.6656 127.01 100.865 126.339C110.246 127.438 116.698 114.734 115.817 105.337Z" fill="#263238"/>
<path d="M53.8433 115.859C52.1567 114.566 50.7997 112.892 49.8829 110.975C48.4061 107.896 47.7264 103.18 51.1666 101.074C51.5571 100.824 51.9985 100.663 52.4588 100.604C53.9859 100.453 55.2109 101.737 56.4024 102.694C57.5585 103.596 58.8819 104.26 60.2962 104.647C61.7105 105.035 63.1876 105.138 64.6421 104.951C67.797 104.548 70.6162 102.794 73.0915 100.806C73.8519 100.137 74.6985 99.5721 75.6087 99.1277C76.361 98.8173 77.1618 98.6413 77.9749 98.6074C80.6748 98.4742 83.3392 99.2676 85.5265 100.856C85.9394 101.093 86.3006 101.411 86.5888 101.79C86.877 102.169 87.0864 102.602 87.2046 103.063C87.2534 103.388 87.2054 103.721 87.0667 104.019C86.9279 104.318 86.7045 104.569 86.4243 104.741C85.7866 105.102 84.9559 104.741 84.2847 104.666C82.6007 104.428 80.8868 104.79 79.4432 105.689C78.0672 106.629 77.2029 108.139 76.2799 109.524C73.36 113.895 69.0472 117.688 63.8533 118.443C62.0968 118.695 60.3077 118.597 58.5896 118.153C56.8714 117.709 55.2582 116.93 53.8433 115.859Z" fill="#263238"/>
<path d="M109.348 100.873C111.278 101.779 113.963 106.159 114.642 115.817C115.213 123.998 112.763 126.263 111.487 126.968C110.212 127.673 107.611 127.555 105.085 127.379L105.538 132.279C105.538 132.279 113.09 139.159 107.468 140.418C104.649 141.056 100.873 139.579 98.2386 137.901C96.552 136.698 95.2775 135.005 94.5887 133.051L93.6489 122.387C93.6489 122.387 92.3148 123.947 89.6298 122.009C87.4062 120.406 86.4329 117.444 87.8845 115.666C88.2634 115.242 88.7373 114.915 89.2674 114.71C89.7974 114.505 90.3685 114.429 90.9337 114.488C91.4988 114.547 92.0419 114.739 92.5183 115.049C92.9947 115.359 93.3908 115.777 93.6741 116.27C93.6741 116.27 95.1508 116.27 96.3591 113.4C98.8304 113.442 101.245 112.66 103.223 111.177C104.885 109.961 106.285 108.421 107.338 106.65C108.39 104.88 109.074 102.914 109.348 100.873Z" fill="#FFA8A7"/>
<path d="M103.852 114.231C103.899 114.502 103.837 114.781 103.68 115.007C103.523 115.233 103.283 115.388 103.013 115.439C102.737 115.47 102.459 115.392 102.239 115.221C102.02 115.05 101.876 114.8 101.838 114.524C101.809 114.386 101.809 114.244 101.837 114.106C101.866 113.968 101.922 113.837 102.003 113.721C102.084 113.606 102.188 113.508 102.308 113.434C102.428 113.36 102.562 113.312 102.701 113.292C102.841 113.271 102.983 113.28 103.119 113.317C103.255 113.354 103.382 113.419 103.493 113.507C103.603 113.595 103.694 113.704 103.76 113.829C103.826 113.953 103.866 114.09 103.877 114.231H103.852Z" fill="#263238"/>
<g style="mix-blend-mode:multiply" opacity="0.5">
<path d="M105.765 120.943L109.063 121.673C109.023 121.891 108.94 122.099 108.818 122.285C108.697 122.471 108.541 122.631 108.357 122.756C108.174 122.881 107.967 122.968 107.75 123.013C107.533 123.057 107.309 123.058 107.091 123.016C106.645 122.91 106.257 122.634 106.009 122.248C105.762 121.861 105.675 121.393 105.765 120.943Z" fill="#F28F8F"/>
</g>
<path d="M112.838 110.17L110.623 108.928C110.697 108.782 110.8 108.652 110.925 108.547C111.051 108.441 111.196 108.362 111.352 108.313C111.509 108.265 111.673 108.248 111.836 108.264C111.999 108.281 112.157 108.329 112.301 108.408C112.602 108.575 112.826 108.851 112.926 109.18C113.026 109.509 112.994 109.864 112.838 110.17Z" fill="#263238"/>
<path d="M102.09 110.757L99.8077 111.89C99.7296 111.745 99.6814 111.587 99.6657 111.423C99.6501 111.26 99.6675 111.095 99.7168 110.939C99.7661 110.782 99.8463 110.637 99.9527 110.512C100.059 110.387 100.19 110.285 100.336 110.212C100.643 110.063 100.995 110.036 101.321 110.137C101.647 110.239 101.922 110.46 102.09 110.757Z" fill="#263238"/>
<path d="M112.578 113.19C112.599 113.391 112.56 113.594 112.467 113.774C112.373 113.953 112.229 114.101 112.052 114.199C111.875 114.298 111.673 114.342 111.472 114.326C111.27 114.31 111.077 114.236 110.918 114.111C110.758 113.987 110.638 113.819 110.574 113.627C110.509 113.435 110.502 113.229 110.554 113.033C110.606 112.837 110.714 112.661 110.865 112.527C111.016 112.392 111.203 112.305 111.403 112.276C111.68 112.242 111.959 112.32 112.179 112.491C112.399 112.662 112.542 112.914 112.578 113.19Z" fill="#263238"/>
<g style="mix-blend-mode:multiply" opacity="0.5">
<path d="M107.568 113.064L108.307 119.232L111.47 117.923L107.568 113.064Z" fill="#F28F8F"/>
</g>
<g style="mix-blend-mode:multiply" opacity="0.5">
<path d="M105.085 127.379C102.425 127.278 96.8791 126.229 95.8555 124.174C96.2977 125.212 97.0473 126.091 98.0035 126.691C99.7487 127.916 105.253 128.973 105.253 128.973L105.085 127.379Z" fill="#F28F8F"/>
</g>
<path d="M85.6191 101.217L86.8274 96.8032C87.1215 96.8679 87.3995 96.9914 87.6447 97.1663C87.8898 97.3413 88.097 97.564 88.2538 97.8212C88.4106 98.0783 88.5137 98.3645 88.557 98.6625C88.6003 98.9606 88.5827 99.2643 88.5055 99.5554C88.3311 100.151 87.9336 100.656 87.3958 100.965C86.8581 101.275 86.2216 101.365 85.6191 101.217Z" fill="#263238"/>
<path d="M85.234 101.594L82.7168 97.7851C82.9586 97.6074 83.2339 97.4806 83.526 97.4121C83.8181 97.3437 84.1211 97.3351 84.4166 97.3868C84.7122 97.4386 84.9942 97.5496 85.2457 97.7132C85.4972 97.8768 85.713 98.0896 85.8801 98.3389C86.2105 98.8608 86.3277 99.4898 86.2075 100.096C86.0872 100.702 85.7387 101.238 85.234 101.594Z" fill="#263238"/>
<path d="M93.6992 116.261L94.102 120.557C94.486 120.521 94.8592 120.41 95.2003 120.23C95.5413 120.05 95.8436 119.805 96.0898 119.508C96.336 119.211 96.5214 118.869 96.6352 118.5C96.7491 118.132 96.7893 117.744 96.7534 117.36L96.3842 113.392L93.6992 116.261Z" fill="#263238"/>
<path d="M66.036 117.99C72.3123 132.766 79.973 141.769 85.0074 151.208C93.3981 151.603 94.019 138.622 90.1676 133.286C90.1676 133.286 75.3749 115.833 74.0072 109.398C72.7905 103.675 70.1559 94.5629 70.2985 89.7383C70.3363 88.935 70.6677 88.1736 71.2299 87.5987C72.8157 85.9205 72.8157 84.5193 73.8394 82.6314C74.6281 81.1546 75.5175 80.6092 75.2574 80.2736C74.9273 79.926 74.4792 79.7144 74.001 79.6802C73.5229 79.6461 73.0492 79.7919 72.6731 80.089C71.9402 80.619 71.285 81.2488 70.7264 81.9601C70.9935 80.1593 71.5132 78.4052 72.2703 76.7495C74.0324 72.7807 73.6044 70.7502 68.2428 72.1682C64.8865 73.0073 62.7721 75.8517 62.2686 83.9152C62.0394 87.2868 62.0282 90.6697 62.2351 94.0427C62.814 100.26 63.4517 106.218 64.2153 111.361C64.5394 113.639 65.1513 115.866 66.036 117.99Z" fill="#FFA8A7"/>
<path d="M108.593 213.048L107.326 206.788L108.627 194.857C111.377 193.698 113.966 192.19 116.329 190.368C114.872 192.445 113.093 194.278 111.06 195.797L108.165 206.059L108.593 213.048Z" fill="#37474F"/>
<path opacity="0.1" d="M95.2344 155.874C96.0288 157.362 97.2361 158.589 98.7112 159.408C100.186 160.226 101.866 160.602 103.55 160.489C105.175 160.432 106.757 159.946 108.135 159.081C109.513 158.216 110.637 157.003 111.395 155.563C111.395 155.563 111.16 162.007 103.55 162.024C95.9392 162.041 95.2344 155.874 95.2344 155.874Z" fill="black"/>
</svg>
