<svg width="235" height="200" viewBox="0 0 235 200" fill="none" xmlns="http://www.w3.org/2000/svg">
<path d="M216.641 165.493C216.591 165.493 217.371 162.093 217.442 161.883C218.294 159.468 221.367 155.295 224.236 155.372C224.713 155.397 225.179 155.523 225.604 155.741C226.029 155.959 226.403 156.264 226.702 156.637C227.001 157.009 227.218 157.441 227.339 157.903C227.459 158.365 227.481 158.847 227.403 159.318C227.143 161.325 225.291 163 223.628 163.95C221.671 165.067 216.646 165.493 216.641 165.493Z" fill="#263238"/>
<path d="M216.962 151.663C216.913 151.663 218.195 148.413 218.3 148.219C219.51 145.953 223.175 142.294 226 142.808C226.467 142.906 226.908 143.101 227.295 143.38C227.682 143.66 228.005 144.018 228.245 144.431C228.484 144.844 228.634 145.303 228.684 145.777C228.734 146.252 228.684 146.732 228.537 147.186C227.984 149.137 225.889 150.502 224.115 151.193C221.998 152.006 216.968 151.663 216.962 151.663Z" fill="#263238"/>
<path d="M220.564 136.291C220.509 136.291 221.791 133.041 221.896 132.848C223.107 130.587 226.777 126.928 229.601 127.437C230.069 127.535 230.51 127.73 230.897 128.011C231.284 128.291 231.607 128.65 231.846 129.063C232.085 129.477 232.234 129.936 232.283 130.411C232.333 130.886 232.281 131.366 232.133 131.82C231.58 133.765 229.485 135.136 227.711 135.827C225.6 136.634 220.564 136.291 220.564 136.291Z" fill="#263238"/>
<path d="M223.258 121.633C223.202 121.633 224.485 118.383 224.59 118.184C225.8 115.923 229.47 112.264 232.295 112.778C232.762 112.876 233.203 113.071 233.59 113.35C233.977 113.63 234.301 113.988 234.54 114.401C234.779 114.814 234.929 115.272 234.979 115.747C235.03 116.222 234.979 116.702 234.832 117.156C234.279 119.107 232.179 120.472 230.41 121.163C228.293 121.97 223.258 121.633 223.258 121.633Z" fill="#263238"/>
<path d="M222.113 108.892C222.058 108.892 222.439 105.432 222.489 105.216C223.041 102.713 225.628 98.2133 228.491 97.9646C228.968 97.9361 229.445 98.0082 229.891 98.1761C230.338 98.3441 230.744 98.6041 231.083 98.9393C231.422 99.2746 231.687 99.6775 231.861 100.122C232.034 100.566 232.112 101.042 232.09 101.519C232.09 103.547 230.432 105.421 228.873 106.554C227.06 107.87 222.113 108.892 222.113 108.892Z" fill="#263238"/>
<path d="M215.248 165.116C215.297 165.116 214.745 161.678 214.695 161.468C214.004 158.998 211.213 154.631 208.344 154.52C207.866 154.515 207.393 154.61 206.955 154.8C206.516 154.99 206.123 155.27 205.8 155.622C205.477 155.974 205.232 156.39 205.081 156.843C204.93 157.296 204.876 157.776 204.922 158.251C205.05 160.274 206.791 162.065 208.388 163.121C210.256 164.365 215.242 165.116 215.248 165.116Z" fill="#263238"/>
<path d="M216.762 149.739C216.817 149.739 215.745 146.423 215.656 146.213C214.595 143.875 211.174 139.984 208.321 140.31C207.849 140.377 207.396 140.543 206.992 140.798C206.588 141.052 206.242 141.388 205.976 141.785C205.711 142.182 205.532 142.63 205.451 143.101C205.371 143.571 205.39 144.054 205.508 144.516C205.939 146.495 207.935 148.004 209.67 148.805C211.715 149.751 216.756 149.739 216.762 149.739Z" fill="#263238"/>
<path d="M220.188 135.247C220.238 135.247 219.171 131.93 219.082 131.726C218.027 129.388 214.605 125.496 211.753 125.822C211.281 125.889 210.828 126.055 210.423 126.308C210.019 126.562 209.673 126.898 209.407 127.294C209.141 127.69 208.961 128.138 208.88 128.608C208.798 129.079 208.817 129.561 208.934 130.023C209.371 132.008 211.361 133.511 213.102 134.318C215.141 135.258 220.182 135.247 220.188 135.247Z" fill="#263238"/>
<path d="M222.693 121.76C222.749 121.76 221.676 118.443 221.588 118.233C220.527 115.901 217.111 112.01 214.253 112.336C213.781 112.402 213.328 112.568 212.924 112.822C212.52 113.075 212.173 113.411 211.908 113.808C211.642 114.204 211.464 114.652 211.383 115.122C211.302 115.592 211.322 116.074 211.44 116.536C211.871 118.521 213.866 120.024 215.607 120.826C217.647 121.771 222.693 121.76 222.693 121.76Z" fill="#263238"/>
<path d="M222.007 109.307C222.063 109.307 220.637 106.117 220.521 105.924C219.211 103.713 215.386 100.225 212.583 100.866C212.121 100.985 211.689 101.2 211.315 101.496C210.941 101.793 210.634 102.166 210.414 102.589C210.194 103.013 210.065 103.478 210.037 103.955C210.009 104.431 210.082 104.908 210.251 105.355C210.897 107.273 213.042 108.555 214.86 109.158C216.994 109.871 222.007 109.307 222.007 109.307Z" fill="#263238"/>
<path d="M218.989 98.2852C219.033 98.2852 219.238 94.8195 219.227 94.5984C219.077 92.0337 217.292 87.1696 214.512 86.4456C214.047 86.3382 213.565 86.3299 213.096 86.4213C212.628 86.5127 212.184 86.7016 211.793 86.9759C211.403 87.2501 211.074 87.6035 210.83 88.0131C210.585 88.4226 210.429 88.8792 210.372 89.353C210.062 91.3594 211.378 93.4819 212.71 94.8803C214.274 96.4722 218.984 98.2797 218.989 98.2852Z" fill="#263238"/>
<path d="M216.188 184.064C216.188 184.064 216.005 182.6 215.784 180.057C215.563 177.515 215.309 173.878 215.193 169.505C215.132 167.294 215.11 164.951 215.154 162.441C215.154 161.181 215.22 159.921 215.27 158.572C215.314 157.92 215.364 157.262 215.408 156.593C215.453 155.925 215.563 155.239 215.635 154.554C216.014 151.763 216.543 148.996 217.221 146.263C217.901 143.471 218.675 140.669 219.432 137.872C220.19 135.075 220.936 132.279 221.522 129.498C222.118 126.783 222.519 124.029 222.721 121.257C222.863 118.662 222.775 116.059 222.456 113.48C222.194 111.142 221.793 108.822 221.256 106.532C220.77 104.415 220.201 102.503 219.681 100.817C219.161 99.1308 218.625 97.6827 218.183 96.4943C217.282 94.1175 216.669 92.802 216.669 92.802C216.669 92.802 217.31 94.1065 218.26 96.4611C218.736 97.6385 219.283 99.0811 219.858 100.756C220.433 102.431 221.03 104.338 221.56 106.455C222.157 108.729 222.62 111.036 222.948 113.364C223.328 115.969 223.476 118.603 223.39 121.235C223.242 124.045 222.897 126.841 222.356 129.603C221.804 132.422 221.14 135.252 220.438 138.071C219.736 140.89 219.001 143.715 218.388 146.478C217.778 149.182 217.317 151.916 217.006 154.67C216.951 155.339 216.851 155.974 216.829 156.649C216.807 157.323 216.763 157.981 216.729 158.633C216.729 159.893 216.691 161.198 216.702 162.43C216.702 164.912 216.785 167.256 216.895 169.417C217.1 173.745 217.448 177.343 217.708 179.853C217.968 182.362 218.189 183.777 218.189 183.777C218.208 183.908 218.201 184.042 218.169 184.17C218.136 184.298 218.079 184.419 218 184.525C217.921 184.632 217.822 184.721 217.708 184.789C217.594 184.857 217.468 184.902 217.337 184.921C217.206 184.94 217.073 184.934 216.944 184.901C216.816 184.869 216.695 184.812 216.589 184.733C216.483 184.654 216.393 184.554 216.325 184.441C216.257 184.327 216.212 184.201 216.193 184.07V184.064H216.188Z" fill="#263238"/>
<path d="M210.041 178.355H223.821V181.207H222.621L220.134 196.772H213.733L211.24 181.207H210.041V178.355Z" fill="#263238" stroke="#263238" stroke-linecap="round" stroke-linejoin="round"/>
<path d="M119.243 188.763C119.243 188.763 118.768 191.565 119.116 192.195C119.464 192.825 120.022 193.655 120.022 193.655H124.411L124.649 192.3C125.254 192.972 125.997 193.506 126.826 193.865C127.993 194.279 129.12 193.865 130.486 193.97C131.641 194.058 134.355 193.97 134.355 193.97L134.277 192.505L126.357 188.956L123.521 186.745C123.521 186.745 121.034 188.989 119.243 188.763Z" fill="#263238" stroke="#263238" stroke-linecap="round" stroke-linejoin="round"/>
<path d="M86.5532 188.763C86.5532 188.763 87.3049 191.045 87.0285 191.67C86.7522 192.295 86.2989 193.654 86.2989 193.654H81.9157L81.5288 192.3C80.9952 192.975 80.307 193.511 79.5223 193.864C78.4169 194.279 77.223 193.864 75.8743 193.969C74.7301 194.058 72.0051 193.969 72.0051 193.969L71.9277 192.505L79.4615 188.956L82.4519 187.298C82.4519 187.298 84.7844 188.989 86.5532 188.763Z" fill="#263238" stroke="#263238" stroke-linecap="round" stroke-linejoin="round"/>
<path d="M121.61 81.001C121.61 81.001 123.423 104.47 124.053 115.691C124.683 126.911 124.976 132.002 125.048 139.901C125.119 147.799 125.468 163.409 125.468 169.273C125.474 175.26 125.084 181.241 124.301 187.176L119.001 190.001C119.001 190.001 117.287 174.944 116.596 169.549C115.972 164.669 113.689 144.809 112.655 138.668C111.622 132.527 106.912 111.175 106.912 111.175C106.912 111.175 100.628 133.577 99.0026 142.526C97.3776 151.475 91.2643 171.655 89.9543 176.564C88.6443 181.472 86.555 188.752 86.555 188.752C85.8182 188.968 85.0445 189.028 84.2832 188.928C83.9415 188.902 83.6117 188.791 83.3226 188.607C83.0335 188.423 82.7939 188.171 82.625 187.873C82.625 187.873 84.1671 173.181 84.8028 166.04C85.5932 157.196 85.8419 145.456 86.8037 140.542C87.7655 135.628 87.7323 126.215 88.8488 119.897C89.4845 116.31 92.718 81.9904 92.718 81.9904C92.718 81.9904 110.649 89.2478 121.61 81.001Z" fill="#263238" stroke="#263238" stroke-linecap="round" stroke-linejoin="round"/>
<path d="M124.301 187.177L120.172 190.526" stroke="white" stroke-width="0.5" stroke-linecap="round" stroke-linejoin="round"/>
<path d="M82.459 187.287L85.7367 189.802" stroke="white" stroke-width="0.5" stroke-linecap="round" stroke-linejoin="round"/>
<path d="M109.619 88.8997L109.287 102.585L111.609 100.269" stroke="white" stroke-width="0.5" stroke-linecap="round" stroke-linejoin="round"/>
<path d="M108.172 110.777L114.766 102.574" stroke="white" stroke-width="0.5" stroke-linecap="round" stroke-linejoin="round"/>
<path d="M116.595 103.171L111.096 108.566" stroke="white" stroke-width="0.5" stroke-linecap="round" stroke-linejoin="round"/>
<path d="M104.248 103.774C102.547 100.007 99.639 96.9151 95.9844 94.9854" stroke="white" stroke-width="0.5" stroke-linecap="round" stroke-linejoin="round"/>
<path d="M112.632 85.1963L112.317 86.7992L109.752 87.3962L110.045 85.4008" stroke="white" stroke-width="0.5" stroke-linecap="round" stroke-linejoin="round"/>
<path d="M109.753 87.3962C109.753 87.3962 104.949 87.1972 102.512 86.3958L103.026 84.7983" stroke="white" stroke-width="0.5" stroke-linecap="round" stroke-linejoin="round"/>
<path d="M100.803 84.4004L100.316 86.3958C100.316 86.3958 96.5081 86.1968 95.8945 85.5998" stroke="white" stroke-width="0.5" stroke-linecap="round" stroke-linejoin="round"/>
<path d="M112.316 86.7827C113.624 86.7441 114.905 86.4036 116.058 85.7878L117.8 84.7873L117.125 83.3889" stroke="white" stroke-width="0.5" stroke-linecap="round" stroke-linejoin="round"/>
<path d="M123.974 35.074C123.974 35.074 127.446 38.0864 128.485 40.0762C129.524 42.0661 143.165 69.8798 143.11 71.7813C143.055 73.6827 141.037 77.3086 137.478 77.3086C133.918 77.3086 120.426 55.6303 120.426 55.6303L123.974 35.074Z" fill="white"/>
<mask id="mask0_301_7160" style="mask-type:luminance" maskUnits="userSpaceOnUse" x="120" y="35" width="24" height="43">
<path d="M123.974 35.074C123.974 35.074 127.446 38.0864 128.485 40.0762C129.524 42.0661 143.165 69.8798 143.11 71.7813C143.055 73.6827 141.037 77.3086 137.478 77.3086C133.918 77.3086 120.426 55.6303 120.426 55.6303L123.974 35.074Z" fill="white"/>
</mask>
<g mask="url(#mask0_301_7160)">
<g style="mix-blend-mode:multiply" opacity="0.5">
<path d="M124.401 38.4125L124.633 38.5396C125.042 38.7773 125.959 39.3135 126.965 39.9823C128.102 40.8542 129.138 41.8497 130.055 42.9505C130.055 42.9505 128.806 39.634 126.976 38.0477C125.959 37.1735 125.013 36.2198 124.146 35.1956L124.401 38.4125Z" fill="#407BFF"/>
</g>
</g>
<path d="M123.974 35.074C123.974 35.074 127.446 38.0864 128.485 40.0762C129.524 42.0661 143.165 69.8798 143.11 71.7813C143.055 73.6827 141.037 77.3086 137.478 77.3086C133.918 77.3086 120.426 55.6303 120.426 55.6303L123.974 35.074Z" stroke="#263238" stroke-linecap="round" stroke-linejoin="round"/>
<path opacity="0.5" d="M132.669 64.1591C132.21 63.6064 128.8 58.1177 128.452 56.067C128.104 54.0164 129.005 51.3909 129.005 50.0201C129.005 48.6493 126.838 52.4134 126.722 51.9602C126.606 51.5069 125.24 46.5986 125.24 46.5986L121.056 52.0099L120.432 55.6414C120.432 55.6414 125.716 64.1259 130.547 70.4769C133.985 69.3714 139.175 67.6856 140.291 67.0112C142.022 65.9887 133.128 64.7339 132.669 64.1591Z" fill="#407BFF"/>
<path d="M107.308 31.3157L123.996 35.0743C123.996 35.0743 125.156 43.6251 125.024 48.246C124.891 52.8669 121.453 81.4434 121.453 81.4434C121.453 81.4434 112.609 90.4641 92.7548 81.9962C92.7548 81.9962 92.0639 80.6641 91.8041 70.7037C91.5554 60.8816 84.1708 42.6413 84.7622 40.563C85.9782 36.3014 100.582 32.2056 102.5 32.0895C104.118 31.9357 105.724 31.6772 107.308 31.3157Z" fill="white" stroke="#263238" stroke-linecap="round" stroke-linejoin="round"/>
<g style="mix-blend-mode:multiply" opacity="0.5">
<path d="M108.818 81.3935L93.5352 75.4018L96.1772 46.3721L113.561 54.5084L123.98 49.8212L116.529 80.1167L108.818 81.3935Z" fill="#407BFF"/>
</g>
<g style="mix-blend-mode:multiply" opacity="0.5">
<path d="M113.34 36.3289C114.053 36.3289 120.647 37.6499 124.395 38.4127C124.179 36.456 123.991 35.0963 123.991 35.0963L107.304 31.3376C105.719 31.701 104.113 31.9614 102.495 32.117C100.577 32.2331 85.9738 36.3289 84.7577 40.5905C84.5643 41.2814 85.2386 43.7355 86.2391 47.0685C87.6983 43.3044 89.0028 40.2036 89.4505 39.7669C90.4565 38.7609 100.505 36.152 100.505 36.152L113.34 36.3289Z" fill="#407BFF"/>
</g>
<path d="M111.841 39.8498L109.548 44.9792L114.577 80.5202L110.891 85.4948L107.392 81.4377L108.37 45.4324L103.738 40.0266L106.701 34.4219L111.841 39.8498Z" fill="#263238"/>
<path d="M129.612 51.3357L116.241 58.7534L99.0453 49.7549L96.3203 75.1532L113.35 83.3613L126.246 75.6009L129.612 51.3357Z" fill="#407BFF" stroke="#263238" stroke-linecap="round" stroke-linejoin="round"/>
<path d="M115.732 64.4576L116.241 60.3784" stroke="#263238" stroke-width="0.5" stroke-linecap="round" stroke-linejoin="round"/>
<path d="M113.35 83.3613L115.45 66.6963" stroke="#263238" stroke-width="0.5" stroke-linecap="round" stroke-linejoin="round"/>
<path d="M108.862 29.8897C108.862 29.8897 111.875 29.8897 113.185 31.8795C114.495 33.8694 117.01 41.7348 117.01 41.7348L107.945 39.1867L102.45 44.8633C102.45 44.8633 97.415 37.4014 99.4656 32.6644C101.516 27.9274 108.862 29.8897 108.862 29.8897Z" fill="white" stroke="#263238" stroke-linecap="round" stroke-linejoin="round"/>
<g style="mix-blend-mode:multiply" opacity="0.5">
<path d="M114.103 33.7199C113.843 33.0843 113.536 32.4691 113.185 31.8793C111.875 29.8618 108.863 29.8895 108.863 29.8895C108.863 29.8895 101.528 27.9272 99.466 32.6531C98.8028 34.1842 98.9133 36.0027 99.2947 37.7604C99.654 36.8208 100.466 34.9359 101.506 33.8913C102.91 32.4873 103.075 33.7089 103.075 33.7089L110.935 33.0843C111.976 33.3636 113.034 33.5759 114.103 33.7199Z" fill="#407BFF"/>
</g>
<path d="M110.154 25.3127C110.154 25.3127 110.663 35.7705 109.342 37.8322C108.021 39.894 106.517 39.1035 105.417 37.8322C104.317 36.561 103.074 33.7199 103.074 33.7199L101.73 25.9816C101.73 25.9816 109.557 27.4242 110.154 25.3127Z" fill="white" stroke="#263238" stroke-linecap="round" stroke-linejoin="round"/>
<g style="mix-blend-mode:multiply" opacity="0.5">
<path d="M107.321 33.72C108.46 33.3938 109.471 32.7263 110.218 31.8075C110.218 31.2161 110.218 30.6302 110.218 30.0608C108.93 28.585 105.973 25.7992 102.678 26.6947C102.397 26.7721 102.126 26.8605 101.877 26.9489L103.071 33.72C103.071 33.72 104.32 36.5831 105.414 37.8323L104.309 32.8964C104.695 33.286 105.176 33.5672 105.705 33.7118C106.234 33.8563 106.791 33.8592 107.321 33.72Z" fill="#407BFF"/>
</g>
<path d="M114.764 15.8003C114.764 15.8003 116.279 15.6897 116.312 18.2157C116.345 20.7417 114.858 22.8642 113.836 21.9854C112.813 21.1065 114.483 14.6506 114.764 15.8003Z" fill="white" stroke="#263238" stroke-linecap="round" stroke-linejoin="round"/>
<path d="M104.369 2.72238C97.476 4.34743 95.6299 8.8025 95.6851 12.8375C95.6851 14.3796 96.3982 17.0493 97.3434 19.8628L97.2218 19.6085C97.2218 19.6085 95.149 15.9936 94.845 18.1659C94.541 20.3381 96.5916 22.5878 97.2715 23.3119C97.4602 23.4856 97.7034 23.5884 97.9596 23.6025C98.2157 23.6166 98.4688 23.5412 98.6754 23.3892C100.046 26.7057 101.577 29.6739 102.578 30.4809C104.744 32.233 107.79 33.134 110.211 31.0336C112.632 28.9332 115.025 16.9554 115.025 16.9554C115.6 4.83937 111.261 1.10839 104.369 2.72238Z" fill="white"/>
<mask id="mask1_301_7160" style="mask-type:luminance" maskUnits="userSpaceOnUse" x="94" y="2" width="22" height="31">
<path d="M104.369 2.72238C97.476 4.34743 95.6299 8.8025 95.6851 12.8375C95.6851 14.3796 96.3982 17.0493 97.3434 19.8628L97.2218 19.6085C97.2218 19.6085 95.149 15.9936 94.845 18.1659C94.541 20.3381 96.5916 22.5878 97.2715 23.3119C97.4602 23.4856 97.7034 23.5884 97.9596 23.6025C98.2157 23.6166 98.4688 23.5412 98.6754 23.3892C100.046 26.7057 101.577 29.6739 102.578 30.4809C104.744 32.233 107.79 33.134 110.211 31.0336C112.632 28.9332 115.025 16.9554 115.025 16.9554C115.6 4.83937 111.261 1.10839 104.369 2.72238Z" fill="white"/>
</mask>
<g mask="url(#mask1_301_7160)">
<g style="mix-blend-mode:multiply" opacity="0.5">
<path d="M100.698 15.4795C100.698 15.4795 103.103 13.4731 105.513 13.4731C107.923 13.4731 112.942 15.6841 113.539 17.486C113.903 18.5915 113.472 22.1566 113.069 24.865C114.229 21.0511 115.048 16.9719 115.048 16.9719C115.6 4.86146 111.256 1.11943 104.369 2.74448C97.4815 4.36952 95.6299 8.82459 95.6851 12.8596C95.6851 14.4017 96.3982 17.0714 97.3434 19.8849L97.2218 19.6306C97.2218 19.6306 95.149 16.0157 94.845 18.188C94.541 20.3602 96.5916 22.6099 97.2715 23.3339C97.4602 23.5077 97.7034 23.6105 97.9596 23.6246C98.2157 23.6387 98.4688 23.5633 98.6754 23.4113C100.046 26.7278 101.577 29.696 102.578 30.5029C102.578 30.5029 100.273 25.3127 99.4714 23.1073C98.6699 20.9019 98.891 17.0659 100.698 15.4795Z" fill="#407BFF"/>
</g>
</g>
<path d="M104.369 2.72238C97.476 4.34743 95.6299 8.8025 95.6851 12.8375C95.6851 14.3796 96.3982 17.0493 97.3434 19.8628L97.2218 19.6085C97.2218 19.6085 95.149 15.9936 94.845 18.1659C94.541 20.3381 96.5916 22.5878 97.2715 23.3119C97.4602 23.4856 97.7034 23.5884 97.9596 23.6025C98.2157 23.6166 98.4688 23.5412 98.6754 23.3892C100.046 26.7057 101.577 29.6739 102.578 30.4809C104.744 32.233 107.79 33.134 110.211 31.0336C112.632 28.9332 115.025 16.9554 115.025 16.9554C115.6 4.83937 111.261 1.10839 104.369 2.72238Z" stroke="#263238" stroke-linecap="round" stroke-linejoin="round"/>
<path d="M112.472 20.4819C112.127 21.001 111.592 21.3637 110.982 21.4919C110.372 21.6201 109.736 21.5035 109.211 21.1673" stroke="#263238" stroke-linecap="round" stroke-linejoin="round"/>
<path d="M105.115 21.2114C104.77 21.7305 104.234 22.0932 103.624 22.2214C103.014 22.3496 102.378 22.233 101.854 21.8968" stroke="#263238" stroke-linecap="round" stroke-linejoin="round"/>
<path d="M105.469 19.5423C104.578 19.0952 103.614 18.8125 102.623 18.7076C101.307 18.6524 100.014 19.7247 100.014 19.7247" stroke="#263238" stroke-linecap="round" stroke-linejoin="round"/>
<path d="M108.642 25.125C108.595 25.4609 108.418 25.7649 108.149 25.9717C107.881 26.1785 107.541 26.2714 107.205 26.2305C106.853 26.2412 106.505 26.1544 106.2 25.9798C105.895 25.8052 105.644 25.5495 105.475 25.2411" stroke="#263238" stroke-linecap="round" stroke-linejoin="round"/>
<path d="M109.801 27.7944C109.801 27.7944 106.573 28.7562 104.5 27.9216C104.771 28.4084 105.141 28.8328 105.587 29.167C106.033 29.5013 106.544 29.738 107.087 29.8617C108.314 30.1878 109.801 27.7944 109.801 27.7944Z" fill="#263238"/>
<path d="M112.875 18.0884C112.875 18.0884 111.664 17.9834 110.52 17.9945C109.47 17.9945 108.425 19.3597 108.425 19.3597L108.055 21.0179" stroke="#263238" stroke-linecap="round" stroke-linejoin="round"/>
<path d="M102.916 12.1246C105.422 14.2237 108.162 16.0282 111.08 17.5027C115.833 19.8795 119.481 15.2917 117.254 13.0366C115.026 10.7814 120.156 15.5128 120.963 12.6828C121.77 9.8528 114.385 0.141205 106.967 0.00302086C99.5497 -0.135163 97.7533 4.51336 97.7533 4.51336C97.7533 4.51336 96.8799 2.12001 96.2222 3.44105C95.8396 4.16002 95.6207 4.95463 95.581 5.76807C95.581 5.76807 94.0776 6.87355 93.4143 7.53131C92.751 8.18906 93.6022 8.88551 93.6022 8.88551C93.6022 8.88551 92.2756 12.2019 92.9831 14.7611L96.7915 20.2885C97.2509 20.2736 97.7008 20.1532 98.1062 19.9366C98.5117 19.7199 98.8618 19.4129 99.1296 19.0393C100.125 17.7348 99.3949 13.6667 99.3949 13.6667C99.3949 13.6667 99.4557 18.0444 100.622 17.0826C101.788 16.1208 100.069 11.8427 100.069 11.8427L102.916 12.1246Z" fill="#263238"/>
<path d="M99.6035 7.60327C99.6035 7.60327 102.997 10.1569 105.451 12.4895C107.906 14.822 111.648 15.7175 112.759 15.2034" stroke="white" stroke-width="0.5" stroke-miterlimit="10" stroke-linecap="round"/>
<path d="M110.09 10.8146C110.09 10.8146 105.226 9.70908 104.082 7.59763C102.938 5.48617 99.3945 5.7349 99.3945 5.7349C100.28 4.91875 101.359 4.3437 102.531 4.06495C103.702 3.78619 104.925 3.81307 106.083 4.14302" stroke="white" stroke-width="0.5" stroke-miterlimit="10" stroke-linecap="round"/>
<path d="M97.7578 8.64795C97.7578 8.64795 101.561 14.3798 99.1618 16.1431" stroke="white" stroke-width="0.5" stroke-miterlimit="10" stroke-linecap="round"/>
<path d="M84.7625 40.5684C84.7625 40.5684 74.4429 68.7027 74.9183 71.8422C75.3936 74.9818 80.8105 73.7326 82.5184 73.307C84.2264 72.8814 90.8095 62.4347 90.8537 60.185C91.279 59.919 91.6429 59.5655 91.9211 59.1481C92.1994 58.7307 92.3857 58.2589 92.4677 57.764C92.8712 55.951 93.1476 49.473 90.5276 44.6144" fill="white"/>
<mask id="mask2_301_7160" style="mask-type:luminance" maskUnits="userSpaceOnUse" x="74" y="40" width="19" height="34">
<path d="M84.7625 40.5684C84.7625 40.5684 74.4429 68.7027 74.9183 71.8422C75.3936 74.9818 80.8105 73.7326 82.5184 73.307C84.2264 72.8814 90.8095 62.4347 90.8537 60.185C91.279 59.919 91.6429 59.5655 91.9211 59.1481C92.1994 58.7307 92.3857 58.2589 92.4677 57.764C92.8712 55.951 93.1476 49.473 90.5276 44.6144" fill="white"/>
</mask>
<g mask="url(#mask2_301_7160)">
<g style="mix-blend-mode:multiply" opacity="0.5">
<path d="M84.7625 40.5684C84.7625 40.5684 74.4429 68.7027 74.9183 71.8422C75.1836 73.5613 76.9302 73.9592 78.7322 73.9039C79.9924 70.3498 80.4843 63.8552 81.4295 60.6383C82.4742 57.0399 85.8791 47.7263 87.9518 42.8291L84.7625 40.5684Z" fill="#407BFF"/>
</g>
</g>
<path d="M84.7625 40.5684C84.7625 40.5684 74.4429 68.7027 74.9183 71.8422C75.3936 74.9818 80.8105 73.7326 82.5184 73.307C84.2264 72.8814 90.8095 62.4347 90.8537 60.185C91.279 59.919 91.6429 59.5655 91.9211 59.1481C92.1994 58.7307 92.3857 58.2589 92.4677 57.764C92.8712 55.951 93.1476 49.473 90.5276 44.6144" stroke="#263238" stroke-linecap="round" stroke-linejoin="round"/>
<path d="M92.5619 69.272C92.5619 69.272 79.2962 68.465 77.5938 68.3268C75.8914 68.1887 73.8518 70.5378 75.4547 73.7879C77.0577 77.038 79.6058 77.2259 82.7343 76.6345C85.8628 76.043 92.772 71.8257 92.772 71.8257L92.5619 69.272Z" fill="white"/>
<mask id="mask3_301_7160" style="mask-type:luminance" maskUnits="userSpaceOnUse" x="74" y="68" width="19" height="9">
<path d="M92.5619 69.272C92.5619 69.272 79.2962 68.465 77.5938 68.3268C75.8914 68.1887 73.8518 70.5378 75.4547 73.7879C77.0577 77.038 79.6058 77.2259 82.7343 76.6345C85.8628 76.043 92.772 71.8257 92.772 71.8257L92.5619 69.272Z" fill="white"/>
</mask>
<g mask="url(#mask3_301_7160)">
<path opacity="0.5" d="M92.5619 69.272C92.5619 69.272 79.2962 68.465 77.5938 68.3268C75.8914 68.1887 73.8518 70.5378 75.4547 73.7879C77.0577 77.038 79.6058 77.2259 82.7343 76.6345C85.8628 76.043 92.772 71.8257 92.772 71.8257L92.5619 69.272Z" fill="#407BFF" stroke="#263238" stroke-linecap="round" stroke-linejoin="round"/>
</g>
<path d="M92.5619 69.272C92.5619 69.272 79.2962 68.465 77.5938 68.3268C75.8914 68.1887 73.8518 70.5378 75.4547 73.7879C77.0577 77.038 79.6058 77.2259 82.7343 76.6345C85.8628 76.043 92.772 71.8257 92.772 71.8257L92.5619 69.272Z" stroke="#263238" stroke-linecap="round" stroke-linejoin="round"/>
<path d="M94.6786 66.0385C94.6786 66.0385 96.3921 64.22 96.8453 64.2587C97.2986 64.2974 100.626 64.115 100.908 64.8943C101.19 65.6737 100.742 65.331 100.283 65.5908C99.8246 65.8506 97.5473 66.1435 97.5473 66.1435C97.5473 66.1435 99.5095 66.3038 100.101 66.652C100.692 67.0002 103.196 69.3107 103.185 69.7639C103.174 70.2172 102.87 70.3167 102.262 70.3167C101.654 70.3167 102.102 70.7533 101.936 71.19C101.77 71.6267 100.571 71.5327 100.571 71.5327C100.571 71.5327 100.676 73.0472 99.7693 72.9698C98.8628 72.8924 97.2378 71.7096 97.2378 71.7096C97.2378 71.7096 93.8826 72.9366 92.6777 72.8427C91.8862 72.8069 91.0997 72.9845 90.4004 73.3567C91.4137 70.6983 92.8592 68.2256 94.6786 66.0385Z" fill="white"/>
<mask id="mask4_301_7160" style="mask-type:luminance" maskUnits="userSpaceOnUse" x="90" y="64" width="14" height="10">
<path d="M94.6786 66.0385C94.6786 66.0385 96.3921 64.22 96.8453 64.2587C97.2986 64.2974 100.626 64.115 100.908 64.8943C101.19 65.6737 100.742 65.331 100.283 65.5908C99.8246 65.8506 97.5473 66.1435 97.5473 66.1435C97.5473 66.1435 99.5095 66.3038 100.101 66.652C100.692 67.0002 103.196 69.3107 103.185 69.7639C103.174 70.2172 102.87 70.3167 102.262 70.3167C101.654 70.3167 102.102 70.7533 101.936 71.19C101.77 71.6267 100.571 71.5327 100.571 71.5327C100.571 71.5327 100.676 73.0472 99.7693 72.9698C98.8628 72.8924 97.2378 71.7096 97.2378 71.7096C97.2378 71.7096 93.8826 72.9366 92.6777 72.8427C91.8862 72.8069 91.0997 72.9845 90.4004 73.3567C91.4137 70.6983 92.8592 68.2256 94.6786 66.0385Z" fill="white"/>
</mask>
<g mask="url(#mask4_301_7160)">
<g style="mix-blend-mode:multiply" opacity="0.5">
<path d="M94.6786 66.0385C92.8639 68.2105 91.4186 70.6661 90.4004 73.307C91.0997 72.9347 91.8862 72.7572 92.6777 72.7929C93.0739 72.7996 93.4694 72.7569 93.855 72.6658C94.0951 71.6088 94.2376 70.532 94.2806 69.4489C94.2806 67.8404 96.8453 64.2587 96.8453 64.2587C96.3865 64.22 94.6786 66.0385 94.6786 66.0385Z" fill="#407BFF"/>
</g>
</g>
<path d="M94.6786 66.0385C94.6786 66.0385 96.3921 64.22 96.8453 64.2587C97.2986 64.2974 100.626 64.115 100.908 64.8943C101.19 65.6737 100.742 65.331 100.283 65.5908C99.8246 65.8506 97.5473 66.1435 97.5473 66.1435C97.5473 66.1435 99.5095 66.3038 100.101 66.652C100.692 67.0002 103.196 69.3107 103.185 69.7639C103.174 70.2172 102.87 70.3167 102.262 70.3167C101.654 70.3167 102.102 70.7533 101.936 71.19C101.77 71.6267 100.571 71.5327 100.571 71.5327C100.571 71.5327 100.676 73.0472 99.7693 72.9698C98.8628 72.8924 97.2378 71.7096 97.2378 71.7096C97.2378 71.7096 93.8826 72.9366 92.6777 72.8427C91.8862 72.8069 91.0997 72.9845 90.4004 73.3567C91.4137 70.6984 92.8592 68.2256 94.6786 66.0385Z" stroke="#263238" stroke-linecap="round" stroke-linejoin="round"/>
<path d="M102.262 70.2669L99.3045 67.9178L96.8945 67.5696" stroke="#263238" stroke-linecap="round" stroke-linejoin="round"/>
<path d="M100.566 71.4831L97.2886 69.7088L95.7852 69.438" stroke="#263238" stroke-linecap="round" stroke-linejoin="round"/>
<path d="M131.005 63.8C131.005 63.8 129.291 61.9871 128.838 62.0202C128.385 62.0534 125.057 61.882 124.775 62.6559C124.493 63.4297 124.941 63.0925 125.4 63.3578C126.294 63.6164 127.21 63.7921 128.136 63.883C128.136 63.883 126.174 64.0432 125.582 64.397C124.991 64.7507 122.487 67.0557 122.498 67.5034C122.509 67.9511 122.813 68.0561 123.421 68.0561C124.029 68.0561 123.581 68.4928 123.747 68.9294C123.913 69.3661 125.113 69.2666 125.113 69.2666C125.113 69.2666 125.008 70.7811 125.914 70.7093C126.821 70.6374 128.446 69.449 128.446 69.449C128.446 69.449 131.801 70.6761 133.006 70.5545C133.798 70.5177 134.585 70.6973 135.283 71.0741C134.266 68.4311 132.82 65.9736 131.005 63.8Z" fill="white" stroke="#263238" stroke-linecap="round" stroke-linejoin="round"/>
<path d="M123.422 68.0283L126.373 65.6847L128.783 65.3364" stroke="#263238" stroke-linecap="round" stroke-linejoin="round"/>
<path d="M125.113 69.2446L128.391 67.4758L129.894 67.1995" stroke="#263238" stroke-linecap="round" stroke-linejoin="round"/>
<path d="M132.979 66.5524C132.979 66.5524 138.666 65.9002 140.617 67.365C142.568 68.8297 142.242 72.5607 142.242 72.5607" stroke="#263238" stroke-linecap="round" stroke-linejoin="round"/>
<path d="M88.0449 186.828C88.0449 186.828 88.6529 185.618 90.593 185.861C92.5332 186.104 93.7492 188.409 92.4115 189.133C91.0739 189.857 88.0449 186.828 88.0449 186.828Z" fill="#407BFF" stroke="#263238" stroke-linecap="round" stroke-linejoin="round"/>
<path d="M90.9147 130.537C90.9147 130.537 95.4803 131.455 97.6746 132.914C99.869 134.373 100.228 134.738 100.775 137.662C101.323 140.586 99.3163 148.435 99.3163 152.454C99.3163 156.472 96.3923 180.942 96.3923 182.959C96.3923 184.977 98.4042 189.166 98.2218 190.626C98.1443 191.675 98.2681 192.729 98.5867 193.732C98.5867 193.732 99.8635 194.644 98.2218 194.837C96.5802 195.031 96.3923 195.202 94.9331 194.473C93.4738 193.743 92.7221 190.089 91.4619 188.995C90.2016 187.901 89.4554 186.624 89.4554 185.706C89.4554 184.789 92.3739 181.329 92.3739 181.329C92.3739 181.329 92.0091 176.216 91.8211 171.832C91.6332 167.449 89.6102 157.771 89.6102 153.592C89.6102 149.413 92.3739 139.531 92.3739 139.531C92.3739 139.531 85.2823 140.398 82.5186 138.574C79.7549 136.75 82.8834 128.713 90.9147 130.537Z" fill="white" stroke="#263238" stroke-linecap="round" stroke-linejoin="round"/>
<path d="M91.461 188.973C91.461 188.973 88.1446 186.126 88.0451 186.85C87.9456 187.574 87.9235 193.284 88.1667 193.886C88.4099 194.489 94.9598 195.102 98.3592 195.71C101.759 196.319 100.421 194.13 99.6913 193.643C98.9617 193.157 91.461 188.973 91.461 188.973Z" fill="#407BFF" stroke="#263238" stroke-linecap="round" stroke-linejoin="round"/>
<path opacity="0.2" d="M91.461 188.973C91.461 188.973 88.1446 186.126 88.0451 186.85C87.9456 187.574 87.9235 193.284 88.1667 193.886C88.4099 194.489 94.9598 195.102 98.3592 195.71C101.759 196.319 100.421 194.13 99.6913 193.643C98.9617 193.157 91.461 188.973 91.461 188.973Z" fill="black"/>
<path d="M92.4121 192.19C93.076 191.394 93.8525 190.699 94.717 190.128C95.7439 189.399 96.8962 188.865 98.1164 188.553L99.6917 191.582C98.6054 191.838 97.5494 192.209 96.5411 192.687C95.7758 193.151 95.0815 193.722 94.4794 194.384C94.4794 194.384 92.6553 193.163 92.4121 192.19Z" fill="#263238" stroke="#263238" stroke-linecap="round" stroke-linejoin="round"/>
<path d="M95.6893 188.796C95.536 188.815 95.3883 188.866 95.2552 188.944C95.1221 189.022 95.0064 189.127 94.9153 189.252C94.8242 189.377 94.7596 189.519 94.7254 189.67C94.6912 189.82 94.6882 189.976 94.7165 190.128C94.8381 191.344 94.9597 195.224 95.4461 195.346C95.9325 195.468 101.996 196.451 104.179 196.556C106.363 196.661 108.789 196.678 108.789 195.589C108.789 194.5 108.424 194.014 107.943 194.014C107.463 194.014 106.363 193.649 104.909 192.803C103.455 191.958 99.9343 188.68 98.8288 188.558C97.7234 188.437 96.2973 187.702 95.6893 188.796Z" fill="#407BFF" stroke="#263238" stroke-linecap="round" stroke-linejoin="round"/>
<path opacity="0.2" d="M95.6893 188.796C95.536 188.815 95.3883 188.866 95.2552 188.944C95.1221 189.022 95.0064 189.127 94.9153 189.252C94.8242 189.377 94.7596 189.519 94.7254 189.67C94.6912 189.82 94.6882 189.976 94.7165 190.128C94.8381 191.344 94.9597 195.224 95.4461 195.346C95.9325 195.468 101.996 196.451 104.179 196.556C106.363 196.661 108.789 196.678 108.789 195.589C108.789 194.5 108.424 194.014 107.943 194.014C107.463 194.014 106.363 193.649 104.909 192.803C103.455 191.958 99.9343 188.68 98.8288 188.558C97.7234 188.437 96.2973 187.702 95.6893 188.796Z" fill="black"/>
<path d="M44.8262 194.014C44.8262 193.467 44.6641 192.933 44.3604 192.478C44.0568 192.024 43.6251 191.67 43.1201 191.46C42.6151 191.251 42.0594 191.196 41.5233 191.303C40.9872 191.41 40.4948 191.673 40.1083 192.059C39.7218 192.446 39.4586 192.938 39.3519 193.475C39.2453 194.011 39.3 194.566 39.5092 195.071C39.7184 195.576 40.0726 196.008 40.5271 196.312C40.9816 196.615 41.5159 196.777 42.0625 196.777C42.7955 196.777 43.4984 196.486 44.0167 195.968C44.535 195.45 44.8262 194.747 44.8262 194.014Z" fill="#263238" stroke="#263238" stroke-linecap="round" stroke-linejoin="round"/>
<path d="M42.0635 195.39C42.8267 195.39 43.4453 194.771 43.4453 194.008C43.4453 193.245 42.8267 192.626 42.0635 192.626C41.3003 192.626 40.6816 193.245 40.6816 194.008C40.6816 194.771 41.3003 195.39 42.0635 195.39Z" fill="white" stroke="#263238" stroke-linecap="round" stroke-linejoin="round"/>
<path d="M74.4434 194.014C74.4434 193.467 74.2813 192.933 73.9776 192.478C73.6739 192.024 73.2423 191.67 72.7373 191.46C72.2323 191.251 71.6766 191.196 71.1405 191.303C70.6044 191.41 70.112 191.673 69.7255 192.059C69.339 192.446 69.0758 192.938 68.9691 193.475C68.8625 194.011 68.9172 194.566 69.1264 195.071C69.3356 195.576 69.6898 196.008 70.1443 196.312C70.5988 196.615 71.1331 196.777 71.6797 196.777C72.4127 196.777 73.1156 196.486 73.6339 195.968C74.1522 195.45 74.4434 194.747 74.4434 194.014Z" fill="#263238" stroke="#263238" stroke-linecap="round" stroke-linejoin="round"/>
<path d="M73.0606 194.014C73.0606 193.741 72.9795 193.473 72.8277 193.246C72.6758 193.019 72.46 192.842 72.2075 192.737C71.955 192.633 71.6772 192.605 71.4091 192.659C71.1411 192.712 70.8949 192.844 70.7016 193.037C70.5084 193.23 70.3767 193.476 70.3234 193.744C70.2701 194.012 70.2975 194.29 70.4021 194.543C70.5067 194.795 70.6838 195.011 70.911 195.163C71.1382 195.315 71.4054 195.396 71.6787 195.396C72.0452 195.396 72.3967 195.25 72.6558 194.991C72.915 194.732 73.0606 194.38 73.0606 194.014Z" fill="white" stroke="#263238" stroke-linecap="round" stroke-linejoin="round"/>
<path d="M84.1231 194.014C84.1231 193.467 83.961 192.933 83.6573 192.478C83.3536 192.024 82.922 191.67 82.417 191.46C81.912 191.251 81.3563 191.196 80.8202 191.303C80.2841 191.41 79.7917 191.673 79.4052 192.059C79.0187 192.446 78.7554 192.938 78.6488 193.475C78.5422 194.011 78.5969 194.566 78.8061 195.071C79.0153 195.576 79.3695 196.008 79.824 196.312C80.2785 196.615 80.8128 196.777 81.3594 196.777C82.0924 196.777 82.7953 196.486 83.3136 195.968C83.8319 195.45 84.1231 194.747 84.1231 194.014Z" fill="#263238" stroke="#263238" stroke-linecap="round" stroke-linejoin="round"/>
<path d="M82.7396 194.014C82.7407 193.739 82.6601 193.47 82.5081 193.241C82.356 193.012 82.1394 192.833 81.8857 192.728C81.632 192.622 81.3525 192.594 81.0829 192.647C80.8133 192.701 80.5656 192.833 80.3712 193.027C80.1768 193.222 80.0446 193.469 79.9912 193.739C79.9379 194.009 79.9658 194.288 80.0715 194.542C80.1772 194.795 80.3559 195.012 80.5849 195.164C80.8139 195.316 81.0829 195.397 81.3577 195.396C81.7242 195.396 82.0757 195.25 82.3348 194.991C82.594 194.732 82.7396 194.38 82.7396 194.014Z" fill="white" stroke="#263238" stroke-linecap="round" stroke-linejoin="round"/>
<path d="M67.389 146.567H61.541V190.847H67.389V146.567Z" fill="#263238" stroke="#263238" stroke-linecap="round" stroke-linejoin="round"/>
<path d="M68.9556 169.704H59.9902V190.847H68.9556V169.704Z" fill="#263238" stroke="#263238" stroke-linecap="round" stroke-linejoin="round"/>
<path d="M41.4942 190.012H82.8002C83.3866 190.012 83.949 190.245 84.3636 190.66C84.7782 191.074 85.0112 191.637 85.0112 192.223V192.516H39.2832V192.223C39.2832 191.637 39.5161 191.074 39.9308 190.66C40.3454 190.245 40.9078 190.012 41.4942 190.012Z" fill="#263238" stroke="#263238" stroke-linecap="round" stroke-linejoin="round"/>
<path d="M58.4957 129.443H50.9785V141.559H58.4957V129.443Z" fill="#263238" stroke="#263238" stroke-linecap="round" stroke-linejoin="round"/>
<path d="M88.8193 139.884H40.1121C37.8745 139.884 36.0605 141.698 36.0605 143.936V145.024C36.0605 147.262 37.8745 149.076 40.1121 149.076H88.8193C91.0569 149.076 92.8709 147.262 92.8709 145.024V143.936C92.8709 141.698 91.0569 139.884 88.8193 139.884Z" fill="#407BFF" stroke="#263238" stroke-linecap="round" stroke-linejoin="round"/>
<path opacity="0.1" d="M88.8193 139.884H40.1121C37.8745 139.884 36.0605 141.698 36.0605 143.936V145.024C36.0605 147.262 37.8745 149.076 40.1121 149.076H88.8193C91.0569 149.076 92.8709 147.262 92.8709 145.024V143.936C92.8709 141.698 91.0569 139.884 88.8193 139.884Z" fill="black"/>
<path d="M92.8715 144.477C92.8715 143.259 92.3876 142.091 91.5262 141.229C90.6648 140.368 89.4965 139.884 88.2783 139.884H63.2172C62.6002 139.863 61.9852 139.966 61.4089 140.187C60.8327 140.408 60.3068 140.744 59.8628 141.172C59.4188 141.601 59.0656 142.115 58.8245 142.683C58.5833 143.252 58.459 143.863 58.459 144.48C58.459 145.097 58.5833 145.708 58.8245 146.277C59.0656 146.845 59.4188 147.359 59.8628 147.788C60.3068 148.217 60.8327 148.552 61.4089 148.773C61.9852 148.994 62.6002 149.098 63.2172 149.076H88.2783C89.497 149.075 90.6653 148.589 91.5265 147.727C92.3878 146.865 92.8715 145.696 92.8715 144.477Z" fill="#407BFF" stroke="#263238" stroke-miterlimit="10"/>
<path opacity="0.1" d="M92.8715 144.621C92.8715 144.018 92.7527 143.421 92.5219 142.863C92.2911 142.306 91.9527 141.8 91.5262 141.373C91.0997 140.947 90.5933 140.608 90.036 140.378C89.4788 140.147 88.8815 140.028 88.2783 140.028H63.2172C62.6002 140.007 61.9852 140.11 61.4089 140.331C60.8327 140.552 60.3068 140.887 59.8628 141.316C59.4188 141.745 59.0656 142.259 58.8245 142.827C58.5833 143.396 58.459 144.007 58.459 144.624C58.459 145.241 58.5833 145.852 58.8245 146.421C59.0656 146.989 59.4188 147.503 59.8628 147.932C60.3068 148.361 60.8327 148.696 61.4089 148.917C61.9852 149.138 62.6002 149.241 63.2172 149.22H88.2783C88.8819 149.22 89.4797 149.101 90.0373 148.87C90.595 148.639 91.1016 148.3 91.5281 147.873C91.9547 147.446 92.293 146.939 92.5235 146.381C92.754 145.823 92.8722 145.225 92.8715 144.621Z" fill="black"/>
<path d="M69.5453 129.448H40.2503C39.5653 129.449 38.8873 129.312 38.2562 129.046C37.6251 128.78 37.0536 128.39 36.5755 127.899C36.0974 127.409 35.7224 126.828 35.4726 126.19C35.2227 125.552 35.1031 124.871 35.1209 124.186L35.8449 95.6263C35.8767 94.2876 36.4313 93.0145 37.39 92.0796C38.3487 91.1447 39.6353 90.6222 40.9743 90.624H65.1456C66.3719 90.6219 67.5584 91.0597 68.4895 91.8579C69.4206 92.6561 70.0345 93.7618 70.2197 94.9741L74.6139 123.556C74.7237 124.286 74.6747 125.03 74.4704 125.739C74.2661 126.448 73.9113 127.105 73.4302 127.664C72.9491 128.223 72.3529 128.672 71.6825 128.98C71.0121 129.288 70.2831 129.448 69.5453 129.448Z" fill="#407BFF" stroke="#263238" stroke-linecap="round" stroke-linejoin="round"/>
<path opacity="0.1" d="M69.5453 129.448H40.2503C39.5653 129.449 38.8873 129.312 38.2562 129.046C37.6251 128.78 37.0536 128.39 36.5755 127.899C36.0974 127.409 35.7224 126.828 35.4726 126.19C35.2227 125.552 35.1031 124.871 35.1209 124.186L35.8449 95.6263C35.8767 94.2876 36.4313 93.0145 37.39 92.0796C38.3487 91.1447 39.6353 90.6222 40.9743 90.624H65.1456C66.3719 90.6219 67.5584 91.0597 68.4895 91.8579C69.4206 92.6561 70.0345 93.7618 70.2197 94.9741L74.6139 123.556C74.7237 124.286 74.6747 125.03 74.4704 125.739C74.2661 126.448 73.9113 127.105 73.4302 127.664C72.9491 128.223 72.3529 128.672 71.6825 128.98C71.0121 129.288 70.2831 129.448 69.5453 129.448Z" fill="black"/>
<path d="M59.9784 147.612L47.1328 156.068" stroke="#263238" stroke-linecap="round" stroke-linejoin="round"/>
<path d="M46.6457 154.769L44.4347 156.256C44.2616 156.374 44.1167 156.529 44.0105 156.71C43.9043 156.89 43.8393 157.092 43.8203 157.301C43.8013 157.51 43.8287 157.72 43.9005 157.917C43.9723 158.114 44.0868 158.292 44.2357 158.44L44.4237 158.616C44.672 158.861 45.0021 159.004 45.3502 159.02C45.6982 159.035 46.0396 158.921 46.3085 158.699L48.3315 157.041C48.4817 156.917 48.6045 156.763 48.6924 156.589C48.7803 156.415 48.8313 156.225 48.8422 156.03C48.8531 155.835 48.8237 155.641 48.7558 155.458C48.6879 155.275 48.5829 155.109 48.4476 154.968C48.2186 154.729 47.9124 154.577 47.5829 154.541C47.2533 154.504 46.9214 154.585 46.6457 154.769Z" fill="#263238" stroke="#263238" stroke-linecap="round" stroke-linejoin="round"/>
<path d="M61.9844 190.012H74.6586C75.245 190.012 75.8074 190.245 76.222 190.66C76.6366 191.074 76.8696 191.637 76.8696 192.223V192.516H61.9844V190.012Z" fill="#263238" stroke="#263238" stroke-linecap="round" stroke-linejoin="round"/>
<path d="M72.1343 114.729C74.6345 114.729 76.6613 113.576 76.6613 112.153C76.6613 110.731 74.6345 109.578 72.1343 109.578C69.6342 109.578 67.6074 110.731 67.6074 112.153C67.6074 113.576 69.6342 114.729 72.1343 114.729Z" fill="white" stroke="#263238" stroke-linecap="round" stroke-linejoin="round"/>
<path d="M84.7299 133.279C84.7299 133.279 92.0315 133.644 93.6787 137.48C94.0179 138.793 94.2034 140.142 94.2314 141.498C94.2314 143.505 100.986 182.218 101.168 182.954C101.351 183.689 105.369 189.343 105.916 190.62C106.464 191.897 107.022 192.997 107.022 192.997C107.022 192.997 108.68 193.726 108.487 194.274C108.293 194.821 104.468 195.003 102.826 195.003C101.185 195.003 99.3553 190.99 98.2609 190.62C97.1665 190.25 95.8841 188.962 95.8841 188.249C95.8841 187.536 96.4368 182.224 96.4368 182.224C95.7364 177.891 94.5114 173.659 92.7888 169.622C90.3457 164.055 87.3056 155.925 86.9408 152.094C86.576 148.264 86.576 144.605 86.576 144.605L81.9662 143.87C81.9662 143.87 81.4134 134.373 84.7299 133.279Z" fill="white" stroke="#263238" stroke-linecap="round" stroke-linejoin="round"/>
<path d="M99.5703 192.433C99.5703 192.433 101.03 186.491 104.788 188.796L106.363 191.46C106.363 191.46 102.848 191.46 101.754 194.86C101.219 194.664 100.741 194.341 100.36 193.918C99.9794 193.495 99.7083 192.985 99.5703 192.433Z" fill="#263238" stroke="#263238" stroke-linecap="round" stroke-linejoin="round"/>
<path d="M69.6189 122.191L69.442 122.219C67.7838 115.464 65.5452 108.561 65.5452 108.561C65.5452 108.561 54.5623 111.462 48.2279 109.495C48.2279 109.495 45.0055 125.364 45.0055 129.509C45.0055 132.826 44.3201 136.197 46.8295 138.143C47.0722 138.5 47.3841 138.805 47.7468 139.04C48.1095 139.274 48.5156 139.434 48.941 139.508C55.7894 140.796 67.5903 140.348 69.5581 140.741C71.5258 141.133 81.967 143.869 81.967 143.869C81.967 143.869 82.5916 138.11 84.3604 134.373C86.1291 130.637 94.2046 131.273 94.2046 131.273L69.6189 122.191Z" fill="#263238" stroke="#263238" stroke-linecap="round" stroke-linejoin="round"/>
<path d="M67.0794 77.939C67.0794 77.939 65.5649 76.0376 63.9288 78.1324C62.2927 80.2273 63.5916 87.5013 64.3986 90.4087C65.2056 93.3161 78.8361 105.377 80.1185 106.272C81.4008 107.168 98.1101 110.943 99.5693 110.252C101.029 109.561 101.449 106.062 100.619 104.172C99.7904 102.282 84.1756 98.2687 84.1756 98.2687L67.0794 77.939Z" fill="white"/>
<mask id="mask5_301_7160" style="mask-type:luminance" maskUnits="userSpaceOnUse" x="63" y="77" width="39" height="34">
<path d="M67.0794 77.939C67.0794 77.939 65.5649 76.0376 63.9288 78.1324C62.2927 80.2273 63.5916 87.5013 64.3986 90.4087C65.2056 93.3161 78.8361 105.377 80.1185 106.272C81.4008 107.168 98.1101 110.943 99.5693 110.252C101.029 109.561 101.449 106.062 100.619 104.172C99.7904 102.282 84.1756 98.2687 84.1756 98.2687L67.0794 77.939Z" fill="white"/>
</mask>
<g mask="url(#mask5_301_7160)">
<g style="mix-blend-mode:multiply" opacity="0.5">
<path d="M80.1202 106.283C81.4026 107.173 98.1118 110.954 99.571 110.263C100.411 109.865 100.903 108.527 101.014 107.107C98.4324 106.068 95.3702 105.366 93.9497 105.449C91.888 105.565 93.2698 107.488 89.9645 106.947C86.6591 106.405 82.8894 104.736 79.4625 102.779C76.0355 100.822 69.8835 95.0406 69.8835 95.0406L74.7089 95.5934L69.2092 93.8965L73.9904 92.1001L69.8835 91.8568C70.1466 91.2063 70.269 90.5074 70.2428 89.8062C70.2428 88.3857 67.5344 83.1125 67.5344 83.1125L64.6602 91.0112C66.6666 94.615 78.9097 105.438 80.1202 106.283Z" fill="#407BFF"/>
</g>
</g>
<path d="M67.0794 77.939C67.0794 77.939 65.5649 76.0376 63.9288 78.1324C62.2927 80.2273 63.5916 87.5013 64.3986 90.4087C65.2056 93.3161 78.8361 105.377 80.1185 106.272C81.4008 107.168 98.1101 110.943 99.5693 110.252C101.029 109.561 101.449 106.062 100.62 104.172C99.7904 102.282 84.1756 98.2687 84.1756 98.2687L67.0794 77.939Z" stroke="#263238" stroke-linecap="round" stroke-linejoin="round"/>
<path d="M72.4484 93.2112L68.6953 94.6649L75.0076 96.7653" stroke="#263238" stroke-width="0.5" stroke-linecap="round" stroke-linejoin="round"/>
<path d="M99.6099 104.155C99.1275 104.254 98.6862 104.497 98.3439 104.851C98.0016 105.205 97.7743 105.654 97.6919 106.14C97.3658 107.87 99.0682 109.346 99.0682 109.346C99.0682 109.346 102.655 110.578 103.728 107.687C104.8 104.797 101.345 104.045 99.6099 104.155Z" fill="white"/>
<mask id="mask6_301_7160" style="mask-type:luminance" maskUnits="userSpaceOnUse" x="97" y="104" width="7" height="6">
<path d="M99.6099 104.155C99.1275 104.254 98.6862 104.497 98.3439 104.851C98.0016 105.205 97.7743 105.654 97.6919 106.14C97.3658 107.87 99.0682 109.346 99.0682 109.346C99.0682 109.346 102.655 110.578 103.728 107.687C104.8 104.797 101.345 104.045 99.6099 104.155Z" fill="white"/>
</mask>
<g mask="url(#mask6_301_7160)">
<g style="mix-blend-mode:multiply" opacity="0.5">
<path d="M99.0682 109.346C99.0682 109.346 102.13 110.39 103.44 108.284C101.641 107.283 99.7175 106.523 97.7195 106.024C97.7077 106.062 97.6985 106.1 97.6919 106.14C97.3658 107.87 99.0682 109.346 99.0682 109.346Z" fill="#407BFF"/>
</g>
</g>
<path d="M99.6099 104.155C99.1275 104.254 98.6862 104.497 98.3439 104.851C98.0016 105.205 97.7743 105.654 97.6919 106.14C97.3658 107.87 99.0682 109.346 99.0682 109.346C99.0682 109.346 102.655 110.578 103.728 107.687C104.8 104.797 101.345 104.045 99.6099 104.155Z" stroke="#263238" stroke-linecap="round" stroke-linejoin="round"/>
<path d="M110.205 108.152C111.207 108.312 112.13 108.793 112.836 109.522C113.881 110.7 113.029 111.181 112.361 111.009C111.692 110.838 109.492 107.588 110.205 108.152Z" fill="white" stroke="#263238" stroke-linecap="round" stroke-linejoin="round"/>
<path d="M109.509 107.936C110.479 108.234 111.327 108.839 111.924 109.661C112.797 110.965 111.885 111.319 111.25 111.064C110.614 110.81 108.878 107.278 109.509 107.936Z" fill="white" stroke="#263238" stroke-linecap="round" stroke-linejoin="round"/>
<path d="M103.253 105.36C103.253 105.36 101.595 105.968 101.412 107.018C101.382 107.346 101.421 107.677 101.525 107.989C101.63 108.301 101.799 108.588 102.02 108.831C102.02 108.831 103.678 110.158 104.309 110.296C104.939 110.434 106.354 111.241 106.52 110.473C106.685 109.705 105.005 109.025 105.005 109.025C105.005 109.025 108.216 109.218 108.321 109.865C108.426 110.512 109.587 111.18 110.615 111.197C111.643 111.214 110.4 109.135 110.151 108.616C109.902 108.096 105.309 105.399 103.253 105.36Z" fill="white" stroke="#263238" stroke-linecap="round" stroke-linejoin="round"/>
<path d="M50.6162 72.7818C50.6162 72.7818 40.5122 78.6574 39.7218 79.0443C38.9314 79.4312 38.1465 85.5113 38.1465 86.0862C38.1465 86.661 48.2505 109.495 48.2505 109.495C48.2505 109.495 50.7378 111.601 58.0174 111.601C65.2969 111.601 65.8607 110.495 65.8607 110.495L66.4411 100.861C66.4411 100.861 68.9284 94.3496 69.1219 93.1999C69.3153 92.0502 67.0823 77.9388 67.0823 77.9388L56.7461 71.0462C56.7461 71.0462 52.5342 68.5699 50.6162 72.7818Z" fill="white"/>
<mask id="mask7_301_7160" style="mask-type:luminance" maskUnits="userSpaceOnUse" x="38" y="70" width="32" height="42">
<path d="M50.6162 72.7818C50.6162 72.7818 40.5122 78.6574 39.7218 79.0443C38.9314 79.4312 38.1465 85.5113 38.1465 86.0862C38.1465 86.661 48.2505 109.495 48.2505 109.495C48.2505 109.495 50.7378 111.601 58.0174 111.601C65.2969 111.601 65.8607 110.495 65.8607 110.495L66.4411 100.861C66.4411 100.861 68.9284 94.3496 69.1219 93.1999C69.3153 92.0502 67.0823 77.9388 67.0823 77.9388L56.7461 71.0462C56.7461 71.0462 52.5342 68.5699 50.6162 72.7818Z" fill="white"/>
</mask>
<g mask="url(#mask7_301_7160)">
<g style="mix-blend-mode:multiply" opacity="0.5">
<path d="M40.7499 83.223C41.5403 81.9572 48.8143 77.2147 48.8143 77.2147L51.5006 75.6339L54.9442 70.4105C53.5623 70.1563 51.7162 70.3663 50.6162 72.7818C50.6162 72.7818 40.4901 78.6574 39.7218 79.0388C38.9535 79.4202 38.1465 85.5058 38.1465 86.0806C38.1465 86.2078 38.6218 87.3796 39.3625 89.1428C39.6499 86.5284 40.1971 84.1074 40.7499 83.223Z" fill="#407BFF"/>
</g>
</g>
<path d="M50.6162 72.7818C50.6162 72.7818 40.5122 78.6574 39.7218 79.0443C38.9314 79.4312 38.1465 85.5113 38.1465 86.0862C38.1465 86.661 48.2505 109.495 48.2505 109.495C48.2505 109.495 50.7378 111.601 58.0174 111.601C65.2969 111.601 65.8607 110.495 65.8607 110.495L66.4411 100.861C66.4411 100.861 68.9284 94.3496 69.1219 93.1999C69.3153 92.0502 67.0823 77.9388 67.0823 77.9388L56.7461 71.0462C56.7461 71.0462 52.5342 68.5699 50.6162 72.7818Z" stroke="#263238" stroke-linecap="round" stroke-linejoin="round"/>
<path d="M54.0021 81.8965L56.9482 85.0747L56.3346 98.5892L60.646 99.7278L61.0992 93.8246L62.6856 99.9544L65.8638 96.7762L58.9933 84.8481L59.8998 81.2166L56.0417 76.9053L53.5488 82.8085" fill="#263238"/>
<path d="M54.0021 81.8965L56.9482 85.0747L56.3346 98.5892L60.646 99.7278L61.0992 93.8246L62.6856 99.9544L65.8638 96.7762L58.9933 84.8481L59.8998 81.2166L56.0417 76.9053L53.5488 82.8085" stroke="#263238" stroke-linecap="round" stroke-linejoin="round"/>
<path d="M48.6406 72.8149C48.6406 72.8149 49.2707 77.0213 50.1109 78.895C50.9511 80.7688 52.847 83.9471 52.847 83.9471L56.8432 79.9452L60.8451 82.7089C60.8451 82.7089 60.425 75.7665 58.9492 72.6104C57.4734 69.4543 50.3209 66.2926 48.6406 72.8149Z" fill="white" stroke="#263238" stroke-linecap="round" stroke-linejoin="round"/>
<g style="mix-blend-mode:multiply" opacity="0.5">
<path d="M51.4983 75.6341L55.4946 69.554C54.7651 69.2345 53.9847 69.0474 53.1897 69.0012C52.5043 69.1394 51.7304 69.3108 50.9124 69.4932C49.9119 70.0459 49.0828 71.085 48.6406 72.8096C48.6406 72.8096 48.9557 74.9321 49.4421 76.839L51.4983 75.6341Z" fill="#407BFF"/>
</g>
<path d="M58.5298 71.5493C57.9888 72.741 57.7026 74.0325 57.6897 75.3411C57.6897 77.4415 58.1098 79.763 58.1098 80.8132V83.9694C58.1098 83.9694 55.5837 80.8132 53.6879 78.4973C51.792 76.1813 50.3217 74.0754 50.5317 72.185C50.7418 70.2946 52.6377 62.9211 52.6377 62.9211C53.6391 62.9121 54.6232 63.1832 55.4787 63.7037C56.3343 64.2243 57.0274 64.9737 57.4796 65.8672C59.16 69.0233 58.5298 71.5493 58.5298 71.5493Z" fill="white" stroke="#263238" stroke-linecap="round" stroke-linejoin="round"/>
<g style="mix-blend-mode:multiply" opacity="0.5">
<path d="M51.9747 67.8903L51.3446 68.1943C50.9576 69.8525 50.6149 71.4389 50.532 72.1851C50.3275 74.0091 51.6928 76.0542 53.4892 78.2652L53.7158 73.9151L58.5301 71.566L54.661 67.7466L51.9747 67.8903Z" fill="#407BFF"/>
</g>
<path d="M62.6197 69.2887C62.6197 69.2887 61.2268 71.8699 62.7303 71.975C64.2337 72.08 63.9076 70.7921 64.1232 70.3665C64.3388 69.9409 65.306 70.9192 64.7699 72.9423C64.2337 74.9653 61.5474 76.3803 59.9334 74.7663C58.3194 73.1523 58.7561 71.4499 59.2923 70.1509C59.8284 68.852 61.9896 68.2163 62.6197 69.2887Z" fill="#263238" stroke="#263238" stroke-linecap="round" stroke-linejoin="round"/>
<path d="M59.6017 46.4714C59.1319 46.4051 58.64 46.3554 58.1315 46.3277C56.2798 46.2338 54.2623 46.3554 52.8197 47.5106C49.8238 49.9095 50.3268 54.7293 50.5424 58.0844C50.7856 61.8928 50.7358 67.4478 53.5935 70.206C58.4189 74.86 65.9637 69.8799 65.9637 64.3635C65.9637 62.031 66.0522 58.4769 66.207 57.681C66.4085 56.6977 66.547 55.7026 66.6215 54.7017C66.9532 49.622 64.0734 47.1071 59.6017 46.4714Z" fill="white" stroke="#263238" stroke-linecap="round" stroke-linejoin="round"/>
<g style="mix-blend-mode:multiply" opacity="0.5">
<path d="M61.3823 71.2009C60.0322 71.182 58.6846 71.0786 57.3473 70.8913C55.2967 70.5763 52.4501 67.2543 53.8706 62.6721C55.2911 58.0899 55.2967 55.7132 55.2967 55.7132L50.4602 52.6897C50.3493 54.4875 50.3789 56.2912 50.5487 58.0844C50.7919 61.8928 50.7421 67.4478 53.5998 70.2059C55.9434 72.4722 58.9282 72.4501 61.3823 71.2009Z" fill="#407BFF"/>
</g>
<path d="M58.641 61.1745C58.9432 61.1745 59.1882 60.7538 59.1882 60.2348C59.1882 59.7159 58.9432 59.2952 58.641 59.2952C58.3387 59.2952 58.0938 59.7159 58.0938 60.2348C58.0938 60.7538 58.3387 61.1745 58.641 61.1745Z" fill="#263238"/>
<path d="M64.0411 60.4668C64.0079 60.9864 63.7315 61.3899 63.4331 61.3678C63.1346 61.3457 62.9135 60.9146 62.9467 60.395C62.9798 59.8754 63.2507 59.4719 63.5547 59.494C63.8587 59.5161 64.0742 59.9473 64.0411 60.4668Z" fill="#263238"/>
<path d="M56.9434 57.9851C56.9434 57.9851 58.0488 55.6526 59.8231 56.7525L56.9434 57.9851Z" fill="white"/>
<path d="M56.9434 57.9851C56.9434 57.9851 58.0488 55.6526 59.8231 56.7525" stroke="#263238" stroke-linecap="round" stroke-linejoin="round"/>
<path d="M62.7031 57.1617C62.7031 57.1617 64.0131 55.6583 64.7593 58.1235L62.7031 57.1617Z" fill="white"/>
<path d="M62.7031 57.1617C62.7031 57.1617 64.0131 55.6583 64.7593 58.1235" stroke="#263238" stroke-linecap="round" stroke-linejoin="round"/>
<path d="M61.8516 62.103C61.8516 62.197 61.8516 62.291 61.8516 62.3739C61.9898 63.3356 62.6751 64.0321 62.4043 64.43C62.1335 64.828 60.7461 64.9828 60.7461 64.9828" fill="white"/>
<path d="M61.8516 62.103C61.8516 62.197 61.8516 62.291 61.8516 62.3739C61.9898 63.3356 62.6751 64.0321 62.4043 64.43C62.1335 64.828 60.7461 64.9828 60.7461 64.9828" stroke="#263238" stroke-linecap="round" stroke-linejoin="round"/>
<path d="M60.2324 67.1771C60.2324 67.1771 57.817 67.9233 56.916 65.9722L60.2324 67.1771Z" fill="white"/>
<path d="M60.2324 67.1771C60.2324 67.1771 57.817 67.9233 56.916 65.9722" stroke="#263238" stroke-linecap="round" stroke-linejoin="round"/>
<path d="M58.1711 62.5342C59.7402 62.5342 61.0122 61.2622 61.0122 59.6931C61.0122 58.124 59.7402 56.8521 58.1711 56.8521C56.6021 56.8521 55.3301 58.124 55.3301 59.6931C55.3301 61.2622 56.6021 62.5342 58.1711 62.5342Z" stroke="#263238" stroke-width="0.5" stroke-linecap="round" stroke-linejoin="round"/>
<path d="M64.5989 62.5342C66.0062 62.5342 67.147 61.2622 67.147 59.6931C67.147 58.124 66.0062 56.8521 64.5989 56.8521C63.1916 56.8521 62.0508 58.124 62.0508 59.6931C62.0508 61.2622 63.1916 62.5342 64.5989 62.5342Z" stroke="#263238" stroke-width="0.5" stroke-linecap="round" stroke-linejoin="round"/>
<path d="M55.3286 59.6931L51.2715 59.8645" stroke="#263238" stroke-width="0.5" stroke-linecap="round" stroke-linejoin="round"/>
<path d="M67.1485 59.6931H66.1094" stroke="#263238" stroke-width="0.5" stroke-linecap="round" stroke-linejoin="round"/>
<path d="M61.0059 58.8252H62.1832" stroke="#263238" stroke-width="0.5" stroke-linecap="round" stroke-linejoin="round"/>
<path d="M64.6147 43.1165C62.4937 42.7461 60.3494 42.5245 58.1974 42.4532C58.1974 42.4532 54.4333 40.679 49.3536 42.6743C42.0851 45.5154 42.2454 55.2215 44.0473 61.4066C44.6001 63.2749 45.899 66.1104 44.7051 67.9842C43.9534 69.167 41.8032 68.5369 42.1293 66.9119C42.4555 65.2868 42.9861 65.8396 43.4172 65.624C43.8484 65.4084 43.2017 65.1929 42.2344 64.8723C41.2671 64.5517 40.4214 65.425 40.2998 67.5531C39.9792 73.3568 48.5301 77.1983 51.7912 72.1242C53.1178 69.9132 51.9404 66.0717 51.3656 63.2804C51.1831 62.3141 51.0594 61.3377 50.9953 60.3564C52.0272 60.2575 52.9841 59.7741 53.676 59.0022C54.1883 58.3 54.6256 57.546 54.9805 56.7526C55.3674 56.7526 55.7709 56.7802 56.2131 56.8244C60.635 57.2666 61.9726 49.7383 61.9726 49.7383C61.9726 49.7383 64.1836 53.9447 64.8469 55.4978L65.5101 57.0455C65.5101 57.0455 67.2844 57.2666 69.0532 53.5025C70.8219 49.7383 68.821 43.7964 64.6147 43.1165Z" fill="#263238" stroke="#263238" stroke-linecap="round" stroke-linejoin="round"/>
<path d="M61.7188 47.9695C61.7188 47.9695 67.1577 49.8377 67.3235 53.0657C67.4893 56.2937 66.6436 56.4595 66.6436 56.4595" stroke="white" stroke-width="0.5" stroke-miterlimit="10" stroke-linecap="round"/>
<path d="M61.0449 46.781C61.0449 46.781 66.1356 45.5927 67.8381 48.992" stroke="white" stroke-width="0.5" stroke-miterlimit="10" stroke-linecap="round"/>
<path d="M54.7609 43.3818C54.7609 43.3818 59.8516 45.93 60.7028 48.3123C61.554 50.6946 57.1377 55.2712 54.2468 56.1224C51.356 56.9736 49.1561 55.9511 47.1165 57.4822C45.0769 59.0133 45.9281 63.2527 45.9281 63.2527" stroke="white" stroke-width="0.5" stroke-miterlimit="10" stroke-linecap="round"/>
<path d="M44.38 58.4991C44.38 58.4991 43.0203 55.2711 45.9111 53.5742C48.8019 51.8773 51.3445 53.5742 54.5725 51.5346C57.8005 49.495 58.309 46.9524 58.309 46.9524" stroke="white" stroke-width="0.5" stroke-miterlimit="10" stroke-linecap="round"/>
<path d="M51.8584 61.4286C51.8584 61.4286 50.0731 57.0896 48.2822 58.6207C46.4913 60.1518 49.559 64.2365 51.5986 63.728" fill="white"/>
<path d="M51.8584 61.4286C51.8584 61.4286 50.0731 57.0896 48.2822 58.6207C46.4913 60.1518 49.559 64.2365 51.5986 63.728" stroke="#263238" stroke-linecap="round" stroke-linejoin="round"/>
<g opacity="0.37">
<path d="M51.8584 61.4286C51.8584 61.4286 50.0731 57.0896 48.2822 58.6207C46.4913 60.1518 49.559 64.2365 51.5986 63.728" fill="#407BFF"/>
<path d="M51.8584 61.4286C51.8584 61.4286 50.0731 57.0896 48.2822 58.6207C46.4913 60.1518 49.559 64.2365 51.5986 63.728" stroke="#263238" stroke-linecap="round" stroke-linejoin="round"/>
</g>
<path d="M40.9536 79.4811C40.9536 79.4811 40.0858 78.8289 38.1568 80.2826C36.2277 81.7363 34.4313 88.347 35.6363 91.1494C36.8413 93.9518 40.0582 108.522 41.5561 109.318C43.054 110.114 59.1608 110.047 61.0622 109.6C62.9636 109.152 64.2902 106.665 63.9696 104.515C63.649 102.364 61.5265 101.806 60.9019 101.79C60.2773 101.773 47.4483 101.043 47.4483 101.043L43.463 84.207" fill="white"/>
<mask id="mask8_301_7160" style="mask-type:luminance" maskUnits="userSpaceOnUse" x="35" y="79" width="30" height="31">
<path d="M40.9536 79.4811C40.9536 79.4811 40.0858 78.8289 38.1568 80.2826C36.2277 81.7363 34.4313 88.347 35.6363 91.1494C36.8413 93.9518 40.0582 108.522 41.5561 109.318C43.054 110.114 59.1608 110.047 61.0622 109.6C62.9636 109.152 64.2902 106.665 63.9696 104.515C63.649 102.364 61.5265 101.806 60.9019 101.79C60.2773 101.773 47.4483 101.043 47.4483 101.043L43.463 84.207" fill="white"/>
</mask>
<g mask="url(#mask8_301_7160)">
<g style="mix-blend-mode:multiply" opacity="0.5">
<path d="M61.5707 105.99C60.6532 104.857 46.0499 106.83 44.4911 105.99C42.9324 105.15 42.1807 103.553 43.3193 102.475C44.458 101.397 41.1416 101.154 41.1692 100.203C41.1968 99.2524 43.0982 98.9926 42.9766 97.7213C42.855 96.45 38.7482 96.1847 38.8477 92.5477C38.9472 88.9107 39.8592 84.5109 40.6828 83.2673C41.1389 82.7428 41.6631 82.2818 42.2415 81.8965L40.9536 79.4755C40.9536 79.4755 40.0858 78.8232 38.1568 80.2769C36.2277 81.7306 34.4313 88.3469 35.6363 91.1493C36.8413 93.9517 40.0582 108.522 41.5561 109.318C43.054 110.114 59.1608 110.047 61.0622 109.6C61.6768 109.403 62.2354 109.062 62.6913 108.605C63.1471 108.149 63.4869 107.589 63.6822 106.974C62.6596 106.681 61.8416 106.322 61.5707 105.99Z" fill="#407BFF"/>
</g>
</g>
<path d="M40.9536 79.4811C40.9536 79.4811 40.0858 78.8289 38.1568 80.2826C36.2277 81.7363 34.4313 88.347 35.6363 91.1494C36.8413 93.9518 40.0582 108.522 41.5561 109.318C43.054 110.114 59.1608 110.047 61.0622 109.6C62.9636 109.152 64.2902 106.665 63.9696 104.515C63.649 102.364 61.5265 101.806 60.9019 101.79C60.2773 101.773 47.4483 101.043 47.4483 101.043L43.463 84.207" stroke="#263238" stroke-linecap="round" stroke-linejoin="round"/>
<path d="M42.5664 104.15C43.5171 101.353 47.4415 101.298 47.4415 101.298C45.8763 100.888 44.2398 100.829 42.6493 101.126" stroke="#263238" stroke-width="0.5" stroke-linecap="round" stroke-linejoin="round"/>
<path d="M63.2726 102.486C62.6918 102.735 62.1962 103.147 61.8466 103.674C61.4971 104.2 61.3088 104.817 61.3049 105.449C61.2385 107.715 62.742 108.135 63.1123 108.395C63.4827 108.655 65.7157 109.854 66.6167 109.119C67.5176 108.384 68.5789 106.405 67.7221 104.747C66.8654 103.089 64.1515 102.508 63.2726 102.486Z" fill="white"/>
<mask id="mask9_301_7160" style="mask-type:luminance" maskUnits="userSpaceOnUse" x="61" y="102" width="8" height="8">
<path d="M63.2726 102.486C62.6918 102.735 62.1962 103.147 61.8466 103.674C61.4971 104.2 61.3088 104.817 61.3049 105.449C61.2385 107.715 62.742 108.135 63.1123 108.395C63.4827 108.655 65.7157 109.854 66.6167 109.119C67.5176 108.384 68.5789 106.405 67.7221 104.747C66.8654 103.089 64.1515 102.508 63.2726 102.486Z" fill="white"/>
</mask>
<g mask="url(#mask9_301_7160)">
<g style="mix-blend-mode:multiply" opacity="0.5">
<path d="M66.6168 109.119C66.8464 108.924 67.0506 108.701 67.2248 108.456L65.3455 107.455C63.621 106.98 61.9794 106.493 61.5703 105.99C61.4991 105.915 61.4096 105.86 61.3105 105.83C61.4156 107.765 62.7587 108.152 63.1125 108.395C63.4662 108.638 65.7159 109.854 66.6168 109.119Z" fill="#407BFF"/>
</g>
</g>
<path d="M63.2726 102.486C62.6918 102.735 62.1962 103.147 61.8466 103.674C61.4971 104.2 61.3088 104.817 61.3049 105.449C61.2385 107.715 62.742 108.135 63.1123 108.395C63.4827 108.655 65.7157 109.854 66.6167 109.119C67.5176 108.384 68.5789 106.405 67.7221 104.747C66.8654 103.089 64.1515 102.508 63.2726 102.486Z" stroke="#263238" stroke-linecap="round" stroke-linejoin="round"/>
<path d="M66.3843 104.514C66.3843 104.514 65.0135 105.04 64.8256 106.073C64.6377 107.107 64.704 107.665 64.9417 107.731C65.1793 107.798 65.9698 108.157 65.9698 108.157L68.4073 109.423C68.4073 109.423 70.3419 111.634 70.9776 111.811C71.6132 111.987 71.066 111.573 70.9776 111.092C70.7009 110.403 70.3428 109.75 69.9108 109.146L72.7961 111.7C72.7961 111.7 73.7468 112.043 73.5257 111.319C73.3046 110.595 71.8288 109.108 71.8288 109.108L74.5538 111.578C74.5538 111.578 75.1065 111.833 75.1065 111.512C75.1375 111.351 75.1264 111.185 75.074 111.03C75.0217 110.875 74.9301 110.737 74.808 110.628C74.4985 110.379 72.6413 108.251 72.6413 108.251L75.2281 109.837C75.2281 109.837 75.7808 110.572 76.1678 110.583C76.5547 110.595 76.3336 110.346 76.0406 109.478C75.7477 108.61 73.7799 107.339 73.078 106.841C72.376 106.344 68.54 104.575 66.3843 104.514Z" fill="white" stroke="#263238" stroke-linecap="round" stroke-linejoin="round"/>
<path d="M190.055 103.851H168.465L172.351 91.2488H193.941L190.055 103.851Z" fill="#263238" stroke="#263238" stroke-linecap="round" stroke-linejoin="round"/>
<path d="M188.358 105.04H166.773L170.659 92.4316H192.244L188.358 105.04Z" fill="white" stroke="#263238" stroke-linecap="round" stroke-linejoin="round"/>
<path d="M157.338 100.049H192.912C193.792 100.049 194.635 100.398 195.257 101.02C195.879 101.642 196.229 102.485 196.229 103.365V112.64H157.338V100.049Z" fill="#263238" stroke="#263238" stroke-linecap="round" stroke-linejoin="round"/>
<path d="M189.86 100.049H150.953V112.657H189.86V100.049Z" fill="white" stroke="#263238" stroke-linecap="round" stroke-linejoin="round"/>
<path d="M181.106 109.274H150.025V110.937H181.106V109.274Z" fill="white" stroke="#263238" stroke-linecap="round" stroke-linejoin="round"/>
<path d="M181.104 107.61H156.656V109.274H181.104V107.61Z" fill="#263238" stroke="#263238" stroke-linecap="round" stroke-linejoin="round"/>
<path d="M150.152 111.429H125.627V112.573H150.152V111.429Z" fill="white" stroke="#263238" stroke-linecap="round" stroke-linejoin="round"/>
<path d="M169.01 70.9302H116.146V105.023H169.01V70.9302Z" fill="white" stroke="#263238" stroke-linecap="round" stroke-linejoin="round"/>
<path d="M169.012 70.9302H119.033V105.023H169.012V70.9302Z" fill="#263238" stroke="#263238" stroke-linecap="round" stroke-linejoin="round"/>
<path d="M150.721 86.7717H139.152V113.093H150.721V86.7717Z" fill="white" stroke="#263238" stroke-linecap="round" stroke-linejoin="round"/>
<path d="M151.788 86.7717H140.219V113.093H151.788V86.7717Z" fill="#263238" stroke="#263238" stroke-linecap="round" stroke-linejoin="round"/>
<path d="M139.451 87.0811H152.059V105.106" stroke="white" stroke-linejoin="round"/>
<path d="M115.783 110.816H80.3691V112.667H115.783V110.816Z" fill="white" stroke="#263238" stroke-linecap="round" stroke-linejoin="round"/>
<path d="M124.937 110.816H89.5234V112.667H124.937V110.816Z" fill="white" stroke="#263238" stroke-linecap="round" stroke-linejoin="round"/>
<path d="M79.0035 115.719H24.7413L22.1656 195.014C22.1514 195.234 22.181 195.454 22.2528 195.662C22.3246 195.87 22.4371 196.062 22.5837 196.226C22.7304 196.39 22.9082 196.523 23.1069 196.618C23.3055 196.713 23.521 196.767 23.7409 196.777C24.1474 196.766 24.5348 196.602 24.8264 196.318C25.1181 196.035 25.2928 195.652 25.3162 195.246L30.4953 130.449C30.561 129.293 31.0571 128.204 31.8857 127.396C32.7143 126.588 33.8156 126.119 34.9725 126.082H68.7724C69.9287 126.119 71.0293 126.588 71.857 127.396C72.6848 128.205 73.1796 129.294 73.244 130.449L78.4287 195.235C78.452 195.64 78.6259 196.022 78.9164 196.306C79.2069 196.589 79.5929 196.753 79.9985 196.766C80.2183 196.757 80.4339 196.703 80.6328 196.609C80.8318 196.515 81.01 196.382 81.1571 196.219C81.3042 196.055 81.4173 195.864 81.4898 195.656C81.5623 195.448 81.5927 195.228 81.5793 195.009L79.0035 115.719Z" fill="#407BFF" stroke="#263238" stroke-linecap="round" stroke-linejoin="round"/>
<path d="M79.1246 119.367L79.003 115.719H61.2546H42.4891H24.7407L24.6191 119.367H79.1246Z" fill="#263238" stroke="#263238" stroke-linecap="round" stroke-linejoin="round"/>
<path d="M202.573 115.719H148.294L145.724 195.014C145.71 195.233 145.741 195.453 145.813 195.66C145.885 195.868 145.998 196.059 146.144 196.222C146.291 196.386 146.468 196.519 146.666 196.613C146.865 196.707 147.08 196.761 147.299 196.772C147.705 196.759 148.091 196.594 148.381 196.311C148.672 196.028 148.846 195.646 148.869 195.241L154.065 130.449C154.13 129.293 154.626 128.204 155.455 127.396C156.284 126.588 157.385 126.119 158.542 126.082H192.342C193.498 126.119 194.599 126.588 195.426 127.396C196.254 128.205 196.749 129.294 196.813 130.449L201.998 195.235C202.019 195.642 202.191 196.027 202.482 196.313C202.773 196.598 203.16 196.764 203.568 196.777C203.787 196.767 204.002 196.713 204.2 196.619C204.399 196.524 204.576 196.391 204.723 196.228C204.869 196.064 204.982 195.873 205.054 195.666C205.126 195.459 205.157 195.239 205.143 195.02L202.573 115.719Z" fill="#407BFF" stroke="#263238" stroke-linecap="round" stroke-linejoin="round"/>
<path d="M202.934 119.367L202.817 115.719H185.069H166.298H148.55L148.434 119.367H202.934Z" fill="#263238" stroke="#263238" stroke-linecap="round" stroke-linejoin="round"/>
<path d="M206.148 112.656H20.3398V116.835H206.148V112.656Z" fill="white" stroke="#263238" stroke-linecap="round" stroke-linejoin="round"/>
<path d="M206.155 112.656H72.9785V116.835H206.155V112.656Z" fill="white" stroke="#263238" stroke-linecap="round" stroke-linejoin="round"/>
</svg>
