<svg width="70" height="48" viewBox="0 0 70 48" fill="none" xmlns="http://www.w3.org/2000/svg">
<rect width="70" height="48" rx="4" fill="#F1F6FF"/>
<path d="M54.9932 28.6379H55.0283L57.9473 21.3118H59.999L53.6924 36.0002H51.7461L54.0908 30.8616L49.9521 21.3118H52.0039L54.9932 28.6379ZM45.1221 20.9788C46.5171 20.9788 47.6198 21.3594 48.4287 22.1086C49.2374 22.8579 49.6357 23.9048 49.6357 25.2249V31.5159H47.8301V30.1008H47.748C46.9626 31.2663 45.9311 31.8489 44.6299 31.8489C43.528 31.8488 42.5901 31.5159 41.8516 30.8499C41.1249 30.2314 40.7149 29.316 40.7383 28.3528C40.7383 27.2943 41.1366 26.4616 41.9219 25.8313C42.7073 25.201 43.7624 24.8919 45.0752 24.8918C46.2005 24.8918 47.115 25.1057 47.8418 25.51V25.0696C47.8417 24.4156 47.5606 23.7975 47.0684 23.3694C46.5643 22.9174 45.9192 22.6672 45.251 22.6672C44.1961 22.6674 43.3634 23.1199 42.7539 24.0237L41.0898 22.9651C41.9807 21.645 43.3286 20.9788 45.1221 20.9788ZM36.1777 16.6018C37.3851 16.578 38.5573 17.0416 39.4131 17.8977C41.1247 19.5152 41.2301 22.2392 39.624 23.9875L39.4131 24.2014C38.5339 25.0458 37.4555 25.4739 36.1777 25.4739H33.0596V31.5159H31.1719V16.6018H36.1777ZM45.3691 26.4377C44.6071 26.4378 43.9621 26.6277 43.4463 26.9963C42.9422 27.365 42.6846 27.8291 42.6846 28.3879C42.6846 28.8875 42.9188 29.3515 43.3057 29.637C43.7278 29.97 44.2439 30.1489 44.7715 30.137C45.5687 30.1369 46.3308 29.8152 46.8936 29.2444C47.5149 28.6497 47.8311 27.9476 47.8311 27.1389C47.2448 26.6634 46.4241 26.4259 45.3691 26.4377ZM33.0596 23.6428H36.2256C36.929 23.6665 37.6092 23.3807 38.0898 22.8694C39.0744 21.8348 39.0508 20.1702 38.0312 19.1711C37.5506 18.6955 36.9055 18.4329 36.2256 18.4329H33.0596V23.6428Z" fill="#3C4043"/>
<path d="M26.544 24.1659C26.544 23.5831 26.4971 23.0003 26.4034 22.4294H18.4434V25.7239H23.0037C22.8161 26.7825 22.2065 27.734 21.3155 28.3286V30.4695H24.0353C25.6296 28.9828 26.544 26.7825 26.544 24.1659Z" fill="#4285F4"/>
<path d="M18.4442 32.539C20.7185 32.539 22.6411 31.7778 24.0361 30.4695L21.3164 28.3287C20.5544 28.852 19.5814 29.1493 18.4442 29.1493C16.2403 29.1493 14.3763 27.6388 13.7081 25.6169H10.9062V27.8291C12.3365 30.7193 15.2555 32.539 18.4442 32.539Z" fill="#34A853"/>
<path d="M13.708 25.6169C13.3563 24.5584 13.3563 23.4048 13.708 22.3343V20.134H10.9058C9.69808 22.5484 9.69808 25.4029 10.9058 27.8172L13.708 25.6169Z" fill="#FBBC04"/>
<path d="M18.4442 18.802C19.6517 18.7782 20.8123 19.2421 21.6798 20.0865L24.0948 17.6365C22.559 16.1855 20.5427 15.3886 18.4442 15.4124C15.2555 15.4124 12.3365 17.244 10.9062 20.1341L13.7081 22.3463C14.3763 20.3125 16.2403 18.802 18.4442 18.802Z" fill="#EA4335"/>
</svg>
