<svg width="295" height="220" viewBox="0 0 295 220" fill="none" xmlns="http://www.w3.org/2000/svg">
<path d="M294.984 193.156H0V193.303H294.984V193.156Z" fill="#E6E6E6"/>
<path d="M73.6393 202.082H54.0996V202.229H73.6393V202.082Z" fill="#E6E6E6"/>
<path d="M47.9191 202.082H36.5977V202.229H47.9191V202.082Z" fill="#E6E6E6"/>
<path d="M124.22 204.253H112.898V204.4H124.22V204.253Z" fill="#E6E6E6"/>
<path d="M183.252 207.545H157.771V207.692H183.252V207.545Z" fill="#E6E6E6"/>
<path d="M152.52 207.545H148.785V207.692H152.52V207.545Z" fill="#E6E6E6"/>
<path d="M267.465 204.253H212.197V204.4H267.465V204.253Z" fill="#E6E6E6"/>
<path d="M139.825 166.843H25.9077C25.0153 166.841 24.16 166.486 23.5295 165.854C22.899 165.223 22.5449 164.367 22.5449 163.474V3.33922C22.5527 2.45192 22.9102 1.60352 23.5399 0.978296C24.1695 0.353071 25.0204 0.00151999 25.9077 0H139.825C140.718 0 141.575 0.354917 142.207 0.986674C142.838 1.61843 143.193 2.47528 143.193 3.36872V163.474C143.193 164.368 142.838 165.225 142.207 165.856C141.575 166.488 140.718 166.843 139.825 166.843ZM25.9077 0.117994C25.0544 0.119557 24.2366 0.459623 23.6338 1.06355C23.031 1.66748 22.6924 2.48592 22.6924 3.33922V163.474C22.6924 164.327 23.031 165.146 23.6338 165.75C24.2366 166.354 25.0544 166.694 25.9077 166.695H139.825C140.679 166.694 141.497 166.354 142.101 165.75C142.704 165.146 143.044 164.328 143.046 163.474V3.33922C143.044 2.48538 142.704 1.66695 142.101 1.06319C141.497 0.459432 140.679 0.119554 139.825 0.117994H25.9077Z" fill="#E6E6E6"/>
<path d="M267.438 166.843H153.515C152.622 166.841 151.766 166.486 151.135 165.855C150.503 165.223 150.148 164.367 150.146 163.474V3.33922C150.156 2.45138 150.515 1.60299 151.145 0.977927C151.776 0.352865 152.627 0.00150341 153.515 0H267.438C268.324 0.00307049 269.174 0.355308 269.802 0.980366C270.43 1.60542 270.787 2.45294 270.795 3.33922V163.474C270.795 164.366 270.442 165.221 269.812 165.852C269.183 166.484 268.329 166.84 267.438 166.843ZM153.515 0.117994C152.661 0.119554 151.843 0.459432 151.239 1.06319C150.635 1.66695 150.296 2.48538 150.294 3.33922V163.474C150.296 164.328 150.635 165.146 151.239 165.75C151.843 166.354 152.661 166.694 153.515 166.695H267.438C268.292 166.694 269.11 166.354 269.714 165.75C270.318 165.146 270.658 164.328 270.659 163.474V3.33922C270.658 2.48538 270.318 1.66695 269.714 1.06319C269.11 0.459432 268.292 0.119554 267.438 0.117994H153.515Z" fill="#E6E6E6"/>
<path d="M157.759 142.76H144.785V194.223H157.759V142.76Z" fill="#E0E0E0"/>
<path d="M155.291 194.223H157.757V187.215H152.707L155.291 194.223Z" fill="#FAFAFA"/>
<path d="M100.909 142.76H87.9355V194.223H100.909V142.76Z" fill="#E0E0E0"/>
<path d="M157.759 142.76H98.7617V189.923H157.759V142.76Z" fill="#FAFAFA"/>
<path d="M155.618 145.079V157.557H100.886V145.079H155.6M155.83 144.849H100.674V157.781H155.848V144.849H155.83Z" fill="#E0E0E0"/>
<path d="M101.222 194.223H98.7617V187.215H103.806L101.222 194.223Z" fill="#FAFAFA"/>
<path d="M126.957 151.315C126.957 151.573 127.033 151.825 127.177 152.039C127.32 152.254 127.524 152.421 127.762 152.52C128 152.618 128.262 152.644 128.515 152.594C128.768 152.544 129 152.419 129.183 152.237C129.365 152.055 129.489 151.822 129.54 151.569C129.59 151.317 129.564 151.054 129.465 150.816C129.367 150.578 129.2 150.374 128.985 150.231C128.771 150.088 128.519 150.011 128.261 150.011C127.915 150.011 127.583 150.149 127.339 150.393C127.094 150.638 126.957 150.969 126.957 151.315Z" fill="#E6E6E6"/>
<path d="M155.618 160.1V172.577H100.886V160.1H155.6M155.83 159.875H100.674V172.808H155.848V159.881L155.83 159.875Z" fill="#E0E0E0"/>
<path d="M126.957 166.371C126.957 166.629 127.033 166.881 127.177 167.095C127.32 167.31 127.524 167.477 127.762 167.576C128 167.674 128.262 167.7 128.515 167.65C128.768 167.599 129 167.475 129.183 167.293C129.365 167.111 129.489 166.878 129.54 166.625C129.59 166.372 129.564 166.11 129.465 165.872C129.367 165.634 129.2 165.43 128.985 165.287C128.771 165.144 128.519 165.067 128.261 165.067C127.915 165.067 127.583 165.204 127.339 165.449C127.094 165.694 126.957 166.025 126.957 166.371Z" fill="#E6E6E6"/>
<path d="M155.618 175.126V187.61H100.886V175.126H155.6M155.83 174.896H100.674V187.834H155.848V174.896H155.83Z" fill="#E0E0E0"/>
<path d="M126.957 181.368C126.958 181.626 127.036 181.877 127.18 182.091C127.324 182.304 127.528 182.471 127.766 182.568C128.004 182.666 128.266 182.691 128.519 182.64C128.771 182.589 129.003 182.465 129.185 182.282C129.367 182.099 129.49 181.867 129.54 181.614C129.59 181.362 129.564 181.1 129.465 180.862C129.366 180.624 129.199 180.421 128.985 180.278C128.77 180.135 128.518 180.058 128.261 180.058C128.089 180.058 127.919 180.092 127.761 180.158C127.602 180.224 127.458 180.321 127.337 180.442C127.216 180.564 127.12 180.708 127.055 180.867C126.989 181.026 126.956 181.196 126.957 181.368Z" fill="#E6E6E6"/>
<path d="M92.9851 112.873H80.0117V194.229H92.9851V112.873Z" fill="#E0E0E0"/>
<path d="M90.5215 194.223H92.9876V187.215H87.9434L90.5215 194.223Z" fill="#FAFAFA"/>
<path d="M44.5027 112.873H31.5293V194.229H44.5027V112.873Z" fill="#E0E0E0"/>
<path d="M92.9846 112.873H42.3477V189.928H92.9846V112.873Z" fill="#FAFAFA"/>
<path d="M90.8024 115.044V132.489H44.5312V115.044H90.8024ZM91.0738 114.778H44.248V132.743H91.062V114.784L91.0738 114.778Z" fill="#E0E0E0"/>
<path d="M90.8028 134.619V180.89H68.7616V134.619H90.8028ZM91.0742 134.348H68.4961V181.162H91.0742V134.348Z" fill="#E0E0E0"/>
<path d="M66.5724 134.619V180.89H44.5312V134.619H66.5724ZM66.8379 134.348H44.248V181.162H66.8261V134.348H66.8379Z" fill="#E0E0E0"/>
<path d="M44.8137 194.223H42.3477V187.215H47.3978L44.8137 194.223Z" fill="#FAFAFA"/>
<path d="M66.3613 123.775C66.3602 124.035 66.436 124.288 66.5792 124.505C66.7224 124.721 66.9265 124.889 67.1658 124.989C67.405 125.09 67.6685 125.116 67.9229 125.066C68.1774 125.017 68.4113 124.892 68.5951 124.709C68.7788 124.526 68.9042 124.293 68.9552 124.039C69.0062 123.785 68.9806 123.521 68.8817 123.281C68.7827 123.042 68.6148 122.837 68.3993 122.693C68.1838 122.548 67.9304 122.471 67.6711 122.471C67.3247 122.471 66.9925 122.609 66.747 122.853C66.5016 123.097 66.3629 123.429 66.3613 123.775Z" fill="#E6E6E6"/>
<path d="M71.0332 156.654C71.0332 156.914 71.1102 157.167 71.2544 157.382C71.3985 157.598 71.6034 157.766 71.8431 157.865C72.0828 157.964 72.3464 157.989 72.6006 157.938C72.8549 157.887 73.0882 157.762 73.2711 157.578C73.4541 157.394 73.5784 157.161 73.6282 156.906C73.6781 156.652 73.6513 156.388 73.5513 156.149C73.4512 155.91 73.2824 155.706 73.0663 155.562C72.8501 155.419 72.5963 155.343 72.337 155.344C72.1653 155.344 71.9953 155.378 71.8367 155.444C71.6782 155.51 71.5342 155.607 71.413 155.728C71.2919 155.85 71.1959 155.995 71.1308 156.153C71.0656 156.312 71.0324 156.483 71.0332 156.654Z" fill="#E6E6E6"/>
<path d="M61.6953 156.654C61.6965 156.912 61.7739 157.163 61.9179 157.377C62.0619 157.591 62.2659 157.757 62.5043 157.855C62.7426 157.952 63.0046 157.977 63.2571 157.926C63.5096 157.875 63.7414 157.751 63.9232 157.568C64.1049 157.386 64.2285 157.153 64.2783 156.901C64.3282 156.648 64.302 156.386 64.2032 156.148C64.1043 155.91 63.9372 155.707 63.7229 155.564C63.5086 155.421 63.2568 155.344 62.9992 155.344C62.8274 155.344 62.6574 155.378 62.4988 155.444C62.3403 155.51 62.1963 155.607 62.0751 155.728C61.954 155.85 61.858 155.995 61.7929 156.153C61.7277 156.312 61.6945 156.482 61.6953 156.654Z" fill="#E6E6E6"/>
<path d="M60.2188 90.1885H54.7498C55.2538 92.8414 55.5712 95.5265 55.6996 98.2238C55.6996 101.174 51.5345 112.873 57.4695 112.873C63.4046 112.873 59.2394 101.203 59.2394 98.2238C59.3776 95.5258 59.7049 92.8407 60.2188 90.1885Z" fill="#E0E0E0"/>
<path d="M39.4121 102.153V105.693C39.4183 107.59 40.1749 109.408 41.5167 110.75C42.8586 112.092 44.6767 112.849 46.5743 112.855H50.1141C52.0117 112.849 53.8299 112.092 55.1717 110.75C56.5135 109.408 57.2701 107.59 57.2763 105.693V102.153H39.4121Z" fill="#F5F5F5"/>
<path d="M115.439 135.256C115.439 139.386 120.059 142.76 125.705 142.76H130.802C136.448 142.76 141.068 139.386 141.068 135.256H115.439Z" fill="#E0E0E0"/>
<path d="M250.506 129.203C247.414 131.728 243.143 136.347 239.237 142.849C236.63 147.179 235.06 151.698 234.37 157.704C234.37 150.92 234.411 143.634 234.435 136.755C235.22 134.985 237.013 130.902 238.299 127.681C242.588 116.926 244.199 114.277 248.051 105.002C253.202 92.6131 258.476 77.9465 256.966 79.1206C253.886 81.5099 242.087 103.604 240.813 106.766C237.339 115.205 235.192 124.131 234.447 133.227C234.447 126.737 234.494 120.837 234.518 116.259C234.6 101.327 234.854 96.5069 234.978 95.0202C235.456 94.265 236.016 93.386 236.346 92.914C239.119 88.9022 240.187 85.4922 242.795 79.51C246.5 71.0439 249.686 56.0056 248.753 56.7608C244.872 59.923 241.815 66.7077 237.792 75.3625C233.768 84.0173 234.919 88.9907 234.122 96.3771C233.957 97.8285 233.827 103.303 233.733 110.884C232.695 102.802 230.736 97.4804 227.167 92.6426C222.777 86.6899 218.529 82.6722 215.414 80.5719C212.299 78.4716 220.795 93.091 224.854 99.4509C228.47 105.138 231.804 110.147 233.703 115.085C233.603 125.368 233.556 138.383 233.556 150.483C232.624 144.973 231.102 139.032 229.072 134.436C226.63 128.914 222.877 120.442 219.886 117.569C219.172 116.879 223.013 133.356 225.479 137.734C227.945 142.111 229.757 146.247 231.308 148.731C231.668 149.321 232.872 151.545 233.556 152.831C233.556 167.622 233.639 180.672 233.768 185.114H234.405C234.364 183.97 234.352 176.442 234.37 166.483C235.91 161.079 239.426 154.908 242.329 149.28C245.491 143.185 253.597 126.696 250.506 129.203Z" fill="#E0E0E0"/>
<path d="M243.327 194.223H224.838L223.439 176.1H244.725L243.327 194.223Z" fill="#F0F0F0"/>
<path d="M246.101 178.212H222.059L221.375 172.094H246.791L246.101 178.212Z" fill="#F5F5F5"/>
<path d="M73.3099 12.0942H40.2422V48.4068H73.3099V12.0942Z" fill="#E0E0E0"/>
<path d="M76.8916 12.0942H42.7324V48.4068H76.8916V12.0942Z" fill="#F5F5F5"/>
<path d="M74.0312 45.5456V14.9558L45.5948 14.9558V45.5456H74.0312Z" fill="white"/>
<path d="M67.1328 38.1238V22.3657H52.4839V38.1238H67.1328Z" fill="#F5F5F5"/>
<path d="M241.917 16.3245H211.197V50.0588H241.917V16.3245Z" fill="#E0E0E0"/>
<path d="M245.244 16.3245H213.516V50.0588H245.244V16.3245Z" fill="#F5F5F5"/>
<path d="M242.59 47.3982V18.9854H216.177V47.3982H242.59Z" fill="white"/>
<path d="M229.381 41.4334C233.932 41.4334 237.622 37.7434 237.622 33.1916C237.622 28.6397 233.932 24.9497 229.381 24.9497C224.829 24.9497 221.139 28.6397 221.139 33.1916C221.139 37.7434 224.829 41.4334 229.381 41.4334Z" fill="#F5F5F5"/>
<path d="M107.666 33.7463H83.1348V60.6843H107.666V33.7463Z" fill="#E0E0E0"/>
<path d="M110.32 33.7463H84.9805V60.6843H110.32V33.7463Z" fill="#F5F5F5"/>
<path d="M108.195 58.5603V35.8701H87.104V58.5603H108.195Z" fill="white"/>
<path d="M97.6527 41.4749L91.8828 51.4689H103.423L97.6527 41.4749Z" fill="#F5F5F5"/>
<path d="M147.494 219.799C210.67 219.799 261.883 216.808 261.883 213.12C261.883 209.432 210.67 206.442 147.494 206.442C84.3191 206.442 33.1055 209.432 33.1055 213.12C33.1055 216.808 84.3191 219.799 147.494 219.799Z" fill="#F5F5F5"/>
<path d="M206.048 63.9702L200.195 61.6104C200.195 61.6104 192.472 75.6929 190.26 76.4067C187.251 77.3743 181.021 80.0645 177.328 80.5365C176.827 81.1265 176.006 82.9613 176.083 83.628C181.045 85.2858 191.947 83.0852 194.284 81.3507C199.599 77.4156 206.048 63.9702 206.048 63.9702Z" fill="#E58A7B"/>
<path d="M207.848 60.7667C208.939 64.7962 203.028 72.9024 203.028 72.9024L195.281 68.5602C195.281 68.5602 196.733 65.2269 198.502 61.8346C201.34 56.3538 206.603 56.1709 207.848 60.7667Z" fill="#407BFF"/>
<path opacity="0.2" d="M207.848 60.7667C208.939 64.7962 203.028 72.9024 203.028 72.9024L195.281 68.5602C195.281 68.5602 196.733 65.2269 198.502 61.8346C201.34 56.3538 206.603 56.1709 207.848 60.7667Z" fill="black"/>
<path opacity="0.2" d="M198.354 70.2947L201.404 72.0056L201.941 62.6428C200.165 64.0056 198.914 68.1118 198.354 70.2947Z" fill="black"/>
<path d="M202.749 57.7344C202.749 57.7344 196.72 71.1502 200.236 96.1295H223.994C224.371 92.4835 223.121 74.69 227.646 57.5102C225.04 57.0008 222.403 56.6638 219.752 56.5013C216.39 56.3065 213.02 56.3065 209.658 56.5013C207.327 56.738 205.018 57.1502 202.749 57.7344Z" fill="#407BFF"/>
<path opacity="0.2" d="M202.749 57.7344C202.749 57.7344 196.72 71.1502 200.236 96.1295H223.994C224.371 92.4835 223.121 74.69 227.646 57.5102C225.04 57.0008 222.403 56.6638 219.752 56.5013C216.39 56.3065 213.02 56.3065 209.658 56.5013C207.327 56.738 205.018 57.1502 202.749 57.7344Z" fill="black"/>
<g style="mix-blend-mode:multiply">
<path d="M197.24 213.651C197.205 214.288 206.214 214.802 217.358 214.802C228.503 214.802 237.576 214.288 237.612 213.651C237.647 213.014 228.644 212.507 217.494 212.507C206.344 212.507 197.282 213.02 197.24 213.651Z" fill="#E8ECF1"/>
</g>
<path d="M213.099 196.909L208.885 198.541L212.514 207.917L216.728 206.286L213.099 196.909Z" fill="#E58A7B"/>
<path d="M231.887 209.114H227.445L225.816 198.831H230.259L231.887 209.114Z" fill="#E58A7B"/>
<path d="M227.139 208.601H232.13C232.216 208.601 232.3 208.632 232.366 208.688C232.432 208.744 232.476 208.822 232.49 208.908L233.133 212.855C233.146 212.954 233.138 213.054 233.109 213.15C233.081 213.246 233.031 213.334 232.965 213.409C232.899 213.484 232.818 213.544 232.727 213.585C232.635 213.625 232.536 213.646 232.437 213.645C230.696 213.616 229.858 213.509 227.664 213.509C226.313 213.509 223.534 213.651 221.658 213.651C219.782 213.651 219.658 211.81 220.431 211.639C223.9 210.89 225.245 209.869 226.401 208.878C226.605 208.699 226.867 208.6 227.139 208.601Z" fill="#263238"/>
<path d="M212.391 207.079L217.111 205.698C217.195 205.674 217.285 205.68 217.365 205.715C217.446 205.749 217.512 205.81 217.553 205.887L219.323 209.427C219.364 209.517 219.385 209.614 219.385 209.713C219.384 209.812 219.362 209.909 219.32 209.999C219.278 210.088 219.216 210.167 219.141 210.23C219.065 210.294 218.976 210.339 218.881 210.365C217.164 210.837 216.013 211.126 213.866 211.751C212.385 212.182 210.875 212.884 209.412 213.35C208.397 213.675 206.013 213.686 204.78 213.686C202.957 213.686 202.55 211.763 203.335 211.675C205.311 211.456 205.577 211.557 206.668 211.008C208.454 210.227 210.073 209.11 211.435 207.716C211.692 207.423 212.022 207.203 212.391 207.079Z" fill="#263238"/>
<path d="M178.072 80.513L173.188 78.4658L171.176 83.8817C173.178 84.1867 175.215 84.1867 177.217 83.8817L178.072 80.513Z" fill="#E58A7B"/>
<path d="M169.552 78.3242L169.422 81.923L171.174 83.8699L173.186 78.454L169.552 78.3242Z" fill="#E58A7B"/>
<path d="M213.676 197.706L209.449 199.337L211.321 204.186L215.548 202.554L213.676 197.706Z" fill="#CF6F64"/>
<path d="M230.259 198.831H225.816L226.66 204.135H231.103L230.259 198.831Z" fill="#CF6F64"/>
<path opacity="0.2" d="M199.48 89.3742C199.569 90.442 199.669 91.5335 199.799 92.6544L217.463 86.9199C220.221 86.1024 222.618 84.3689 224.259 82.0055C224.33 80.4303 224.418 78.7724 224.554 77.0438C224.613 76.2061 224.684 75.3447 224.761 74.4716C224.837 73.5984 224.943 72.6309 225.056 71.6987L199.48 89.3742Z" fill="black"/>
<path d="M205.25 70.0233L204.66 69.9525C205.008 67.0027 207.209 64.6782 209.527 64.7372V65.3272C207.498 65.2859 205.563 67.3802 205.25 70.0233Z" fill="white"/>
<path d="M208.395 75.4686H208.295V74.8786C210.324 74.9553 212.23 72.8374 212.543 70.2002L213.133 70.271C212.82 73.1559 210.69 75.4686 208.395 75.4686Z" fill="white"/>
<path d="M219.422 45.1326C218.59 48.3833 217.611 54.3361 219.752 56.5013C219.752 56.5013 218.254 59.7992 212.219 59.7992C206.702 59.7992 209.658 56.5013 209.658 56.5013C213.328 55.6399 213.393 52.9614 212.909 50.4246L219.422 45.1326Z" fill="#E58A7B"/>
<path d="M216.767 47.292L212.914 50.4247C213.033 51.0077 213.103 51.5998 213.121 52.1946C214.247 53.3156 216.507 50.4778 216.737 49.0265C216.854 48.4551 216.864 47.867 216.767 47.292Z" fill="#CF6F64"/>
<path d="M206.289 45.0913C206.557 45.5559 206.918 45.9603 207.349 46.279C207.781 46.5978 208.273 46.8241 208.796 46.9438C210.212 47.2565 210.92 45.9527 210.531 44.6429C210.183 43.463 209.02 41.876 207.581 42.1474C207.272 42.2109 206.984 42.3474 206.739 42.5454C206.494 42.7434 206.3 42.9972 206.174 43.2854C206.047 43.5737 205.992 43.8881 206.012 44.2023C206.032 44.5165 206.127 44.8214 206.289 45.0913Z" fill="#CF6F64"/>
<path d="M208.632 34.6901C206.426 35.6989 205.647 44.4658 208.42 45.7638C211.193 47.0617 212.809 32.7727 208.632 34.6901Z" fill="#263238"/>
<path d="M220.094 40.2417C219.563 44.6429 219.504 47.2329 217.144 49.4865C216.413 50.2344 215.489 50.7657 214.475 51.0216C213.461 51.2776 212.396 51.2483 211.397 50.937C210.399 50.6257 209.505 50.0445 208.816 49.2576C208.127 48.4707 207.669 47.5086 207.492 46.4777C206.778 42.5249 207.764 35.994 212.177 34.2418C213.104 33.8328 214.124 33.6793 215.13 33.7971C216.137 33.9149 217.093 34.2998 217.901 34.9119C218.709 35.524 219.338 36.3409 219.723 37.2781C220.109 38.2152 220.237 39.2385 220.094 40.2417Z" fill="#E58A7B"/>
<path d="M212.844 36.9674C216.113 36.1356 218.514 35.5692 217.652 38.289C216.514 41.9232 215.145 45.4394 216.98 45.5987C218.101 45.699 223.057 43.5987 222.425 41.4689C221.877 39.6164 224.195 39.109 224.608 38.171C226.136 34.7728 221.765 35.2211 222.543 33.1562C223.322 31.0914 219.003 27.7639 216.644 29.4217C212.803 32.1002 206.213 32.0589 209.676 27.6518C212.16 24.5073 207.729 25.1504 207.729 25.1504C207.729 25.1504 210.408 26.7374 205.9 29.1917C201.133 31.8111 205.505 38.8494 212.844 36.9674Z" fill="#263238"/>
<path d="M221.829 45.0913C221.184 46.0249 220.215 46.6853 219.11 46.9438C217.652 47.2565 217.092 45.9527 217.64 44.6429C218.13 43.463 219.475 41.876 220.868 42.1474C222.26 42.4188 222.579 43.935 221.829 45.0913Z" fill="#E58A7B"/>
<path d="M200.236 96.1294C200.236 96.1294 196.248 131.822 195.935 145.368C195.617 159.457 209.451 203.415 209.451 203.415L216.531 200.465C216.531 200.465 208.271 160.3 209.451 146.465C210.702 131.38 215.87 96.153 215.87 96.153L200.236 96.1294Z" fill="#407BFF"/>
<path opacity="0.2" d="M210.147 105.929C206.967 112.525 209.108 125.569 210.831 133.297C211.486 127.84 212.265 121.917 213.002 116.436C212.931 108.011 212.277 101.504 210.147 105.929Z" fill="black"/>
<path d="M216.219 198.129C216.254 198.129 217.057 200.383 217.057 200.383L208.892 203.816L207.605 201.421L216.219 198.129Z" fill="#407BFF"/>
<path d="M208.666 96.1294C208.666 96.1294 211.716 130.076 213.734 142.79C215.952 156.719 224.648 203.108 224.648 203.108H232.784C232.784 203.108 227.911 157.846 226.99 144.052C225.987 129.091 223.993 96.1294 223.993 96.1294H208.666Z" fill="#407BFF"/>
<path d="M232.907 200.99C232.943 200.99 233.179 203.262 233.179 203.262H224.235L223.598 200.654L232.907 200.99Z" fill="#407BFF"/>
<path opacity="0.2" d="M229.794 198.3C229.775 198.3 229.757 198.294 229.743 198.282C229.729 198.27 229.72 198.253 229.717 198.235C229.67 197.822 225.274 156.937 224.449 144.548C223.552 131.109 221.746 101.298 221.729 100.997C221.728 100.987 221.729 100.977 221.732 100.968C221.736 100.958 221.741 100.95 221.747 100.943C221.754 100.935 221.762 100.93 221.771 100.926C221.78 100.922 221.79 100.92 221.8 100.92C221.819 100.92 221.838 100.927 221.852 100.94C221.866 100.953 221.875 100.971 221.876 100.991C221.876 101.292 223.699 131.079 224.596 144.542C225.422 156.931 229.817 197.787 229.859 198.229C229.86 198.239 229.86 198.249 229.857 198.259C229.855 198.268 229.851 198.277 229.844 198.285C229.838 198.293 229.831 198.299 229.822 198.304C229.813 198.308 229.804 198.311 229.794 198.312V198.3Z" fill="black"/>
<path d="M213.346 41.4688C213.346 41.8287 213.122 42.1178 212.886 42.1178C212.65 42.1178 212.479 41.8287 212.502 41.4688C212.526 41.1089 212.726 40.8198 212.962 40.8198C213.198 40.8198 213.369 41.1148 213.346 41.4688Z" fill="#263238"/>
<path d="M209.298 41.4688C209.298 41.8287 209.068 42.1178 208.838 42.1178C208.608 42.1178 208.431 41.8287 208.448 41.4688C208.466 41.1089 208.679 40.8198 208.915 40.8198C209.151 40.8198 209.322 41.1148 209.298 41.4688Z" fill="#263238"/>
<path d="M210.571 41.6519C210.079 42.7508 209.444 43.7802 208.684 44.7138C209.274 45.3038 210.377 45.0324 210.377 45.0324L210.571 41.6519Z" fill="#DF5753"/>
<path d="M210.679 46.5367C210.665 46.5367 210.651 46.534 210.639 46.5285C210.626 46.5231 210.615 46.5152 210.606 46.5053C210.596 46.4953 210.589 46.4836 210.584 46.4707C210.579 46.4578 210.577 46.4442 210.578 46.4305C210.58 46.4018 210.592 46.3748 210.613 46.355C210.634 46.3353 210.662 46.3243 210.69 46.3243C211.142 46.3274 211.588 46.2294 211.996 46.0375C212.405 45.8456 212.765 45.5646 213.05 45.2152C213.071 45.1973 213.097 45.1875 213.124 45.1875C213.151 45.1875 213.177 45.1973 213.198 45.2152C213.217 45.235 213.228 45.2614 213.228 45.2889C213.228 45.3164 213.217 45.3429 213.198 45.3627C212.892 45.734 212.507 46.0322 212.071 46.2354C211.635 46.4385 211.16 46.5415 210.679 46.5367Z" fill="#263238"/>
<path d="M214.065 40.3835C214.037 40.398 214.006 40.4055 213.974 40.4055C213.942 40.4055 213.911 40.398 213.882 40.3835C213.662 40.2408 213.411 40.152 213.149 40.1244C212.888 40.0967 212.624 40.1309 212.378 40.2242C212.354 40.2362 212.328 40.2432 212.301 40.2449C212.275 40.2467 212.248 40.243 212.222 40.2342C212.197 40.2254 212.174 40.2116 212.154 40.1937C212.134 40.1758 212.118 40.154 212.107 40.1298C212.085 40.0773 212.084 40.0183 212.105 39.9654C212.126 39.9125 212.167 39.8699 212.219 39.8466C212.527 39.7206 212.861 39.6709 213.193 39.7017C213.525 39.7326 213.844 39.843 214.124 40.0236C214.147 40.039 214.166 40.0587 214.181 40.0816C214.196 40.1045 214.206 40.1301 214.211 40.157C214.216 40.1839 214.216 40.2115 214.21 40.2382C214.204 40.265 214.193 40.2903 214.177 40.3127C214.148 40.3465 214.109 40.3711 214.065 40.3835Z" fill="#263238"/>
<path d="M207.734 39.2034C207.703 39.1957 207.674 39.1794 207.652 39.1562C207.632 39.1369 207.617 39.114 207.606 39.0887C207.595 39.0633 207.59 39.0361 207.59 39.0087C207.59 38.9812 207.595 38.954 207.606 38.9287C207.617 38.9034 207.632 38.8804 207.652 38.8612C207.878 38.6076 208.16 38.4096 208.475 38.2827C208.79 38.1558 209.13 38.1034 209.469 38.1296C209.496 38.1338 209.522 38.1435 209.545 38.1582C209.569 38.1728 209.588 38.1921 209.604 38.2147C209.619 38.2374 209.63 38.263 209.635 38.29C209.64 38.317 209.64 38.3447 209.634 38.3715C209.621 38.4261 209.589 38.4743 209.544 38.5069C209.498 38.5394 209.442 38.5542 209.386 38.5485C209.118 38.5316 208.85 38.5759 208.601 38.6782C208.353 38.7804 208.131 38.9378 207.953 39.1385C207.926 39.1683 207.891 39.1902 207.853 39.2016C207.814 39.2131 207.773 39.2137 207.734 39.2034Z" fill="#263238"/>
<path d="M229.929 63.3154L223.794 61.6812C223.794 61.6812 217.776 76.4952 215.646 77.4569C212.755 78.7784 205.434 83.3566 202.319 85.5218C202.148 86.2592 202.283 88.212 202.673 88.7489C207.983 87.7813 218.148 83.8698 220.272 81.8816C225.115 77.3448 229.929 63.3154 229.929 63.3154Z" fill="#E58A7B"/>
<path d="M225.648 209.38C225.348 209.403 225.05 209.322 224.804 209.149C224.728 209.081 224.671 208.994 224.639 208.896C224.607 208.799 224.601 208.695 224.621 208.595C224.625 208.532 224.645 208.472 224.681 208.42C224.716 208.368 224.765 208.326 224.822 208.3C225.317 208.046 226.704 208.925 226.863 209.026C226.88 209.036 226.894 209.053 226.901 209.072C226.909 209.091 226.91 209.112 226.904 209.132C226.899 209.152 226.889 209.171 226.874 209.187C226.86 209.202 226.842 209.214 226.822 209.22C226.437 209.315 226.043 209.368 225.648 209.38ZM225.058 208.459C225.013 208.449 224.967 208.449 224.922 208.459C224.899 208.471 224.881 208.489 224.868 208.511C224.855 208.533 224.85 208.558 224.851 208.583C224.835 208.652 224.838 208.723 224.859 208.791C224.879 208.858 224.918 208.919 224.969 208.967C225.199 209.173 225.777 209.197 226.538 209.049C226.085 208.751 225.575 208.55 225.04 208.459H225.058Z" fill="#407BFF"/>
<path d="M226.79 209.22C226.775 209.225 226.758 209.225 226.743 209.22C226.3 208.973 225.469 207.999 225.593 207.504C225.611 207.425 225.655 207.355 225.719 207.305C225.782 207.254 225.86 207.227 225.941 207.226C226.02 207.216 226.1 207.222 226.177 207.246C226.253 207.269 226.323 207.309 226.383 207.362C226.873 207.781 226.902 209.067 226.902 209.132C226.905 209.151 226.901 209.171 226.892 209.188C226.882 209.205 226.867 209.219 226.849 209.226C226.829 209.23 226.809 209.228 226.79 209.22ZM226 207.421H225.958C225.823 207.421 225.805 207.498 225.799 207.527C225.728 207.816 226.253 208.554 226.69 208.902C226.688 208.403 226.533 207.918 226.247 207.51C226.179 207.45 226.09 207.418 226 207.421Z" fill="#407BFF"/>
<path d="M209.983 208.642C209.622 208.768 209.229 208.768 208.868 208.642C208.786 208.598 208.717 208.533 208.666 208.455C208.616 208.377 208.586 208.287 208.579 208.194C208.572 208.136 208.579 208.076 208.601 208.022C208.622 207.967 208.657 207.919 208.703 207.881C209.175 207.456 211.104 207.881 211.322 207.964C211.343 207.969 211.361 207.981 211.374 207.999C211.387 208.016 211.394 208.037 211.393 208.058C211.394 208.08 211.388 208.102 211.377 208.121C211.365 208.14 211.348 208.155 211.328 208.164C210.894 208.361 210.444 208.52 209.983 208.642ZM209.021 207.94C208.954 207.954 208.891 207.984 208.839 208.029C208.82 208.043 208.805 208.062 208.797 208.084C208.789 208.106 208.787 208.13 208.791 208.153C208.795 208.215 208.815 208.274 208.847 208.327C208.88 208.38 208.926 208.423 208.98 208.453C209.293 208.619 210.018 208.489 210.957 208.094C210.325 207.934 209.671 207.882 209.021 207.94Z" fill="#407BFF"/>
<path d="M211.31 208.164H211.262C210.672 208.058 209.492 207.38 209.457 206.872C209.457 206.754 209.51 206.589 209.793 206.495C209.889 206.461 209.991 206.446 210.092 206.452C210.193 206.458 210.292 206.485 210.383 206.53C211.02 206.843 211.357 207.976 211.374 208.029C211.379 208.046 211.378 208.065 211.373 208.083C211.368 208.1 211.358 208.116 211.345 208.129C211.336 208.143 211.324 208.155 211.31 208.164ZM209.911 206.672H209.852C209.669 206.737 209.669 206.813 209.669 206.837C209.669 207.144 210.525 207.704 211.121 207.893C210.984 207.419 210.693 207.004 210.295 206.713C210.176 206.653 210.04 206.638 209.911 206.672Z" fill="#407BFF"/>
<path d="M202.82 85.1736L196.667 88.0054L195.953 89.7753L198.224 91.3033C198.224 91.3033 202.472 90.8432 203.682 88.1116L202.82 85.1736Z" fill="#E58A7B"/>
<path d="M203.08 88.8491C202.943 87.6668 202.552 86.5279 201.936 85.5099L202.909 84.7783C203.641 85.9513 204.108 87.2702 204.278 88.6426L203.08 88.8491Z" fill="#263238"/>
<path d="M204.131 86.0115C204.261 86.2161 204.325 86.4559 204.314 86.6981C204.303 86.9403 204.217 87.1732 204.069 87.3652C203.921 87.5572 203.718 87.6989 203.486 87.7711C203.255 87.8433 203.007 87.8424 202.776 87.7686C202.545 87.6947 202.342 87.5516 202.196 87.3585C202.049 87.1654 201.965 86.9319 201.956 86.6896C201.947 86.4473 202.012 86.2081 202.144 86.0044C202.275 85.8008 202.467 85.6426 202.691 85.5514C202.943 85.4229 203.236 85.3991 203.506 85.4853C203.775 85.5715 204 85.7606 204.131 86.0115Z" fill="#263238"/>
<path d="M192.508 90.2947L193.328 91.1206L198.85 88.7608L196.667 88.0056L192.508 90.2947Z" fill="#E58A7B"/>
<path opacity="0.2" d="M216.219 198.129C216.254 198.129 217.057 200.383 217.057 200.383L208.892 203.816L207.605 201.421L216.219 198.129Z" fill="black"/>
<path opacity="0.2" d="M232.907 200.99C232.943 200.99 233.179 203.262 233.179 203.262H224.235L223.598 200.654L232.907 200.99Z" fill="black"/>
<path d="M231.53 61.6162C233.152 66.8492 226.81 74.0055 226.81 74.0055L218.049 70.4303C219.087 67.4057 220.285 64.438 221.636 61.5395C224.326 55.7401 229.889 56.336 231.53 61.6162Z" fill="#407BFF"/>
<path opacity="0.2" d="M231.53 61.6162C233.152 66.8492 226.81 74.0055 226.81 74.0055L218.049 70.4303C219.087 67.4057 220.285 64.438 221.636 61.5395C224.326 55.7401 229.889 56.336 231.53 61.6162Z" fill="black"/>
<path d="M144.473 9.18579H140.703V9.79346H144.473V9.18579Z" fill="#407BFF"/>
<path d="M193.275 33.2367L192.818 43.3621L193.425 43.3894L193.882 33.264L193.275 33.2367Z" fill="#407BFF"/>
<path d="M192.1 11.9114H122.484L116.006 156.878H185.622L192.1 11.9114Z" fill="#407BFF"/>
<path opacity="0.56" d="M190.022 13.9055H120.406L113.928 158.872H183.544L190.022 13.9055Z" fill="#FAFAFA"/>
<path opacity="0.07" d="M187.948 15.8938H118.331L111.848 160.861H181.464L187.948 15.8938Z" fill="#407BFF"/>
<path d="M180.023 79.1206H120.601L120.105 90.212H179.527L180.023 79.1206Z" fill="white"/>
<path d="M153.281 71.0261H120.962L120.744 75.9878H153.063L153.281 71.0261Z" fill="#407BFF"/>
<path d="M178.685 109.056H119.263L118.768 120.147H178.189L178.685 109.056Z" fill="white"/>
<path opacity="0.47" d="M167.789 135.126H127.83L127.234 148.418H167.193L167.789 135.126Z" fill="#407BFF"/>
<path d="M165.116 150.483H125.157C125.14 150.488 125.121 150.488 125.104 150.483C125.098 150.466 125.098 150.447 125.104 150.43L125.694 137.132C125.694 137.123 125.696 137.114 125.699 137.106C125.703 137.098 125.708 137.09 125.715 137.084C125.722 137.078 125.73 137.073 125.738 137.07C125.747 137.068 125.756 137.066 125.765 137.067H165.723C165.731 137.064 165.739 137.062 165.747 137.062C165.755 137.062 165.763 137.064 165.77 137.067C165.775 137.074 165.777 137.083 165.777 137.091C165.777 137.099 165.775 137.107 165.77 137.115L165.192 150.442C165.185 150.456 165.174 150.467 165.16 150.474C165.147 150.482 165.131 150.485 165.116 150.483ZM125.228 150.342H165.045L165.635 137.185H125.818L125.228 150.342Z" fill="white"/>
<path d="M146.301 100.961H119.623L119.404 105.929H146.077L146.301 100.961Z" fill="#407BFF"/>
<path d="M167.026 43.2919C166.874 46.5198 165.726 49.6214 163.74 52.1709C162.27 54.0966 160.378 55.66 158.21 56.741C156.042 57.8219 153.655 58.3918 151.233 58.4068C149.275 58.4218 147.335 58.0357 145.532 57.2725C143.729 56.5093 142.102 55.385 140.75 53.969C139.398 52.553 138.35 50.8751 137.671 49.0389C136.992 47.2026 136.697 45.2468 136.802 43.2919C137.01 39.2353 138.759 35.4111 141.692 32.6016C144.626 29.792 148.522 28.2092 152.584 28.1769C154.543 28.1586 156.485 28.5423 158.29 29.3042C160.095 30.0661 161.725 31.1901 163.078 32.6067C164.432 34.0232 165.481 35.7023 166.16 37.5401C166.839 39.378 167.134 41.3355 167.026 43.2919Z" fill="white"/>
<path d="M168.448 31.3391C168.409 32.1974 168.104 33.0223 167.575 33.699C167.183 34.2104 166.679 34.6257 166.103 34.913C165.526 35.2003 164.891 35.3521 164.247 35.3568C163.623 35.3606 163.007 35.2115 162.454 34.9225C161.901 34.6335 161.427 34.2134 161.073 33.699C160.605 33.0038 160.373 32.1763 160.412 31.3391C160.469 30.262 160.935 29.2473 161.715 28.5019C162.494 27.7564 163.529 27.3363 164.607 27.3273C165.127 27.3226 165.643 27.4244 166.123 27.6266C166.602 27.8287 167.035 28.1269 167.395 28.5028C167.755 28.8786 168.034 29.3242 168.215 29.812C168.396 30.2998 168.475 30.8195 168.448 31.3391Z" fill="#407BFF"/>
<path d="M127.003 84.6664C126.975 85.1419 126.767 85.5888 126.422 85.9173C126.078 86.2457 125.621 86.4312 125.145 86.4363C124.915 86.4391 124.687 86.3946 124.475 86.3057C124.263 86.2168 124.071 86.0854 123.912 85.9195C123.753 85.7536 123.629 85.5568 123.549 85.3413C123.469 85.1258 123.434 84.8961 123.446 84.6664C123.471 84.1901 123.678 83.7415 124.023 83.4124C124.369 83.0834 124.827 82.8989 125.304 82.8965C125.534 82.8947 125.761 82.9397 125.973 83.0289C126.185 83.1181 126.376 83.2496 126.535 83.4153C126.694 83.581 126.818 83.7774 126.898 83.9926C126.979 84.2077 127.014 84.437 127.003 84.6664Z" fill="#263238"/>
<path d="M134.956 84.6663C134.929 85.1422 134.722 85.59 134.377 85.9187C134.032 86.2474 133.575 86.4324 133.098 86.4362C132.868 86.4381 132.641 86.393 132.43 86.3038C132.218 86.2145 132.027 86.0829 131.869 85.9171C131.71 85.7513 131.587 85.5548 131.507 85.3397C131.428 85.1246 131.393 84.8954 131.405 84.6663C131.43 84.1909 131.636 83.7431 131.98 83.4143C132.324 83.0854 132.781 82.9002 133.257 82.8964C133.487 82.8936 133.715 82.9381 133.927 83.027C134.139 83.1159 134.331 83.2473 134.49 83.4132C134.649 83.5791 134.773 83.7759 134.853 83.9914C134.933 84.2069 134.968 84.4366 134.956 84.6663Z" fill="#263238"/>
<path d="M142.915 84.6663C142.888 85.1422 142.681 85.59 142.336 85.9187C141.991 86.2474 141.533 86.4324 141.057 86.4362C140.827 86.438 140.599 86.393 140.388 86.3038C140.176 86.2146 139.985 86.0831 139.826 85.9174C139.666 85.7517 139.543 85.5553 139.462 85.3401C139.382 85.125 139.346 84.8957 139.357 84.6663C139.384 84.1904 139.592 83.7426 139.937 83.4139C140.282 83.0851 140.739 82.9001 141.216 82.8964C141.446 82.8936 141.674 82.9381 141.886 83.027C142.098 83.1159 142.29 83.2473 142.449 83.4132C142.608 83.5791 142.732 83.7759 142.812 83.9914C142.892 84.2069 142.927 84.4366 142.915 84.6663Z" fill="#263238"/>
<path d="M125.665 114.601C125.637 115.077 125.429 115.524 125.084 115.852C124.739 116.181 124.283 116.366 123.807 116.371C123.577 116.373 123.349 116.328 123.138 116.239C122.926 116.15 122.735 116.018 122.576 115.852C122.416 115.687 122.293 115.49 122.212 115.275C122.132 115.06 122.096 114.831 122.107 114.601C122.134 114.125 122.342 113.678 122.687 113.349C123.032 113.02 123.489 112.835 123.966 112.831C124.196 112.829 124.423 112.875 124.635 112.964C124.847 113.053 125.038 113.184 125.197 113.35C125.356 113.516 125.48 113.712 125.56 113.927C125.641 114.143 125.676 114.372 125.665 114.601Z" fill="#263238"/>
<path d="M133.618 114.601C133.591 115.076 133.385 115.523 133.041 115.852C132.697 116.18 132.242 116.366 131.766 116.371C131.536 116.374 131.308 116.329 131.096 116.241C130.884 116.152 130.692 116.02 130.533 115.854C130.374 115.688 130.25 115.492 130.17 115.276C130.09 115.061 130.055 114.831 130.067 114.601C130.094 114.125 130.301 113.678 130.646 113.349C130.991 113.02 131.449 112.835 131.925 112.831C132.155 112.829 132.382 112.874 132.593 112.964C132.805 113.053 132.996 113.185 133.154 113.35C133.313 113.516 133.436 113.713 133.516 113.928C133.596 114.143 133.63 114.372 133.618 114.601Z" fill="#263238"/>
<path d="M141.594 114.601C141.567 115.077 141.36 115.525 141.015 115.854C140.67 116.182 140.213 116.367 139.736 116.371C139.507 116.372 139.279 116.327 139.068 116.237C138.857 116.148 138.666 116.016 138.507 115.851C138.348 115.685 138.224 115.489 138.144 115.274C138.063 115.059 138.026 114.831 138.037 114.601C138.065 114.126 138.273 113.679 138.618 113.35C138.962 113.022 139.419 112.837 139.895 112.831C140.125 112.829 140.353 112.873 140.565 112.962C140.777 113.051 140.969 113.182 141.128 113.348C141.288 113.514 141.411 113.711 141.491 113.926C141.571 114.142 141.607 114.372 141.594 114.601Z" fill="#263238"/>
<path d="M149.534 114.601C149.506 115.077 149.298 115.524 148.953 115.852C148.608 116.181 148.152 116.366 147.675 116.371C147.446 116.372 147.219 116.327 147.007 116.237C146.796 116.148 146.605 116.016 146.446 115.851C146.287 115.685 146.164 115.489 146.083 115.274C146.002 115.059 145.966 114.83 145.976 114.601C146.005 114.126 146.212 113.679 146.557 113.35C146.902 113.022 147.359 112.836 147.835 112.831C148.064 112.829 148.292 112.875 148.504 112.964C148.715 113.053 148.907 113.184 149.066 113.35C149.225 113.516 149.348 113.712 149.429 113.927C149.509 114.143 149.545 114.372 149.534 114.601Z" fill="#263238"/>
<path d="M157.523 114.601C157.494 115.077 157.287 115.524 156.942 115.852C156.597 116.181 156.141 116.366 155.664 116.371C155.434 116.374 155.206 116.329 154.994 116.241C154.782 116.152 154.591 116.02 154.431 115.854C154.272 115.688 154.149 115.492 154.068 115.276C153.988 115.061 153.953 114.831 153.965 114.601C153.992 114.125 154.199 113.678 154.544 113.349C154.89 113.02 155.347 112.835 155.824 112.831C156.053 112.829 156.281 112.875 156.493 112.964C156.704 113.053 156.896 113.184 157.055 113.35C157.214 113.516 157.337 113.712 157.418 113.927C157.498 114.143 157.534 114.372 157.523 114.601Z" fill="#263238"/>
<path d="M156.314 42.5047C158.784 40.0899 158.915 36.2193 156.607 33.8595C154.299 31.4997 150.427 31.5442 147.957 33.959C145.488 36.3737 145.357 40.2443 147.665 42.6042C149.972 44.964 153.845 44.9195 156.314 42.5047Z" fill="#407BFF"/>
<path d="M163.739 52.1709C162.269 54.0967 160.378 55.66 158.21 56.741C156.042 57.822 153.655 58.3919 151.232 58.4069C148.883 58.4268 146.565 57.8684 144.482 56.7809C142.4 55.6934 140.617 54.1102 139.291 52.1709C142.158 49.3155 146.695 47.4512 151.722 47.4512C156.748 47.4512 161.126 49.3155 163.739 52.1709Z" fill="#407BFF"/>
<path opacity="0.1" d="M156.314 42.5047C158.784 40.0899 158.915 36.2193 156.607 33.8595C154.299 31.4997 150.427 31.5442 147.957 33.959C145.488 36.3737 145.357 40.2443 147.665 42.6042C149.972 44.964 153.845 44.9195 156.314 42.5047Z" fill="white"/>
<path opacity="0.1" d="M163.739 52.1709C162.269 54.0967 160.378 55.66 158.21 56.741C156.042 57.822 153.655 58.3919 151.232 58.4069C148.883 58.4268 146.565 57.8684 144.482 56.7809C142.4 55.6934 140.617 54.1102 139.291 52.1709C142.158 49.3155 146.695 47.4512 151.722 47.4512C156.748 47.4512 161.126 49.3155 163.739 52.1709Z" fill="white"/>
<path d="M76.9387 92.8843C76.3782 94.1115 75.7882 95.4625 75.275 96.7722C74.7617 98.082 74.2366 99.433 73.7823 100.778C72.8548 103.429 72.1484 106.152 71.6703 108.92L71.5405 109.787C71.5281 109.936 71.5421 110.085 71.5818 110.229C71.721 110.718 71.9403 111.181 72.2307 111.598C72.9884 112.678 73.8672 113.668 74.8502 114.548C75.8865 115.512 76.9736 116.42 78.1068 117.268C79.2395 118.141 80.4313 118.99 81.6053 119.793L80.5021 121.864C77.6987 120.642 75.0377 119.117 72.567 117.315C71.2489 116.354 70.0592 115.227 69.0272 113.964C68.4154 113.212 67.9384 112.359 67.6172 111.445C67.4304 110.873 67.3348 110.276 67.334 109.675C67.334 109.533 67.334 109.327 67.334 109.226V108.937L67.393 108.347C67.7312 105.274 68.3775 102.242 69.3222 99.2973C69.7824 97.846 70.272 96.4005 70.8325 94.9905C71.393 93.5805 71.9711 92.2 72.685 90.7664L76.9387 92.8843Z" fill="#E58A7B"/>
<path d="M80.7751 119.427L84.9461 117.315L83.8665 121.893C83.8665 121.893 81.0052 122.695 79.6777 121.303L80.7751 119.427Z" fill="#E58A7B"/>
<path d="M88.762 118.064L87.6528 121.852L83.8652 121.893L84.9449 117.315L88.762 118.064Z" fill="#E58A7B"/>
<path d="M94.6505 70.7961C94.8736 71.6137 95.1841 72.4049 95.5767 73.156C95.462 73.2861 95.3143 73.3827 95.1492 73.4357C94.984 73.4887 94.8076 73.496 94.6387 73.4569L94.6505 70.7961Z" fill="#DF5753"/>
<path d="M94.5265 70.8315C94.7708 70.8315 94.9689 70.5278 94.9689 70.1531C94.9689 69.7784 94.7708 69.4746 94.5265 69.4746C94.2821 69.4746 94.084 69.7784 94.084 70.1531C94.084 70.5278 94.2821 70.8315 94.5265 70.8315Z" fill="#263238"/>
<path d="M94.3965 69.4981L95.2932 69.2444C95.2932 69.2444 94.8567 69.9406 94.3965 69.4981Z" fill="#263238"/>
<path d="M83.1288 75.1265C83.6657 77.8698 84.2026 82.9022 82.2793 84.737C82.2793 84.737 83.0345 87.5217 88.1377 87.5217C93.7483 87.5217 90.8161 84.737 90.8161 84.737C87.7542 84.0055 87.8309 81.7341 88.3678 79.5984L83.1288 75.1265Z" fill="#E58A7B"/>
<path d="M81.6359 68.8727C81.9191 73.4568 81.9427 75.4037 84.2554 77.7577C87.7421 81.2975 93.3114 79.9523 94.4028 75.3978C95.3881 71.268 94.7627 64.4716 90.2731 62.6486C89.2876 62.2426 88.2148 62.0947 87.1562 62.219C86.0976 62.3432 85.0882 62.7355 84.2235 63.3586C83.3588 63.9817 82.6673 64.8152 82.2146 65.7801C81.7618 66.745 81.5626 67.8094 81.6359 68.8727Z" fill="#E58A7B"/>
<path d="M82.0898 63.7166C79.7889 64.5544 76.7211 63.929 77.9246 71.0263C79.1989 78.5425 77.2402 81.0145 77.2402 81.0145C77.2402 81.0145 85.9659 82.8729 94.8744 80.9024C94.8744 80.9024 92.1546 76.1472 92.9157 72.6428C93.8891 68.2181 93.1222 66.5838 93.1222 66.5838C93.1222 66.5838 85.3228 62.5367 82.0898 63.7166Z" fill="#263238"/>
<path d="M91.8242 71.2622C91.8266 72.1338 92.0762 72.9869 92.544 73.7224C93.1693 74.6781 93.9068 74.3124 94.0897 73.2976C94.2549 72.4068 94.131 70.8315 93.3345 70.218C92.5381 69.6044 91.836 70.2062 91.8242 71.2622Z" fill="#E58A7B"/>
<path d="M80.09 64.4894C79.4293 62.631 82.5797 59.7696 89.2463 60.9496C95.913 62.1295 96.202 67.6811 96.202 67.6811L94.8569 66.0764L94.9159 67.7637L88.0664 69.0793L80.09 64.4894Z" fill="#263238"/>
<path d="M80.6555 85.0498C80.6162 84.7804 80.6835 84.5063 80.8433 84.2859C81.0031 84.0655 81.2427 83.9162 81.511 83.8699C83.5876 83.5277 88.3074 82.8315 90.6791 83.1619C92.449 83.4097 92.9091 84.4362 92.9858 85.2799C92.9978 85.4276 92.9781 85.5762 92.9279 85.7156C92.8777 85.8551 92.7982 85.9822 92.6948 86.0884C92.5914 86.1946 92.4665 86.2774 92.3285 86.3313C92.1904 86.3852 92.0424 86.4089 91.8944 86.4008L81.6407 85.9406C81.399 85.9284 81.1689 85.8331 80.9894 85.6708C80.8099 85.5084 80.6919 85.2891 80.6555 85.0498Z" fill="#407BFF"/>
<path opacity="0.6" d="M80.6555 85.0498C80.6162 84.7804 80.6835 84.5063 80.8433 84.2859C81.0031 84.0655 81.2427 83.9162 81.511 83.8699C83.5876 83.5277 88.3074 82.8315 90.6791 83.1619C92.449 83.4097 92.9091 84.4362 92.9858 85.2799C92.9978 85.4276 92.9781 85.5762 92.9279 85.7156C92.8777 85.8551 92.7982 85.9822 92.6948 86.0884C92.5914 86.1946 92.4665 86.2774 92.3285 86.3313C92.1904 86.3852 92.0424 86.4089 91.8944 86.4008L81.6407 85.9406C81.399 85.9284 81.1689 85.8331 80.9894 85.6708C80.8099 85.5084 80.6919 85.2891 80.6555 85.0498Z" fill="black"/>
<path d="M86.5859 188.117L90.3912 190.76L96.757 182.129L92.9517 179.492L86.5859 188.117Z" fill="#E58A7B"/>
<path d="M77.7109 187.946L81.7286 190.235L87.3628 181.108L83.3451 178.819L77.7109 187.946Z" fill="#E58A7B"/>
<path d="M96.7496 182.129L93.4694 186.577L89.6641 183.94L92.9443 179.492L96.7496 182.129Z" fill="#CF6F64"/>
<path d="M83.3401 178.819L87.3637 181.114L84.4611 185.816L80.4375 183.521L83.3401 178.819Z" fill="#CF6F64"/>
<path d="M89.7944 113.864C89.7944 113.864 104.65 132.583 101.859 150.489C99.6115 164.949 86.5732 184.53 86.5732 184.53L80.4435 181.486C84.7641 172.828 88.4512 163.869 91.4759 154.678C92.4086 151.824 92.6808 148.796 92.272 145.822C91.8632 142.848 90.784 140.006 89.116 137.51C81.588 126.519 69.5291 133.061 77.6411 113.864H89.7944Z" fill="#407BFF"/>
<path opacity="0.6" d="M89.7944 113.864C89.7944 113.864 104.65 132.583 101.859 150.489C99.6115 164.949 86.5732 184.53 86.5732 184.53L80.4435 181.486C84.7641 172.828 88.4512 163.869 91.4759 154.678C92.4086 151.824 92.6808 148.796 92.272 145.822C91.8632 142.848 90.784 140.006 89.116 137.51C81.588 126.519 69.5291 133.061 77.6411 113.864H89.7944Z" fill="black"/>
<path opacity="0.4" d="M97.0812 125.887L94.9219 123.74C94.9219 123.911 99.1047 149.734 100.279 156.99C100.972 154.871 101.502 152.701 101.866 150.501C103.246 141.716 100.361 132.743 97.0812 125.887Z" fill="black"/>
<path d="M96.4253 113.864C96.4253 113.864 114.313 137.392 114.82 151.498C115.239 163.297 95.3516 186.158 95.3516 186.158L89.5699 182.418C89.5699 182.418 101.21 166.182 104.142 152.92C103.009 139.775 79.0566 113.864 79.0566 113.864H96.4253Z" fill="#407BFF"/>
<path opacity="0.6" d="M96.4253 113.864C96.4253 113.864 114.313 137.392 114.82 151.498C115.239 163.297 95.3516 186.158 95.3516 186.158L89.5699 182.418C89.5699 182.418 101.21 166.182 104.142 152.92C103.009 139.775 79.0566 113.864 79.0566 113.864H96.4253Z" fill="black"/>
<path d="M74.2951 85.7872C72.3836 86.2415 70.5488 93.1913 70.5488 93.1913L78.0237 98.1824C78.0237 98.1824 80.5134 92.684 79.6402 90.2769C78.7376 87.7695 76.6963 85.215 74.2951 85.7872Z" fill="#407BFF"/>
<path opacity="0.2" d="M75.7594 90.2651L75.2402 96.3241L78.019 98.1884C78.7862 96.4611 79.3543 94.652 79.7122 92.7961L75.7594 90.2651Z" fill="black"/>
<path d="M98.637 85.9229C98.637 85.9229 100.843 86.6958 96.4246 113.858H77.6282C77.9468 106.188 77.9527 101.469 74.2949 85.7872C76.9268 85.2448 79.5946 84.8939 82.2772 84.7371C85.1192 84.5333 87.9721 84.5333 90.814 84.7371C94.4836 85.0733 98.637 85.9229 98.637 85.9229Z" fill="#407BFF"/>
<path d="M100.55 90.265C100.975 91.4449 101.423 92.7133 101.895 93.9346C102.367 95.1558 102.816 96.4124 103.293 97.6514L104.739 101.356L105.105 102.283L105.293 102.743L105.382 102.973C105.382 103.014 105.382 103.014 105.382 103.008C105.274 102.856 105.133 102.731 104.969 102.642C104.736 102.505 104.472 102.426 104.202 102.412C103.977 102.405 103.754 102.448 103.547 102.536C103.276 102.66 103.276 102.713 103.282 102.707C103.331 102.668 103.374 102.622 103.411 102.572C103.738 102.143 104.021 101.682 104.255 101.197C104.532 100.654 104.798 100.076 105.063 99.4921C105.583 98.3121 106.06 97.0909 106.538 95.8579C107.016 94.6248 107.47 93.38 107.913 92.1234L109.258 88.3594L111.529 88.9493C111.081 91.6396 110.503 94.259 109.807 96.9257C109.47 98.2531 109.075 99.5688 108.627 100.896C108.403 101.563 108.155 102.224 107.872 102.902C107.576 103.638 107.213 104.346 106.786 105.014C106.629 105.239 106.456 105.452 106.267 105.651C105.966 105.977 105.6 106.236 105.193 106.412C104.832 106.567 104.441 106.64 104.049 106.625C103.609 106.608 103.18 106.481 102.804 106.253C102.359 105.976 101.99 105.593 101.73 105.138C101.642 104.985 101.565 104.831 101.512 104.719L101.4 104.495L101.175 104.035L100.727 103.12C100.137 101.893 99.5471 100.654 99.0339 99.4095C98.5206 98.1646 97.9778 96.9021 97.4704 95.6337C96.9631 94.3652 96.5088 93.0968 96.0781 91.7281L100.55 90.265Z" fill="#E58A7B"/>
<path d="M98.6385 85.9229C100.898 86.4597 103.441 93.1382 103.441 93.1382L96.7211 98.855C96.7211 98.855 92.3731 91.5748 93.2521 89.1736C94.1666 86.6721 95.6887 85.2208 98.6385 85.9229Z" fill="#407BFF"/>
<path d="M110.326 86.2473L112.686 84.2769L114.326 86.8314L113.116 88.9612C113.116 88.9612 111.193 90.7311 109.494 89.8284C109.224 89.2223 109.159 88.5447 109.31 87.8985C109.46 87.2522 109.816 86.6726 110.326 86.2473Z" fill="#E58A7B"/>
<path d="M116.943 84.2828L116.766 84.9258L113.032 85.5512L112.666 84.2769L116.943 84.2828Z" fill="#E58A7B"/>
<path d="M95.8136 186.459L89.0762 182.105L90.2856 180.005L97.8549 184.66L95.8136 186.459Z" fill="#407BFF"/>
<path d="M84.3659 189.928C83.7747 189.856 83.2067 189.655 82.7021 189.338C82.6813 189.331 82.6633 189.318 82.6505 189.3C82.6377 189.282 82.6309 189.26 82.6309 189.238C82.6309 189.216 82.6377 189.195 82.6505 189.177C82.6633 189.159 82.6813 189.145 82.7021 189.138C82.885 189.079 84.4721 188.589 84.9322 188.967C84.984 189.01 85.0233 189.066 85.0461 189.129C85.0689 189.192 85.0744 189.26 85.062 189.327C85.0538 189.433 85.0186 189.535 84.9598 189.624C84.9009 189.713 84.8204 189.785 84.7257 189.834C84.6153 189.894 84.4917 189.927 84.3659 189.928ZM83.0384 189.279C83.7759 189.657 84.3659 189.793 84.649 189.651C84.7107 189.617 84.7626 189.568 84.7998 189.508C84.837 189.448 84.8582 189.379 84.8614 189.309C84.8614 189.214 84.8614 189.173 84.8083 189.15C84.5606 188.949 83.6756 189.102 83.0266 189.279H83.0384Z" fill="#263238"/>
<path d="M82.7444 189.38C82.7133 189.379 82.6836 189.367 82.6618 189.344C82.653 189.328 82.6484 189.31 82.6484 189.291C82.6484 189.273 82.653 189.254 82.6618 189.238C82.6618 189.185 83.0453 187.905 83.6471 187.616C83.7239 187.581 83.8074 187.562 83.8919 187.562C83.9764 187.562 84.0599 187.581 84.1367 187.616C84.2196 187.642 84.2913 187.695 84.3405 187.767C84.3897 187.838 84.4135 187.924 84.4081 188.011C84.3668 188.542 83.2872 189.274 82.7916 189.397L82.7444 189.38ZM83.8889 187.769C83.8316 187.771 83.7752 187.785 83.7238 187.81C83.358 187.987 83.0571 188.678 82.9096 189.097C83.4288 188.878 84.1426 188.3 84.1662 187.976C84.1662 187.922 84.1662 187.858 84.0305 187.799C83.9864 187.775 83.9385 187.759 83.8889 187.751V187.769Z" fill="#263238"/>
<path d="M92.7843 192.477C92.1176 192.477 91.1914 191.621 90.684 191.096C90.671 191.078 90.6641 191.057 90.6641 191.034C90.6641 191.012 90.671 190.991 90.684 190.972C90.6956 190.953 90.7122 190.938 90.7319 190.928C90.7517 190.917 90.7738 190.912 90.7961 190.913C91.0321 190.913 93.0793 191.22 93.3683 191.798C93.399 191.85 93.4151 191.909 93.4151 191.97C93.4151 192.03 93.399 192.089 93.3683 192.141C93.325 192.231 93.2595 192.308 93.178 192.366C93.0964 192.424 93.0016 192.46 92.9023 192.471L92.7843 192.477ZM91.0734 191.179C91.8167 191.899 92.4716 192.3 92.8433 192.253C92.9084 192.244 92.9704 192.22 93.0239 192.182C93.0774 192.144 93.1207 192.093 93.1501 192.034C93.1633 192.014 93.1703 191.991 93.1703 191.967C93.1703 191.942 93.1633 191.919 93.1501 191.899C92.9967 191.58 91.9052 191.309 91.0734 191.179Z" fill="#263238"/>
<path d="M91.1397 191.15C91.0073 191.153 90.8748 191.143 90.7444 191.12C90.7262 191.117 90.709 191.11 90.6946 191.099C90.6801 191.087 90.6688 191.072 90.6618 191.055C90.653 191.038 90.6484 191.019 90.6484 190.999C90.6484 190.98 90.653 190.96 90.6618 190.943C90.6972 190.902 91.4937 189.94 92.2489 189.875C92.4626 189.859 92.6744 189.926 92.8388 190.064C93.0689 190.265 93.0571 190.442 92.9981 190.554C92.8506 190.955 91.83 191.15 91.1397 191.15ZM90.9863 190.931C91.6471 190.967 92.7031 190.748 92.8388 190.459C92.8388 190.459 92.886 190.365 92.7326 190.235C92.6716 190.182 92.6003 190.142 92.5232 190.118C92.446 190.093 92.3647 190.085 92.2843 190.094C91.7756 190.236 91.3226 190.53 90.9863 190.937V190.931Z" fill="#263238"/>
<path d="M82.9026 188.742L77.8997 187.326C77.8134 187.3 77.7206 187.307 77.6389 187.345C77.5573 187.383 77.4926 187.45 77.4572 187.533L75.7699 191.326C75.7303 191.424 75.7117 191.528 75.7153 191.633C75.7189 191.738 75.7447 191.841 75.791 191.935C75.8372 192.029 75.9029 192.112 75.9837 192.179C76.0644 192.246 76.1584 192.295 76.2596 192.324C78.0295 192.784 78.879 192.913 81.0796 193.545C82.4365 193.922 84.3716 194.624 86.2418 195.155C88.112 195.686 88.7374 193.863 88.0117 193.474C84.7315 191.739 84.4719 190.524 83.5752 189.226C83.4146 188.991 83.1765 188.82 82.9026 188.742Z" fill="#407BFF"/>
<path d="M90.8208 190.406L86.5494 187.456C86.477 187.404 86.3877 187.379 86.2986 187.388C86.2094 187.397 86.1265 187.438 86.0657 187.504L83.2338 190.548C83.1648 190.626 83.1133 190.719 83.0828 190.819C83.0523 190.919 83.0435 191.025 83.0568 191.128C83.0702 191.232 83.1056 191.332 83.1605 191.421C83.2154 191.51 83.2887 191.587 83.3754 191.645C84.8798 192.654 85.6586 193.061 87.5406 194.365C88.7205 195.167 91.0037 196.949 92.5966 198.058C94.1895 199.167 95.3753 197.645 94.809 197.043C92.2721 194.335 91.7175 192.636 91.2987 191.096C91.226 190.817 91.0567 190.573 90.8208 190.406Z" fill="#407BFF"/>
<path d="M87.3573 184.92L79.6582 181.091L80.4547 179.002L88.6788 183.038L87.3573 184.92Z" fill="#407BFF"/>
<path d="M77.3456 112.755L76.6967 114.454C76.6318 114.584 76.7852 114.719 77.0034 114.719H96.5196C96.6907 114.719 96.8323 114.637 96.8441 114.53L97.0092 112.843C97.0092 112.731 96.8736 112.631 96.6907 112.631H77.6524C77.5951 112.625 77.5373 112.634 77.4839 112.655C77.4306 112.677 77.3831 112.711 77.3456 112.755Z" fill="#407BFF"/>
<path opacity="0.4" d="M77.3456 112.755L76.6967 114.454C76.6318 114.584 76.7852 114.719 77.0034 114.719H96.5196C96.6907 114.719 96.8323 114.637 96.8441 114.53L97.0092 112.843C97.0092 112.731 96.8736 112.631 96.6907 112.631H77.6524C77.5951 112.625 77.5373 112.634 77.4839 112.655C77.4306 112.677 77.3831 112.711 77.3456 112.755Z" fill="white"/>
<path d="M80.4191 114.884H79.9058C79.8055 114.884 79.7288 114.831 79.7347 114.766L79.9766 112.578C79.9766 112.519 80.071 112.466 80.1713 112.466H80.6845C80.7848 112.466 80.8615 112.519 80.8556 112.578L80.6137 114.766C80.6078 114.831 80.5194 114.884 80.4191 114.884Z" fill="#407BFF"/>
<path d="M92.4542 114.884H91.9468C91.8465 114.884 91.7698 114.831 91.7757 114.766L92.0117 112.578C92.0117 112.519 92.112 112.466 92.2123 112.466H92.7197C92.82 112.466 92.9025 112.519 92.8907 112.578L92.6548 114.766C92.6253 114.831 92.5604 114.884 92.4542 114.884Z" fill="#407BFF"/>
<g style="mix-blend-mode:multiply">
<path d="M79.9713 214.795C88.7003 214.795 95.7765 214.283 95.7765 213.651C95.7765 213.019 88.7003 212.506 79.9713 212.506C71.2423 212.506 64.166 213.019 64.166 213.651C64.166 214.283 71.2423 214.795 79.9713 214.795Z" fill="#F5F5F5"/>
</g>
<path d="M89.5993 212.034C86.8028 211.22 83.6996 210.176 81.8235 209.085C81.7704 209.049 81.7114 209.032 81.6583 209.002V196.341H87.3161C87.7456 196.316 88.1491 196.127 88.4442 195.814C88.7393 195.501 88.9037 195.087 88.9037 194.657C88.9037 194.227 88.7393 193.813 88.4442 193.5C88.1491 193.187 87.7456 192.998 87.3161 192.973H81.6878V135.262H78.2896V192.973H72.6672C72.4376 192.959 72.2077 192.993 71.9915 193.071C71.7754 193.15 71.5775 193.271 71.4102 193.429C71.2428 193.587 71.1095 193.777 71.0183 193.988C70.9272 194.199 70.8802 194.427 70.8802 194.657C70.8802 194.887 70.9272 195.115 71.0183 195.326C71.1095 195.537 71.2428 195.727 71.4102 195.885C71.5775 196.043 71.7754 196.164 71.9915 196.243C72.2077 196.321 72.4376 196.355 72.6672 196.341H78.2896V208.984C78.2365 208.984 78.1834 209.032 78.1303 209.067C76.2247 210.176 73.1451 211.22 70.3486 212.017C70.1597 212.074 69.9975 212.197 69.8914 212.363C69.7852 212.53 69.7422 212.728 69.77 212.924C69.7978 213.119 69.8946 213.298 70.043 213.428C70.1913 213.558 70.3814 213.631 70.5787 213.633H89.3692C89.5578 213.62 89.7362 213.543 89.8748 213.415C90.0134 213.286 90.1036 213.114 90.1306 212.927C90.1575 212.74 90.1194 212.549 90.0227 212.387C89.926 212.224 89.7766 212.1 89.5993 212.034Z" fill="#E0E0E0"/>
<path d="M90.4669 129.386H69.4877C67.7999 129.386 66.4316 130.754 66.4316 132.442V138.678C66.4316 140.366 67.7999 141.734 69.4877 141.734H90.4669C92.1547 141.734 93.523 140.366 93.523 138.678V132.442C93.523 130.754 92.1547 129.386 90.4669 129.386Z" fill="#407BFF"/>
<path d="M69.293 141.74V142.813C69.293 143.698 70.2546 144.418 71.4346 144.418H88.5436C89.7236 144.418 90.6852 143.698 90.6852 142.813V141.74H69.293Z" fill="#407BFF"/>
<path opacity="0.3" d="M69.293 141.74V142.813C69.293 143.698 70.2546 144.418 71.4346 144.418H88.5436C89.7236 144.418 90.6852 143.698 90.6852 142.813V141.74H69.293Z" fill="white"/>
</svg>
