<svg width="338" height="353" viewBox="0 0 338 353" fill="none" xmlns="http://www.w3.org/2000/svg">
<path d="M76.3778 98.9433C76.9293 94.9119 71.2357 91.5874 66.9557 91.2456C64.9129 91.0825 62.7923 91.3932 60.8582 90.7174C56.6715 89.2571 54.9937 83.8431 50.908 82.1187C47.8475 80.8293 44.3288 81.9789 41.3694 83.4703C38.4099 84.9616 35.4816 86.8414 32.1648 87.0511C29.2908 87.2375 26.1605 86.1656 23.6205 87.5715C21.7407 88.6202 20.7543 90.7873 19.0299 92.0612C17.3055 93.3351 15.1461 93.5759 13.0255 93.6846C10.905 93.7934 8.75336 93.8244 6.81147 94.7022C4.86958 95.5799 3.31606 97.5995 3.70444 99.6656L76.3778 98.9433Z" fill="#EBEBEB"/>
<path d="M69.6672 33.7499C70.0711 30.7904 65.8844 28.3126 62.7386 28.0951C61.2394 27.9708 59.6859 28.2038 58.2644 27.7067C55.1574 26.6348 53.9534 22.6578 50.9474 21.3917C48.7026 20.444 46.116 21.2829 43.9566 22.3781C41.7972 23.4734 39.63 24.856 37.1988 25.0114C35.0783 25.1434 32.7791 24.3589 30.9304 25.392C29.5477 26.1687 28.8254 27.7222 27.5592 28.6932C26.2348 29.5092 24.7025 29.9246 23.1473 29.8894C21.5974 29.8627 20.0562 30.1261 18.6032 30.6661C17.1973 31.3031 16.0322 32.7945 16.3273 34.3091L69.6672 33.7499Z" fill="#FAFAFA"/>
<path d="M331.023 263.67C331.427 260.703 327.24 258.233 324.094 258.007C322.595 257.891 321.041 258.116 319.62 257.627C316.513 256.555 315.309 252.57 312.303 251.304C310.058 250.356 307.471 251.203 305.312 252.298C303.153 253.393 300.986 254.776 298.554 254.931C296.434 255.064 294.135 254.279 292.286 255.312C290.903 256.089 290.181 257.642 288.915 258.613C287.59 259.429 286.058 259.845 284.503 259.81C282.955 259.766 281.413 260.016 279.959 260.547C278.553 261.192 277.388 262.676 277.683 264.198L331.023 263.67Z" fill="#F5F5F5"/>
<path d="M292.884 343.754C293.203 341.424 289.917 339.505 287.447 339.303C286.267 339.21 285.047 339.389 283.928 339C281.505 338.153 280.542 335.031 278.18 334.029C276.417 333.291 274.382 333.951 272.673 334.806C270.964 335.66 269.271 336.748 267.352 336.872C265.69 336.981 263.888 336.359 262.428 337.175C261.348 337.781 260.781 339.031 259.779 339.769C258.737 340.406 257.535 340.732 256.315 340.709C255.098 340.677 253.886 340.875 252.742 341.292C252.173 341.511 251.691 341.909 251.367 342.426C251.044 342.943 250.896 343.55 250.947 344.158L292.884 343.754Z" fill="#FAFAFA"/>
<path d="M49.0204 224.413C49.3389 222.082 46.0532 220.164 43.5831 219.962C42.4102 219.869 41.183 220.047 40.0644 219.659C37.6487 218.82 36.6778 215.69 34.3164 214.696C32.5532 213.919 30.5181 214.61 28.8092 215.472C27.1004 216.334 25.3993 217.422 23.5195 217.546C21.8495 217.647 20.0474 217.034 18.5949 217.841C17.5074 218.447 16.9404 219.698 15.9384 220.436C14.8995 221.079 13.6956 221.406 12.474 221.376C11.2573 221.348 10.0458 221.545 8.90095 221.958C8.33368 222.18 7.85287 222.578 7.52971 223.095C7.20654 223.611 7.0582 224.217 7.10664 224.824L49.0204 224.413Z" fill="#F5F5F5"/>
<path d="M334.997 95.4244C335.316 93.0941 332.022 91.1755 329.56 90.9814C328.38 90.8804 327.16 91.0668 326.041 90.6707C323.618 89.8318 322.655 86.7014 320.293 85.7072C318.53 84.9304 316.495 85.6295 314.786 86.4839C313.077 87.3384 311.384 88.4336 309.465 88.5579C307.803 88.6589 306.001 88.0452 304.541 88.8608C303.461 89.4589 302.894 90.7095 301.892 91.4474C300.853 92.0909 299.649 92.4175 298.428 92.3873C297.211 92.3587 295.999 92.5562 294.855 92.9699C294.286 93.1919 293.804 93.5915 293.481 94.1093C293.158 94.6272 293.01 95.2355 293.06 95.8439L334.997 95.4244Z" fill="#F5F5F5"/>
<path d="M96.8769 343.466C97.3352 340.142 92.6436 337.408 89.1093 337.128C87.4315 336.988 85.6838 337.244 84.0915 336.693C80.6427 335.489 79.2678 331.03 75.9044 329.617C73.3878 328.553 70.4672 329.5 68.0514 330.727C65.6357 331.955 63.2045 333.5 60.4781 333.671C58.1478 333.827 55.5301 332.941 53.4873 334.106C51.9337 334.969 51.157 336.747 49.7122 337.796C48.2674 338.845 46.4964 339.039 44.772 339.14C43.0476 339.241 41.2533 339.248 39.6765 339.971C38.0997 340.693 36.8025 342.355 37.1288 344.057L96.8769 343.466Z" fill="#EBEBEB"/>
<path d="M317.336 27.5204C317.949 23.0463 311.634 19.3644 306.896 18.9761C304.628 18.7974 302.282 19.1392 300.138 18.3935C295.478 16.7778 293.637 10.7735 289.101 8.86268C285.714 7.43345 281.815 8.70733 278.529 10.3618C275.243 12.0163 272.004 14.0903 268.33 14.3311C265.138 14.533 261.673 13.3523 258.877 14.9059C256.803 16.071 255.708 18.4712 253.789 19.8849C251.871 21.2986 249.47 21.5627 247.14 21.6869C244.81 21.8112 242.402 21.8345 240.281 22.8055C238.161 23.7764 236.398 26.0212 236.848 28.3127L317.336 27.5204Z" fill="#EBEBEB"/>
<path d="M326.368 304.465C327.005 299.851 320.488 296.053 315.595 295.665C313.265 295.47 310.841 295.828 308.604 295.059C303.811 293.389 301.901 287.198 297.225 285.225C293.729 283.757 289.706 285.07 286.35 286.779C282.994 288.487 279.615 290.662 275.833 290.872C272.539 291.082 268.958 289.862 266.084 291.47C263.933 292.666 262.814 295.144 260.833 296.604C258.853 298.065 256.375 298.329 253.967 298.461C251.559 298.593 249.081 298.616 246.898 299.618C244.716 300.62 242.898 302.935 243.356 305.296L326.368 304.465Z" fill="#EBEBEB"/>
<path d="M107.269 261.697C107.992 256.462 100.605 252.159 95.0507 251.708C92.402 251.498 89.6134 251.902 87.1433 251.024C81.7061 249.129 79.5389 242.115 74.2414 239.878C70.2722 238.2 65.6971 239.692 61.8677 241.626C58.0383 243.56 54.2244 245.991 49.9367 246.286C46.2005 246.519 42.1691 245.137 38.8757 246.962C36.4444 248.321 35.1628 251.125 32.918 252.78C30.6731 254.434 27.8613 254.745 25.1504 254.893C22.4395 255.04 19.6121 255.071 17.1265 256.205C14.6409 257.339 12.598 259.965 13.1107 262.645L107.269 261.697Z" fill="white"/>
<path d="M107.27 261.697C107.27 261.697 107.122 261.697 106.804 261.697H105.421L100.038 261.782L80.0676 262.039L13.0956 262.815H12.9325V262.652C12.813 261.884 12.8578 261.099 13.064 260.349C13.2702 259.599 13.6331 258.902 14.1287 258.303C15.1313 257.046 16.4823 256.114 18.0125 255.623C21.4924 254.434 25.1276 254.939 28.4987 254.31C30.1923 254.08 31.7978 253.417 33.1592 252.384C34.3919 251.236 35.5369 249.997 36.5847 248.679C37.1469 248.034 37.7921 247.468 38.5033 246.993C39.2174 246.536 40.0061 246.207 40.8336 246.022C42.4659 245.745 44.1296 245.703 45.7738 245.898C47.3514 246.083 48.9427 246.122 50.5275 246.014C52.0667 245.831 53.5726 245.434 55.0016 244.834C57.8523 243.692 60.4389 242.084 63.0954 240.864C65.6685 239.564 68.5246 238.923 71.4067 239C72.771 239.105 74.0961 239.506 75.2905 240.173C76.4233 240.846 77.4539 241.678 78.351 242.643C80.1297 244.5 81.5357 246.527 83.1902 248.15C84.6784 249.784 86.6676 250.877 88.8449 251.257C90.9033 251.584 92.9074 251.405 94.7638 251.537C96.4992 251.662 98.2036 252.064 99.8127 252.725C101.167 253.267 102.45 253.972 103.634 254.823C104.575 255.513 105.408 256.341 106.104 257.277L106.508 257.883C106.625 258.085 106.718 258.287 106.811 258.481C106.982 258.829 107.118 259.193 107.215 259.569C107.347 260.075 107.397 260.6 107.363 261.122C107.363 261.479 107.316 261.65 107.316 261.65C107.316 261.65 107.316 261.456 107.316 261.114C107.332 260.59 107.269 260.067 107.13 259.561C107.026 259.192 106.888 258.833 106.718 258.489C106.617 258.31 106.524 258.108 106.407 257.906L106.003 257.316C105.302 256.402 104.47 255.596 103.533 254.924C102.356 254.087 101.08 253.398 99.7351 252.873C98.1405 252.232 96.455 251.847 94.7405 251.731C92.8996 251.607 90.9033 251.801 88.7906 251.483C86.5568 251.093 84.5143 249.976 82.9804 248.306C81.3026 246.651 79.8734 244.632 78.1179 242.806C77.24 241.863 76.2301 241.052 75.1196 240.398C73.9554 239.754 72.6643 239.372 71.3368 239.28C68.4841 239.23 65.6641 239.895 63.1343 241.214C60.4855 242.426 57.9222 244.041 55.0327 245.206C53.5719 245.821 52.0317 246.226 50.4576 246.41C48.8501 246.528 47.2351 246.494 45.634 246.309C44.0287 246.119 42.4045 246.158 40.8103 246.426C40.0219 246.599 39.2699 246.909 38.5888 247.342C37.9063 247.8 37.2873 248.346 36.7479 248.966C35.6889 250.304 34.5308 251.561 33.2835 252.725C31.8749 253.792 30.2173 254.482 28.4676 254.729C25.0188 255.366 21.3991 254.877 18.0513 256.027C16.6184 256.51 15.3577 257.401 14.4239 258.59C13.9615 259.143 13.6214 259.787 13.4259 260.48C13.2305 261.174 13.1841 261.901 13.2898 262.614L13.0956 262.45L79.9355 261.868L99.9448 261.736H105.382H107.285L107.27 261.697Z" fill="#263238"/>
<path d="M326.377 150.621C326.936 146.512 321.142 143.133 316.784 142.783C314.703 142.62 312.551 142.931 310.57 142.247C306.306 140.764 304.605 135.257 300.472 133.493C297.365 132.181 293.777 133.354 290.763 134.868C287.749 136.383 284.766 138.301 281.395 138.511C278.467 138.705 275.282 137.618 272.719 139.047C270.808 140.111 269.806 142.317 268.058 143.614C266.311 144.912 264.089 145.168 261.953 145.269C259.817 145.37 257.595 145.409 255.654 146.302C253.712 147.195 252.096 149.254 252.5 151.351L326.377 150.621Z" fill="#EBEBEB"/>
<path d="M326.379 150.621H326.014H324.926L320.708 150.691L305.041 150.908L252.463 151.506H252.299V151.336C252.207 150.727 252.244 150.106 252.409 149.513C252.574 148.92 252.862 148.368 253.255 147.895C254.035 146.903 255.092 146.165 256.292 145.774C259.034 144.842 261.892 145.238 264.526 144.741C265.84 144.559 267.087 144.043 268.145 143.242C269.111 142.34 270.007 141.367 270.825 140.329C271.27 139.822 271.779 139.376 272.34 139.001C272.909 138.637 273.537 138.374 274.196 138.224C275.479 138 276.788 137.969 278.08 138.131C279.318 138.271 280.566 138.3 281.808 138.216C283.01 138.073 284.187 137.765 285.304 137.3C287.541 136.399 289.553 135.14 291.658 134.193C293.683 133.172 295.931 132.67 298.198 132.732C299.289 132.809 300.349 133.125 301.305 133.657C302.201 134.185 303.015 134.842 303.721 135.606C305.119 137.067 306.222 138.651 307.511 139.933C308.675 141.212 310.229 142.072 311.931 142.38C313.547 142.636 315.116 142.496 316.592 142.597C317.956 142.7 319.295 143.018 320.561 143.537C321.624 143.965 322.63 144.52 323.559 145.191C324.298 145.735 324.952 146.384 325.501 147.118C325.901 147.662 326.196 148.276 326.371 148.928C326.479 149.327 326.516 149.743 326.48 150.155C326.48 150.442 326.48 150.567 326.48 150.567C326.48 150.567 326.48 150.419 326.48 150.147C326.49 149.743 326.441 149.34 326.332 148.951C326.149 148.316 325.848 147.721 325.447 147.195C324.897 146.477 324.243 145.846 323.505 145.323C322.585 144.667 321.585 144.129 320.53 143.723C319.291 143.219 317.98 142.915 316.646 142.822C315.201 142.729 313.632 142.884 311.985 142.636C310.224 142.329 308.613 141.45 307.403 140.135C306.082 138.83 304.971 137.245 303.589 135.824C302.908 135.086 302.123 134.453 301.258 133.944C300.35 133.44 299.343 133.14 298.307 133.066C296.096 133.019 293.909 133.518 291.937 134.519C289.863 135.474 287.852 136.74 285.576 137.626C284.427 138.11 283.217 138.432 281.979 138.581C280.713 138.669 279.442 138.641 278.181 138.496C276.925 138.344 275.653 138.375 274.406 138.589C273.791 138.725 273.205 138.967 272.674 139.304C272.144 139.662 271.664 140.087 271.245 140.57C270.411 141.62 269.499 142.607 268.518 143.521C267.405 144.354 266.097 144.889 264.72 145.075C262.001 145.572 259.166 145.191 256.548 146.092C255.424 146.462 254.433 147.154 253.698 148.081C253.34 148.508 253.078 149.005 252.926 149.541C252.775 150.076 252.739 150.637 252.82 151.188L252.626 151.025L305.064 150.59L320.778 150.497H326.542L326.379 150.621Z" fill="#263238"/>
<path d="M283.097 63.7717C283.408 61.1928 280.239 59.1111 277.862 58.8548C276.728 58.746 275.531 58.948 274.467 58.513C272.137 57.5809 271.213 54.1243 268.937 53.0213C267.236 52.198 265.278 52.9281 263.632 53.8835C261.985 54.8389 260.361 56.0352 258.52 56.1672C256.92 56.2915 255.18 55.6079 253.775 56.509C252.734 57.177 252.221 58.5596 251.227 59.3752C250.254 60.0719 249.083 60.4369 247.887 60.4161C246.707 60.383 245.534 60.6028 244.446 61.0608C243.872 61.3529 243.401 61.8124 243.094 62.3784C242.788 62.9443 242.66 63.59 242.729 64.2299L283.097 63.7717Z" fill="white"/>
<path d="M283.097 63.7718C283.097 63.7718 283.035 63.7718 282.903 63.7718H282.32L280.029 63.8261L271.485 63.9815L242.745 64.3932H242.566V64.23C242.498 63.3811 242.741 62.5363 243.25 61.8533C243.759 61.1702 244.498 60.6953 245.331 60.5172C246.885 60.1132 248.492 60.3696 249.891 59.888C250.578 59.6664 251.184 59.2444 251.631 58.6762C252.097 58.117 252.477 57.4723 253.005 56.913C253.525 56.3197 254.249 55.9428 255.033 55.8566C255.761 55.8091 256.492 55.8325 257.215 55.9265C257.891 56.0181 258.577 55.9918 259.243 55.8488C259.893 55.6905 260.52 55.4476 261.107 55.1265C262.295 54.5128 263.367 53.7361 264.556 53.1846C265.696 52.5713 267.01 52.3632 268.284 52.5942C269.431 52.9656 270.416 53.7197 271.073 54.7303C271.764 55.6236 272.331 56.5324 273.015 57.2703C273.345 57.6273 273.724 57.9359 274.141 58.1869C274.543 58.4085 274.983 58.5509 275.438 58.6063C276.331 58.7306 277.209 58.6063 278.033 58.7461C279.437 58.96 280.743 59.5968 281.777 60.5715C282.454 61.166 282.921 61.9648 283.105 62.8474C283.134 63.0769 283.134 63.3092 283.105 63.5387C283.105 63.7019 283.105 63.7718 283.105 63.764C283.102 63.4621 283.076 63.1608 283.027 62.863C282.818 62.0156 282.344 61.2566 281.676 60.6958C280.653 59.7623 279.372 59.1587 278.001 58.9636C277.225 58.8549 276.339 58.9636 275.399 58.8549C274.912 58.8031 274.439 58.6553 274.009 58.4199C273.564 58.1616 273.16 57.8368 272.813 57.4567C272.11 56.6439 271.449 55.7962 270.832 54.9167C270.206 53.9755 269.277 53.2766 268.199 52.936C267.004 52.7313 265.775 52.9366 264.711 53.5186C263.569 54.0545 262.497 54.8391 261.278 55.476C260.662 55.8141 260.008 56.0749 259.328 56.2528C258.621 56.4001 257.894 56.4316 257.177 56.346C256.482 56.2533 255.779 56.2299 255.079 56.2761C254.391 56.3499 253.754 56.6765 253.293 57.1926C252.811 57.7053 252.431 58.35 251.941 58.9403C251.446 59.567 250.775 60.0321 250.015 60.2764C248.5 60.789 246.908 60.5249 245.44 60.9133C244.687 61.0564 244.014 61.4726 243.549 62.0819C243.085 62.6913 242.862 63.4508 242.923 64.2145L242.721 64.0436L271.368 63.8028H279.912H283.074L283.097 63.7718Z" fill="#263238"/>
<path d="M132.522 290.344C132.825 288.13 129.702 286.313 127.364 286.118C126.246 286.033 125.081 286.204 124.024 285.831C121.694 285.054 120.809 282.072 118.587 281.124C116.909 280.417 114.983 281.046 113.36 281.862C111.736 282.677 110.136 283.711 108.326 283.827C106.773 283.928 105.033 283.338 103.666 284.114C102.64 284.681 102.112 285.87 101.157 286.569C100.168 287.177 99.0241 287.488 97.8632 287.462C96.7097 287.432 95.5609 287.619 94.4766 288.014C93.9385 288.223 93.4827 288.601 93.1774 289.091C92.8722 289.581 92.7339 290.157 92.7832 290.732L132.522 290.344Z" fill="#EBEBEB"/>
<path d="M132.522 290.344H132.336H131.753L129.493 290.398L121.073 290.538L92.7521 290.903H92.5813V290.74C92.5289 290.4 92.5488 290.052 92.6398 289.72C92.7308 289.389 92.8909 289.08 93.1094 288.814C93.5417 288.267 94.1251 287.859 94.7872 287.641C96.2942 287.128 97.8321 287.346 99.2381 287.081C99.9274 286.986 100.582 286.719 101.141 286.305C101.656 285.824 102.134 285.305 102.57 284.751C103.05 284.175 103.704 283.771 104.435 283.602C105.135 283.483 105.849 283.465 106.555 283.547C107.215 283.627 107.881 283.645 108.544 283.602C109.185 283.525 109.812 283.361 110.408 283.112C111.596 282.638 112.684 281.955 113.818 281.442C114.923 280.891 116.149 280.624 117.383 280.665C117.976 280.707 118.553 280.883 119.069 281.178C119.556 281.463 119.998 281.819 120.381 282.235C121.158 283.011 121.733 283.881 122.416 284.565C123.028 285.246 123.847 285.708 124.747 285.878C125.601 286.01 126.448 285.94 127.24 286.002C128.601 286.122 129.903 286.611 131.007 287.415C131.728 287.902 132.26 288.62 132.514 289.451C132.582 289.745 132.582 290.05 132.514 290.344C132.526 289.774 132.381 289.211 132.095 288.718C131.809 288.225 131.392 287.82 130.891 287.548C129.803 286.781 128.528 286.325 127.201 286.227C126.361 286.237 125.521 286.204 124.685 286.126C123.723 285.962 122.842 285.487 122.176 284.775C121.461 284.068 120.863 283.221 120.125 282.444C119.412 281.613 118.404 281.092 117.313 280.992C116.138 280.968 114.974 281.235 113.927 281.768C112.824 282.281 111.736 282.965 110.501 283.462C109.877 283.727 109.218 283.903 108.544 283.982C107.858 284.032 107.169 284.019 106.485 283.943C105.818 283.861 105.143 283.877 104.481 283.99C103.83 284.146 103.249 284.512 102.827 285.031C102.377 285.602 101.884 286.137 101.351 286.631C100.742 287.093 100.026 287.393 99.2691 287.501C97.7855 287.773 96.2631 287.571 94.8805 288.045C93.7075 288.41 92.7288 289.598 92.9386 290.686L92.7366 290.522L120.933 290.328H129.392H132.297C132.372 290.322 132.448 290.328 132.522 290.344Z" fill="#263238"/>
<path d="M157.169 62.2025C157.837 57.34 150.955 53.3475 145.828 52.928C143.366 52.7338 140.818 53.1067 138.488 52.2988C133.447 50.5356 131.435 44.0264 126.51 41.9447C122.829 40.3912 118.595 41.7816 115.03 43.5759C111.465 45.3702 107.938 47.6305 103.953 47.8791C100.489 48.1044 96.7217 46.8149 93.6924 48.5083C91.432 49.7744 90.2513 52.3921 88.1696 53.9456C86.0879 55.4991 83.5091 55.7632 80.9458 55.903C78.3825 56.0428 75.7959 56.0661 73.4967 57.1225C71.1975 58.1789 69.2867 60.6101 69.7683 63.0958L157.169 62.2025Z" fill="#F5F5F5"/>
<path d="M157.169 62.2027H156.734H155.444L150.458 62.2803L131.924 62.5211L69.7836 63.2202H69.6127V63.0571C69.5044 62.3418 69.5481 61.6118 69.7408 60.9145C69.9335 60.2172 70.271 59.5683 70.7312 59.0102C71.6572 57.8488 72.9015 56.9823 74.3121 56.5168C77.5434 55.4138 80.9145 55.8799 84.0448 55.3051C85.6027 55.0839 87.0785 54.469 88.3325 53.5185C89.4743 52.4508 90.5361 51.3007 91.5095 50.0775C92.0335 49.4857 92.6313 48.9636 93.2882 48.524C93.9611 48.0999 94.7021 47.795 95.4787 47.6229C96.9953 47.3623 98.542 47.3257 100.069 47.5142C101.534 47.6828 103.011 47.7166 104.481 47.6152C105.908 47.4468 107.304 47.0808 108.629 46.5277C111.27 45.4636 113.647 43.9722 116.14 42.8381C118.528 41.6306 121.179 41.0354 123.854 41.106C125.133 41.2013 126.377 41.5751 127.497 42.2012C128.549 42.8399 129.507 43.6244 130.34 44.5315C131.994 46.2559 133.299 48.1278 134.829 49.6503C136.199 51.1596 138.028 52.1752 140.033 52.5398C141.944 52.8428 143.801 52.6719 145.525 52.7961C147.127 52.9193 148.7 53.2941 150.186 53.9069C151.451 54.4052 152.649 55.0602 153.751 55.8566C154.64 56.4906 155.426 57.2583 156.081 58.1325C156.553 58.7724 156.904 59.4939 157.114 60.2608C157.235 60.7348 157.28 61.2252 157.246 61.7133C157.246 62.0473 157.208 62.2027 157.208 62.2027C157.208 62.2027 157.208 62.024 157.208 61.6978C157.22 61.2202 157.16 60.7436 157.029 60.2841C156.805 59.5229 156.439 58.8112 155.949 58.1868C155.288 57.3343 154.502 56.5855 153.619 55.9653C152.537 55.1993 151.366 54.5681 150.131 54.0856C148.644 53.4856 147.071 53.1264 145.471 53.0214C143.762 52.9127 141.913 53.0913 139.948 52.7961C137.858 52.4437 135.945 51.4051 134.511 49.8445C132.957 48.291 131.629 46.4345 129.998 44.7412C129.181 43.8698 128.245 43.1191 127.217 42.5119C126.14 41.9132 124.943 41.5604 123.714 41.4788C121.096 41.4169 118.504 42.0068 116.171 43.1954C113.717 44.3217 111.332 45.8209 108.645 46.9006C107.291 47.4739 105.863 47.8531 104.404 48.0269C102.91 48.1291 101.41 48.0953 99.9217 47.9259C98.4328 47.7482 96.9261 47.7848 95.4476 48.0346C94.7317 48.1938 94.0486 48.4749 93.428 48.8658C92.7933 49.286 92.2185 49.7903 91.7192 50.3649C90.7389 51.6088 89.6638 52.7748 88.5034 53.8525C87.2198 54.8425 85.708 55.4942 84.107 55.7478C80.899 56.3304 77.5434 55.8799 74.4363 56.944C73.104 57.3775 71.9252 58.1867 71.0419 59.2743C70.6168 59.7866 70.3044 60.3826 70.125 61.0237C69.9457 61.6648 69.9035 62.3365 70.0011 62.995L69.8069 62.8318L131.831 62.3036L150.403 62.1794H155.437H156.749L157.169 62.2027Z" fill="#263238"/>
<path d="M116.62 138.418L118.228 139.195C118.27 139.219 118.305 139.253 118.329 139.295C118.354 139.336 118.366 139.384 118.366 139.432C118.366 139.48 118.354 139.527 118.329 139.569C118.305 139.611 118.27 139.645 118.228 139.669L116.737 140.624C116.693 140.65 116.659 140.688 116.636 140.733L115.898 142.341C115.874 142.383 115.84 142.418 115.798 142.442C115.756 142.466 115.709 142.479 115.661 142.479C115.613 142.479 115.565 142.466 115.524 142.442C115.482 142.418 115.448 142.383 115.424 142.341L114.476 140.857C114.447 140.814 114.407 140.779 114.36 140.756L112.752 140.018C112.71 139.995 112.675 139.96 112.65 139.919C112.626 139.877 112.613 139.83 112.613 139.781C112.613 139.733 112.626 139.686 112.65 139.644C112.675 139.602 112.71 139.568 112.752 139.544L114.243 138.589C114.285 138.56 114.317 138.519 114.336 138.473L115.113 136.872C115.137 136.83 115.171 136.795 115.213 136.771C115.254 136.747 115.302 136.734 115.35 136.734C115.398 136.734 115.446 136.747 115.487 136.771C115.529 136.795 115.563 136.83 115.587 136.872L116.535 138.364C116.56 138.387 116.589 138.405 116.62 138.418Z" fill="#407BFF"/>
<path d="M235.628 224.273L237.228 225.011C237.27 225.035 237.305 225.069 237.329 225.111C237.354 225.152 237.367 225.2 237.367 225.248C237.367 225.296 237.354 225.344 237.329 225.385C237.305 225.427 237.27 225.461 237.228 225.485L235.745 226.44C235.699 226.467 235.664 226.508 235.644 226.557L234.906 228.157C234.882 228.199 234.848 228.234 234.806 228.258C234.764 228.283 234.717 228.295 234.669 228.295C234.62 228.295 234.573 228.283 234.532 228.258C234.49 228.234 234.455 228.199 234.432 228.157L233.507 226.743C233.48 226.698 233.44 226.663 233.391 226.642L231.791 225.904C231.749 225.881 231.714 225.846 231.69 225.805C231.665 225.763 231.652 225.716 231.652 225.667C231.652 225.619 231.665 225.572 231.69 225.53C231.714 225.489 231.749 225.454 231.791 225.431L233.243 224.413C233.289 224.386 233.324 224.345 233.344 224.296L234.082 222.696C234.106 222.654 234.14 222.619 234.182 222.595C234.224 222.571 234.271 222.558 234.319 222.558C234.367 222.558 234.415 222.571 234.456 222.595C234.498 222.619 234.532 222.654 234.556 222.696L235.512 224.18C235.54 224.222 235.581 224.255 235.628 224.273Z" fill="#407BFF"/>
<path d="M68.0966 207.503L69.6967 208.241C69.7387 208.265 69.7737 208.299 69.798 208.341C69.8224 208.382 69.8352 208.43 69.8352 208.478C69.8352 208.526 69.8224 208.573 69.798 208.615C69.7737 208.657 69.7387 208.691 69.6967 208.715L68.2441 209.655C68.2005 209.684 68.1656 209.724 68.1432 209.771L67.3664 211.379C67.3427 211.421 67.3083 211.456 67.2667 211.48C67.2251 211.505 67.1777 211.518 67.1295 211.518C67.0813 211.518 67.0339 211.505 66.9923 211.48C66.9506 211.456 66.9162 211.421 66.8926 211.379L65.9372 209.888C65.906 209.846 65.8662 209.812 65.8207 209.787L64.2205 209.01C64.1785 208.986 64.1435 208.952 64.1192 208.91C64.0949 208.869 64.082 208.821 64.082 208.773C64.082 208.725 64.0949 208.677 64.1192 208.636C64.1435 208.594 64.1785 208.56 64.2205 208.536L65.7119 207.588C65.7556 207.56 65.7905 207.519 65.8129 207.472L66.5896 205.864C66.6133 205.822 66.6477 205.787 66.6893 205.763C66.731 205.738 66.7783 205.726 66.8266 205.726C66.8748 205.726 66.9221 205.738 66.9638 205.763C67.0054 205.787 67.0398 205.822 67.0635 205.864L68.0189 207.355C68.027 207.412 68.0544 207.464 68.0966 207.503Z" fill="#407BFF"/>
<path d="M106.685 146.908L107.462 147.25C107.482 147.262 107.497 147.278 107.508 147.298C107.52 147.318 107.525 147.34 107.525 147.363C107.525 147.385 107.52 147.407 107.508 147.427C107.497 147.447 107.482 147.463 107.462 147.475L106.763 147.918L106.717 147.972L106.375 148.749C106.363 148.768 106.346 148.784 106.327 148.795C106.307 148.806 106.285 148.812 106.262 148.812C106.24 148.812 106.217 148.806 106.198 148.795C106.178 148.784 106.161 148.768 106.15 148.749L105.707 148.05L105.652 148.003L104.876 147.662C104.856 147.65 104.84 147.633 104.829 147.614C104.818 147.594 104.812 147.572 104.812 147.549C104.812 147.526 104.818 147.504 104.829 147.484C104.84 147.465 104.856 147.448 104.876 147.436L105.575 146.994C105.596 146.982 105.613 146.962 105.621 146.939L105.971 146.162C105.982 146.143 105.997 146.127 106.016 146.116C106.036 146.104 106.057 146.098 106.08 146.098C106.102 146.098 106.124 146.104 106.143 146.116C106.162 146.127 106.178 146.143 106.188 146.162L106.639 146.862C106.648 146.882 106.665 146.899 106.685 146.908Z" fill="#407BFF"/>
<path d="M230.291 214.315L231.068 214.657C231.087 214.669 231.103 214.685 231.114 214.705C231.125 214.725 231.131 214.747 231.131 214.77C231.131 214.792 231.125 214.814 231.114 214.834C231.103 214.854 231.087 214.87 231.068 214.882L230.369 215.325L230.322 215.379L229.98 216.156C229.968 216.175 229.952 216.191 229.932 216.202C229.912 216.213 229.89 216.219 229.868 216.219C229.845 216.219 229.823 216.213 229.803 216.202C229.783 216.191 229.767 216.175 229.755 216.156L229.312 215.457C229.3 215.435 229.281 215.419 229.258 215.41L228.481 215.069C228.462 215.057 228.446 215.04 228.435 215.021C228.424 215.001 228.418 214.979 228.418 214.956C228.418 214.933 228.424 214.911 228.435 214.891C228.446 214.872 228.462 214.855 228.481 214.843L229.18 214.401C229.18 214.401 229.219 214.401 229.227 214.346L229.569 213.569C229.58 213.55 229.597 213.534 229.617 213.523C229.636 213.512 229.659 213.506 229.681 213.506C229.704 213.506 229.726 213.512 229.746 213.523C229.765 213.534 229.782 213.55 229.794 213.569L230.237 214.269L230.291 214.315Z" fill="#407BFF"/>
<path d="M200.201 74.957L200.978 75.2988C200.997 75.3106 201.013 75.3271 201.024 75.3468C201.035 75.3666 201.041 75.3888 201.041 75.4114C201.041 75.434 201.035 75.4562 201.024 75.476C201.013 75.4957 200.997 75.5122 200.978 75.524L200.279 75.9668C200.257 75.9786 200.241 75.9979 200.232 76.0212L199.883 76.7979C199.872 76.8173 199.856 76.8335 199.837 76.8448C199.818 76.8561 199.796 76.862 199.774 76.862C199.752 76.862 199.73 76.8561 199.711 76.8448C199.692 76.8335 199.676 76.8173 199.665 76.7979L199.222 76.0988L199.168 76.0522L198.391 75.7104C198.372 75.6986 198.356 75.6821 198.345 75.6624C198.334 75.6427 198.328 75.6204 198.328 75.5978C198.328 75.5752 198.334 75.553 198.345 75.5333C198.356 75.5135 198.372 75.497 198.391 75.4852L199.09 75.0424L199.137 74.9881L199.479 74.2113C199.491 74.192 199.507 74.1761 199.527 74.165C199.546 74.154 199.569 74.1482 199.591 74.1482C199.614 74.1482 199.636 74.154 199.656 74.165C199.676 74.1761 199.692 74.192 199.704 74.2113L200.147 74.9104L200.201 74.957Z" fill="#407BFF"/>
<path d="M60.1668 112.979C60.2833 112.979 60.3688 124.359 60.3688 138.395C60.3688 152.431 60.2833 163.81 60.1668 163.81C60.0503 163.81 59.9648 152.438 59.9648 138.395C59.9648 124.351 60.027 112.979 60.1668 112.979Z" fill="#263238"/>
<path d="M172.655 237.843C172.772 237.843 172.857 259.087 172.857 285.287C172.857 311.487 172.772 332.739 172.655 332.739C172.539 332.739 172.453 311.503 172.453 285.287C172.453 259.072 172.554 237.843 172.655 237.843Z" fill="#263238"/>
<path d="M265.479 184.868C265.596 184.868 265.689 198.073 265.689 214.385C265.689 230.697 265.596 243.901 265.479 243.901C265.363 243.901 265.277 230.697 265.277 214.385C265.277 198.073 265.371 184.868 265.479 184.868Z" fill="#263238"/>
<path d="M172.655 98.5161C172.546 98.5161 172.453 76.4562 172.453 49.2541C172.453 22.0521 172.546 0 172.655 0C172.764 0 172.857 22.0521 172.857 49.2541C172.857 76.4562 172.779 98.5161 172.655 98.5161Z" fill="#263238"/>
<path d="M181.472 130.744C181.48 130.682 181.48 130.619 181.472 130.557C181.472 130.386 181.511 130.122 181.526 129.781C181.526 129.105 181.573 128.095 181.596 126.798C181.596 124.203 181.658 120.452 181.666 115.814C181.666 106.493 181.666 93.7157 181.666 79.571C181.666 65.4262 181.604 52.6175 181.589 43.3197V32.3442C181.589 31.0703 181.589 30.0683 181.589 29.3614C181.589 29.0352 181.589 28.7788 181.589 28.5847C181.589 28.3905 181.589 28.3206 181.589 28.3206C181.599 28.4083 181.599 28.4969 181.589 28.5847C181.589 28.7788 181.589 29.0352 181.589 29.3614C181.589 30.0683 181.589 31.0703 181.643 32.3442C181.643 34.9618 181.713 38.7136 181.767 43.3275C181.845 52.602 181.93 65.4185 181.961 79.5787C181.993 93.739 181.961 106.548 181.868 115.822C181.822 120.483 181.752 124.219 181.666 126.813C181.62 128.111 181.573 129.144 181.519 129.796C181.519 130.138 181.464 130.394 181.433 130.573C181.422 130.64 181.401 130.706 181.371 130.767C181.464 130.806 181.48 130.72 181.472 130.744Z" fill="#263238"/>
<path d="M160.081 244.112C160.19 244.112 160.283 253.433 160.283 264.944C160.283 276.456 160.228 285.777 160.081 285.777C159.933 285.777 159.879 276.456 159.879 264.944C159.879 253.433 159.964 244.112 160.081 244.112Z" fill="#263238"/>
<path d="M254.745 165.884C254.854 165.884 254.947 175.205 254.947 186.717C254.947 198.228 254.854 207.55 254.745 207.55C254.636 207.55 254.543 198.228 254.543 186.717C254.543 175.205 254.636 165.884 254.745 165.884Z" fill="#263238"/>
<path d="M52.1043 146.24C52.213 146.24 52.3063 155.561 52.3063 167.065C52.3063 178.569 52.213 187.905 52.1043 187.905C51.9956 187.905 51.9023 178.584 51.9023 167.073C51.9023 155.561 51.9878 146.24 52.1043 146.24Z" fill="#263238"/>
<path d="M153.711 83.7188C153.711 83.7188 146.099 89.6221 145.85 91.3853C145.602 93.1486 147.202 112.171 147.202 112.171L146.247 126.805L155.715 125.796L153.501 111.457C154.296 109.739 154.951 107.959 155.459 106.136C156.096 103.604 155.506 99.7044 156.034 98.5626C156.562 97.4207 156.896 92.5039 155.956 92.6437C155.016 92.7835 153.665 92.9233 153.3 95.8284C152.934 98.7335 151.746 100.007 151.257 99.7588C150.767 99.5102 149.773 94.7409 150.293 93.0942C150.814 91.4475 155.109 89.9872 154.542 87.8666L152.523 88.1463C152.523 88.1463 155.49 85.5907 153.711 83.7188Z" fill="#FFBF9D"/>
<path d="M152.571 88.1853C152.041 88.4871 151.488 88.7469 150.917 88.9621C149.567 89.5178 148.481 90.5681 147.879 91.8982C147.422 93.2858 147.331 94.7683 147.615 96.2014C147.748 96.8049 147.834 97.4178 147.872 98.0346C147.607 97.4712 147.426 96.8719 147.336 96.2558C146.952 94.7696 147.011 93.2035 147.507 91.7506C147.816 90.9506 148.336 90.2497 149.014 89.7233C149.56 89.3086 150.158 88.9666 150.792 88.7057C151.357 88.4472 151.956 88.2719 152.571 88.1853Z" fill="#407BFF"/>
<path d="M215.24 78.7632L221.586 63.228C221.586 63.228 208.326 51.6854 209.228 48.7104L239.016 59.7404L230.138 84.2937L215.24 78.7632Z" fill="#455A64"/>
<path d="M230.31 67.9664C230.633 67.9783 230.949 67.8721 231.199 67.6676C231.449 67.4631 231.617 67.1745 231.669 66.8557C231.705 66.5355 231.616 66.2139 231.421 65.9578C231.225 65.7017 230.939 65.5308 230.621 65.4808C230.277 65.4691 229.941 65.5835 229.677 65.8025C229.412 66.0215 229.237 66.3298 229.184 66.6692C229.184 67.3217 229.797 68.0674 230.434 67.9742" fill="#E0E0E0"/>
<g opacity="0.6">
<path d="M239.014 59.7405L238.02 62.1873L209.831 50.7146C209.831 50.7146 208.72 49.6349 209.225 48.7339L239.014 59.7405Z" fill="white"/>
</g>
<path d="M221.041 63.228C221.103 63.0804 221.818 63.2823 222.742 63.0648C223.667 62.8474 224.249 62.3658 224.358 62.4745C224.467 62.5833 223.923 63.36 222.859 63.6241C221.795 63.8882 220.956 63.3522 221.041 63.228Z" fill="#263238"/>
<path d="M218.409 60.7501C218.409 60.5947 219.185 60.5714 219.877 60.1209C220.568 59.6704 220.988 59.0645 221.135 59.1189C221.283 59.1733 221.057 60.0588 220.141 60.5947C219.224 61.1307 218.354 60.8899 218.409 60.7501Z" fill="#263238"/>
<path d="M218.043 56.2605C218.183 56.2605 218.113 57.0994 217.437 57.814C216.761 58.5286 215.969 58.5908 215.953 58.4199C215.938 58.249 216.513 57.9926 217.064 57.4256C217.616 56.8586 217.895 56.2216 218.043 56.2605Z" fill="#263238"/>
<path d="M219.977 66.9178C220.086 66.809 220.684 67.2595 221.531 67.5003C222.378 67.7411 223.084 67.7178 223.147 67.8732C223.209 68.0285 222.37 68.3392 221.368 68.0363C220.366 67.7334 219.861 67.011 219.977 66.9178Z" fill="#263238"/>
<path d="M235.512 109.515L249.68 100.551C249.68 100.551 245.578 83.4624 248.041 81.5593L265.906 107.79L244.406 122.658L235.512 109.515Z" fill="#455A64"/>
<path d="M254.046 109.453C254.302 109.651 254.622 109.748 254.946 109.727C255.269 109.705 255.573 109.566 255.801 109.336C256.019 109.099 256.135 108.785 256.125 108.463C256.115 108.141 255.979 107.835 255.747 107.612C255.475 107.4 255.134 107.296 254.79 107.321C254.446 107.345 254.123 107.496 253.883 107.744C253.685 108.016 253.601 108.355 253.651 108.687C253.7 109.02 253.878 109.32 254.147 109.523" fill="#E0E0E0"/>
<g opacity="0.6">
<path d="M265.93 107.79L263.7 109.204L247.388 83.5245C247.388 83.5245 247.117 81.971 248.049 81.5593L265.93 107.79Z" fill="white"/>
</g>
<path d="M249.255 100.225C249.387 100.14 249.884 100.738 250.738 101.079C251.593 101.421 252.37 101.382 252.393 101.53C252.416 101.678 251.539 102.012 250.513 101.584C249.488 101.157 249.115 100.279 249.255 100.225Z" fill="#263238"/>
<path d="M248.539 96.6753C248.647 96.5588 249.253 96.9627 250.092 97.0171C250.931 97.0714 251.646 96.7996 251.7 96.9316C251.754 97.0637 251.094 97.6462 250.038 97.5608C248.981 97.4754 248.422 96.7607 248.539 96.6753Z" fill="#263238"/>
<path d="M250.846 92.807C250.954 92.908 250.418 93.5372 249.479 93.6925C248.539 93.8479 247.84 93.4517 247.925 93.3275C248.01 93.2032 248.632 93.3275 249.401 93.1566C250.17 92.9857 250.752 92.6905 250.846 92.807Z" fill="#263238"/>
<path d="M246.248 102.617C246.404 102.617 246.621 103.301 247.165 103.985C247.709 104.668 248.33 105.08 248.26 105.227C248.19 105.375 247.359 105.142 246.707 104.326C246.054 103.511 246.101 102.617 246.248 102.617Z" fill="#263238"/>
<path d="M211.937 173.753L214.601 199.945L195.314 201.739L185.084 147.025C184.719 145.06 184.852 143.036 185.471 141.136C186.089 139.237 187.174 137.522 188.626 136.15C201.606 123.885 244.7 102.105 244.7 102.105L253.027 116.591L220.652 142.077L209.389 148.71L211.937 173.745" fill="#263238"/>
<path opacity="0.3" d="M224.264 112.979C224.007 113.119 219.852 127.738 219.852 127.738L222.811 140.383L217.615 144.516L212.434 125.602L218.935 115.333L224.264 112.979Z" fill="black"/>
<path d="M193.83 186.398C193.83 186.398 191.026 183.447 191.174 179.648C191.733 165.488 193.403 131.016 194.086 126.495C194.941 120.755 216.791 66.5137 216.791 66.5137L235.029 74.9415C235.029 74.9415 227.029 97.3043 224.162 105.569C221.055 114.533 215.944 127.318 215.944 127.318C215.944 127.318 223.137 164.548 225.91 176.036C228.466 186.577 225.817 198.85 218.919 208.21C212.022 217.57 203.019 219.667 203.019 219.667L193.83 186.398Z" fill="#263238"/>
<path d="M193.832 186.398C193.832 186.398 193.895 186.585 194.003 186.957L194.477 188.62L196.31 195.113C197.903 200.807 200.194 209.095 203.154 219.628L203.014 219.542C209.581 217.466 215.269 213.26 219.178 207.588C220.289 206.017 221.291 204.372 222.176 202.664C223.08 200.876 223.858 199.028 224.507 197.133C225.878 193.13 226.609 188.936 226.674 184.705C226.696 182.488 226.522 180.273 226.153 178.087C225.726 175.889 225.144 173.652 224.662 171.376C223.66 166.832 222.689 162.156 221.703 157.394C219.745 147.809 217.764 137.773 215.745 127.388V127.318V127.264C217.593 122.603 219.45 117.795 221.275 112.909C223.101 108.023 224.833 103.029 226.635 97.9878C229.416 90.127 232.158 82.406 234.814 74.9026L234.923 75.1511L216.708 66.7311L216.972 66.6224C210.269 83.3459 204.078 98.9743 198.788 113.096C197.475 116.63 196.209 120.087 195.114 123.434C194.517 125.063 194.154 126.768 194.034 128.499C193.879 130.2 193.763 131.878 193.654 133.524C193.211 140.119 192.877 146.224 192.59 151.763C192.007 162.847 191.595 171.679 191.324 177.745C191.324 178.522 191.246 179.221 191.238 179.889C191.226 180.51 191.289 181.131 191.425 181.738C191.643 182.689 191.996 183.605 192.473 184.456C192.759 184.981 193.086 185.483 193.452 185.955L193.832 186.437C193.275 185.856 192.797 185.203 192.411 184.495C191.907 183.619 191.533 182.675 191.3 181.691C191.158 181.077 191.09 180.449 191.098 179.819C191.098 179.143 191.137 178.429 191.168 177.667C191.393 171.601 191.774 162.769 192.326 151.685C192.605 146.139 192.908 140.034 193.335 133.439C193.444 131.792 193.553 130.107 193.708 128.398C193.823 126.646 194.19 124.919 194.796 123.271C195.883 119.885 197.126 116.451 198.446 112.909C203.728 98.8112 209.942 83.1673 216.607 66.4359L216.685 66.2495L216.871 66.335L235.109 74.7628L235.28 74.8404L235.218 75.0113C232.554 82.507 229.781 90.2358 227.039 98.0888C225.237 103.13 223.512 108.14 221.679 113.018C219.846 117.896 217.99 122.696 216.133 127.38V127.272C218.145 137.657 220.126 147.692 222.075 157.278C223.054 162.07 224.017 166.754 225.011 171.259C225.493 173.543 226.068 175.749 226.503 177.986C226.873 180.196 227.044 182.434 227.016 184.674C226.951 188.948 226.209 193.185 224.817 197.226C224.169 199.131 223.39 200.989 222.487 202.788C221.59 204.506 220.578 206.162 219.458 207.744C218.929 208.52 218.308 209.243 217.741 209.973C217.174 210.703 216.537 211.379 215.877 211.992C214.635 213.253 213.286 214.405 211.845 215.433C210.486 216.423 209.043 217.293 207.534 218.036C206.118 218.76 204.632 219.34 203.099 219.768H202.983V219.651C200.101 209.142 197.817 200.83 196.256 195.129C195.479 192.286 194.889 190.103 194.485 188.612C194.283 187.874 194.135 187.315 194.034 186.934C193.933 186.554 193.832 186.398 193.832 186.398Z" fill="#455A64"/>
<path d="M102.299 192.224C100.247 188.604 97.1122 185.719 93.3348 183.975C90.5696 182.647 86.5926 180.612 86.5926 180.612C85.8158 179.594 94.2825 167.189 96.3409 164.937C98.3993 162.684 97.8944 158.187 96.4108 157.713C94.5854 157.122 91.657 162.529 91.657 162.529C91.657 162.529 93.1562 156.983 90.2822 158.218C87.4082 159.453 83.9827 166.545 82.8486 168.844C81.7145 171.143 81.466 175.648 81.466 175.648C81.466 175.648 81.3728 172.106 80.6892 172.269C79.5319 172.557 79.2367 174.265 79.1978 177.978C79.1357 182.755 84.0448 193.847 97.6303 193.583" fill="#263238"/>
<path d="M104.512 194.748C101.2 194.38 97.9256 193.727 94.725 192.799C91.5055 191.859 88.5696 190.135 86.1806 187.781C85.8311 187.416 83.6329 184.674 83.897 184.254C84.1611 183.835 86.3438 186.064 86.7088 186.041C90.1763 185.903 93.6036 186.824 96.5348 188.682C99.4076 190.405 102.078 192.445 104.497 194.764" fill="#263238"/>
<path d="M92.9385 189.498C85.303 186.095 80.9143 178.817 84.5262 171.283L84.8991 170.607C86.715 167.322 89.7013 164.841 93.2637 163.658C96.826 162.474 100.703 162.676 104.124 164.222C110.726 167.205 117.981 170.584 121.344 172.502C128.335 176.464 125.523 184.091 125.523 184.091L136.149 190.57L118.634 201.646L92.9385 189.498Z" fill="#FFBF9D"/>
<path d="M125.586 184.115C123.779 187.352 121.084 190.004 117.818 191.758C117.818 191.758 124.716 192.946 127.955 185.591L125.586 184.115Z" fill="#FF9A6C"/>
<path d="M109.087 169.621C109.221 169.691 109.339 169.787 109.435 169.903C109.532 170.02 109.604 170.154 109.648 170.298C109.692 170.443 109.707 170.595 109.692 170.745C109.677 170.895 109.632 171.041 109.561 171.174C109.5 171.307 109.414 171.428 109.307 171.527C109.2 171.627 109.073 171.704 108.936 171.754C108.798 171.804 108.652 171.825 108.506 171.818C108.36 171.81 108.217 171.774 108.085 171.71C107.816 171.567 107.615 171.322 107.527 171.031C107.438 170.74 107.468 170.425 107.611 170.156C107.67 170.022 107.756 169.901 107.863 169.801C107.97 169.701 108.097 169.624 108.235 169.574C108.372 169.524 108.519 169.502 108.665 169.51C108.812 169.518 108.955 169.556 109.087 169.621Z" fill="#263238"/>
<path d="M106.214 167.329C106.276 167.523 105.289 167.974 104.66 169.053C104.031 170.133 104.171 171.221 103.969 171.267C103.767 171.314 103.712 171.034 103.658 170.553C103.589 169.906 103.725 169.254 104.046 168.688C104.354 168.126 104.833 167.677 105.414 167.407C105.856 167.22 106.183 167.236 106.214 167.329Z" fill="#263238"/>
<path d="M104.551 179.081C104.685 179.151 104.804 179.247 104.902 179.363C104.999 179.479 105.072 179.613 105.117 179.757C105.161 179.902 105.177 180.054 105.163 180.205C105.148 180.355 105.104 180.502 105.032 180.635C104.971 180.768 104.885 180.887 104.777 180.986C104.67 181.085 104.544 181.162 104.406 181.211C104.269 181.261 104.123 181.283 103.977 181.276C103.831 181.269 103.688 181.234 103.556 181.171C103.422 181.101 103.303 181.006 103.206 180.89C103.109 180.774 103.035 180.639 102.991 180.495C102.946 180.35 102.93 180.198 102.945 180.048C102.959 179.897 103.003 179.751 103.075 179.617C103.135 179.484 103.221 179.364 103.329 179.264C103.436 179.165 103.562 179.088 103.7 179.038C103.837 178.988 103.983 178.966 104.13 178.973C104.276 178.981 104.419 179.018 104.551 179.081Z" fill="#263238"/>
<path d="M100.808 178.134C100.87 178.328 99.8913 178.778 99.2932 179.858C98.6951 180.938 98.8038 182.025 98.6096 182.072C98.4154 182.119 98.3533 181.839 98.2911 181.357C98.2264 180.711 98.362 180.06 98.6795 179.493C98.987 178.931 99.466 178.482 100.047 178.211C100.482 178.025 100.785 178.041 100.808 178.134Z" fill="#263238"/>
<path d="M111.232 178.848C111.371 178.182 111.59 177.535 111.884 176.922C112.008 176.627 112.094 176.339 111.939 176.192C111.665 176.009 111.343 175.914 111.014 175.92L108.466 175.578C104.862 175.058 101.949 174.522 101.973 174.374C101.996 174.226 104.94 174.529 108.552 175.05L111.092 175.438C111.518 175.449 111.928 175.608 112.249 175.889C112.326 175.982 112.38 176.091 112.407 176.208C112.434 176.326 112.433 176.447 112.405 176.564C112.362 176.741 112.297 176.91 112.21 177.069C111.961 177.701 111.632 178.299 111.232 178.848Z" fill="#263238"/>
<path d="M115.496 180.324C115.496 180.526 114.16 180.27 113.011 181.217C111.861 182.165 111.729 183.548 111.543 183.548C111.356 183.548 111.348 183.19 111.449 182.592C111.588 181.822 111.995 181.125 112.599 180.627C113.176 180.147 113.916 179.908 114.665 179.959C115.224 180.029 115.52 180.239 115.496 180.324Z" fill="#263238"/>
<path d="M96.395 175.772C96.6358 176.044 95.8978 177.039 95.3541 178.39C94.8104 179.742 94.5773 180.953 94.2278 180.977C94.0647 180.977 93.886 180.65 93.8317 180.083C93.7855 179.341 93.9099 178.598 94.1953 177.912C94.4808 177.225 94.9197 176.613 95.4784 176.122C95.9289 175.757 96.2862 175.648 96.395 175.772Z" fill="#263238"/>
<path d="M102.376 165.791C102.516 166.117 101.856 166.723 101.351 167.609C100.846 168.494 100.574 169.349 100.248 169.38C100.085 169.38 99.9061 169.131 99.8518 168.673C99.8207 168.075 99.9671 167.482 100.273 166.968C100.578 166.454 101.029 166.042 101.568 165.783C101.972 165.612 102.306 165.643 102.376 165.791Z" fill="#263238"/>
<path d="M98.4467 191.789C98.3302 191.882 94.3532 195.82 99.2235 198.322C104.094 200.823 105.608 195.401 105.438 195.323C105.267 195.246 98.4467 191.789 98.4467 191.789Z" fill="#FFBF9D"/>
<path d="M102.873 195.875C102.873 195.875 102.873 195.991 102.873 196.17C102.856 196.415 102.745 196.643 102.562 196.807C102.201 197.022 101.789 197.135 101.37 197.135C100.95 197.135 100.538 197.022 100.177 196.807C99.749 196.607 99.3717 196.312 99.0744 195.945C98.9447 195.822 98.8477 195.669 98.7921 195.5C98.7364 195.33 98.724 195.149 98.756 194.974C98.7782 194.862 98.8399 194.762 98.9298 194.692C99.0196 194.622 99.1316 194.587 99.2453 194.593C99.4162 194.593 99.4939 194.679 99.5172 194.655C99.5405 194.632 99.5172 194.508 99.2686 194.446C99.1377 194.401 98.9956 194.401 98.8647 194.446C98.7797 194.487 98.7036 194.544 98.641 194.615C98.5783 194.686 98.5303 194.768 98.4996 194.857C98.4342 195.078 98.4278 195.311 98.4809 195.535C98.5341 195.758 98.645 195.964 98.8026 196.131C99.1175 196.555 99.5307 196.896 100.007 197.125C101.009 197.591 102.189 197.56 102.748 196.962C102.855 196.851 102.936 196.717 102.983 196.57C103.03 196.424 103.043 196.268 103.02 196.116C102.989 195.945 102.888 195.859 102.873 195.875Z" fill="#FF9A6C"/>
<path d="M94.4146 163.321C94.3757 162.311 90.6084 163.406 88.752 164.913C85.9401 167.189 82.8564 171.283 82.2661 174.382C81.5592 178.118 81.8233 181.652 83.9827 184.79C86.2226 187.89 89.2466 190.337 92.7445 191.882C93.7664 192.444 94.9188 192.725 96.0846 192.698C97.5138 192.55 98.8498 191.579 100.318 192.387C100.849 192.695 101.479 192.782 102.073 192.628C103.479 192.208 103.13 190.663 102.485 189.707C101.102 187.664 98.8654 186.398 96.7137 185.202C95.2313 184.265 93.604 183.58 91.8979 183.175C90.958 183.004 89.9948 183.004 89.0705 182.786C88.6018 182.706 88.1559 182.526 87.7631 182.258C87.3704 181.99 87.04 181.64 86.7946 181.233C86.7071 181.041 86.6394 180.84 86.5926 180.635C86.3354 179.653 86.3438 178.621 86.6168 177.644C86.8897 176.666 87.4175 175.779 88.1461 175.073C90.4764 172.805 94.3602 168.859 94.0106 167.119C93.8715 165.949 93.4877 164.822 92.8843 163.81L94.4146 163.321Z" fill="#263238"/>
<path d="M157.362 142.115C157.362 142.115 174.195 161.76 177.768 167.515C181.341 173.271 176.214 179.229 176.214 179.229L160.679 193.319L141.688 186.888L160.679 171.679L161.277 169.488L150.193 154.567L157.362 142.115Z" fill="#407BFF"/>
<path opacity="0.3" d="M156.531 163.127C156.531 163.127 158.535 160.183 158.946 158.039C159.358 155.895 160.08 145.316 160.08 145.316L157.362 142.115L153.727 160.61L156.531 163.127Z" fill="black"/>
<path opacity="0.3" d="M146.013 183.408C146.122 183.315 175.374 179.959 175.374 179.959L172.951 182.157L151.031 190.702L143.496 187.866L144.84 184.379L146.013 183.408Z" fill="black"/>
<path d="M113.624 207.387C113.772 208.645 119.971 222.875 138.481 226.425C156.991 229.975 176.759 228.677 206.517 218.813C206.517 218.813 211.845 201.802 201.693 186.569C191.541 171.337 187.222 169.559 185.956 171.337C184.69 173.116 185.7 176.922 183.416 178.957C181.132 180.992 158.001 185.428 150.412 186.065C141.65 186.795 142.799 185.552 138.76 184.511C134.721 183.47 122.511 184.76 120.227 186.795C117.943 188.83 112.405 196.597 113.624 207.387Z" fill="#407BFF"/>
<path d="M114.121 198.384C114.121 198.384 115.527 188.62 123.924 176.417C127.947 170.584 130.417 167.531 133.501 162.707L138.938 154.45L143.071 118.02C143.467 118.02 155.934 116.863 158.94 118.875C158.94 118.875 156.827 153.829 155.701 158.132C154.575 162.435 140.034 195.3 140.034 195.3" fill="#407BFF"/>
<path d="M140.034 195.3L140.181 194.927C140.29 194.671 140.445 194.314 140.639 193.84C141.059 192.877 141.657 191.471 142.442 189.668C143.995 186.018 146.271 180.744 149.091 174.18C150.489 170.887 152.019 167.267 153.604 163.305C153.992 162.327 154.38 161.325 154.776 160.299C154.955 159.787 155.173 159.274 155.328 158.746C155.406 158.489 155.507 158.225 155.569 157.969L155.724 157.153C156.074 154.932 156.276 152.602 156.501 150.225C157.34 140.671 158.054 130.076 158.738 118.836L158.831 119.015C158 118.583 157.097 118.306 156.167 118.199C155.199 118.057 154.224 117.966 153.246 117.927C151.273 117.834 149.254 117.865 147.226 117.927C145.828 117.982 144.477 118.075 143.063 118.168L143.273 117.989C141.774 131.117 140.368 143.49 139.117 154.412V154.505V154.544L133.128 163.608C131.241 166.506 129.244 169.154 127.473 171.656C125.702 174.157 123.994 176.534 122.533 178.771C121.073 181.008 119.9 183.19 118.89 185.179C117.321 188.269 116.022 191.489 115.007 194.803C114.665 195.952 114.455 196.854 114.307 197.452L114.16 198.143C114.15 198.222 114.132 198.3 114.105 198.376C114.105 198.376 114.105 198.298 114.105 198.143C114.105 197.988 114.168 197.747 114.222 197.444C114.346 196.83 114.54 195.89 114.867 194.772C115.832 191.436 117.095 188.195 118.642 185.086C119.737 182.878 120.943 180.726 122.254 178.639C123.706 176.37 125.361 173.978 127.171 171.485C128.98 168.991 130.914 166.319 132.794 163.422L138.752 154.342V154.419C139.987 143.498 141.385 131.117 142.861 117.989V117.881H143.055C144.383 117.71 145.797 117.671 147.188 117.601C149.223 117.508 151.25 117.477 153.246 117.601C154.237 117.64 155.225 117.733 156.206 117.881C157.193 117.99 158.15 118.288 159.025 118.758L159.126 118.821V118.937C158.419 130.184 157.705 140.779 156.796 150.334C156.563 152.718 156.353 155.041 156.019 157.324L155.856 158.163C155.786 158.443 155.685 158.707 155.608 158.94C155.444 159.484 155.227 159.989 155.041 160.494C154.66 161.527 154.264 162.521 153.86 163.507C152.26 167.43 150.753 171.042 149.3 174.328C146.465 180.891 144.143 186.15 142.535 189.762L140.671 193.91C140.461 194.376 140.29 194.725 140.173 194.982C140.132 195.09 140.085 195.196 140.034 195.3Z" fill="#263238"/>
<path d="M184.861 178.39C184.743 178.471 184.611 178.531 184.473 178.569L183.339 179.011C182.352 179.4 180.908 179.905 179.106 180.503C174.417 182.044 169.639 183.297 164.798 184.254C159.955 185.197 155.056 185.828 150.133 186.142C148.237 186.258 146.707 186.313 145.651 186.321H144.431C144.289 186.336 144.146 186.336 144.004 186.321C144.14 186.28 144.282 186.262 144.423 186.266L145.643 186.181C146.699 186.134 148.222 186.033 150.109 185.878C155.015 185.485 159.896 184.819 164.728 183.882C169.554 182.92 174.327 181.709 179.028 180.254C180.838 179.695 182.29 179.229 183.292 178.887L184.457 178.514C184.586 178.455 184.722 178.413 184.861 178.39Z" fill="#263238"/>
<path d="M202.952 215.651C202.917 215.511 202.901 215.368 202.906 215.224C202.906 214.905 202.906 214.501 202.851 214.012C202.851 212.956 202.742 211.425 202.634 209.546C202.556 208.598 202.463 207.573 202.37 206.439C202.276 205.304 202.121 204.155 201.904 202.928C201.499 200.259 200.87 197.63 200.024 195.067C198.532 190.387 195.953 186.128 192.497 182.639C192.163 182.313 191.868 181.971 191.542 181.699L190.633 180.922L189.856 180.239L189.157 179.71L188.186 178.972C187.969 178.794 187.86 178.701 187.868 178.685C187.997 178.743 188.12 178.816 188.233 178.903L189.25 179.586L189.973 180.083L190.788 180.743L191.72 181.52C192.054 181.792 192.357 182.126 192.707 182.452C196.268 185.927 198.915 190.229 200.412 194.974C201.271 197.558 201.895 200.215 202.276 202.912C202.486 204.147 202.572 205.336 202.711 206.446C202.851 207.557 202.867 208.582 202.929 209.553C202.999 211.449 203.045 212.979 203.014 214.035C203.014 214.532 203.014 214.936 203.014 215.255C203.008 215.389 202.987 215.521 202.952 215.651Z" fill="#263238"/>
<path d="M167.926 169.364C167.926 169.481 166.419 169.077 164.571 169.185C162.722 169.294 161.308 169.838 161.262 169.721C162.274 169.165 163.399 168.844 164.553 168.782C165.707 168.72 166.86 168.919 167.926 169.364Z" fill="#263238"/>
</svg>
