<svg width="70" height="48" viewBox="0 0 70 48" fill="none" xmlns="http://www.w3.org/2000/svg">
<rect width="70" height="48" rx="4" fill="#F3FBFF"/>
<path d="M30.4727 35.5377L30.9017 32.8127L29.9461 32.7905H25.3828L28.5541 12.6822C28.5638 12.6215 28.5959 12.5649 28.6426 12.5247C28.6894 12.4846 28.7494 12.4624 28.8117 12.4624H36.5061C39.0606 12.4624 40.8234 12.994 41.7438 14.0431C42.1753 14.5353 42.4501 15.0497 42.5831 15.6157C42.7224 16.2096 42.725 16.9191 42.5887 17.7846L42.5788 17.8477V18.4023L43.0105 18.6467C43.3739 18.8395 43.6624 19.0602 43.8839 19.3128C44.2532 19.7336 44.492 20.2685 44.5928 20.9026C44.6969 21.5547 44.6625 22.3307 44.492 23.2093C44.295 24.2199 43.9767 25.1001 43.547 25.8203C43.1514 26.484 42.6478 27.0343 42.0499 27.461C41.4789 27.8662 40.8005 28.1739 40.0335 28.3708C39.2902 28.5642 38.4429 28.662 37.5135 28.662H36.9147C36.4865 28.662 36.0705 28.8162 35.7441 29.0927C35.4169 29.3748 35.2001 29.7602 35.1337 30.182L35.0886 30.4273L34.3306 35.23L34.2962 35.4064C34.2872 35.4624 34.2716 35.4902 34.2487 35.5091C34.2282 35.5261 34.1986 35.5377 34.1698 35.5377H30.4727Z" fill="#253B80"/>
<path d="M43.4161 17.9128C43.3932 18.0597 43.367 18.2098 43.3375 18.364C42.3226 23.5738 38.8512 25.3736 34.4173 25.3736H32.1598C31.6177 25.3736 31.1608 25.7673 31.0762 26.3021L29.9203 33.6325L29.5931 35.7103C29.538 36.0614 29.8089 36.3781 30.1631 36.3781H34.1672C34.6414 36.3781 35.044 36.0335 35.1186 35.566L35.158 35.3624L35.912 30.5784L35.9604 30.316C36.0341 29.8468 36.4376 29.5023 36.9118 29.5023H37.5106C41.3898 29.5023 44.4268 27.9273 45.3144 23.3695C45.6851 21.4656 45.4932 19.8758 44.512 18.7578C44.2152 18.4206 43.8468 18.1409 43.4161 17.9128Z" fill="#179BD7"/>
<path d="M42.3527 17.4882C42.1978 17.4431 42.0377 17.4021 41.8736 17.3652C41.7088 17.3291 41.5397 17.2971 41.3659 17.2692C40.7571 17.1708 40.0903 17.124 39.3757 17.124H33.3449C33.1964 17.124 33.0554 17.1576 32.9291 17.2184C32.6509 17.3521 32.4443 17.6154 32.3942 17.9378L31.1111 26.0638L31.0742 26.3008C31.1588 25.766 31.6157 25.3722 32.1578 25.3722H34.4153C38.8492 25.3722 42.3208 23.5717 43.3355 18.3627C43.3657 18.2085 43.3912 18.0584 43.4141 17.9115C43.1574 17.7754 42.8793 17.6589 42.5799 17.5596C42.5062 17.535 42.4299 17.5112 42.3527 17.4882Z" fill="#222D65"/>
<path d="M32.3981 17.9384C32.4481 17.616 32.655 17.3527 32.9329 17.2198C33.0602 17.1591 33.2005 17.1254 33.3488 17.1254H39.3799C40.0944 17.1254 40.7612 17.1722 41.3698 17.2706C41.5438 17.2985 41.7129 17.3305 41.8777 17.3666C42.0418 17.4035 42.2017 17.4445 42.3568 17.4896C42.4338 17.5126 42.51 17.5364 42.5847 17.5602C42.8841 17.6595 43.1623 17.7768 43.4189 17.9121C43.7209 15.9868 43.4166 14.676 42.3757 13.489C41.2281 12.1823 39.1567 11.6228 36.5063 11.6228H28.8117C28.2702 11.6228 27.8086 12.0165 27.7248 12.5522L24.5199 32.8672C24.4567 33.2691 24.7667 33.6318 25.1719 33.6318H29.9225L31.1152 26.0644L32.3981 17.9384Z" fill="#253B80"/>
</svg>
