<svg width="266" height="199" viewBox="0 0 266 199" fill="none" xmlns="http://www.w3.org/2000/svg">
<path d="M266 174.177H0V174.31H266V174.177Z" fill="#E6E6E6"/>
<path d="M60.5723 178.444H42.2715V178.577H60.5723V178.444Z" fill="#E6E6E6"/>
<path d="M69.549 178.444H64.0801V178.577H69.549V178.444Z" fill="#E6E6E6"/>
<path d="M96.5319 175.832H86.2324V175.965H96.5319V175.832Z" fill="#E6E6E6"/>
<path d="M229.084 181.396H206.107V181.529H229.084V181.396Z" fill="#E6E6E6"/>
<path d="M237.192 181.396H233.824V181.529H237.192V181.396Z" fill="#E6E6E6"/>
<path d="M211.922 176.725H162.084V176.858H211.922V176.725Z" fill="#E6E6E6"/>
<path d="M126.084 150.45H23.3605C22.5558 150.448 21.7845 150.128 21.216 149.558C20.6474 148.988 20.3281 148.217 20.3281 147.412V3.01112C20.3351 2.21101 20.6575 1.44596 21.2253 0.882172C21.7931 0.31838 22.5604 0.00137064 23.3605 0H126.084C126.89 0 127.663 0.320045 128.232 0.889728C128.802 1.45941 129.122 2.23207 129.122 3.03772V147.412C129.122 148.218 128.802 148.99 128.232 149.56C127.663 150.13 126.89 150.45 126.084 150.45ZM23.3605 0.1064C22.5911 0.10781 21.8536 0.414463 21.31 0.959051C20.7664 1.50364 20.4611 2.24166 20.4611 3.01112V147.412C20.4611 148.181 20.7664 148.919 21.31 149.464C21.8536 150.009 22.5911 150.315 23.3605 150.317H126.084C126.854 150.315 127.592 150.009 128.137 149.464C128.681 148.92 128.988 148.182 128.989 147.412V3.01112C128.988 2.24117 128.681 1.50316 128.137 0.958726C127.592 0.41429 126.854 0.107807 126.084 0.1064H23.3605Z" fill="#E6E6E6"/>
<path d="M241.161 150.45H138.432C137.627 150.448 136.855 150.128 136.286 149.558C135.716 148.989 135.396 148.217 135.395 147.412V3.01112C135.403 2.21052 135.727 1.44548 136.295 0.881839C136.864 0.318194 137.632 0.00135569 138.432 0H241.161C241.961 0.00276879 242.727 0.320397 243.293 0.884039C243.86 1.44768 244.182 2.21192 244.189 3.01112V147.412C244.189 148.216 243.87 148.987 243.303 149.556C242.735 150.125 241.965 150.447 241.161 150.45ZM138.432 0.1064C137.662 0.107807 136.924 0.41429 136.38 0.958726C135.835 1.50316 135.529 2.24117 135.528 3.01112V147.412C135.529 148.182 135.835 148.92 136.38 149.464C136.924 150.009 137.662 150.315 138.432 150.317H241.161C241.931 150.315 242.669 150.009 243.214 149.464C243.758 148.92 244.065 148.182 244.066 147.412V3.01112C244.065 2.24117 243.758 1.50316 243.214 0.958726C242.669 0.41429 241.931 0.107807 241.161 0.1064H138.432Z" fill="#E6E6E6"/>
<path d="M222.92 101.671H185.643V174.177H222.92V101.671Z" fill="#F5F5F5"/>
<path d="M222.919 101.671H219.844V174.177H222.919V101.671Z" fill="#F0F0F0"/>
<path d="M102.686 119.402L188.514 119.402V103.74L102.686 103.74V119.402Z" fill="#E0E0E0"/>
<path d="M138.473 174.23H101.675C101.533 174.23 101.398 174.174 101.298 174.074C101.199 173.974 101.143 173.839 101.143 173.698C101.143 173.557 101.199 173.422 101.298 173.322C101.398 173.222 101.533 173.166 101.675 173.166H138.473C143.793 173.166 144.501 171.613 144.501 165.452V87.78C144.501 87.639 144.557 87.5036 144.656 87.4039C144.756 87.3041 144.891 87.248 145.033 87.248C145.174 87.248 145.309 87.3041 145.409 87.4039C145.509 87.5036 145.565 87.639 145.565 87.78V165.452C145.565 172.038 144.543 174.23 138.473 174.23Z" fill="#E0E0E0"/>
<path d="M105.985 107.39L222.078 107.39V101.953L105.985 101.953V107.39Z" fill="#F0F0F0"/>
<path d="M106.826 101.671H69.5488V174.177H106.826V101.671Z" fill="#F5F5F5"/>
<path d="M106.821 101.671H103.746V174.177H106.821V101.671Z" fill="#F0F0F0"/>
<path d="M80.4277 174.177L80.4277 45.0605H48.4386L48.4386 174.177H80.4277Z" fill="#FAFAFA"/>
<path d="M78.6719 77.3105V48.8325H50.1939V77.3105H78.6719Z" fill="#F5F5F5"/>
<path d="M58.125 48.4495H70.7547C70.7547 49.2325 70.4436 49.9835 69.8899 50.5373C69.3362 51.091 68.5852 51.4021 67.8021 51.4021H61.0989C60.7093 51.4049 60.3231 51.3306 59.9624 51.1834C59.6017 51.0363 59.2737 50.8193 58.9973 50.5448C58.7209 50.2704 58.5015 49.9439 58.3518 49.5843C58.2021 49.2247 58.125 48.839 58.125 48.4495Z" fill="#E0E0E0"/>
<path d="M78.668 108.342V79.864H50.19V108.342H78.668Z" fill="#F5F5F5"/>
<path d="M78.6719 139.373V110.896H50.1939V139.373H78.6719Z" fill="#F5F5F5"/>
<path d="M78.6719 170.41V141.932H50.1939V170.41H78.6719Z" fill="#F5F5F5"/>
<path d="M58.125 79.4863H70.7547C70.7533 80.269 70.4417 81.0192 69.8883 81.5726C69.3349 82.126 68.5847 82.4375 67.8021 82.4389H61.0989C60.7095 82.441 60.3236 82.3662 59.9633 82.2189C59.6029 82.0715 59.2752 81.8544 58.9989 81.5801C58.7226 81.3058 58.5032 80.9796 58.3532 80.6203C58.2032 80.261 58.1257 79.8757 58.125 79.4863Z" fill="#E0E0E0"/>
<path d="M58.125 110.518H70.7547C70.7547 111.301 70.4436 112.052 69.8899 112.606C69.3362 113.159 68.5852 113.47 67.8021 113.47H61.0989C60.7093 113.473 60.3231 113.399 59.9624 113.252C59.6017 113.105 59.2737 112.888 58.9973 112.613C58.7209 112.339 58.5015 112.012 58.3518 111.653C58.2021 111.293 58.125 110.907 58.125 110.518Z" fill="#E0E0E0"/>
<path d="M58.125 141.549H70.7547C70.7547 142.332 70.4436 143.083 69.8899 143.637C69.3362 144.191 68.5852 144.502 67.8021 144.502H61.0989C60.7093 144.505 60.3231 144.43 59.9624 144.283C59.6017 144.136 59.2737 143.919 58.9973 143.645C58.7209 143.37 58.5015 143.044 58.3518 142.684C58.2021 142.325 58.125 141.939 58.125 141.549Z" fill="#E0E0E0"/>
<path d="M48.4375 174.177L48.4375 45.0605H32.4615L32.4615 174.177H48.4375Z" fill="#F0F0F0"/>
<path d="M140.656 101.671H132.617L134.57 86.0193H142.613L140.656 101.671Z" fill="#F0F0F0"/>
<path d="M142.436 101.671H134.393L136.35 86.0193H144.389L142.436 101.671Z" fill="#F5F5F5"/>
<path d="M159.686 101.671H153.872L152.76 99.8992H158.569L159.686 101.671Z" fill="#F0F0F0"/>
<path d="M190.839 101.671H155.647L154.535 99.8992H186.093L190.839 101.671Z" fill="#FAFAFA"/>
<path d="M115.157 97.1807H117.7C118.891 97.1807 120.033 97.6537 120.875 98.4958C121.717 99.3378 122.19 100.48 122.19 101.671H110.656C110.656 101.08 110.773 100.495 110.999 99.95C111.225 99.4046 111.557 98.9091 111.975 98.492C112.393 98.0749 112.889 97.7444 113.435 97.5194C113.981 97.2944 114.566 97.1793 115.157 97.1807Z" fill="#F0F0F0"/>
<path d="M143.412 93.845H135.373L136.352 86.0193H144.39L143.412 93.845Z" fill="#F0F0F0"/>
<path d="M113.847 91.9722H170.771C170.883 91.9724 170.994 91.9487 171.096 91.9026C171.198 91.8565 171.289 91.7892 171.363 91.7051C171.437 91.621 171.492 91.5221 171.525 91.4149C171.558 91.3078 171.567 91.1949 171.553 91.0838L167.169 56.0143C167.146 55.8234 167.054 55.6477 166.909 55.5203C166.765 55.3929 166.58 55.3226 166.387 55.3228H109.479C109.368 55.3227 109.257 55.3463 109.156 55.392C109.054 55.4378 108.963 55.5046 108.889 55.5881C108.815 55.6716 108.76 55.7699 108.727 55.8764C108.694 55.9829 108.684 56.0952 108.697 56.2059L113.081 91.2806C113.104 91.4688 113.194 91.6424 113.335 91.7695C113.476 91.8965 113.657 91.9685 113.847 91.9722Z" fill="#F0F0F0"/>
<path d="M114.711 91.9722H171.597C171.709 91.9724 171.82 91.9487 171.922 91.9026C172.024 91.8565 172.116 91.7892 172.19 91.7051C172.264 91.621 172.319 91.5221 172.352 91.4149C172.384 91.3078 172.394 91.1949 172.379 91.0838L167.996 56.0143C167.971 55.8239 167.878 55.6488 167.735 55.5216C167.591 55.3944 167.406 55.3238 167.214 55.3228H110.327C110.215 55.3227 110.105 55.3463 110.003 55.392C109.902 55.4378 109.811 55.5046 109.737 55.5881C109.663 55.6716 109.608 55.7699 109.575 55.8764C109.541 55.9829 109.531 56.0952 109.545 56.2059L113.929 91.2806C113.952 91.4715 114.044 91.6473 114.189 91.7747C114.333 91.9021 114.518 91.9724 114.711 91.9722Z" fill="#F5F5F5"/>
<path d="M170.543 90.0305L166.441 57.2061C166.434 57.1525 166.407 57.1035 166.366 57.0683C166.325 57.0331 166.272 57.014 166.218 57.0145H111.598C111.566 57.0134 111.535 57.0192 111.506 57.0315C111.477 57.0438 111.452 57.0622 111.431 57.0856C111.41 57.109 111.395 57.1367 111.386 57.1667C111.377 57.1967 111.375 57.2283 111.379 57.2593L115.481 90.089C115.488 90.1421 115.513 90.191 115.554 90.2263C115.594 90.2616 115.646 90.2809 115.699 90.2805H170.325C170.356 90.28 170.387 90.2729 170.415 90.2597C170.444 90.2465 170.469 90.2275 170.49 90.204C170.51 90.1804 170.526 90.1528 170.535 90.1229C170.544 90.093 170.547 90.0615 170.543 90.0305Z" fill="#E0E0E0"/>
<path d="M149.752 101.671H136.654V101.506C136.654 101.16 136.791 100.829 137.036 100.584C137.28 100.34 137.612 100.202 137.958 100.202H148.449C148.794 100.202 149.126 100.34 149.37 100.584C149.615 100.829 149.752 101.16 149.752 101.506V101.671Z" fill="#FAFAFA"/>
<path d="M138.182 101.671H129.297V101.506C129.297 101.16 129.435 100.829 129.679 100.584C129.923 100.34 130.255 100.202 130.601 100.202H136.878C137.224 100.202 137.555 100.34 137.8 100.584C138.044 100.829 138.182 101.16 138.182 101.506V101.671Z" fill="#F0F0F0"/>
<path d="M61.9556 30.4785V30.4519C62.0779 30.0423 62.195 29.6273 62.296 29.2123C62.4762 29.4992 62.7212 29.7396 63.0114 29.9143C63.3016 30.089 63.6288 30.1929 63.9665 30.2178H64.1102C64.9986 30.1327 65.8498 29.2709 66.3871 27.9143C66.3975 27.8899 66.4029 27.8636 66.4029 27.8371C66.4029 27.8106 66.3975 27.7844 66.3871 27.76C66.3614 27.7114 66.3173 27.6751 66.2648 27.6589C65.6271 27.4973 64.9625 27.472 64.3143 27.5848C63.6662 27.6975 63.0492 27.9458 62.5035 28.3133C62.5833 27.9196 62.6525 27.5206 62.711 27.1269C62.8513 27.154 62.9937 27.1682 63.1366 27.1695C64.5837 27.1695 65.6476 25.8767 65.7008 25.8129C65.7196 25.7894 65.7326 25.7619 65.7387 25.7325C65.7449 25.7031 65.744 25.6727 65.7362 25.6437C65.7285 25.6147 65.714 25.588 65.694 25.5656C65.674 25.5432 65.649 25.5259 65.621 25.5149C65.2849 25.3481 64.9172 25.2542 64.5422 25.2395C64.1672 25.2249 63.7933 25.2897 63.4452 25.4298C63.0735 25.6188 62.7731 25.9231 62.5886 26.297C62.3176 25.4645 61.822 24.723 61.1565 24.1542C60.4909 23.5853 59.6813 23.2112 58.8168 23.0731C58.7899 23.0667 58.762 23.0668 58.7352 23.0733C58.7084 23.0797 58.6835 23.0924 58.6625 23.1103C58.6402 23.126 58.6218 23.1467 58.6089 23.1707C58.596 23.1947 58.5888 23.2214 58.588 23.2486C58.5135 24.5627 58.5561 26.1746 59.5403 26.9407C59.952 27.2443 60.455 27.3982 60.966 27.3769C61.4239 27.3659 61.8783 27.2944 62.3173 27.1641C62.1768 28.1149 61.9724 29.0551 61.7055 29.9784C60.7427 28.6666 59.3768 27.7061 57.8166 27.2439C57.7673 27.2325 57.7154 27.2404 57.6719 27.2662C57.6283 27.292 57.5963 27.3335 57.5825 27.3823C57.2846 28.5154 57.4389 29.4358 58.0241 30.0423C58.3217 30.3096 58.6701 30.5143 59.0485 30.6441C59.4269 30.7739 59.8275 30.8261 60.2266 30.7977C60.6555 30.795 61.0831 30.7504 61.5034 30.6647C61.2586 31.4414 60.9714 32.2022 60.7 32.9257C60.1095 32.3937 58.3699 31.0743 56.476 31.6276C56.4251 31.6445 56.383 31.6808 56.3589 31.7287C56.3485 31.7531 56.3432 31.7793 56.3432 31.8058C56.3432 31.8324 56.3485 31.8586 56.3589 31.883C56.8909 33.1385 57.4602 33.8354 58.1943 34.0748C58.39 34.1393 58.5948 34.1717 58.8008 34.1706C59.363 34.1467 59.9108 33.986 60.3968 33.7024C59.9925 34.6653 59.5616 35.5644 59.1519 36.3624C58.6657 35.8666 58.0548 35.511 57.3835 35.3331C56.7123 35.1552 56.0054 35.1616 55.3375 35.3516C55.2919 35.3607 55.2514 35.3864 55.2238 35.4238C55.1962 35.4612 55.1837 35.5076 55.1885 35.5538C55.2356 35.9561 55.3877 36.339 55.6296 36.664C55.8714 36.9889 56.1945 37.2445 56.5664 37.4051C56.847 37.5258 57.1494 37.5874 57.4548 37.586C57.8786 37.5807 58.2947 37.473 58.6678 37.2721C58.2528 38.0435 57.8698 38.6873 57.5719 39.1767H53.9543C53.3797 38.1925 52.7147 36.9689 52.0657 35.5963C52.368 35.6866 52.6812 35.7349 52.9967 35.74C53.3846 35.7448 53.7685 35.6602 54.1185 35.4928C54.4685 35.3254 54.7753 35.0796 55.015 34.7746C55.2547 34.4695 55.421 34.1133 55.5009 33.7337C55.5808 33.354 55.5722 32.961 55.4758 32.5852C55.4634 32.5416 55.4354 32.504 55.3972 32.4795C55.359 32.455 55.3132 32.4453 55.2683 32.4522C54.5296 32.5243 53.819 32.7732 53.1967 33.1778C52.5745 33.5825 52.0588 34.131 51.6933 34.7771C51.2677 33.8195 50.8527 32.8033 50.491 31.7553C50.9514 32.0173 51.4673 32.1668 51.9965 32.1915C52.2065 32.1939 52.4154 32.1597 52.6136 32.0905C53.6776 31.7393 54.2894 30.4572 54.8108 29.1272C54.8226 29.1032 54.8287 29.0768 54.8287 29.0501C54.8287 29.0234 54.8226 28.997 54.8108 28.9729C54.7985 28.9485 54.7813 28.9269 54.7603 28.9095C54.7392 28.8921 54.7147 28.8793 54.6885 28.8719C52.5605 28.276 50.8102 30.3242 50.2675 31.0584C49.9838 30.1726 49.7476 29.2722 49.56 28.3611C50.007 28.4486 50.4611 28.4949 50.9166 28.4995C51.3692 28.5326 51.8238 28.4722 52.2522 28.3221C52.6805 28.172 53.0733 27.9354 53.4063 27.627C54.05 26.946 54.2043 25.9246 53.8585 24.6797C53.8524 24.6553 53.8414 24.6324 53.8262 24.6124C53.8109 24.5923 53.7918 24.5756 53.7699 24.5632C53.748 24.5507 53.7239 24.5429 53.6989 24.54C53.6739 24.5372 53.6486 24.5395 53.6245 24.5467C51.9267 25.0765 50.4489 26.147 49.4163 27.5951L49.3365 27.1109C49.3309 27.0691 49.3123 27.03 49.2833 26.9992C49.1956 26.6845 49.0428 26.3916 48.8347 26.1396C48.6267 25.8876 48.3681 25.682 48.0757 25.5362C47.6919 25.3882 47.2811 25.323 46.8703 25.345C46.4596 25.367 46.0581 25.4757 45.6923 25.6639C45.6642 25.6761 45.6391 25.6943 45.6189 25.7173C45.5987 25.7403 45.5838 25.7675 45.5753 25.7969C45.5688 25.8258 45.5692 25.8558 45.5766 25.8845C45.584 25.9132 45.5981 25.9397 45.6178 25.9618C45.671 26.031 46.8414 27.4142 48.4162 27.4142C48.5859 27.412 48.7551 27.3942 48.9216 27.361C48.9907 27.8132 49.0758 28.2654 49.1716 28.7123C48.5649 28.3129 47.8805 28.0466 47.1634 27.9311C46.4463 27.8156 45.7128 27.8533 45.0114 28.0419C44.9588 28.0581 44.9148 28.0944 44.889 28.143C44.8785 28.1683 44.873 28.1954 44.873 28.2228C44.873 28.2502 44.8785 28.2773 44.889 28.3026C45.5008 29.7816 46.4478 30.7179 47.4266 30.7977H47.5596C48.0544 30.7977 48.7247 30.5689 49.4057 29.6592C49.6738 30.6936 49.9971 31.713 50.3739 32.7129C49.4536 32.2767 47.3841 31.5265 45.9051 32.6703C45.8848 32.685 45.8677 32.7037 45.8547 32.7252C45.8418 32.7467 45.8333 32.7706 45.8298 32.7954C45.8264 32.8203 45.8279 32.8455 45.8345 32.8698C45.841 32.894 45.8524 32.9166 45.8679 32.9363C46.8255 34.2397 47.7086 34.8728 48.5758 34.8728C49.294 34.8728 49.9802 34.4206 50.6665 33.5269C51.0602 34.5057 51.4858 35.4421 51.9061 36.3039C50.9857 35.7347 49.9749 35.8251 48.7832 36.5752C48.7557 36.5918 48.7329 36.6151 48.717 36.6431C48.7012 36.6711 48.6928 36.7027 48.6928 36.7348C48.6906 36.7661 48.6969 36.7975 48.7109 36.8255C48.725 36.8536 48.7463 36.8774 48.7726 36.8944C49.4824 37.406 50.3205 37.7099 51.1932 37.7722C51.6434 37.7812 52.0849 37.6471 52.454 37.3892C52.7945 38.0435 53.1297 38.6447 53.4382 39.182H51.7944V40.1183H52.3902L52.885 45.0766H60.168L60.6575 40.1183H61.2586V39.182H57.9868C58.3486 38.5809 58.8115 37.7775 59.3062 36.8359C59.321 36.817 59.3318 36.7953 59.3381 36.7721C59.4658 36.5327 59.5882 36.2879 59.7158 36.0326C59.9322 36.3599 60.2238 36.6307 60.5663 36.8223C60.9087 37.0139 61.2921 37.1207 61.6842 37.1338C61.7657 37.1391 61.8475 37.1391 61.929 37.1338C62.3624 37.0847 62.7737 36.9165 63.1174 36.648C63.461 36.3794 63.7237 36.021 63.8761 35.6123C63.8918 35.5703 63.8919 35.5241 63.8762 35.482C63.8606 35.44 63.8303 35.405 63.791 35.3835C63.2332 35.0684 62.6084 34.8906 61.9682 34.8647C61.3281 34.8388 60.691 34.9656 60.1095 35.2346C60.3862 34.6547 60.6415 34.0323 60.9182 33.3885C60.939 33.3647 60.952 33.335 60.9554 33.3034C61.0299 33.1225 61.099 32.9417 61.1735 32.7714C61.8066 33.5694 62.4344 33.9631 63.0887 33.9631C63.8814 33.9631 64.6847 33.3779 65.5466 32.1703C65.5765 32.1299 65.5894 32.0794 65.5824 32.0296C65.5754 31.9799 65.5492 31.9349 65.5093 31.9043C64.1527 30.8881 62.3173 31.5851 61.4555 31.9894C61.631 31.5106 61.7906 31.0265 61.9396 30.5317L61.9556 30.4785Z" fill="#E0E0E0"/>
<path d="M214.115 28.2334H186.908V58.1052H214.115V28.2334Z" fill="#E0E0E0"/>
<path d="M210.757 29.4569C210.735 29.4624 210.711 29.4624 210.688 29.4569C210.624 29.4144 204.198 25.5946 202.176 25.5946C200.155 25.5946 194.01 29.4144 193.946 29.4516C193.932 29.4612 193.915 29.4677 193.898 29.4708C193.881 29.4738 193.863 29.4734 193.846 29.4694C193.83 29.4654 193.814 29.458 193.8 29.4476C193.786 29.4372 193.774 29.4241 193.765 29.4091C193.747 29.3793 193.742 29.3437 193.75 29.3099C193.758 29.2761 193.778 29.2468 193.808 29.2282C194.063 29.0686 200.059 25.3286 202.176 25.3286C204.293 25.3286 210.582 29.0526 210.848 29.2282C210.863 29.2369 210.876 29.2486 210.886 29.2626C210.897 29.2765 210.904 29.2925 210.908 29.3094C210.912 29.3264 210.912 29.3439 210.909 29.3611C210.906 29.3782 210.9 29.3945 210.89 29.4091C210.875 29.4292 210.855 29.4446 210.831 29.4531C210.807 29.4616 210.782 29.4629 210.757 29.4569Z" fill="#EBEBEB"/>
<path d="M217.055 28.2334H188.955V58.1052H217.055V28.2334Z" fill="#F5F5F5"/>
<path d="M214.705 55.7483V30.5847H191.313V55.7483H214.705Z" fill="white"/>
<path d="M207.538 47.7C210.042 45.1965 210.042 41.1375 207.538 38.634C205.035 36.1305 200.976 36.1305 198.472 38.634C195.969 41.1375 195.969 45.1965 198.472 47.7C200.976 50.2035 205.035 50.2035 207.538 47.7Z" fill="#E0E0E0"/>
<path d="M202.463 137.921H226.307C228.495 137.923 230.596 137.066 232.159 135.535C233.722 134.004 234.622 131.921 234.665 129.734L235.559 86.0778C235.575 85.2676 235.429 84.4623 235.131 83.7091C234.832 82.9559 234.386 82.2699 233.818 81.6912C233.251 81.1125 232.574 80.6529 231.827 80.3391C231.08 80.0254 230.278 79.8639 229.467 79.864H214.518C213.022 79.8636 211.579 80.4139 210.463 81.4099C209.348 82.4059 208.638 83.7778 208.469 85.2638L202.463 137.921Z" fill="#E6E6E6"/>
<path d="M215.477 137.921H190.068C189.752 137.921 189.449 137.796 189.226 137.572C189.002 137.349 188.877 137.046 188.877 136.729V136.618C188.877 135.751 189.221 134.921 189.833 134.308C190.446 133.695 191.277 133.351 192.143 133.351H215.477V137.921Z" fill="#E6E6E6"/>
<path d="M213.47 174.773C213.346 174.775 213.226 174.735 213.129 174.658C213.031 174.582 212.964 174.473 212.938 174.352L205.49 138.453H192.509L185.061 174.352C185.032 174.493 184.949 174.617 184.828 174.697C184.708 174.776 184.561 174.804 184.42 174.775C184.279 174.746 184.155 174.663 184.076 174.542C183.997 174.422 183.968 174.275 183.997 174.134L191.541 137.815C191.566 137.693 191.633 137.583 191.73 137.505C191.827 137.428 191.949 137.387 192.073 137.389H205.905C206.03 137.387 206.151 137.428 206.248 137.505C206.345 137.583 206.412 137.693 206.437 137.815L213.976 174.134C214.004 174.272 213.977 174.415 213.9 174.533C213.823 174.65 213.703 174.733 213.566 174.762C213.535 174.769 213.502 174.773 213.47 174.773Z" fill="#E6E6E6"/>
<path d="M205.378 174.773C205.343 174.778 205.307 174.778 205.271 174.773C205.203 174.759 205.138 174.731 205.08 174.692C205.022 174.653 204.972 174.603 204.934 174.545C204.895 174.487 204.869 174.421 204.855 174.353C204.842 174.284 204.842 174.213 204.856 174.145L212.4 137.825C212.425 137.703 212.492 137.594 212.589 137.516C212.686 137.438 212.808 137.397 212.932 137.4H226.764C226.889 137.397 227.01 137.438 227.107 137.516C227.205 137.594 227.271 137.703 227.296 137.825L234.835 174.145C234.849 174.215 234.849 174.287 234.836 174.357C234.822 174.427 234.795 174.494 234.756 174.553C234.717 174.613 234.666 174.664 234.607 174.704C234.548 174.744 234.482 174.772 234.412 174.786C234.342 174.8 234.27 174.801 234.2 174.787C234.13 174.774 234.063 174.747 234.004 174.707C233.944 174.668 233.893 174.617 233.853 174.558C233.813 174.499 233.785 174.433 233.771 174.363L226.323 138.464H213.331L205.883 174.363C205.856 174.478 205.792 174.58 205.7 174.654C205.609 174.728 205.496 174.77 205.378 174.773Z" fill="#E6E6E6"/>
<path d="M133.001 198.202C189.969 198.202 236.151 195.506 236.151 192.18C236.151 188.854 189.969 186.157 133.001 186.157C76.0332 186.157 29.8516 188.854 29.8516 192.18C29.8516 195.506 76.0332 198.202 133.001 198.202Z" fill="#F5F5F5"/>
<path d="M142.103 187.264C141.937 187.264 141.775 187.206 141.646 187.1C141.517 186.994 141.429 186.847 141.396 186.684L131.288 136.91H113.684L103.576 186.684C103.528 186.861 103.414 187.014 103.258 187.11C103.101 187.207 102.914 187.24 102.734 187.203C102.554 187.167 102.394 187.063 102.288 186.913C102.182 186.764 102.136 186.579 102.161 186.397L112.386 136.043C112.42 135.88 112.509 135.734 112.637 135.628C112.766 135.523 112.927 135.464 113.094 135.463H131.873C132.04 135.463 132.201 135.521 132.33 135.627C132.459 135.733 132.548 135.88 132.581 136.043L142.811 186.397C142.849 186.584 142.811 186.779 142.705 186.939C142.599 187.098 142.435 187.21 142.247 187.248L142.103 187.264Z" fill="#407BFF"/>
<path d="M113.847 187.264C113.68 187.263 113.519 187.204 113.391 187.099C113.262 186.993 113.173 186.847 113.139 186.684L103.031 136.91H85.4273L75.3193 186.684C75.306 186.782 75.2727 186.876 75.2214 186.961C75.1702 187.046 75.1021 187.119 75.0214 187.176C74.9407 187.234 74.8491 187.274 74.7523 187.294C74.6555 187.315 74.5555 187.315 74.4585 187.296C74.3615 187.276 74.2696 187.236 74.1884 187.18C74.1072 187.123 74.0386 187.051 73.9866 186.966C73.9346 186.882 73.9005 186.788 73.8864 186.69C73.8722 186.592 73.8783 186.492 73.9042 186.397L84.1346 136.043C84.1677 135.88 84.2561 135.733 84.3851 135.627C84.514 135.521 84.6754 135.463 84.8421 135.463H103.622C103.788 135.464 103.948 135.522 104.077 135.628C104.205 135.733 104.292 135.88 104.324 136.043L114.554 186.397C114.592 186.584 114.554 186.779 114.448 186.939C114.342 187.098 114.178 187.21 113.99 187.248L113.847 187.264Z" fill="#407BFF"/>
<path d="M117.8 136.192H85.4545C82.4856 136.193 79.6348 135.029 77.5141 132.951C75.3935 130.873 74.1722 128.047 74.1123 125.078L72.91 75.9217C72.8873 74.8229 73.0841 73.7307 73.4888 72.7089C73.8935 71.6871 74.498 70.7564 75.2669 69.9711C76.0358 69.1859 76.9537 68.562 77.9667 68.1358C78.9797 67.7097 80.0676 67.49 81.1666 67.4895H101.446C103.476 67.4908 105.434 68.2386 106.948 69.5905C108.462 70.9424 109.425 72.8039 109.655 74.8205L117.8 136.192Z" fill="#407BFF"/>
<path d="M100.16 129.968H131.814C132.989 129.968 134.117 130.434 134.948 131.266C135.779 132.097 136.246 133.224 136.246 134.399V134.553C136.246 134.977 136.078 135.383 135.778 135.682C135.479 135.981 135.073 136.149 134.65 136.149H100.16V129.968Z" fill="#407BFF"/>
<g opacity="0.3">
<path d="M142.103 187.264C141.937 187.264 141.775 187.206 141.646 187.1C141.517 186.994 141.429 186.847 141.396 186.684L131.288 136.91H113.684L103.576 186.684C103.528 186.861 103.414 187.014 103.258 187.11C103.101 187.207 102.914 187.24 102.734 187.203C102.554 187.167 102.394 187.063 102.288 186.913C102.182 186.764 102.136 186.579 102.161 186.397L112.386 136.043C112.42 135.88 112.509 135.734 112.637 135.628C112.766 135.523 112.927 135.464 113.094 135.463H131.873C132.04 135.463 132.201 135.521 132.33 135.627C132.459 135.733 132.548 135.88 132.581 136.043L142.811 186.397C142.849 186.584 142.811 186.779 142.705 186.939C142.599 187.098 142.435 187.21 142.247 187.248L142.103 187.264Z" fill="black"/>
<path d="M113.847 187.264C113.68 187.263 113.519 187.204 113.391 187.099C113.262 186.993 113.173 186.847 113.139 186.684L103.031 136.91H85.4273L75.3193 186.684C75.306 186.782 75.2727 186.876 75.2214 186.961C75.1702 187.046 75.1021 187.119 75.0214 187.176C74.9407 187.234 74.8491 187.274 74.7523 187.294C74.6555 187.315 74.5555 187.315 74.4585 187.296C74.3615 187.276 74.2696 187.236 74.1884 187.18C74.1072 187.123 74.0386 187.051 73.9866 186.966C73.9346 186.882 73.9005 186.788 73.8864 186.69C73.8722 186.592 73.8783 186.492 73.9042 186.397L84.1346 136.043C84.1677 135.88 84.2561 135.733 84.3851 135.627C84.514 135.521 84.6754 135.463 84.8421 135.463H103.622C103.788 135.464 103.948 135.522 104.077 135.628C104.205 135.733 104.292 135.88 104.324 136.043L114.554 186.397C114.592 186.584 114.554 186.779 114.448 186.939C114.342 187.098 114.178 187.21 113.99 187.248L113.847 187.264Z" fill="black"/>
<path d="M117.8 136.192H85.4545C82.4856 136.193 79.6348 135.029 77.5141 132.951C75.3935 130.873 74.1722 128.047 74.1123 125.078L72.91 75.9217C72.8873 74.8229 73.0841 73.7307 73.4888 72.7089C73.8935 71.6871 74.498 70.7564 75.2669 69.9711C76.0358 69.1859 76.9537 68.562 77.9667 68.1358C78.9797 67.7097 80.0676 67.49 81.1666 67.4895H101.446C103.476 67.4908 105.434 68.2386 106.948 69.5905C108.462 70.9424 109.425 72.8039 109.655 74.8205L117.8 136.192Z" fill="black"/>
<path d="M100.16 129.968H131.814C132.989 129.968 134.117 130.434 134.948 131.266C135.779 132.097 136.246 133.224 136.246 134.399V134.553C136.246 134.977 136.078 135.383 135.778 135.682C135.479 135.981 135.073 136.149 134.65 136.149H100.16V129.968Z" fill="black"/>
</g>
<path d="M108.801 64.7763C108.801 64.7763 113.323 70.6815 110.397 82.4387C107.471 94.1959 92.3729 87.8119 91.4579 77.2145C90.3939 64.7231 104.417 73.3362 106.886 62.228L108.801 64.7763Z" fill="#263238"/>
<path d="M105.517 61.2705C103.554 62.6537 102.778 64.6647 104.948 66.6331C107.119 68.6015 110.215 68.5376 111.151 67.729C112.088 66.9203 111.901 62.8133 111.901 62.8133L105.517 61.2705Z" fill="#407BFF"/>
<path opacity="0.8" d="M105.517 61.2705C103.554 62.6537 102.778 64.6647 104.948 66.6331C107.119 68.6015 110.215 68.5376 111.151 67.729C112.088 66.9203 111.901 62.8133 111.901 62.8133L105.517 61.2705Z" fill="white"/>
<path d="M130.308 87.4395C130.361 87.6789 130.451 88.0513 130.537 88.3651L130.792 89.3653C130.973 90.0356 131.17 90.7059 131.377 91.3763C131.771 92.7275 132.207 94.0735 132.665 95.4195C133.122 96.7654 133.59 98.0795 134.101 99.4414C134.351 100.106 134.601 100.777 134.867 101.442L135.176 102.24C135.237 102.376 135.318 102.503 135.415 102.617C136.172 103.383 137.095 103.966 138.112 104.32C139.355 104.82 140.636 105.218 141.943 105.511C143.294 105.825 144.682 106.086 146.087 106.304C147.491 106.522 148.933 106.698 150.316 106.836L150.364 109.698C147.329 110.012 144.27 110.012 141.235 109.698C139.649 109.535 138.08 109.23 136.548 108.789C135.718 108.538 134.91 108.22 134.133 107.836C133.238 107.401 132.419 106.825 131.707 106.129C131.294 105.717 130.936 105.254 130.643 104.751C130.563 104.623 130.494 104.479 130.42 104.346L130.281 104.059L130.037 103.527C129.707 102.851 129.377 102.176 129.074 101.49C128.456 100.117 127.855 98.7338 127.318 97.324C126.781 95.9142 126.254 94.4938 125.807 93.068C125.589 92.3339 125.376 91.605 125.179 90.8549L124.887 89.7324C124.802 89.3281 124.722 88.9929 124.637 88.5141L130.308 87.4395Z" fill="#E58A7B"/>
<path d="M128.5 81.3959C130.782 81.9758 132.373 91.3603 132.373 91.3603L126.09 95.6163C126.09 95.6163 120.062 86.1467 121.834 83.6409C123.648 81.0661 125.169 80.566 128.5 81.3959Z" fill="#407BFF"/>
<path opacity="0.5" d="M128.5 81.3959C130.782 81.9758 132.373 91.3603 132.373 91.3603L126.09 95.6163C126.09 95.6163 120.062 86.1467 121.834 83.6409C123.648 81.0661 125.169 80.566 128.5 81.3959Z" fill="white"/>
<path opacity="0.2" d="M127.678 83.7581L122.215 88.0885C123.279 90.7192 124.573 93.2507 126.082 95.6536L130.44 92.6903L127.678 83.7581Z" fill="#407BFF"/>
<path d="M128.501 81.3959C128.501 81.3959 131.161 82.3216 125.841 114.79H103.38C103.757 105.644 103.768 100.005 99.4004 81.231C102.546 80.5831 105.733 80.1635 108.939 79.9755C112.338 79.7331 115.75 79.7331 119.148 79.9755C123.532 80.3957 128.501 81.3959 128.501 81.3959Z" fill="#407BFF"/>
<path opacity="0.5" d="M128.501 81.3959C128.501 81.3959 131.161 82.3216 125.841 114.79H103.38C103.757 105.644 103.768 100.005 99.4004 81.231C102.546 80.5831 105.733 80.1635 108.939 79.9755C112.338 79.7331 115.75 79.7331 119.148 79.9755C123.532 80.3957 128.501 81.3959 128.501 81.3959Z" fill="white"/>
<path d="M149.492 106.81L153.413 102.83L153.945 108.438C153.945 108.438 151.003 110.427 148.971 109.358L149.492 106.81Z" fill="#E58A7B"/>
<path d="M158.042 102.24L158.217 106.953L153.94 108.438L153.424 102.83L158.042 102.24Z" fill="#E58A7B"/>
<path d="M151.334 182.103H156.867L157.718 169.288H152.185L151.334 182.103Z" fill="#E58A7B"/>
<path d="M129.92 182.103H135.453L137.23 169.288H131.697L129.92 182.103Z" fill="#E58A7B"/>
<path d="M135.799 181.46H129.579C129.472 181.458 129.368 181.495 129.287 181.564C129.205 181.634 129.152 181.731 129.138 181.838L128.43 186.759C128.418 186.883 128.431 187.008 128.47 187.127C128.509 187.246 128.572 187.355 128.656 187.448C128.74 187.541 128.842 187.615 128.956 187.666C129.07 187.716 129.194 187.743 129.319 187.743C131.484 187.705 132.511 187.578 135.261 187.578C136.942 187.578 141.257 187.753 143.582 187.753C145.907 187.753 146.029 185.455 145.061 185.248C140.725 184.311 138.182 183.029 136.719 181.8C136.462 181.581 136.136 181.46 135.799 181.46Z" fill="#263238"/>
<path d="M157.298 181.46H151.089C150.982 181.459 150.879 181.497 150.798 181.566C150.716 181.635 150.663 181.732 150.648 181.838L149.94 186.759C149.927 186.883 149.941 187.009 149.98 187.127C150.019 187.246 150.082 187.355 150.166 187.448C150.25 187.541 150.352 187.615 150.466 187.666C150.58 187.717 150.704 187.743 150.829 187.743C152.994 187.706 154.021 187.578 156.771 187.578C158.457 187.578 161.931 187.754 164.256 187.754C166.581 187.754 166.703 185.455 165.735 185.248C161.399 184.312 159.692 183.029 158.234 181.8C157.972 181.579 157.64 181.459 157.298 181.46Z" fill="#263238"/>
<path d="M124.089 57.3069C126.079 57.4346 127.09 67.4149 121.253 66.835C115.417 66.2551 124.089 57.3069 124.089 57.3069Z" fill="#263238"/>
<path d="M157.717 169.288L157.275 175.895H151.742L152.178 169.288H157.717Z" fill="#CF6F64"/>
<path d="M131.696 169.288H137.234L136.314 175.895H130.775L131.696 169.288Z" fill="#CF6F64"/>
<path opacity="0.2" d="M101.645 91.6689C102.177 94.3928 102.554 96.7442 102.842 98.8616L104.156 88.6951L101.645 91.6689Z" fill="#407BFF"/>
<path d="M109.948 68.5056C110.592 71.7881 111.236 77.805 108.938 79.9968C108.938 79.9968 109.837 83.3271 115.939 83.3271C122.647 83.3271 119.131 79.9968 119.131 79.9968C115.465 79.1243 115.561 76.4058 116.199 73.8575L109.948 68.5056Z" fill="#E58A7B"/>
<path d="M114.727 84.0401L116.769 83.3059L116.498 82.7473L114.727 84.0401Z" fill="#263238"/>
<path d="M118.69 83.6143L116.77 83.3058L117.184 82.6833L118.69 83.6143Z" fill="#263238"/>
<path d="M109.682 78.4487L108.293 79.8C108.252 79.8427 108.229 79.9 108.229 79.9596C108.229 80.0192 108.252 80.0765 108.293 80.1192L114.145 86.7851C114.424 85.202 115.271 83.7753 116.529 82.7739C111.688 80.9438 110.427 79.0499 109.996 78.5179C109.986 78.4869 109.968 78.4592 109.944 78.4373C109.92 78.4155 109.89 78.4003 109.859 78.3933C109.827 78.3863 109.794 78.3877 109.763 78.3974C109.732 78.4072 109.704 78.4248 109.682 78.4487Z" fill="#407BFF"/>
<path d="M118.045 79.4701L119.769 79.9383C119.821 79.9526 119.868 79.9803 119.905 80.0187C119.942 80.057 119.969 80.1045 119.982 80.1564C120.469 82.3428 120.377 84.6184 119.716 86.7585C119.471 85.8541 118.652 83.6889 117.184 82.6834C118.78 81.5821 118.136 80.1617 117.907 79.6244C117.9 79.6044 117.898 79.5827 117.902 79.5618C117.906 79.5408 117.915 79.5213 117.93 79.5055C117.944 79.4896 117.962 79.4779 117.983 79.4717C118.003 79.4654 118.025 79.4649 118.045 79.4701Z" fill="#407BFF"/>
<path d="M112.507 70.6868L116.231 73.8522C116.077 74.4453 115.972 75.0504 115.917 75.661C114.518 75.4588 112.598 73.9267 112.449 72.469C112.358 71.8764 112.377 71.2721 112.507 70.6868Z" fill="#CF6F64"/>
<path d="M109.592 59.8552C108.959 65.3082 108.57 67.6064 110.805 70.8622C114.156 75.762 120.998 75.347 123.248 70.1919C125.275 65.5529 125.967 57.4239 121.072 54.317C119.996 53.6298 118.761 53.2293 117.486 53.1536C116.211 53.0778 114.938 53.3294 113.787 53.8843C112.637 54.4393 111.648 55.2792 110.913 56.3242C110.179 57.3693 109.724 58.5848 109.592 59.8552Z" fill="#E58A7B"/>
<path d="M122.062 50.8486C113.045 47.2895 106.272 51.3061 104.873 57.0144C102.676 65.8776 109.693 66.5 109.693 66.5L110.571 64.2337C111.832 64.9944 115.359 64.6593 114.295 58.0784C113.667 54.3544 118.381 59.5414 124.36 58.9616C125.951 58.8073 128.127 53.2426 122.062 50.8486Z" fill="#263238"/>
<path d="M125.132 53.0404C123.946 51.2157 121.52 49.6516 116.492 48.9121C116.492 48.9121 119.104 49.5026 119.95 51.4125C120.796 53.3224 126.563 55.2376 125.132 53.0404Z" fill="#263238"/>
<path d="M107.857 64.5742C107.821 65.0987 107.888 65.6252 108.055 66.1236C108.222 66.6221 108.486 67.0826 108.831 67.479C109.762 68.543 110.986 67.8886 111.369 66.6118C111.709 65.4574 111.64 63.5209 110.395 62.9357C109.15 62.3505 107.959 63.2762 107.857 64.5742Z" fill="#E58A7B"/>
<path d="M125.855 114.811C125.855 114.811 162.957 118.263 162.595 135.133C162.218 152.689 158.462 174.618 158.462 174.618H150.796C150.796 174.618 150.141 156.062 149.918 138.777C149.806 129.776 113.955 127.972 113.955 127.972L109.326 114.811H125.855Z" fill="#263238"/>
<path d="M119.919 114.811C119.919 114.811 143.897 122.764 144.503 132.606C145.615 150.726 137.651 174.634 137.651 174.634H130.102C130.102 174.634 130.533 158.781 131.432 142.363C132.57 121.732 96.1708 142.076 103.379 114.827L119.919 114.811Z" fill="#263238"/>
<path d="M117.483 62.8292C117.403 63.2654 117.573 63.6644 117.86 63.7176C118.148 63.7708 118.44 63.4516 118.52 63.0154C118.6 62.5792 118.43 62.1748 118.142 62.127C117.855 62.0791 117.573 62.3876 117.483 62.8292Z" fill="#263238"/>
<path d="M122.445 63.7176C122.366 64.1539 122.536 64.5529 122.823 64.6061C123.11 64.6593 123.408 64.3401 123.488 63.9038C123.568 63.4676 123.398 63.0633 123.11 63.0154C122.823 62.9675 122.525 63.2761 122.445 63.7176Z" fill="#263238"/>
<path d="M122.977 63.0155L124.088 62.8984C124.088 62.8984 123.423 63.6273 122.977 63.0155Z" fill="#263238"/>
<path d="M120.997 64.2336C121.21 65.3057 121.568 66.3438 122.061 67.3192C121.81 67.4333 121.538 67.4924 121.263 67.4924C120.988 67.4924 120.715 67.4333 120.465 67.3192L120.997 64.2336Z" fill="#DF5753"/>
<path d="M118.636 68.7398C118.052 68.6472 117.498 68.4183 117.02 68.0717C116.541 67.7251 116.151 67.2705 115.88 66.7448C115.871 66.7244 115.871 66.7012 115.879 66.6802C115.887 66.6593 115.902 66.6424 115.923 66.6331C115.944 66.6258 115.967 66.6266 115.988 66.6355C116.009 66.6443 116.025 66.6606 116.035 66.681C116.29 67.1778 116.659 67.6078 117.111 67.9367C117.562 68.2655 118.085 68.4841 118.636 68.5749C118.658 68.58 118.677 68.5932 118.69 68.612C118.703 68.6307 118.708 68.6535 118.705 68.676C118.701 68.6923 118.693 68.707 118.68 68.7183C118.668 68.7297 118.653 68.7372 118.636 68.7398Z" fill="#263238"/>
<path d="M116.316 60.866C116.293 60.8669 116.27 60.8626 116.249 60.8534C116.228 60.8441 116.209 60.8303 116.194 60.8128C116.178 60.7979 116.165 60.7798 116.156 60.7596C116.147 60.7395 116.143 60.7178 116.143 60.6958C116.143 60.6738 116.147 60.6521 116.156 60.6319C116.165 60.6118 116.178 60.5937 116.194 60.5788C116.48 60.2987 116.83 60.0917 117.213 59.975C117.596 59.8584 118.002 59.8355 118.396 59.9084C118.438 59.9209 118.473 59.9487 118.495 59.9863C118.517 60.0239 118.523 60.0683 118.513 60.1106C118.508 60.1321 118.499 60.1523 118.486 60.1701C118.473 60.188 118.457 60.203 118.438 60.2144C118.419 60.2258 118.398 60.2334 118.376 60.2365C118.355 60.2397 118.332 60.2385 118.311 60.233C117.971 60.1729 117.622 60.1952 117.292 60.2979C116.963 60.4007 116.663 60.5809 116.417 60.8235C116.389 60.8478 116.353 60.8627 116.316 60.866Z" fill="#263238"/>
<path d="M125.158 61.7386C125.125 61.7398 125.092 61.7307 125.065 61.7126C125.037 61.6945 125.016 61.6683 125.004 61.6375C124.874 61.3182 124.67 61.0341 124.409 60.8085C124.148 60.5829 123.838 60.4222 123.503 60.3394C123.46 60.3316 123.421 60.3073 123.396 60.2716C123.37 60.2359 123.359 60.1915 123.365 60.1479C123.373 60.1035 123.398 60.064 123.435 60.038C123.472 60.0121 123.517 60.0019 123.562 60.0096C123.952 60.0999 124.314 60.2829 124.618 60.5432C124.921 60.8035 125.158 61.1333 125.307 61.5045C125.325 61.5455 125.326 61.5919 125.31 61.6337C125.294 61.6755 125.262 61.7094 125.222 61.728L125.158 61.7386Z" fill="#263238"/>
<path d="M102.755 89.2591C102.271 90.8551 101.75 92.4511 101.287 94.0897C100.824 95.7282 100.335 97.3242 99.9144 98.9468C99.4942 100.569 99.0952 102.176 98.7972 103.735C98.6536 104.522 98.5206 105.304 98.4461 106.038C98.4036 106.405 98.3823 106.751 98.377 107.07C98.377 107.145 98.377 107.07 98.3238 106.948C98.2588 106.804 98.1687 106.672 98.0578 106.56C97.7864 106.326 97.6854 106.368 97.8077 106.405C98.0305 106.46 98.2596 106.483 98.4887 106.475C99.2049 106.45 99.9172 106.359 100.617 106.203C102.201 105.854 103.763 105.408 105.293 104.868C108.437 103.804 111.629 102.506 114.736 101.181L116.109 103.687C113.161 105.619 110.08 107.34 106.889 108.837C105.237 109.616 103.532 110.279 101.787 110.821C100.816 111.117 99.818 111.318 98.8079 111.422C98.1771 111.487 97.5407 111.471 96.914 111.374C96.4981 111.312 96.0921 111.196 95.7063 111.029C95.2077 110.813 94.7559 110.502 94.3763 110.114C93.6386 109.336 93.2158 108.312 93.19 107.241C93.1634 106.709 93.158 106.177 93.19 105.698C93.2272 104.714 93.3176 103.783 93.44 102.873C93.6954 101.054 94.0252 99.298 94.4295 97.553C94.8338 95.808 95.2648 94.1216 95.7382 92.4298C96.2117 90.7381 96.7224 89.0782 97.3342 87.3865L102.755 89.2591Z" fill="#E58A7B"/>
<path d="M137.694 182.391C137.204 182.379 136.716 182.311 136.241 182.189C136.224 182.185 136.207 182.177 136.195 182.164C136.182 182.151 136.173 182.135 136.17 182.117C136.166 182.099 136.168 182.081 136.175 182.064C136.182 182.048 136.194 182.034 136.21 182.024C136.396 181.901 138.056 180.827 138.689 181.109C138.755 181.139 138.812 181.186 138.853 181.246C138.894 181.306 138.918 181.377 138.923 181.449C138.949 181.567 138.944 181.69 138.909 181.806C138.874 181.921 138.809 182.026 138.721 182.109C138.422 182.321 138.059 182.421 137.694 182.391ZM136.497 182.061C137.524 182.274 138.295 182.247 138.593 181.971C138.658 181.908 138.705 181.829 138.731 181.742C138.758 181.656 138.761 181.564 138.742 181.476C138.74 181.434 138.726 181.393 138.703 181.359C138.679 181.324 138.647 181.296 138.609 181.279C138.205 181.098 137.082 181.699 136.497 182.061Z" fill="#407BFF"/>
<path d="M136.262 182.194H136.214C136.199 182.186 136.187 182.173 136.178 182.158C136.17 182.143 136.166 182.126 136.166 182.109C136.166 182.045 136.166 180.47 136.762 179.949C136.832 179.882 136.916 179.832 137.008 179.804C137.101 179.775 137.198 179.768 137.294 179.784C137.39 179.783 137.483 179.816 137.558 179.876C137.632 179.936 137.684 180.02 137.704 180.114C137.815 180.689 136.89 181.864 136.31 182.194H136.262ZM137.198 179.949C137.081 179.95 136.969 179.996 136.884 180.077C136.464 180.449 136.379 181.503 136.352 181.923C136.884 181.54 137.597 180.572 137.507 180.141C137.507 180.071 137.453 179.981 137.262 179.954L137.198 179.949Z" fill="#407BFF"/>
<path d="M159.376 182.391C158.791 182.378 158.209 182.312 157.636 182.194C157.617 182.189 157.6 182.179 157.587 182.165C157.574 182.151 157.565 182.133 157.561 182.114C157.559 182.095 157.562 182.075 157.572 182.058C157.582 182.04 157.597 182.027 157.615 182.019C157.859 181.891 160.046 180.774 160.711 181.135C160.769 181.167 160.817 181.213 160.853 181.269C160.888 181.325 160.909 181.389 160.913 181.455C160.928 181.566 160.916 181.678 160.877 181.783C160.838 181.888 160.773 181.982 160.69 182.056C160.303 182.314 159.839 182.433 159.376 182.391ZM157.945 182.061C158.657 182.184 160.073 182.359 160.562 181.923C160.623 181.866 160.67 181.795 160.698 181.716C160.727 181.638 160.737 181.554 160.727 181.471C160.726 181.435 160.716 181.399 160.698 181.368C160.679 181.337 160.652 181.312 160.62 181.295C160.184 181.061 158.716 181.683 157.945 182.061Z" fill="#407BFF"/>
<path d="M157.658 182.194C157.641 182.199 157.622 182.199 157.605 182.194C157.592 182.184 157.582 182.171 157.574 182.156C157.567 182.141 157.563 182.125 157.562 182.109C157.562 182.045 157.695 180.571 158.376 179.981C158.472 179.9 158.583 179.839 158.703 179.802C158.823 179.765 158.949 179.754 159.073 179.768C159.414 179.8 159.51 179.97 159.536 180.103C159.632 180.715 158.345 181.885 157.696 182.178L157.658 182.194ZM158.972 179.949C158.797 179.948 158.629 180.013 158.499 180.13C157.999 180.545 157.823 181.54 157.77 181.939C158.467 181.55 159.419 180.55 159.366 180.14C159.366 180.098 159.366 179.981 159.073 179.954L158.972 179.949Z" fill="#407BFF"/>
<path d="M114.608 101.266L119.854 99.9363L117.354 104.974C117.354 104.974 113.805 105.129 112.635 103.15L114.608 101.266Z" fill="#E58A7B"/>
<path d="M124.094 101.846L121.774 105.953L117.354 104.974L119.854 99.9363L124.094 101.846Z" fill="#E58A7B"/>
<path d="M118.008 62.1271L119.12 62.01C119.12 62.01 118.433 62.7389 118.008 62.1271Z" fill="#263238"/>
<path d="M103.043 113.492L102.863 115.503C102.788 115.662 102.969 115.822 103.23 115.822H125.967C126.17 115.822 126.334 115.721 126.35 115.593L126.553 113.582C126.553 113.444 126.388 113.327 126.17 113.327H103.411C103.34 113.321 103.27 113.333 103.206 113.362C103.141 113.39 103.086 113.435 103.043 113.492Z" fill="#407BFF"/>
<path d="M106.103 116.04H105.491C105.369 116.04 105.278 115.976 105.283 115.902L105.571 113.284C105.571 113.21 105.688 113.146 105.81 113.146H106.401C106.523 113.146 106.613 113.21 106.608 113.284L106.321 115.902C106.326 115.976 106.22 116.04 106.103 116.04Z" fill="#263238"/>
<path d="M124.255 116.04H123.643C123.521 116.04 123.43 115.976 123.436 115.902L123.723 113.284C123.723 113.21 123.84 113.146 123.962 113.146H124.569C124.691 113.146 124.782 113.21 124.776 113.284L124.489 115.902C124.489 115.976 124.372 116.04 124.255 116.04Z" fill="#263238"/>
<path d="M115.179 116.04H114.567C114.445 116.04 114.354 115.976 114.36 115.902L114.647 113.284C114.647 113.21 114.764 113.146 114.886 113.146H115.493C115.615 113.146 115.706 113.21 115.7 113.284L115.413 115.902C115.402 115.976 115.301 116.04 115.179 116.04Z" fill="#263238"/>
<path d="M99.3996 81.2523C97.144 81.9386 94.4414 89.6898 94.4414 89.6898L101.703 96.7814C101.703 96.7814 106.364 89.4664 105.427 86.5563C104.432 83.5239 101.969 80.4756 99.3996 81.2523Z" fill="#407BFF"/>
<path opacity="0.5" d="M99.3996 81.2523C97.144 81.9386 94.4414 89.6898 94.4414 89.6898L101.703 96.7814C101.703 96.7814 106.364 89.4664 105.427 86.5563C104.432 83.5239 101.969 80.4756 99.3996 81.2523Z" fill="white"/>
<path d="M220.068 109.283H177.742V191.61H220.068V109.283Z" fill="#407BFF"/>
<path opacity="0.6" d="M220.068 109.283H177.742V191.61H220.068V109.283Z" fill="white"/>
<path d="M138.07 109.283H95.7441V191.61H138.07V109.283Z" fill="#407BFF"/>
<path opacity="0.6" d="M138.07 109.283H95.7441V191.61H138.07V109.283Z" fill="white"/>
<path d="M221.652 109.283H218.162V191.61H221.652V109.283Z" fill="#407BFF"/>
<path opacity="0.3" d="M221.652 109.283H218.162V191.61H221.652V109.283Z" fill="black"/>
<path d="M138.575 115.46L222.732 115.46V109.283L138.575 109.283V115.46Z" fill="#407BFF"/>
<path opacity="0.3" d="M138.575 115.46L222.732 115.46V109.283L138.575 109.283V115.46Z" fill="black"/>
<path d="M139.662 109.283H136.172V191.61H139.662V109.283Z" fill="#407BFF"/>
<path opacity="0.3" d="M139.662 109.283H136.172V191.61H139.662V109.283Z" fill="black"/>
<path d="M138.374 128.978H219.908V111.194L138.374 111.194V128.978Z" fill="#407BFF"/>
<path opacity="0.3" d="M138.374 128.978H219.908V111.194L138.374 111.194V128.978Z" fill="black"/>
<path d="M220.089 194.005H196.591C194.995 194.003 193.466 193.369 192.338 192.241C191.21 191.113 190.575 189.583 190.574 187.988V113.848C190.574 112.437 190.013 111.084 189.016 110.086C188.018 109.089 186.665 108.528 185.254 108.528H178.221V107.996H185.248C186.8 107.996 188.289 108.613 189.386 109.71C190.484 110.808 191.1 112.296 191.1 113.848V187.988C191.102 189.442 191.68 190.836 192.708 191.864C193.737 192.893 195.131 193.471 196.585 193.473H220.089C220.489 193.473 220.879 193.348 221.204 193.114C221.528 192.88 221.77 192.549 221.896 192.17C222.021 191.79 222.024 191.38 221.903 190.999C221.782 190.618 221.544 190.284 221.222 190.046L221.536 189.621C221.947 189.925 222.251 190.352 222.405 190.839C222.559 191.326 222.556 191.85 222.396 192.335C222.236 192.821 221.927 193.243 221.513 193.543C221.098 193.843 220.6 194.004 220.089 194.005Z" fill="#407BFF"/>
<path opacity="0.3" d="M220.089 194.005H196.591C194.995 194.003 193.466 193.369 192.338 192.241C191.21 191.113 190.575 189.583 190.574 187.988V113.848C190.574 112.437 190.013 111.084 189.016 110.086C188.018 109.089 186.665 108.528 185.254 108.528H178.221V107.996H185.248C186.8 107.996 188.289 108.613 189.386 109.71C190.484 110.808 191.1 112.296 191.1 113.848V187.988C191.102 189.442 191.68 190.836 192.708 191.864C193.737 192.893 195.131 193.471 196.585 193.473H220.089C220.489 193.473 220.879 193.348 221.204 193.114C221.528 192.88 221.77 192.549 221.896 192.17C222.021 191.79 222.024 191.38 221.903 190.999C221.782 190.618 221.544 190.284 221.222 190.046L221.536 189.621C221.947 189.925 222.251 190.352 222.405 190.839C222.559 191.326 222.556 191.85 222.396 192.335C222.236 192.821 221.927 193.243 221.513 193.543C221.098 193.843 220.6 194.004 220.089 194.005Z" fill="black"/>
<path d="M223.514 133.575H222.982V143.858H223.514V133.575Z" fill="#407BFF"/>
<path opacity="0.3" d="M223.514 133.575H222.982V143.858H223.514V133.575Z" fill="black"/>
<path d="M223.514 127.505H222.982V130.207H223.514V127.505Z" fill="#407BFF"/>
<path opacity="0.3" d="M223.514 127.505H222.982V130.207H223.514V127.505Z" fill="black"/>
<path d="M184.551 84.7051H145.108L139.395 107.996H178.832L184.551 84.7051Z" fill="#407BFF"/>
<path opacity="0.4" d="M184.551 84.7051H145.108L139.395 107.996H178.832L184.551 84.7051Z" fill="white"/>
<path d="M140.602 107.996L140.443 109.284H124.967L125.126 107.996H140.602Z" fill="#407BFF"/>
<path opacity="0.4" d="M140.602 107.996L140.443 109.284H124.967L125.126 107.996H140.602Z" fill="white"/>
<path d="M180.045 107.996L179.886 109.284H140.443L140.603 107.996H180.045Z" fill="#407BFF"/>
<path opacity="0.5" d="M180.045 107.996L179.886 109.284H140.443L140.603 107.996H180.045Z" fill="black"/>
<path d="M185.764 84.7051H146.321L140.607 107.996H180.045L185.764 84.7051Z" fill="#407BFF"/>
<path opacity="0.5" d="M185.764 84.7051H146.321L140.607 107.996H180.045L185.764 84.7051Z" fill="black"/>
<path d="M200.994 103.416C200.994 103.416 195.19 93.4089 203.223 85.4448C203.223 85.4448 205.325 86.8174 205.293 88.6368C205.261 90.4563 203.042 90.9457 203.516 92.4779C203.989 94.01 206.091 95.5262 204.713 96.7977C203.335 98.0692 204.936 99.197 204.84 100.75C204.745 102.304 200.994 103.416 200.994 103.416Z" fill="#407BFF"/>
<path d="M201.436 104.331C201.436 104.331 203.788 93.0046 193.637 87.9878C193.637 87.9878 192.073 89.9509 192.685 91.7118C193.297 93.4727 195.547 93.1908 195.579 94.8027C195.611 96.4147 194.1 98.5001 195.808 99.2715C197.515 100.043 196.34 101.623 196.93 103.07C197.521 104.517 201.436 104.331 201.436 104.331Z" fill="#407BFF"/>
<path opacity="0.5" d="M201.436 104.331C201.436 104.331 203.788 93.0046 193.637 87.9878C193.637 87.9878 192.073 89.9509 192.685 91.7118C193.297 93.4727 195.547 93.1908 195.579 94.8027C195.611 96.4147 194.1 98.5001 195.808 99.2715C197.515 100.043 196.34 101.623 196.93 103.07C197.521 104.517 201.436 104.331 201.436 104.331Z" fill="black"/>
<path d="M192.541 101.82C192.541 101.82 192.738 109.268 200.138 109.268C207.538 109.268 207.73 101.82 207.73 101.82H192.541Z" fill="#407BFF"/>
<path opacity="0.5" d="M192.541 101.82C192.541 101.82 192.738 109.268 200.138 109.268C207.538 109.268 207.73 101.82 207.73 101.82H192.541Z" fill="black"/>
<path d="M152.763 53.0192L146.443 44.853L140.123 53.0192H143.097V63.5901H149.789V53.0192H152.763Z" fill="#407BFF"/>
<path d="M171.303 62.6218C171.303 58.6712 172.872 54.8823 175.666 52.0888C178.459 49.2952 182.248 47.7258 186.199 47.7258V51.6041C184.753 51.6034 183.321 51.8876 181.985 52.4404C180.649 52.9933 179.435 53.804 178.412 54.8261C177.389 55.8483 176.578 57.0619 176.025 58.3977C175.471 59.7335 175.186 61.1653 175.186 62.6112L171.303 62.6218Z" fill="#407BFF"/>
<path d="M171.303 62.6218H175.186C175.186 65.5425 176.347 68.3435 178.412 70.4088C180.477 72.474 183.278 73.6342 186.199 73.6342C188.131 73.6378 190.03 73.1273 191.7 72.1553L193.647 75.5441C191.382 76.8515 188.813 77.5398 186.199 77.5398C183.584 77.5398 181.015 76.8514 178.75 75.5439C176.486 74.2365 174.606 72.3559 173.298 70.0913C171.991 67.8268 171.303 65.258 171.303 62.6431V62.6218Z" fill="#407BFF"/>
<path opacity="0.5" d="M171.303 62.6218H175.186C175.186 65.5425 176.347 68.3435 178.412 70.4088C180.477 72.474 183.278 73.6342 186.199 73.6342C188.131 73.6378 190.03 73.1273 191.7 72.1553L193.647 75.5441C191.382 76.8515 188.813 77.5398 186.199 77.5398C183.584 77.5398 181.015 76.8514 178.75 75.5439C176.486 74.2365 174.606 72.3559 173.298 70.0913C171.991 67.8268 171.303 65.258 171.303 62.6431V62.6218Z" fill="white"/>
<path d="M186.199 51.6041V47.7152C189.489 47.7026 192.69 48.7793 195.303 50.7773C197.917 52.7753 199.795 55.5822 200.646 58.7599C201.496 61.9377 201.271 65.3076 200.005 68.3439C198.739 71.3801 196.503 73.9119 193.647 75.5441L191.705 72.1766C193.821 70.9724 195.477 69.1011 196.415 66.8554C197.354 64.6097 197.522 62.1163 196.892 59.7652C196.263 57.414 194.872 55.3377 192.938 53.8611C191.003 52.3845 188.633 51.5908 186.199 51.6041Z" fill="#407BFF"/>
<path opacity="0.7" d="M186.199 51.6041V47.7152C189.489 47.7026 192.69 48.7793 195.303 50.7773C197.917 52.7753 199.795 55.5822 200.646 58.7599C201.496 61.9377 201.271 65.3076 200.005 68.3439C198.739 71.3801 196.503 73.9119 193.647 75.5441L191.705 72.1766C193.821 70.9724 195.477 69.1011 196.415 66.8554C197.354 64.6097 197.522 62.1163 196.892 59.7652C196.263 57.414 194.872 55.3377 192.938 53.8611C191.003 52.3845 188.633 51.5908 186.199 51.6041Z" fill="black"/>
<path d="M172.214 26.0681H158.643C158.159 26.0681 157.695 26.2604 157.353 26.6026C157.011 26.9448 156.818 27.4089 156.818 27.8929V52.9873C156.823 53.4685 157.017 53.9285 157.358 54.2673C157.7 54.6061 158.162 54.7961 158.643 54.7961H176.013C176.496 54.7947 176.959 54.6018 177.3 54.2598C177.641 53.9177 177.832 53.4544 177.832 52.9714V31.6914L172.214 26.0681Z" fill="#263238"/>
<path d="M171.416 52.3009H160.132C159.92 52.3009 159.717 52.2168 159.568 52.0672C159.418 51.9175 159.334 51.7145 159.334 51.5029C159.335 51.2922 159.42 51.0906 159.57 50.942C159.719 50.7935 159.921 50.7102 160.132 50.7102H171.421C171.632 50.7102 171.834 50.7935 171.983 50.942C172.133 51.0906 172.218 51.2922 172.219 51.5029C172.218 51.715 172.132 51.918 171.982 52.0675C171.831 52.217 171.628 52.3009 171.416 52.3009Z" fill="#407BFF"/>
<path d="M166.096 30.1805H160.132C159.921 30.1805 159.719 30.0972 159.57 29.9487C159.42 29.8002 159.335 29.5986 159.334 29.3878C159.334 29.1762 159.418 28.9732 159.568 28.8236C159.717 28.6739 159.92 28.5898 160.132 28.5898H166.101C166.313 28.5898 166.516 28.6739 166.665 28.8236C166.815 28.9732 166.899 29.1762 166.899 29.3878C166.898 29.4926 166.877 29.5963 166.836 29.6928C166.795 29.7894 166.736 29.877 166.662 29.9506C166.587 30.0242 166.499 30.0824 166.401 30.1218C166.304 30.1613 166.2 30.1812 166.096 30.1805Z" fill="#407BFF"/>
<path d="M169.995 33.3407H160.132C159.921 33.3407 159.719 33.2573 159.57 33.1088C159.42 32.9603 159.335 32.7587 159.334 32.548C159.334 32.3364 159.418 32.1334 159.568 31.9837C159.717 31.8341 159.92 31.75 160.132 31.75H170.001C170.211 31.7514 170.413 31.8361 170.561 31.9856C170.71 32.1351 170.793 32.3373 170.793 32.548C170.793 32.6525 170.773 32.7561 170.732 32.8526C170.692 32.9491 170.633 33.0367 170.559 33.1104C170.485 33.1841 170.397 33.2424 170.3 33.2819C170.203 33.3214 170.1 33.3414 169.995 33.3407Z" fill="#407BFF"/>
<path d="M174.528 36.5006H160.132C159.921 36.5006 159.719 36.4173 159.57 36.2687C159.42 36.1202 159.335 35.9186 159.334 35.7079C159.334 35.4963 159.418 35.2933 159.568 35.1436C159.717 34.994 159.92 34.9099 160.132 34.9099H174.533C174.745 34.9099 174.948 34.994 175.097 35.1436C175.247 35.2933 175.331 35.4963 175.331 35.7079C175.331 35.8127 175.309 35.9163 175.268 36.0129C175.228 36.1094 175.168 36.197 175.094 36.2706C175.019 36.3442 174.931 36.4024 174.834 36.4419C174.737 36.4813 174.633 36.5013 174.528 36.5006Z" fill="#407BFF"/>
<path d="M174.529 39.6608H166.155C165.945 39.6608 165.743 39.5774 165.593 39.4289C165.444 39.2804 165.359 39.0788 165.357 38.8681C165.357 38.6564 165.441 38.4535 165.591 38.3038C165.741 38.1541 165.944 38.0701 166.155 38.0701H174.529C174.741 38.0701 174.944 38.1541 175.093 38.3038C175.243 38.4535 175.327 38.6564 175.327 38.8681C175.326 39.0788 175.241 39.2804 175.091 39.4289C174.942 39.5774 174.74 39.6608 174.529 39.6608Z" fill="#407BFF"/>
<path d="M162.313 39.6608H160.132C159.921 39.6608 159.719 39.5774 159.57 39.4289C159.42 39.2804 159.335 39.0788 159.334 38.8681C159.334 38.6564 159.418 38.4535 159.568 38.3038C159.717 38.1541 159.92 38.0701 160.132 38.0701H162.318C162.53 38.0701 162.733 38.1541 162.883 38.3038C163.032 38.4535 163.116 38.6564 163.116 38.8681C163.116 38.9729 163.094 39.0765 163.054 39.173C163.013 39.2696 162.954 39.3572 162.879 39.4308C162.804 39.5044 162.716 39.5626 162.619 39.602C162.522 39.6415 162.418 39.6615 162.313 39.6608Z" fill="#407BFF"/>
<path d="M174.528 42.8209H160.132C159.92 42.8209 159.717 42.7368 159.568 42.5872C159.418 42.4375 159.334 42.2346 159.334 42.0229C159.335 41.8122 159.42 41.6106 159.57 41.4621C159.719 41.3136 159.921 41.2302 160.132 41.2302H174.533C174.744 41.2302 174.946 41.3136 175.096 41.4621C175.245 41.6106 175.33 41.8122 175.331 42.0229C175.331 42.1282 175.31 42.2324 175.27 42.3295C175.23 42.4267 175.17 42.5149 175.096 42.5891C175.021 42.6632 174.932 42.7219 174.835 42.7617C174.737 42.8015 174.633 42.8216 174.528 42.8209Z" fill="#407BFF"/>
<path d="M168.968 45.9811H160.132C159.92 45.9811 159.717 45.897 159.568 45.7473C159.418 45.5977 159.334 45.3947 159.334 45.1831C159.335 44.9723 159.42 44.7707 159.57 44.6222C159.719 44.4737 159.921 44.3904 160.132 44.3904H168.974C169.185 44.3904 169.387 44.4737 169.536 44.6222C169.686 44.7707 169.77 44.9723 169.772 45.1831C169.772 45.2883 169.751 45.3925 169.711 45.4897C169.67 45.5868 169.611 45.6751 169.536 45.7492C169.462 45.8234 169.373 45.8821 169.276 45.9218C169.178 45.9616 169.074 45.9818 168.968 45.9811Z" fill="#407BFF"/>
<path d="M174.528 45.9811H172.166C171.955 45.9797 171.753 45.895 171.605 45.7455C171.456 45.596 171.373 45.3938 171.373 45.1831C171.373 44.9728 171.457 44.7712 171.605 44.6225C171.754 44.4739 171.955 44.3904 172.166 44.3904H174.528C174.739 44.3904 174.941 44.4737 175.09 44.6222C175.24 44.7707 175.324 44.9723 175.326 45.1831C175.326 45.3947 175.242 45.5977 175.092 45.7473C174.942 45.897 174.739 45.9811 174.528 45.9811Z" fill="#407BFF"/>
<path d="M174.528 49.141H160.132C159.92 49.141 159.717 49.0569 159.568 48.9072C159.418 48.7576 159.334 48.5546 159.334 48.343C159.335 48.1322 159.42 47.9306 159.57 47.7821C159.719 47.6336 159.921 47.5503 160.132 47.5503H174.533C174.744 47.5503 174.946 47.6336 175.096 47.7821C175.245 47.9306 175.33 48.1322 175.331 48.343C175.331 48.4482 175.31 48.5524 175.27 48.6496C175.23 48.7468 175.17 48.835 175.096 48.9091C175.021 48.9833 174.932 49.042 174.835 49.0818C174.737 49.1215 174.633 49.1417 174.528 49.141Z" fill="#407BFF"/>
<g opacity="0.5">
<path d="M171.416 52.3009H160.132C159.92 52.3009 159.717 52.2168 159.568 52.0672C159.418 51.9175 159.334 51.7145 159.334 51.5029C159.335 51.2922 159.42 51.0906 159.57 50.942C159.719 50.7935 159.921 50.7102 160.132 50.7102H171.421C171.632 50.7102 171.834 50.7935 171.983 50.942C172.133 51.0906 172.218 51.2922 172.219 51.5029C172.218 51.715 172.132 51.918 171.982 52.0675C171.831 52.217 171.628 52.3009 171.416 52.3009Z" fill="white"/>
</g>
<g opacity="0.5">
<path d="M166.096 30.1805H160.132C159.921 30.1805 159.719 30.0972 159.57 29.9487C159.42 29.8002 159.335 29.5986 159.334 29.3878C159.334 29.1762 159.418 28.9732 159.568 28.8236C159.717 28.6739 159.92 28.5898 160.132 28.5898H166.101C166.313 28.5898 166.516 28.6739 166.665 28.8236C166.815 28.9732 166.899 29.1762 166.899 29.3878C166.898 29.4926 166.877 29.5963 166.836 29.6928C166.795 29.7894 166.736 29.877 166.662 29.9506C166.587 30.0242 166.499 30.0824 166.401 30.1218C166.304 30.1613 166.2 30.1812 166.096 30.1805Z" fill="white"/>
</g>
<g opacity="0.5">
<path d="M169.995 33.3407H160.132C159.921 33.3407 159.719 33.2573 159.57 33.1088C159.42 32.9603 159.335 32.7587 159.334 32.548C159.334 32.3364 159.418 32.1334 159.568 31.9837C159.717 31.8341 159.92 31.75 160.132 31.75H170.001C170.211 31.7514 170.413 31.8361 170.561 31.9856C170.71 32.1351 170.793 32.3373 170.793 32.548C170.793 32.6525 170.773 32.7561 170.732 32.8526C170.692 32.9491 170.633 33.0367 170.559 33.1104C170.485 33.1841 170.397 33.2424 170.3 33.2819C170.203 33.3214 170.1 33.3414 169.995 33.3407Z" fill="white"/>
</g>
<g opacity="0.5">
<path d="M174.528 36.5006H160.132C159.921 36.5006 159.719 36.4173 159.57 36.2687C159.42 36.1202 159.335 35.9186 159.334 35.7079C159.334 35.4963 159.418 35.2933 159.568 35.1436C159.717 34.994 159.92 34.9099 160.132 34.9099H174.533C174.745 34.9099 174.948 34.994 175.097 35.1436C175.247 35.2933 175.331 35.4963 175.331 35.7079C175.331 35.8127 175.309 35.9163 175.268 36.0129C175.228 36.1094 175.168 36.197 175.094 36.2706C175.019 36.3442 174.931 36.4024 174.834 36.4419C174.737 36.4813 174.633 36.5013 174.528 36.5006Z" fill="white"/>
</g>
<g opacity="0.5">
<path d="M174.529 39.6608H166.155C165.945 39.6608 165.743 39.5774 165.593 39.4289C165.444 39.2804 165.359 39.0788 165.357 38.8681C165.357 38.6564 165.441 38.4535 165.591 38.3038C165.741 38.1541 165.944 38.0701 166.155 38.0701H174.529C174.741 38.0701 174.944 38.1541 175.093 38.3038C175.243 38.4535 175.327 38.6564 175.327 38.8681C175.326 39.0788 175.241 39.2804 175.091 39.4289C174.942 39.5774 174.74 39.6608 174.529 39.6608Z" fill="white"/>
</g>
<g opacity="0.5">
<path d="M162.313 39.6608H160.132C159.921 39.6608 159.719 39.5774 159.57 39.4289C159.42 39.2804 159.335 39.0788 159.334 38.8681C159.334 38.6564 159.418 38.4535 159.568 38.3038C159.717 38.1541 159.92 38.0701 160.132 38.0701H162.318C162.53 38.0701 162.733 38.1541 162.883 38.3038C163.032 38.4535 163.116 38.6564 163.116 38.8681C163.116 38.9729 163.094 39.0765 163.054 39.173C163.013 39.2696 162.954 39.3572 162.879 39.4308C162.804 39.5044 162.716 39.5626 162.619 39.602C162.522 39.6415 162.418 39.6615 162.313 39.6608Z" fill="white"/>
</g>
<g opacity="0.5">
<path d="M174.528 42.8209H160.132C159.92 42.8209 159.717 42.7368 159.568 42.5872C159.418 42.4375 159.334 42.2346 159.334 42.0229C159.335 41.8122 159.42 41.6106 159.57 41.4621C159.719 41.3136 159.921 41.2302 160.132 41.2302H174.533C174.744 41.2302 174.946 41.3136 175.096 41.4621C175.245 41.6106 175.33 41.8122 175.331 42.0229C175.331 42.1282 175.31 42.2324 175.27 42.3295C175.23 42.4267 175.17 42.5149 175.096 42.5891C175.021 42.6632 174.932 42.7219 174.835 42.7617C174.737 42.8015 174.633 42.8216 174.528 42.8209Z" fill="white"/>
</g>
<g opacity="0.5">
<path d="M168.968 45.9811H160.132C159.92 45.9811 159.717 45.897 159.568 45.7473C159.418 45.5977 159.334 45.3947 159.334 45.1831C159.335 44.9723 159.42 44.7707 159.57 44.6222C159.719 44.4737 159.921 44.3904 160.132 44.3904H168.974C169.185 44.3904 169.387 44.4737 169.536 44.6222C169.686 44.7707 169.77 44.9723 169.772 45.1831C169.772 45.2883 169.751 45.3925 169.711 45.4897C169.67 45.5868 169.611 45.6751 169.536 45.7492C169.462 45.8234 169.373 45.8821 169.276 45.9218C169.178 45.9616 169.074 45.9818 168.968 45.9811Z" fill="white"/>
</g>
<g opacity="0.5">
<path d="M174.528 45.9811H172.166C171.955 45.9797 171.753 45.895 171.605 45.7455C171.456 45.596 171.373 45.3938 171.373 45.1831C171.373 44.9728 171.457 44.7712 171.605 44.6225C171.754 44.4739 171.955 44.3904 172.166 44.3904H174.528C174.739 44.3904 174.941 44.4737 175.09 44.6222C175.24 44.7707 175.324 44.9723 175.326 45.1831C175.326 45.3947 175.242 45.5977 175.092 45.7473C174.942 45.897 174.739 45.9811 174.528 45.9811Z" fill="white"/>
</g>
<g opacity="0.5">
<path d="M174.528 49.141H160.132C159.92 49.141 159.717 49.0569 159.568 48.9072C159.418 48.7576 159.334 48.5546 159.334 48.343C159.335 48.1322 159.42 47.9306 159.57 47.7821C159.719 47.6336 159.921 47.5503 160.132 47.5503H174.533C174.744 47.5503 174.946 47.6336 175.096 47.7821C175.245 47.9306 175.33 48.1322 175.331 48.343C175.331 48.4482 175.31 48.5524 175.27 48.6496C175.23 48.7468 175.17 48.835 175.096 48.9091C175.021 48.9833 174.932 49.042 174.835 49.0818C174.737 49.1215 174.633 49.1417 174.528 49.141Z" fill="white"/>
</g>
<path d="M172.215 26.0681V29.8666C172.214 30.1064 172.261 30.344 172.352 30.5657C172.444 30.7874 172.578 30.9889 172.748 31.1585C172.917 31.328 173.119 31.4624 173.34 31.5539C173.562 31.6453 173.8 31.6921 174.04 31.6914H177.833L172.215 26.0681Z" fill="#407BFF"/>
<path opacity="0.5" d="M172.215 26.0681V29.8666C172.214 30.1064 172.261 30.344 172.352 30.5657C172.444 30.7874 172.578 30.9889 172.748 31.1585C172.917 31.328 173.119 31.4624 173.34 31.5539C173.562 31.6453 173.8 31.6921 174.04 31.6914H177.833L172.215 26.0681Z" fill="white"/>
</svg>
