<svg width="185" height="180" viewBox="0 0 185 180" fill="none" xmlns="http://www.w3.org/2000/svg">
<path d="M52.9966 1.42383H2.67383V84.7201H52.9966V1.42383Z" fill="#E0E0E0"/>
<path d="M51.3208 1.42383H0.998047V84.7201H51.3208V1.42383Z" fill="#EBEBEB"/>
<path d="M49.1795 3.11157H3.14453V83.028H49.1795V3.11157Z" fill="#FAFAFA"/>
<path d="M40.2103 13.4949H11.9043V72.6408H40.2103V13.4949Z" fill="#EBEBEB"/>
<path d="M11.9049 51.7134C11.8389 46.1875 16.8076 40.7938 22.2798 40.022C24.888 39.6547 27.6447 40.1706 30.1002 39.1719C34.4499 37.3891 35.8365 31.6074 40.2151 29.8906L40.4132 72.6448H11.9049V51.7134Z" fill="#E0E0E0"/>
<path d="M163.545 24.6014L159.414 24.6238L159.525 45.1752L163.656 45.1528L163.545 24.6014Z" fill="#E0E0E0"/>
<path d="M134.333 24.6523L123.637 24.7102L123.698 36.0547L134.395 35.9969L134.333 24.6523Z" fill="#EBEBEB"/>
<path d="M144.98 24.5989L134.283 24.6567L134.345 36.0013L145.041 35.9434L144.98 24.5989Z" fill="#F5F5F5"/>
<path d="M123.652 27.8561C130.758 27.9139 137.885 27.8561 144.992 27.7571C145.018 27.752 145.042 27.7379 145.059 27.7172C145.076 27.6965 145.086 27.6705 145.086 27.6436C145.086 27.6167 145.076 27.5907 145.059 27.57C145.042 27.5493 145.018 27.5352 144.992 27.5301C137.883 27.4888 130.769 27.5315 123.652 27.658C123.626 27.658 123.6 27.6685 123.582 27.6871C123.563 27.7056 123.553 27.7308 123.553 27.7571C123.553 27.7834 123.563 27.8086 123.582 27.8271C123.6 27.8457 123.626 27.8561 123.652 27.8561Z" fill="#E0E0E0"/>
<path d="M136.404 35.8126L116.971 35.9177L117.021 45.1617L136.454 45.0566L136.404 35.8126Z" fill="#EBEBEB"/>
<path d="M155.742 35.7078L136.309 35.813L136.359 45.057L155.792 44.9518L155.742 35.7078Z" fill="#F5F5F5"/>
<path d="M116.979 38.4953C129.888 38.6439 142.842 38.4953 155.751 38.3055C155.777 38.3004 155.801 38.2863 155.818 38.2656C155.836 38.2449 155.845 38.2189 155.845 38.192C155.845 38.1651 155.836 38.1391 155.818 38.1184C155.801 38.0977 155.777 38.0836 155.751 38.0785C142.842 38.0084 129.888 38.0166 116.979 38.3014C116.957 38.306 116.937 38.3182 116.923 38.3358C116.908 38.3535 116.9 38.3756 116.9 38.3984C116.9 38.4211 116.908 38.4432 116.923 38.4609C116.937 38.4785 116.957 38.4907 116.979 38.4953Z" fill="#E0E0E0"/>
<path d="M184.999 45.1685H109.713V48.4823H184.999V45.1685Z" fill="#E0E0E0"/>
<path d="M125.095 46.7612H122.037V58.0647H125.095V46.7612Z" fill="#E0E0E0"/>
<path d="M170.718 46.7612H167.66V58.0647H170.718V46.7612Z" fill="#E0E0E0"/>
<path d="M167.578 16.9369L163.447 16.9592L163.6 45.2236L167.731 45.2012L167.578 16.9369Z" fill="#EBEBEB"/>
<path d="M174.032 22.2009L167.615 22.2356L167.739 45.1393L174.156 45.1045L174.032 22.2009Z" fill="#F5F5F5"/>
<path d="M173.982 26.6222C171.845 26.7707 169.701 26.7707 167.564 26.6222C169.701 26.4736 171.845 26.4736 173.982 26.6222Z" fill="#E0E0E0"/>
<path d="M173.982 25.6607C171.845 25.8093 169.701 25.8093 167.564 25.6607C169.701 25.5122 171.845 25.5122 173.982 25.6607Z" fill="#E0E0E0"/>
<path d="M173.982 41.6522C171.845 41.8008 169.701 41.8008 167.564 41.6522C169.701 41.5036 171.845 41.5036 173.982 41.6522Z" fill="#E0E0E0"/>
<path d="M173.982 40.7071C171.845 40.8502 169.701 40.8502 167.564 40.7071C169.701 40.5586 171.845 40.5586 173.982 40.7071Z" fill="#E0E0E0"/>
<path d="M170.881 38.6066C170.819 38.6066 170.77 36.2956 170.77 33.444C170.77 30.5923 170.819 28.2854 170.881 28.2854C170.943 28.2854 170.992 30.5923 170.992 33.444C170.992 36.2956 170.935 38.6066 170.881 38.6066Z" fill="#E0E0E0"/>
<path d="M181.039 27.8315H174.053V45.1189H181.039V27.8315Z" fill="#EBEBEB"/>
<path d="M166.637 21.7734C166.641 22.0093 166.575 22.2411 166.446 22.4392C166.318 22.6374 166.134 22.7929 165.917 22.886C165.701 22.9792 165.461 23.0057 165.229 22.9622C164.997 22.9187 164.784 22.8071 164.615 22.6418C164.447 22.4764 164.332 22.2647 164.284 22.0336C164.237 21.8025 164.259 21.5625 164.348 21.3441C164.438 21.1257 164.59 20.9388 164.786 20.8073C164.982 20.6758 165.212 20.6055 165.448 20.6055C165.76 20.6044 166.06 20.7264 166.282 20.9451C166.505 21.1637 166.632 21.4614 166.637 21.7734Z" fill="#E0E0E0"/>
<path d="M165.815 25.0376H165.08V41.8504H165.815V25.0376Z" fill="#E0E0E0"/>
<path d="M60.2463 156.214C60.2463 156.214 56.4619 159.102 60.0853 162.903C60.1163 162.936 60.1534 162.961 60.1945 162.979C60.2356 162.997 60.2799 163.006 60.3247 163.006L93.3848 162.812C93.3848 162.812 96.2076 159.647 93.8636 155.999L60.2463 156.214Z" fill="#EBEBEB"/>
<path d="M86.0765 159.222C86.0765 159.259 81.9497 159.288 76.886 159.288C71.8224 159.288 67.6914 159.259 67.6914 159.222C67.6914 159.185 71.8183 159.156 76.886 159.156C81.9538 159.156 86.0765 159.185 86.0765 159.222Z" fill="#E0E0E0"/>
<path d="M80.9346 160.419C80.9346 160.456 79.0032 160.485 76.6138 160.485C74.2243 160.485 72.293 160.456 72.293 160.419C72.293 160.382 74.2285 160.349 76.6138 160.349C78.9991 160.349 80.9346 160.382 80.9346 160.419Z" fill="#E0E0E0"/>
<path d="M89.4572 162.705C89.4572 162.705 89.5315 162.325 89.6347 161.715C89.767 160.918 89.8305 160.112 89.8245 159.305C89.8165 158.496 89.7378 157.689 89.5893 156.894C89.4737 156.284 89.3747 155.912 89.3953 155.904C89.4358 155.986 89.4676 156.072 89.4902 156.16C89.5673 156.394 89.6307 156.632 89.6801 156.874C89.8571 157.671 89.9512 158.484 89.9607 159.3C89.9654 160.117 89.8866 160.931 89.7255 161.731C89.6636 162.037 89.6017 162.284 89.5521 162.449C89.5026 162.614 89.4696 162.709 89.4572 162.705Z" fill="#E0E0E0"/>
<path d="M91.9233 155.966C91.9839 156.038 92.0339 156.119 92.0719 156.205C92.1263 156.302 92.1759 156.401 92.2204 156.503C92.2829 156.637 92.3381 156.775 92.3855 156.915C92.5208 157.271 92.627 157.636 92.7033 158.009C92.7897 158.468 92.838 158.933 92.8477 159.4C92.8467 159.867 92.8053 160.334 92.7239 160.794C92.6551 161.169 92.5557 161.538 92.4268 161.896C92.3773 162.053 92.3154 162.185 92.2658 162.309C92.2242 162.411 92.176 162.51 92.1214 162.606C92.085 162.693 92.0378 162.775 91.9811 162.85C91.9563 162.85 92.142 162.482 92.3401 161.872C92.5951 161.071 92.7205 160.235 92.7115 159.395C92.706 158.936 92.6618 158.478 92.5795 158.025C92.5112 157.656 92.4175 157.292 92.2989 156.936C92.109 156.321 91.9027 155.966 91.9233 155.966Z" fill="#E0E0E0"/>
<path d="M65.4642 162.751C65.4031 162.683 65.3504 162.608 65.3074 162.528C65.2508 162.44 65.1998 162.349 65.1547 162.255C65.0892 162.132 65.03 162.005 64.9772 161.876C64.8374 161.538 64.7296 161.189 64.6553 160.832C64.5685 160.393 64.5257 159.946 64.5274 159.499C64.5372 159.051 64.5926 158.606 64.6925 158.17C64.7759 157.815 64.8934 157.47 65.0433 157.138C65.0977 157.009 65.1597 156.884 65.229 156.762C65.275 156.667 65.3288 156.576 65.3899 156.49C65.4848 156.346 65.5426 156.267 65.5509 156.275C65.5591 156.284 65.361 156.606 65.1382 157.175C65.0034 157.507 64.897 157.849 64.8204 158.199C64.7309 158.628 64.6798 159.064 64.6677 159.503C64.6684 159.94 64.7071 160.376 64.7833 160.807C64.8533 161.157 64.9499 161.502 65.0721 161.838C65.2867 162.412 65.4848 162.738 65.4642 162.751Z" fill="#E0E0E0"/>
<path d="M61.8939 163.555C61.8256 163.482 61.7685 163.398 61.7247 163.308C61.6655 163.203 61.6144 163.094 61.5721 162.982C61.4971 162.848 61.4296 162.71 61.3698 162.569C61.2105 162.192 61.0849 161.801 60.9943 161.401C60.7635 160.421 60.741 159.403 60.9283 158.413C61.001 158.009 61.1101 157.613 61.2543 157.229C61.3079 157.064 61.3781 156.923 61.4317 156.796C61.4794 156.687 61.5332 156.581 61.5927 156.478C61.6364 156.386 61.6889 156.299 61.7495 156.218C61.7743 156.218 61.5638 156.61 61.3368 157.262C61.209 157.644 61.1111 158.036 61.0438 158.434C60.9664 158.921 60.9305 159.414 60.9365 159.907C60.9581 160.806 61.1325 161.695 61.4524 162.536C61.6876 163.176 61.9146 163.543 61.8939 163.555Z" fill="#E0E0E0"/>
<path d="M92.1719 172.886V179.208H79.9316V172.886H92.1719Z" fill="#EBEBEB"/>
<path d="M52.6369 176.101C52.6369 176.159 52.6369 176.212 52.6369 176.27C52.6959 177.193 53.1057 178.059 53.7825 178.69C54.4593 179.32 55.3517 179.668 56.2767 179.662H92.7333V179.204H84.0669C83.2285 179.204 82.4245 178.871 81.8317 178.278C81.2388 177.686 80.9058 176.881 80.9058 176.043C80.9058 175.205 81.2388 174.401 81.8317 173.808C82.4245 173.215 83.2285 172.882 84.0669 172.882H92.7333V172.209L56.2685 172.333C55.7804 172.334 55.2976 172.434 54.8486 172.625C54.3997 172.817 53.9938 173.097 53.6551 173.448C53.3164 173.8 53.0517 174.216 52.8768 174.671C52.7019 175.127 52.6203 175.613 52.6369 176.101Z" fill="#E0E0E0"/>
<path d="M92.1712 176.126C92.1712 176.163 89.6538 176.196 86.5505 176.196C83.4471 176.196 80.9297 176.163 80.9297 176.126C80.9297 176.088 83.4471 176.06 86.5505 176.06C89.6538 176.06 92.1712 176.093 92.1712 176.126Z" fill="#E0E0E0"/>
<path d="M91.9945 177.554C91.9945 177.591 89.6133 177.62 86.675 177.62C83.7367 177.62 81.3555 177.591 81.3555 177.554C81.3555 177.516 83.7367 177.488 86.675 177.488C89.6133 177.488 91.9945 177.516 91.9945 177.554Z" fill="#E0E0E0"/>
<path d="M92.1735 178.858C92.1735 178.895 90.0316 178.924 87.3904 178.924C84.7493 178.924 82.6074 178.895 82.6074 178.858C82.6074 178.82 84.7493 178.792 87.3904 178.792C90.0316 178.792 92.1735 178.82 92.1735 178.858Z" fill="#E0E0E0"/>
<path d="M92.1725 174.846C92.1725 174.883 89.6964 174.912 86.6673 174.912C83.6382 174.912 81.1621 174.883 81.1621 174.846C81.1621 174.809 83.6382 174.78 86.6673 174.78C89.6964 174.78 92.1725 174.809 92.1725 174.846Z" fill="#E0E0E0"/>
<path d="M91.9946 173.567C91.9946 173.604 89.7991 173.633 87.0961 173.633C84.393 173.633 82.1934 173.604 82.1934 173.567C82.1934 173.53 84.3888 173.501 87.0961 173.501C89.8033 173.501 91.9946 173.53 91.9946 173.567Z" fill="#E0E0E0"/>
<path d="M57.0573 172.436C56.7741 172.721 56.5146 173.029 56.2814 173.356C55.728 174.155 55.4367 175.106 55.4478 176.078C55.4589 177.049 55.7718 177.993 56.3433 178.779C56.5861 179.1 56.8524 179.402 57.1398 179.683C57.0461 179.628 56.9589 179.563 56.8798 179.489C56.6538 179.294 56.4491 179.075 56.269 178.837C55.662 178.044 55.3279 177.076 55.3167 176.078C55.3055 175.08 55.6179 174.105 56.2071 173.299C56.3805 173.056 56.5797 172.833 56.8014 172.634C56.8777 172.557 56.9637 172.491 57.0573 172.436Z" fill="#F5F5F5"/>
<path d="M55.824 172.3C55.5444 172.59 55.2852 172.899 55.0481 173.224C54.4968 174.023 54.2071 174.974 54.2189 175.944C54.2308 176.915 54.5436 177.858 55.1142 178.643C55.3555 178.965 55.6218 179.267 55.9106 179.547C55.8144 179.494 55.7256 179.429 55.6465 179.353C55.4205 179.158 55.2158 178.939 55.0357 178.701C54.4288 177.91 54.0943 176.944 54.0824 175.947C54.0705 174.95 54.3818 173.976 54.9697 173.171C55.1432 172.927 55.3424 172.703 55.564 172.502C55.6423 172.425 55.7296 172.357 55.824 172.3Z" fill="#F5F5F5"/>
<path d="M80.5929 172.436C80.3133 172.723 80.0554 173.031 79.8211 173.356C79.2677 174.155 78.9764 175.106 78.9875 176.078C78.9986 177.049 79.3116 177.993 79.883 178.779C80.1259 179.1 80.3921 179.402 80.6795 179.683C80.584 179.629 80.4953 179.564 80.4154 179.489C80.1909 179.293 79.9876 179.075 79.8088 178.837C79.1993 178.046 78.8623 177.079 78.8481 176.081C78.834 175.082 79.1435 174.106 79.7304 173.299C79.9025 173.055 80.1018 172.832 80.3246 172.634C80.4062 172.558 80.4962 172.492 80.5929 172.436Z" fill="#F5F5F5"/>
<path d="M79.363 172.3C79.0806 172.587 78.8212 172.896 78.5872 173.224C78.0336 174.022 77.7421 174.973 77.7531 175.944C77.7642 176.915 78.0774 177.858 78.6491 178.643C78.8919 178.964 79.1581 179.266 79.4456 179.547C79.3519 179.492 79.2647 179.427 79.1856 179.353C78.9586 179.159 78.7537 178.94 78.5748 178.701C77.9678 177.91 77.6333 176.944 77.6214 175.947C77.6095 174.95 77.9208 173.976 78.5088 173.171C78.6822 172.927 78.8815 172.703 79.103 172.502C79.1803 172.424 79.2678 172.356 79.363 172.3Z" fill="#F5F5F5"/>
<path d="M61.2048 177.013L61.1677 174.438C61.1807 174.214 61.1513 173.99 61.081 173.777C61.0435 173.671 60.9781 173.577 60.8918 173.504C60.8054 173.431 60.7012 173.383 60.5899 173.365C60.268 173.22 59.7645 173.489 59.5417 173.86C59.3442 174.25 59.2572 174.687 59.29 175.123C59.2817 175.801 59.3148 176.479 59.389 177.153C59.4029 177.477 59.4844 177.795 59.6284 178.086C59.6925 178.236 59.8026 178.363 59.9429 178.447C60.0831 178.531 60.2464 178.569 60.4093 178.554C60.5723 178.54 60.7265 178.475 60.8501 178.368C60.9737 178.261 61.0603 178.117 61.0975 177.958C61.1932 177.653 61.2296 177.332 61.2048 177.013Z" fill="#F5F5F5"/>
<path d="M75.3637 176.249C75.3637 176.287 72.7267 176.32 69.4789 176.32C66.231 176.32 63.5898 176.287 63.5898 176.249C63.5898 176.212 66.2269 176.183 69.4789 176.183C72.7308 176.183 75.3637 176.212 75.3637 176.249Z" fill="#F5F5F5"/>
<path d="M58.7613 172.184L58.6953 166.188H61.9597L62.0711 172.184H58.7613Z" fill="#F5F5F5"/>
<path d="M61.7657 167.253C61.2626 167.322 60.7543 167.345 60.247 167.323C59.741 167.345 59.2341 167.322 58.7324 167.253C59.2344 167.187 59.7412 167.165 60.247 167.187C60.7542 167.165 61.2623 167.187 61.7657 167.253Z" fill="#E0E0E0"/>
<path d="M61.7657 168.181C61.2623 168.248 60.7542 168.27 60.247 168.247C59.7412 168.27 59.2344 168.248 58.7324 168.181C59.2344 168.115 59.7412 168.093 60.247 168.115C60.7542 168.093 61.2623 168.115 61.7657 168.181Z" fill="#E0E0E0"/>
<path d="M61.7657 169.106C61.2623 169.172 60.7542 169.194 60.247 169.172C59.7412 169.194 59.2344 169.172 58.7324 169.106C59.2344 169.04 59.7412 169.018 60.247 169.04C60.7542 169.018 61.2623 169.04 61.7657 169.106Z" fill="#E0E0E0"/>
<path d="M61.7657 170.03C61.2623 170.096 60.7542 170.118 60.247 170.096C59.7412 170.119 59.2344 170.096 58.7324 170.03C59.2344 169.964 59.7412 169.942 60.247 169.964C60.7542 169.942 61.2623 169.964 61.7657 170.03Z" fill="#E0E0E0"/>
<path d="M61.7657 170.955C61.2626 171.024 60.7543 171.047 60.247 171.025C59.741 171.047 59.2341 171.024 58.7324 170.955C59.2346 170.891 59.7412 170.869 60.247 170.889C60.7542 170.869 61.2621 170.891 61.7657 170.955Z" fill="#E0E0E0"/>
<path d="M58.5215 166.027H94.6974C95.1127 168.168 95.1127 170.369 94.6974 172.51H58.6824V172.061H60.8862C61.0225 172.061 61.1576 172.034 61.2835 171.981C61.4095 171.929 61.5238 171.852 61.6201 171.756C61.7163 171.659 61.7925 171.544 61.8443 171.418C61.8962 171.292 61.9226 171.157 61.922 171.021V167.434C61.9226 167.298 61.8962 167.163 61.8443 167.037C61.7925 166.911 61.7163 166.796 61.6201 166.699C61.5238 166.603 61.4095 166.526 61.2835 166.474C61.1576 166.421 61.0225 166.394 60.8862 166.394H58.5297L58.5215 166.027Z" fill="#EBEBEB"/>
<path d="M67.0725 169.275H67.675C67.6966 169.269 67.7195 169.269 67.741 169.275C67.7616 169.285 67.7787 169.301 67.7904 169.321C67.8022 169.341 67.8079 169.363 67.8071 169.386C67.8093 169.4 67.8093 169.414 67.8071 169.428C67.8071 169.477 67.7823 169.527 67.7658 169.58C67.6936 169.834 67.5636 170.067 67.3861 170.261C67.3242 170.339 67.2468 170.403 67.1586 170.449C67.0705 170.496 66.9737 170.523 66.8744 170.53H66.8001C66.7136 170.514 66.6318 170.479 66.5604 170.427C66.489 170.376 66.43 170.309 66.3874 170.232C66.2617 170.012 66.2002 169.76 66.21 169.506C66.2112 169.33 66.2347 169.156 66.2801 168.986C66.3463 168.73 66.469 168.491 66.6392 168.289C66.703 168.203 66.785 168.133 66.8792 168.083C66.9734 168.033 67.0774 168.005 67.1839 168C67.2623 167.999 67.3398 168.016 67.4109 168.049C67.582 168.145 67.7093 168.303 67.7658 168.491C67.7697 168.511 67.7697 168.532 67.7658 168.553C67.7714 168.573 67.7714 168.594 67.7658 168.615C67.7548 168.635 67.7387 168.651 67.7191 168.663C67.6995 168.674 67.6772 168.681 67.6544 168.681C67.641 168.685 67.6265 168.685 67.6131 168.681C67.5939 168.675 67.5763 168.666 67.5619 168.652C67.5475 168.638 67.5367 168.621 67.5306 168.602C67.5125 168.551 67.4875 168.502 67.4563 168.458C67.4263 168.408 67.3841 168.366 67.3336 168.336C67.2831 168.306 67.2259 168.29 67.1674 168.289C67.0954 168.289 67.0257 168.314 66.9693 168.359C66.8178 168.484 66.7035 168.648 66.6392 168.833C66.5481 169.049 66.5004 169.28 66.4989 169.514C66.4929 169.699 66.5281 169.882 66.602 170.051C66.6245 170.117 66.6664 170.175 66.7224 170.217C66.7784 170.259 66.8458 170.283 66.9157 170.286C66.9744 170.279 67.0309 170.26 67.0815 170.229C67.132 170.199 67.1754 170.157 67.2087 170.109C67.3471 169.945 67.4522 169.756 67.5182 169.551C67.2417 169.551 67.1055 169.551 67.0849 169.551C67.0466 169.551 67.0098 169.536 66.9827 169.509C66.9557 169.482 66.9404 169.445 66.9404 169.407V169.362C66.9517 169.336 66.9701 169.314 66.9936 169.299C67.017 169.283 67.0445 169.275 67.0725 169.275Z" fill="#FAFAFA"/>
<path d="M69.129 168.095C69.129 168.095 69.129 168.124 69.129 168.14C69.1537 168.226 69.2913 168.972 69.5417 170.381C69.5437 170.392 69.5437 170.403 69.5417 170.414C69.5473 170.436 69.5473 170.458 69.5417 170.48C69.5321 170.5 69.5168 170.517 69.4978 170.529C69.4788 170.541 69.4567 170.547 69.4344 170.546H69.4137C69.3902 170.542 69.3684 170.531 69.3508 170.515C69.3333 170.499 69.3207 170.478 69.3147 170.455L69.1702 169.708H68.4274L68.0684 170.46C68.0712 170.468 68.0712 170.476 68.0684 170.484C68.056 170.503 68.0395 170.518 68.0201 170.529C68.0007 170.539 67.9791 170.545 67.957 170.546C67.9322 170.546 67.9079 170.538 67.8868 170.526C67.8689 170.513 67.8544 170.496 67.8443 170.477C67.8343 170.457 67.829 170.436 67.829 170.414C67.8252 170.402 67.8252 170.389 67.829 170.377C67.8497 170.323 67.8868 170.245 67.9404 170.133C68.4604 168.994 68.7658 168.326 68.8731 168.12C68.8831 168.094 68.9001 168.072 68.922 168.056C68.9439 168.04 68.9698 168.031 68.9969 168.029C69.0228 168.027 69.0486 168.033 69.0717 168.044C69.0949 168.056 69.1146 168.073 69.129 168.095ZM68.968 168.598L68.5553 169.444H69.1249L68.968 168.598Z" fill="#FAFAFA"/>
<path d="M71.1454 170.546H70.0559C70.0311 170.545 70.0069 170.538 69.9857 170.525C69.9669 170.508 69.9517 170.487 69.9411 170.463C69.9305 170.44 69.9246 170.415 69.9238 170.389C69.9238 170.348 70.0229 169.601 70.2251 168.161C70.2231 168.144 70.2231 168.128 70.2251 168.111C70.2339 168.087 70.2504 168.066 70.2719 168.052C70.2935 168.038 70.319 168.031 70.3448 168.033C70.3638 168.028 70.3835 168.028 70.4025 168.033C70.4242 168.043 70.4423 168.06 70.4548 168.08C70.4672 168.101 70.4735 168.124 70.4727 168.148L70.4025 168.759C70.2787 169.714 70.2127 170.217 70.2045 170.269H71.133C71.1562 170.265 71.18 170.265 71.2031 170.269C71.2281 170.279 71.2495 170.296 71.2643 170.318C71.2791 170.34 71.2866 170.367 71.2857 170.393C71.2876 170.407 71.2876 170.421 71.2857 170.435C71.2776 170.466 71.2595 170.494 71.2342 170.514C71.2089 170.534 71.1777 170.545 71.1454 170.546Z" fill="#FAFAFA"/>
<path d="M72.6356 168.095C72.6356 168.095 72.6356 168.124 72.6356 168.14C72.6603 168.227 72.8048 168.966 73.0483 170.381C73.0501 170.392 73.0501 170.403 73.0483 170.414C73.0472 170.438 73.0401 170.46 73.0276 170.48C73.018 170.5 73.0028 170.517 72.9838 170.529C72.9647 170.541 72.9427 170.547 72.9203 170.546H72.8997C72.8766 170.541 72.8552 170.53 72.8378 170.514C72.8203 170.498 72.8075 170.478 72.8007 170.455L72.714 169.708H71.9712L71.6121 170.46C71.6139 170.468 71.6139 170.476 71.6121 170.484C71.5985 170.502 71.5811 170.517 71.5611 170.528C71.5412 170.539 71.5192 170.545 71.4966 170.546C71.4719 170.545 71.4478 170.538 71.4264 170.526C71.4086 170.513 71.394 170.496 71.3839 170.477C71.3739 170.457 71.3686 170.436 71.3686 170.414C71.3667 170.402 71.3667 170.389 71.3686 170.377C71.3893 170.323 71.4264 170.245 71.4801 170.133C72 168.994 72.3054 168.326 72.4127 168.12C72.4227 168.094 72.4397 168.072 72.4616 168.056C72.4835 168.04 72.5095 168.031 72.5365 168.029C72.5567 168.032 72.5759 168.04 72.593 168.051C72.61 168.063 72.6245 168.078 72.6356 168.095ZM72.4746 168.598L72.0619 169.444H72.6315L72.4746 168.598Z" fill="#FAFAFA"/>
<path d="M74.3654 169.382L74.5635 169.927C74.6749 170.241 74.7327 170.402 74.7327 170.418C74.7391 170.44 74.7391 170.463 74.7327 170.484C74.7209 170.503 74.7045 170.519 74.685 170.529C74.6655 170.54 74.6436 170.546 74.6213 170.546C74.5718 170.546 74.5388 170.517 74.514 170.459C74.4892 170.402 74.514 170.418 74.4934 170.402C74.4356 170.265 74.3365 169.989 74.2004 169.634L73.5855 170.459C73.5731 170.479 73.5562 170.496 73.5361 170.508C73.516 170.521 73.4933 170.528 73.4699 170.53C73.4481 170.534 73.4257 170.534 73.4039 170.53C73.3841 170.519 73.3678 170.502 73.3569 170.483C73.3459 170.463 73.3407 170.441 73.342 170.418V170.41C73.3562 170.37 73.3787 170.333 73.408 170.303C73.6143 170.034 73.8207 169.717 74.0931 169.349C74.0683 169.275 74.0435 169.209 74.0188 169.143C73.7877 168.52 73.668 168.198 73.668 168.177C73.6642 168.155 73.6642 168.133 73.668 168.111C73.6783 168.092 73.6937 168.075 73.7126 168.064C73.7315 168.052 73.7531 168.046 73.7753 168.045C73.8001 168.045 73.8244 168.053 73.8455 168.066C73.8666 168.079 73.8837 168.097 73.895 168.119L74.2623 169.102L74.9886 168.111C75.0011 168.092 75.0182 168.076 75.0384 168.065C75.0586 168.055 75.0812 168.049 75.1041 168.049C75.1232 168.045 75.1429 168.045 75.1619 168.049C75.1831 168.06 75.2007 168.076 75.2125 168.097C75.2242 168.118 75.2296 168.141 75.2279 168.165C75.2336 168.185 75.2336 168.206 75.2279 168.227L74.3654 169.382Z" fill="#FAFAFA"/>
<path d="M77.0725 168.037C77.0915 168.033 77.1112 168.033 77.1303 168.037C77.1516 168.047 77.1696 168.062 77.1821 168.082C77.1945 168.102 77.2009 168.125 77.2004 168.148C77.023 169.56 76.9239 170.319 76.9074 170.435C76.8765 170.648 76.7959 170.852 76.6722 171.029C76.5547 171.194 76.3817 171.312 76.1848 171.36C75.9878 171.409 75.78 171.385 75.5992 171.293C75.437 171.226 75.3019 171.107 75.2154 170.955C75.2117 170.934 75.2117 170.913 75.2154 170.893C75.2094 170.871 75.2094 170.848 75.2154 170.827C75.2257 170.806 75.2417 170.789 75.2614 170.777C75.2812 170.765 75.3039 170.76 75.3268 170.761C75.3462 170.762 75.3651 170.767 75.3822 170.777C75.3993 170.786 75.4142 170.799 75.4259 170.814C75.4866 170.908 75.5688 170.986 75.6658 171.041C75.7627 171.096 75.8715 171.127 75.983 171.132C76.0637 171.128 76.1424 171.107 76.2138 171.069C76.2851 171.031 76.3472 170.978 76.3957 170.913C76.5442 170.715 76.6278 170.476 76.6351 170.228C76.5937 170.295 76.5389 170.353 76.4741 170.397C76.3624 170.482 76.226 170.527 76.0862 170.525H76.0119C75.9252 170.51 75.8431 170.475 75.7717 170.424C75.7002 170.372 75.6413 170.306 75.5992 170.228C75.4703 170.008 75.4073 169.756 75.4176 169.502C75.4176 169.37 75.4176 169.234 75.4176 169.089C75.4369 168.866 75.4864 168.553 75.5662 168.148C75.5627 168.136 75.5627 168.123 75.5662 168.111C75.5726 168.085 75.5875 168.062 75.6084 168.046C75.6293 168.029 75.6551 168.02 75.6818 168.02C75.7039 168.022 75.7252 168.029 75.7437 168.041C75.7635 168.05 75.7804 168.064 75.7921 168.083C75.8039 168.101 75.81 168.122 75.8097 168.144C75.798 168.31 75.7774 168.476 75.7478 168.639C75.7052 168.892 75.6776 169.147 75.6652 169.403C75.6573 169.604 75.6895 169.805 75.7602 169.993C75.8345 170.17 75.9417 170.257 76.0821 170.257H76.1275C76.2645 170.214 76.3807 170.121 76.4535 169.997C76.5838 169.817 76.6752 169.612 76.7217 169.395L76.8868 168.157C76.8845 168.139 76.8845 168.121 76.8868 168.103C76.8918 168.084 76.9013 168.067 76.9145 168.053C76.9276 168.038 76.944 168.028 76.9623 168.021C76.9806 168.015 77.0002 168.013 77.0193 168.015C77.0385 168.018 77.0568 168.025 77.0725 168.037Z" fill="#FAFAFA"/>
<path d="M93.3495 172.593C93.3123 172.593 93.2793 171.107 93.2793 169.271C93.2793 167.434 93.3123 165.945 93.3495 165.945C93.3866 165.945 93.4155 167.434 93.4155 169.271C93.4155 171.107 93.3783 172.593 93.3495 172.593Z" fill="#F5F5F5"/>
<path d="M63.734 172.593C63.6969 172.593 63.668 171.107 63.668 169.271C63.668 167.434 63.6969 165.945 63.734 165.945C63.7711 165.945 63.8 167.434 63.8 169.271C63.8 171.107 63.7711 172.593 63.734 172.593Z" fill="#E0E0E0"/>
<path d="M93.9723 172.593C93.9393 172.593 93.9062 171.107 93.9062 169.271C93.9062 167.434 93.9393 165.945 93.9723 165.945C94.0053 165.945 94.0424 167.434 94.0424 169.271C94.0424 171.107 94.0094 172.593 93.9723 172.593Z" fill="#F5F5F5"/>
<path d="M63.1444 172.593C63.1072 172.593 63.0742 171.107 63.0742 169.271C63.0742 167.434 63.1072 165.945 63.1444 165.945C63.1815 165.945 63.2104 167.434 63.2104 169.271C63.2104 171.107 63.1774 172.593 63.1444 172.593Z" fill="#E0E0E0"/>
<path d="M84.5655 167.038L88.387 170.121L88.42 170.15H88.3787L87.8711 170.286L84.6439 171.132L81.718 169.894L80.8926 169.539L80.6739 169.444L80.6202 169.42L80.678 169.444L80.8967 169.531L81.7221 169.878L84.6522 171.116L87.8794 170.266L88.3911 170.129V170.166L84.5738 167.075" fill="#E0E0E0"/>
<path d="M88.0363 169.634L88.2467 169.828L88.5274 169.77L88.4036 170.026L88.548 170.274L88.2632 170.241L88.0734 170.451L88.0198 170.171L87.7598 170.055L88.0074 169.919L88.0363 169.634Z" fill="#E0E0E0"/>
<path d="M84.3721 170.847L84.5124 170.967L84.694 170.918L84.6238 171.091L84.727 171.244L84.5413 171.231L84.4258 171.376L84.3804 171.198L84.207 171.132L84.3638 171.033L84.3721 170.847Z" fill="#E0E0E0"/>
<path d="M80.3184 169.188L80.5453 169.201L80.6857 169.023L80.7434 169.242L80.958 169.32L80.7641 169.44L80.7558 169.671L80.5784 169.527L80.3638 169.589L80.4463 169.374L80.3184 169.188Z" fill="#E0E0E0"/>
<path d="M89.7539 167.088L89.9809 167.104L90.1212 166.923L90.179 167.145L90.3894 167.224L90.1996 167.344L90.1914 167.571L90.0139 167.426L89.7952 167.488L89.8818 167.278L89.7539 167.088Z" fill="#E0E0E0"/>
<path d="M84.3809 166.939L84.5253 166.947L84.6161 166.836L84.6532 166.976L84.7894 167.026L84.6656 167.104L84.6615 167.249L84.5501 167.154L84.4097 167.195L84.4634 167.059L84.3809 166.939Z" fill="#E0E0E0"/>
<path d="M90.0725 167.249C90.0725 167.249 88.8344 167.22 87.3116 167.158C85.7888 167.096 84.5508 167.026 84.5508 167.009C84.5508 166.993 85.7888 167.038 87.3116 167.104C88.8344 167.17 90.0725 167.232 90.0725 167.249Z" fill="#E0E0E0"/>
<path d="M91.4622 165.974H54.7704C54.2917 164.884 54.172 163.848 54.7704 162.92H91.4622C91.6898 163.397 91.8079 163.918 91.8079 164.447C91.8079 164.975 91.6898 165.497 91.4622 165.974Z" fill="#E0E0E0"/>
<path d="M82.2482 163.791H62.3691V164.901H82.2482V163.791Z" fill="#EBEBEB"/>
<path d="M56.1786 165.99C56.0574 165.888 55.959 165.761 55.8897 165.619C55.7027 165.285 55.5887 164.916 55.5553 164.536C55.5218 164.155 55.5697 163.771 55.6958 163.411C55.7367 163.258 55.813 163.116 55.9186 162.998C55.8825 163.149 55.8384 163.298 55.7866 163.444C55.6906 163.797 55.6571 164.164 55.6875 164.529C55.7235 164.893 55.8197 165.249 55.9723 165.581C56.0531 165.711 56.1222 165.848 56.1786 165.99Z" fill="#E0E0E0"/>
<path d="M56.9751 165.99C56.8511 165.89 56.7522 165.763 56.6862 165.619C56.4968 165.287 56.3813 164.918 56.3478 164.537C56.3153 164.156 56.3631 163.772 56.4881 163.411C56.533 163.259 56.6088 163.119 56.711 162.998C56.6772 163.149 56.6331 163.298 56.5789 163.444C56.4845 163.797 56.4524 164.165 56.484 164.529C56.5159 164.894 56.6123 165.25 56.7687 165.581C56.8456 165.713 56.9145 165.85 56.9751 165.99Z" fill="#E0E0E0"/>
<path d="M89.9766 165.916C90.1231 165.432 90.2105 164.931 90.2366 164.426C90.2151 163.919 90.1334 163.416 89.9931 162.928C90.2626 163.38 90.3932 163.901 90.3686 164.426C90.3896 164.951 90.2531 165.47 89.9766 165.916Z" fill="#F5F5F5"/>
<path d="M89.2965 165.912C89.2552 165.912 89.4079 165.255 89.4038 164.446C89.3997 163.638 89.2511 162.994 89.2924 162.986C89.6197 163.933 89.6197 164.964 89.2924 165.912H89.2965Z" fill="#F5F5F5"/>
<path d="M112.434 151.74L60.8771 151.707C59.4031 151.706 57.9435 151.416 56.5818 150.851C55.2202 150.286 53.983 149.459 52.9411 148.416C51.8991 147.374 51.0727 146.136 50.5091 144.774C49.9455 143.412 49.6557 141.952 49.6563 140.478L49.681 11.2292C49.6816 9.75398 49.9726 8.29335 50.5377 6.93068C51.1027 5.568 51.9306 4.32996 52.9741 3.28723C54.0176 2.24451 55.2562 1.41753 56.6193 0.853504C57.9824 0.28948 59.4432 -0.000541286 60.9184 7.58402e-07L112.471 0.0330163C115.448 0.0352035 118.303 1.2191 120.407 3.32462C122.512 5.43014 123.695 8.28506 123.696 11.2622L123.667 140.511C123.667 141.986 123.377 143.446 122.812 144.809C122.247 146.172 121.42 147.41 120.377 148.453C119.334 149.495 118.095 150.322 116.732 150.886C115.369 151.451 113.909 151.741 112.434 151.74Z" fill="#263238"/>
<path d="M112.303 4.6427H102.308C101.982 4.64912 101.66 4.71997 101.361 4.85116C101.062 4.98236 100.792 5.17132 100.567 5.40718C100.341 5.64304 100.165 5.92115 100.047 6.22551C99.9294 6.52988 99.873 6.8545 99.8813 7.18071V8.9924C99.8889 9.31861 99.8321 9.64312 99.7139 9.94727C99.5957 10.2514 99.4186 10.5292 99.1927 10.7647C98.9668 11.0002 98.6966 11.1887 98.3977 11.3194C98.0987 11.4501 97.7768 11.5204 97.4506 11.5263H77.9677C77.6415 11.5199 77.3197 11.449 77.0209 11.3178C76.7221 11.1866 76.4522 10.9977 76.2267 10.7618C76.0012 10.5259 75.8246 10.2478 75.7069 9.94347C75.5892 9.6391 75.5329 9.31448 75.5411 8.98827V7.17246C75.5516 6.8459 75.4973 6.5205 75.3814 6.21502C75.2655 5.90954 75.0903 5.63001 74.8659 5.39255C74.6415 5.15509 74.3723 4.96439 74.0738 4.83145C73.7754 4.6985 73.4536 4.62594 73.1269 4.61794H69.6108H60.8661C59.8324 4.61577 58.8085 4.81735 57.8528 5.21115C56.8971 5.60496 56.0284 6.18326 55.2964 6.91301C54.5643 7.64275 53.9833 8.50963 53.5865 9.46407C53.1897 10.4185 52.9849 11.4418 52.9838 12.4755L52.959 138.633C52.9558 139.665 53.1562 140.687 53.5488 141.641C53.9414 142.596 54.5184 143.463 55.2468 144.194C55.9753 144.924 56.8407 145.504 57.7937 145.9C58.7466 146.295 59.7683 146.499 60.8 146.499L112.254 146.528C113.287 146.528 114.309 146.325 115.264 145.931C116.219 145.536 117.086 144.957 117.817 144.227C118.547 143.497 119.127 142.63 119.523 141.676C119.919 140.722 120.123 139.699 120.123 138.666L120.173 12.5085C120.173 11.4752 119.969 10.452 119.574 9.49742C119.178 8.54283 118.599 7.67553 117.868 6.94507C117.137 6.21461 116.269 5.63531 115.314 5.24026C114.36 4.84521 113.336 4.64216 112.303 4.6427Z" fill="white"/>
<path d="M120.739 24.6869C120.739 24.7447 105.548 24.7942 86.8166 24.7942C68.0848 24.7942 52.9062 24.7323 52.9062 24.6869C52.9062 24.6415 68.093 24.5796 86.8372 24.5796C105.581 24.5796 120.739 24.625 120.739 24.6869Z" fill="#263238"/>
<path d="M59.9832 20.011C59.9333 20.0115 59.885 19.9939 59.847 19.9615L57.8868 18.2406C57.8636 18.2218 57.8452 18.1978 57.833 18.1706C57.8208 18.1433 57.8152 18.1136 57.8166 18.0838C57.8163 18.0537 57.8228 18.024 57.8357 17.9968C57.8486 17.9696 57.8674 17.9457 57.8909 17.9269L59.8512 16.2762C59.8934 16.242 59.9475 16.2258 60.0016 16.2312C60.0556 16.2367 60.1054 16.2632 60.14 16.3051C60.1575 16.3258 60.1706 16.3498 60.1787 16.3756C60.1867 16.4015 60.1894 16.4287 60.1867 16.4556C60.184 16.4826 60.176 16.5087 60.163 16.5325C60.15 16.5562 60.1324 16.5771 60.1112 16.594L58.3407 18.0714L60.1153 19.6313C60.1359 19.6487 60.1528 19.6701 60.1651 19.6942C60.1773 19.7182 60.1846 19.7445 60.1865 19.7714C60.1884 19.7983 60.185 19.8254 60.1763 19.8509C60.1676 19.8765 60.1539 19.9 60.1359 19.9202C60.1193 19.9462 60.0968 19.9679 60.0703 19.9837C60.0438 19.9994 60.014 20.0088 59.9832 20.011Z" fill="#263238"/>
<path d="M102.757 17.9723C102.757 18.0342 96.373 18.0796 88.4948 18.0796C80.6167 18.0796 74.2324 18.0342 74.2324 17.9723C74.2324 17.9104 80.6167 17.865 88.4948 17.865C96.373 17.865 102.757 17.9145 102.757 17.9723Z" fill="#263238"/>
<path d="M111.019 17.9601C111.019 18.107 110.975 18.2507 110.894 18.3728C110.812 18.495 110.696 18.5902 110.56 18.6464C110.425 18.7026 110.275 18.7173 110.131 18.6887C109.987 18.66 109.855 18.5893 109.751 18.4854C109.647 18.3815 109.576 18.2491 109.547 18.105C109.519 17.9609 109.534 17.8116 109.59 17.6758C109.646 17.5401 109.741 17.4241 109.863 17.3425C109.985 17.2609 110.129 17.2173 110.276 17.2173C110.473 17.2173 110.662 17.2955 110.801 17.4349C110.941 17.5742 111.019 17.7631 111.019 17.9601Z" fill="#263238"/>
<path d="M113.156 17.9601C113.156 18.1072 113.112 18.251 113.03 18.3732C112.948 18.4955 112.832 18.5907 112.696 18.6468C112.56 18.7029 112.411 18.7174 112.266 18.6884C112.122 18.6594 111.99 18.5882 111.886 18.4839C111.782 18.3796 111.712 18.2469 111.684 18.1025C111.656 17.9581 111.671 17.8086 111.728 17.673C111.785 17.5373 111.88 17.4216 112.003 17.3405C112.126 17.2593 112.27 17.2165 112.417 17.2173C112.514 17.2173 112.611 17.2365 112.701 17.2739C112.79 17.3113 112.872 17.3661 112.941 17.4351C113.009 17.5041 113.064 17.5861 113.101 17.6762C113.137 17.7663 113.156 17.8628 113.156 17.9601Z" fill="#263238"/>
<path d="M115.298 17.9601C115.298 18.107 115.255 18.2507 115.173 18.3728C115.091 18.495 114.975 18.5902 114.84 18.6464C114.704 18.7026 114.555 18.7173 114.41 18.6887C114.266 18.66 114.134 18.5893 114.03 18.4854C113.926 18.3815 113.855 18.2491 113.827 18.105C113.798 17.9609 113.813 17.8116 113.869 17.6758C113.925 17.5401 114.02 17.4241 114.143 17.3425C114.265 17.2609 114.408 17.2173 114.555 17.2173C114.752 17.2173 114.941 17.2955 115.081 17.4349C115.22 17.5742 115.298 17.7631 115.298 17.9601Z" fill="#263238"/>
<path d="M80.3769 52.4028C80.3769 52.8815 80.1788 53.1704 79.8487 53.1704C79.7708 53.1779 79.6928 53.1575 79.6286 53.113C79.5644 53.0684 79.518 53.0024 79.4979 52.9269C79.4426 53.007 79.3677 53.0715 79.2802 53.1142C79.1927 53.1568 79.0957 53.1762 78.9985 53.1704C78.8212 53.1568 78.6556 53.0767 78.5347 52.9463C78.4139 52.8158 78.3468 52.6446 78.3468 52.4667C78.3468 52.2889 78.4139 52.1176 78.5347 51.9872C78.6556 51.8567 78.8212 51.7767 78.9985 51.7631C79.0856 51.7585 79.1726 51.774 79.2527 51.8084C79.3328 51.8427 79.404 51.895 79.4607 51.9612V51.7796H79.7661V52.7205C79.7661 52.8608 79.8322 52.9104 79.9106 52.9104C80.0591 52.9104 80.1417 52.7329 80.1417 52.4069C80.1439 52.2703 80.1175 52.1348 80.064 52.0091C80.0105 51.8835 79.9311 51.7704 79.8311 51.6774C79.7311 51.5844 79.6126 51.5135 79.4834 51.4692C79.3542 51.425 79.2171 51.4084 79.0811 51.4206C78.9378 51.4077 78.7935 51.4249 78.6572 51.4709C78.521 51.5169 78.3958 51.5908 78.2897 51.6879C78.1835 51.7849 78.0988 51.903 78.0408 52.0346C77.9828 52.1662 77.9529 52.3085 77.9529 52.4523C77.9529 52.5961 77.9828 52.7383 78.0408 52.8699C78.0988 53.0015 78.1835 53.1196 78.2897 53.2167C78.3958 53.3137 78.521 53.3876 78.6572 53.4337C78.7935 53.4797 78.9378 53.4968 79.0811 53.484C79.2671 53.4848 79.4507 53.4424 79.6176 53.3602L79.6918 53.583C79.5004 53.6709 79.2917 53.7146 79.0811 53.711C78.9094 53.7208 78.7376 53.6955 78.5761 53.6365C78.4146 53.5776 78.2668 53.4864 78.1419 53.3683C78.0169 53.2503 77.9173 53.108 77.8492 52.9501C77.7812 52.7922 77.7461 52.6221 77.7461 52.4502C77.7461 52.2783 77.7812 52.1082 77.8492 51.9503C77.9173 51.7925 78.0169 51.6501 78.1419 51.5321C78.2668 51.4141 78.4146 51.3228 78.5761 51.2639C78.7376 51.205 78.9094 51.1796 79.0811 51.1895C79.2475 51.1769 79.4147 51.199 79.5721 51.2544C79.7295 51.3098 79.8737 51.3974 79.9955 51.5114C80.1174 51.6255 80.2142 51.7636 80.2798 51.917C80.3455 52.0705 80.3785 52.2359 80.3769 52.4028ZM79.4649 52.4647C79.46 52.3843 79.4318 52.307 79.3836 52.2425C79.3354 52.178 79.2694 52.129 79.1937 52.1015C79.118 52.074 79.0359 52.0693 78.9576 52.0879C78.8792 52.1065 78.808 52.1476 78.7527 52.2062C78.6975 52.2648 78.6606 52.3383 78.6465 52.4176C78.6325 52.4969 78.642 52.5786 78.6738 52.6525C78.7057 52.7265 78.7585 52.7896 78.8257 52.8339C78.8929 52.8783 78.9716 52.902 79.0522 52.9021C79.1085 52.9022 79.1643 52.8908 79.216 52.8685C79.2678 52.8462 79.3144 52.8136 79.3531 52.7726C79.3918 52.7316 79.4216 52.6832 79.4409 52.6302C79.4601 52.5772 79.4682 52.5209 79.4649 52.4647Z" fill="#263238"/>
<path d="M95.9725 53.1539C95.9725 53.2117 92.9847 53.2612 89.3035 53.2612C85.6224 53.2612 82.6387 53.2117 82.6387 53.1539C82.6387 53.0961 85.6224 53.0425 89.3035 53.0425C92.9847 53.0425 95.9725 53.092 95.9725 53.1539Z" fill="#263238"/>
<path d="M69.6066 72.0135C68.9987 72.1566 68.3658 72.1566 67.7578 72.0135C68.3658 71.8705 68.9987 71.8705 69.6066 72.0135Z" fill="#263238"/>
<path d="M73.9522 76.4869C73.9522 76.5447 71.7237 76.5942 68.9711 76.5942C66.2185 76.5942 63.9941 76.5447 63.9941 76.4869C63.9941 76.4292 66.2226 76.3796 68.9711 76.3796C71.7196 76.3796 73.9522 76.4292 73.9522 76.4869Z" fill="#263238"/>
<path d="M89.6347 72.0135C88.6952 72.1221 87.7487 72.158 86.8037 72.1208C85.8586 72.158 84.9122 72.1221 83.9727 72.0135C84.9123 71.9072 85.8586 71.8714 86.8037 71.9062C87.7487 71.8714 88.695 71.9072 89.6347 72.0135Z" fill="#263238"/>
<path d="M91.3088 76.2477C91.3088 76.3055 89.0266 76.355 86.2121 76.355C83.3976 76.355 81.1113 76.3055 81.1113 76.2477C81.1113 76.1899 83.3935 76.1404 86.2121 76.1404C89.0307 76.1404 91.3088 76.1899 91.3088 76.2477Z" fill="#263238"/>
<path d="M108.123 72.0754C106.853 72.1817 105.579 72.2175 104.306 72.1827C103.032 72.2175 101.758 72.1817 100.488 72.0754C101.758 71.9667 103.032 71.9308 104.306 71.9681C105.579 71.9308 106.854 71.9667 108.123 72.0754Z" fill="#263238"/>
<path d="M109.549 76.4252C109.549 76.4871 107.35 76.5325 104.634 76.5325C101.919 76.5325 99.7148 76.4871 99.7148 76.4252C99.7148 76.3633 101.914 76.3179 104.634 76.3179C107.354 76.3179 109.549 76.3674 109.549 76.4252Z" fill="#263238"/>
<path d="M95.2917 80.6592H67.3199C66.7387 80.6592 66.2676 81.1303 66.2676 81.7115V88.2526C66.2676 88.8338 66.7387 89.3049 67.3199 89.3049H95.2917C95.8729 89.3049 96.344 88.8338 96.344 88.2526V81.7115C96.344 81.1303 95.8729 80.6592 95.2917 80.6592Z" fill="#407BFF"/>
<path d="M90.6578 85.1285C90.6578 85.1863 86.7868 85.2358 82.0121 85.2358C77.2373 85.2358 73.3457 85.1863 73.3457 85.1285C73.3457 85.0708 77.2167 85.0212 82.0121 85.0212C86.8075 85.0212 90.6578 85.0666 90.6578 85.1285Z" fill="white"/>
<path d="M106.448 80.4983H99.812C99.2719 80.4983 98.834 80.9362 98.834 81.4764V88.3806C98.834 88.9207 99.2719 89.3586 99.812 89.3586H106.448C106.988 89.3586 107.426 88.9207 107.426 88.3806V81.4764C107.426 80.9362 106.988 80.4983 106.448 80.4983Z" fill="#EBEBEB"/>
<path d="M102.199 84.4766H104.052L103.206 85.7765L102.199 84.4766Z" fill="#263238"/>
<path d="M96.3449 95.7345C96.3449 95.7964 91.5619 95.8418 85.6647 95.8418C79.7674 95.8418 74.9844 95.7964 74.9844 95.7345C74.9844 95.6726 79.7674 95.6272 85.6647 95.6272C91.5619 95.6272 96.3449 95.6767 96.3449 95.7345Z" fill="#E0E0E0"/>
<path d="M102.559 99.7582C102.559 99.8159 95.5437 99.8655 86.8773 99.8655C78.211 99.8655 71.1953 99.8159 71.1953 99.7582C71.1953 99.7004 78.211 99.6509 86.8773 99.6509C95.5437 99.6509 102.559 99.7004 102.559 99.7582Z" fill="#E0E0E0"/>
<path d="M120.584 106.733C120.584 106.794 105.542 106.844 86.9836 106.844C68.4252 106.844 53.3828 106.794 53.3828 106.733C53.3828 106.671 68.4252 106.625 86.9836 106.625C105.542 106.625 120.584 106.675 120.584 106.733Z" fill="#263238"/>
<path d="M87.6534 114.561C87.5471 113.296 87.5113 112.026 87.5461 110.756C87.5113 109.488 87.5471 108.22 87.6534 106.956C87.7621 108.219 87.798 109.488 87.7607 110.756C87.7979 112.026 87.7621 113.296 87.6534 114.561Z" fill="#263238"/>
<path d="M83.4813 58.7869L81.5499 63.2191H80.7246L78.7891 58.7869H79.6805L81.1537 62.2039L82.6435 58.7869H83.4813Z" fill="#407BFF"/>
<path d="M86.7873 61.783H84.1337C84.1826 62.0318 84.3218 62.2537 84.5244 62.406C84.7271 62.5584 84.9789 62.6305 85.2315 62.6084C85.4014 62.6153 85.571 62.5862 85.7289 62.5229C85.8868 62.4596 86.0295 62.3635 86.1476 62.2411L86.5603 62.7281C86.3878 62.9144 86.1763 63.0602 85.9409 63.1551C85.7054 63.2499 85.4519 63.2916 85.1984 63.277C84.0677 63.277 83.3331 62.5506 83.3331 61.5437C83.3248 61.3113 83.3649 61.0798 83.4509 60.8638C83.5369 60.6479 83.6669 60.4521 83.8326 60.2891C83.9983 60.1261 84.1962 59.9993 84.4136 59.9169C84.631 59.8345 84.8631 59.7982 85.0953 59.8104C85.3251 59.802 85.5541 59.8416 85.7677 59.9269C85.9813 60.0121 86.1747 60.141 86.3356 60.3054C86.4964 60.4697 86.6212 60.6659 86.7018 60.8813C86.7824 61.0966 86.8172 61.3265 86.8038 61.5561C86.7997 61.6097 86.7914 61.7046 86.7873 61.783ZM84.1296 61.2548H86.0445C86.0214 61.0213 85.9097 60.8056 85.7324 60.652C85.555 60.4985 85.3255 60.4188 85.0911 60.4294C84.8564 60.4206 84.6269 60.5007 84.4487 60.6537C84.2704 60.8068 84.1565 61.0214 84.1296 61.2548Z" fill="#407BFF"/>
<path d="M89.5141 59.8105V60.5616C89.4543 60.5493 89.3935 60.5424 89.3325 60.5409C89.1954 60.5304 89.0577 60.5507 88.9294 60.6003C88.8012 60.65 88.6857 60.7278 88.5915 60.8279C88.4973 60.9281 88.4267 61.0481 88.385 61.1791C88.3432 61.3101 88.3314 61.4488 88.3503 61.585V63.2358H87.5703V59.8559H88.3255V60.347C88.4611 60.1632 88.6416 60.0174 88.8497 59.9235C89.0578 59.8295 89.2866 59.7906 89.5141 59.8105Z" fill="#407BFF"/>
<path d="M90.0801 58.8076C90.0805 58.7426 90.0942 58.6783 90.1203 58.6188C90.1464 58.5592 90.1843 58.5056 90.2318 58.4612C90.2793 58.4168 90.3354 58.3825 90.3966 58.3605C90.4577 58.3384 90.5228 58.3291 90.5877 58.333C90.6509 58.328 90.7146 58.3359 90.7747 58.3562C90.8348 58.3766 90.8901 58.409 90.9372 58.4515C90.9844 58.494 91.0223 58.5457 91.0488 58.6034C91.0753 58.6611 91.0897 58.7235 91.0912 58.787C91.0797 58.9132 91.0215 59.0305 90.928 59.116C90.8345 59.2015 90.7123 59.2489 90.5856 59.2489C90.4589 59.2489 90.3368 59.2015 90.2432 59.116C90.1497 59.0305 90.0915 58.9132 90.0801 58.787V58.8076ZM90.1874 59.8393H90.9797V63.2192H90.1874V59.8393Z" fill="#407BFF"/>
<path d="M93.3477 58.4775C93.6002 58.4664 93.8503 58.531 94.0658 58.6632L93.8429 59.2575C93.7146 59.1676 93.5621 59.1187 93.4055 59.1171C93.0753 59.1171 92.9061 59.2987 92.9061 59.6619V59.8641H93.8388V60.4955H92.935V63.2192H92.1096V60.4955H91.5566V59.8641H92.1096V59.6495C92.0964 59.4864 92.1199 59.3225 92.1784 59.1697C92.237 59.017 92.329 58.8793 92.4478 58.7668C92.5666 58.6544 92.7091 58.57 92.8649 58.5199C93.0206 58.4698 93.1856 58.4553 93.3477 58.4775ZM94.7673 58.8076C94.7678 58.7426 94.7814 58.6783 94.8075 58.6188C94.8336 58.5592 94.8716 58.5056 94.9191 58.4612C94.9666 58.4168 95.0226 58.3825 95.0838 58.3605C95.145 58.3384 95.21 58.3291 95.2749 58.333C95.3382 58.328 95.4018 58.3359 95.4619 58.3562C95.522 58.3766 95.5773 58.409 95.6245 58.4515C95.6716 58.494 95.7096 58.5457 95.736 58.6034C95.7625 58.6611 95.7769 58.7235 95.7784 58.787C95.767 58.9132 95.7088 59.0305 95.6153 59.116C95.5217 59.2015 95.3996 59.2489 95.2729 59.2489C95.1462 59.2489 95.024 59.2015 94.9305 59.116C94.8369 59.0305 94.7787 58.9132 94.7673 58.787V58.8076ZM94.8746 59.8393H95.667V63.2192H94.8746V59.8393Z" fill="#407BFF"/>
<path d="M99.853 61.7831H97.2036C97.2516 62.0315 97.39 62.2533 97.5919 62.4058C97.7939 62.5582 98.0451 62.6304 98.2972 62.6085C98.4676 62.6139 98.6373 62.5841 98.7957 62.5209C98.9541 62.4577 99.0977 62.3625 99.2175 62.2412L99.6302 62.7281C99.4581 62.9149 99.2466 63.061 99.0111 63.1559C98.7755 63.2508 98.5218 63.2922 98.2683 63.277C97.1376 63.277 96.403 62.5507 96.403 61.5437C96.3966 61.3137 96.4375 61.0848 96.5233 60.8712C96.609 60.6577 96.7377 60.464 96.9014 60.3023C97.0651 60.1405 97.2602 60.0142 97.4748 59.931C97.6893 59.8478 97.9187 59.8096 98.1487 59.8187C98.3785 59.8103 98.6075 59.8499 98.8211 59.9352C99.0347 60.0204 99.2281 60.1493 99.389 60.3137C99.5498 60.4781 99.6745 60.6742 99.7552 60.8896C99.8358 61.1049 99.8705 61.3348 99.8572 61.5644C99.8654 61.6098 99.8613 61.7047 99.853 61.7831ZM97.1954 61.2548H99.1267C99.1027 61.021 98.9902 60.8052 98.8121 60.6518C98.6341 60.4983 98.4041 60.4188 98.1693 60.4295C97.9327 60.4184 97.7007 60.4974 97.52 60.6506C97.3392 60.8037 97.2233 61.0196 97.1954 61.2548Z" fill="#407BFF"/>
<path d="M103.937 58.5229V63.2193H103.178V62.7819C103.039 62.9407 102.867 63.0662 102.673 63.1491C102.48 63.232 102.27 63.2701 102.059 63.2606C101.601 63.2606 101.161 63.0784 100.837 62.7541C100.512 62.4298 100.33 61.99 100.33 61.5314C100.33 61.0728 100.512 60.633 100.837 60.3087C101.161 59.9845 101.601 59.8023 102.059 59.8023C102.262 59.7932 102.465 59.8291 102.653 59.9076C102.84 59.9861 103.008 60.1052 103.145 60.2562V58.5229H103.937ZM103.157 61.5273C103.147 61.3305 103.08 61.1409 102.964 60.982C102.847 60.823 102.687 60.7017 102.502 60.633C102.318 60.5644 102.117 60.5513 101.925 60.5956C101.733 60.6399 101.558 60.7395 101.422 60.8821C101.286 61.0247 101.195 61.204 101.16 61.3979C101.125 61.5917 101.148 61.7916 101.225 61.9727C101.303 62.1539 101.432 62.3083 101.596 62.4169C101.76 62.5255 101.953 62.5835 102.15 62.5838C102.287 62.5864 102.423 62.5604 102.55 62.5076C102.677 62.4547 102.791 62.3762 102.886 62.2768C102.98 62.1775 103.053 62.0596 103.1 61.9306C103.147 61.8015 103.166 61.6642 103.157 61.5273Z" fill="#407BFF"/>
<path d="M72.5527 64.3293C74.4695 64.3293 76.0234 62.7754 76.0234 60.8586C76.0234 58.9418 74.4695 57.3879 72.5527 57.3879C70.6359 57.3879 69.082 58.9418 69.082 60.8586C69.082 62.7754 70.6359 64.3293 72.5527 64.3293Z" fill="#407BFF"/>
<path d="M70.9863 60.9247L71.432 60.479L72.2945 61.2424L73.9824 59.6165L74.3951 60.0622L72.2285 62.1008L70.9863 60.9247Z" fill="white"/>
<path d="M87.4727 146.511H60.2355C58.2873 146.505 56.4212 145.725 55.0471 144.344C53.6729 142.963 52.903 141.093 52.9063 139.145V114.561H87.4934L87.4727 146.511Z" fill="#EBEBEB"/>
<path d="M112.592 146.577L87.1582 146.511V114.561H120.247V138.939C120.205 140.954 119.384 142.875 117.957 144.299C116.53 145.723 114.608 146.539 112.592 146.577Z" fill="#455A64"/>
<path d="M120.584 114.561C120.584 114.619 105.542 114.669 86.9875 114.669C68.4332 114.669 53.3867 114.619 53.3867 114.561C53.3867 114.504 68.4249 114.454 86.9875 114.454C105.55 114.454 120.584 114.504 120.584 114.561Z" fill="#263238"/>
<path d="M86.4862 133.268C86.4862 133.268 86.449 133.268 86.3913 133.21L86.1313 133.021L85.1491 132.286L81.5587 129.546C80.8035 128.972 79.9699 128.308 79.0826 127.66C78.8457 127.522 78.5749 127.454 78.3011 127.464C78.0274 127.473 77.7619 127.56 77.5351 127.713C77.3063 127.903 77.0912 128.109 76.8913 128.328L76.2351 128.993L70.4575 134.828L70.1026 135.187L70.0366 135.253L69.9623 135.2L66.6278 132.723L65.0431 131.539C64.8267 131.334 64.554 131.198 64.2599 131.149C63.9659 131.099 63.6638 131.139 63.3924 131.263C63.1377 131.41 62.9067 131.595 62.7073 131.811L62.0553 132.418L60.8172 133.574L58.5887 135.637L55.3574 138.617L54.4701 139.417L54.239 139.624C54.1867 139.67 54.1578 139.691 54.1523 139.685C54.1723 139.656 54.1959 139.63 54.2225 139.607L54.4412 139.388L55.2996 138.563L58.4855 135.534L60.6975 133.446L61.9356 132.286L62.5835 131.675L62.9136 131.366C63.037 131.254 63.1761 131.161 63.3263 131.089C63.6274 130.944 63.9661 130.895 64.2961 130.949C64.4632 130.975 64.6249 131.028 64.7748 131.106C64.9213 131.184 65.0596 131.276 65.1875 131.382L66.7764 132.558L70.115 135.034H69.9747L70.3296 134.671L76.1072 128.848L76.7675 128.188C76.9755 127.96 77.2004 127.747 77.4401 127.553C77.6974 127.382 77.9973 127.287 78.3059 127.278C78.6145 127.269 78.9193 127.347 79.1858 127.503C80.102 128.184 80.9026 128.836 81.6619 129.422L85.211 132.216L86.1726 132.983L86.416 133.19C86.4427 133.213 86.4662 133.239 86.4862 133.268Z" fill="#263238"/>
<path d="M72.9866 122.538C72.9619 122.538 72.9866 122.274 72.8504 121.816C72.6727 121.175 72.2864 120.612 71.7527 120.215C71.3877 119.942 70.9635 119.76 70.5146 119.683C70.0043 119.592 69.479 119.637 68.9918 119.815C68.4524 120.012 67.984 120.365 67.6465 120.83C67.2821 121.326 67.0856 121.925 67.0856 122.54C67.0856 123.156 67.2821 123.755 67.6465 124.251C67.9703 124.69 68.4103 125.031 68.9171 125.233C69.4238 125.436 69.9771 125.493 70.5146 125.398C70.9642 125.321 71.3887 125.137 71.7527 124.862C72.2864 124.465 72.6727 123.902 72.8504 123.261C72.9742 122.807 72.9619 122.538 72.9866 122.538C72.9929 122.603 72.9929 122.668 72.9866 122.732C72.9871 122.917 72.9663 123.101 72.9247 123.281C72.7713 123.957 72.3876 124.558 71.8394 124.981C71.4616 125.278 71.0188 125.48 70.5476 125.572C69.9751 125.683 69.3828 125.629 68.8394 125.417C68.296 125.205 67.8237 124.844 67.4773 124.375C67.0836 123.844 66.8711 123.201 66.8711 122.54C66.8711 121.88 67.0836 121.237 67.4773 120.706C67.8406 120.211 68.3436 119.836 68.9217 119.629C69.4431 119.444 70.0043 119.402 70.5476 119.505C71.0183 119.599 71.4606 119.801 71.8394 120.095C72.3868 120.52 72.7703 121.12 72.9247 121.796C72.9663 121.977 72.9871 122.162 72.9866 122.349C72.9928 122.412 72.9928 122.475 72.9866 122.538Z" fill="#263238"/>
<path d="M119.223 132.245C119.223 132.245 119.19 132.245 119.132 132.187L118.885 132.001L117.935 131.263L114.473 128.518C113.747 127.945 112.946 127.28 112.092 126.632C111.863 126.495 111.599 126.429 111.333 126.443C111.067 126.457 110.811 126.55 110.598 126.711C110.381 126.903 110.175 127.109 109.983 127.326L109.356 127.99L103.83 133.805L103.483 134.164L103.417 134.234L103.339 134.176L100.124 131.7L98.597 130.516C98.3914 130.309 98.1257 130.173 97.838 130.127C97.5503 130.082 97.2555 130.128 96.9958 130.26C96.7537 130.415 96.5331 130.601 96.3396 130.813L95.7164 131.42L94.5238 132.571L92.382 134.634L89.2827 137.606L88.4326 138.406L88.2056 138.609C88.1561 138.654 88.1272 138.679 88.123 138.675C88.143 138.646 88.1666 138.619 88.1932 138.596C88.2469 138.534 88.317 138.464 88.3995 138.377L89.2249 137.552L92.2788 134.531L94.4 132.447C94.7838 132.076 95.1758 131.688 95.5844 131.287L96.2034 130.681L96.5212 130.371C96.6341 130.261 96.7619 130.166 96.9008 130.091C97.1918 129.937 97.5246 129.88 97.85 129.93C98.0144 129.954 98.1734 130.005 98.3205 130.082C98.4663 130.162 98.6045 130.254 98.7332 130.359L100.26 131.539L103.479 134.015H103.335L103.681 133.652L109.219 127.85L109.851 127.19C110.052 126.964 110.267 126.752 110.495 126.554C110.739 126.374 111.03 126.271 111.333 126.257C111.636 126.243 111.936 126.319 112.195 126.476C113.082 127.157 113.846 127.809 114.58 128.395L117.997 131.193L118.918 131.964L119.153 132.167L119.223 132.245Z" fill="#263238"/>
<path d="M105.192 121.618C105.171 121.618 105.192 121.354 105.06 120.9C104.884 120.258 104.497 119.694 103.962 119.299C103.653 119.068 103.302 118.901 102.929 118.807C102.555 118.713 102.167 118.694 101.786 118.751C101.405 118.807 101.039 118.939 100.709 119.138C100.379 119.337 100.092 119.599 99.8641 119.91C99.4997 120.406 99.3032 121.005 99.3032 121.62C99.3032 122.236 99.4997 122.835 99.8641 123.331C100.201 123.795 100.67 124.147 101.209 124.342C101.666 124.511 102.158 124.561 102.639 124.489C103.12 124.417 103.575 124.224 103.962 123.929C104.497 123.533 104.883 122.969 105.06 122.328C105.116 122.09 105.161 121.849 105.192 121.606C105.203 121.67 105.203 121.736 105.192 121.8C105.192 121.984 105.172 122.169 105.13 122.349C104.988 123.025 104.616 123.632 104.078 124.065C103.699 124.359 103.256 124.559 102.786 124.651C102.243 124.759 101.681 124.716 101.16 124.528C100.582 124.322 100.079 123.949 99.7156 123.455C99.3219 122.924 99.1094 122.281 99.1094 121.62C99.1094 120.96 99.3219 120.316 99.7156 119.786C100.062 119.317 100.534 118.955 101.078 118.743C101.621 118.532 102.213 118.478 102.786 118.589C103.256 118.681 103.699 118.882 104.078 119.175C104.626 119.6 105.01 120.203 105.163 120.879C105.205 121.059 105.225 121.244 105.225 121.428C105.225 121.493 105.214 121.557 105.192 121.618Z" fill="#263238"/>
<path d="M87.6652 49.6956C92.9438 49.6956 97.223 45.4165 97.223 40.1379C97.223 34.8592 92.9438 30.5801 87.6652 30.5801C82.3866 30.5801 78.1074 34.8592 78.1074 40.1379C78.1074 45.4165 82.3866 49.6956 87.6652 49.6956Z" fill="#F5F5F5"/>
<path d="M93.8434 47.3885C93.6803 45.8724 92.9534 44.473 91.8067 43.4678C90.6601 42.4626 89.1776 41.925 87.6532 41.9617C84.2609 41.9617 81.9375 44.5286 81.4629 47.4092C81.4629 47.4092 83.5593 49.7285 87.6532 49.6954C91.747 49.6624 93.8434 47.3885 93.8434 47.3885Z" fill="#E0E0E0"/>
<path d="M91.5541 39.2037C91.8852 37.1549 90.4928 35.2256 88.444 34.8945C86.3951 34.5634 84.4658 35.9558 84.1347 38.0046C83.8036 40.0535 85.196 41.9828 87.2449 42.3139C89.2937 42.645 91.223 41.2526 91.5541 39.2037Z" fill="#E0E0E0"/>
<path d="M93.7995 47.0625C93.6825 46.4511 93.487 45.8575 93.2176 45.2962C92.8701 44.6686 92.4114 44.1093 91.864 43.6455C91.1452 43.0385 90.3175 42.5735 89.4251 42.2754L89.227 42.2135L89.4086 42.1186C90.0386 41.7762 90.556 41.2588 90.8984 40.6288C91.1964 40.0736 91.3453 39.4507 91.3307 38.8207C91.3161 38.1908 91.1384 37.5754 90.8149 37.0347C90.4914 36.494 90.0333 36.0463 89.4852 35.7355C88.9371 35.4247 88.3178 35.2613 87.6877 35.2613C87.0576 35.2613 86.4383 35.4247 85.8902 35.7355C85.3421 36.0463 84.8839 36.494 84.5605 37.0347C84.237 37.5754 84.0593 38.1908 84.0447 38.8207C84.03 39.4507 84.179 40.0736 84.477 40.6288C84.6505 40.9507 84.8702 41.2454 85.129 41.5037C85.38 41.7452 85.6568 41.9583 85.9544 42.1392L86.1195 42.2424L85.9296 42.296C85.0161 42.5366 84.1766 43.0003 83.4865 43.6455C82.9629 44.1416 82.5299 44.7254 82.2072 45.3705C81.9991 45.7843 81.8305 46.2168 81.7037 46.6622C81.6584 46.8149 81.6295 46.9346 81.6088 47.013C81.6034 47.0542 81.5923 47.0945 81.5758 47.1327C81.5685 47.0918 81.5685 47.0498 81.5758 47.0089C81.5758 46.9263 81.6088 46.8025 81.646 46.6499C81.7542 46.1944 81.9105 45.7517 82.1123 45.3293C82.4253 44.6621 82.8558 44.0568 83.3834 43.5423C84.0784 42.8723 84.9294 42.3858 85.8595 42.1268L85.8347 42.2836C85.5232 42.0998 85.2326 41.8825 84.9681 41.6357C84.6934 41.3659 84.4598 41.0572 84.2748 40.7196C83.8666 39.9581 83.726 39.0816 83.8757 38.2307C84.0254 37.3798 84.4566 36.6038 85.1001 36.0273C85.8051 35.3922 86.7203 35.0408 87.6691 35.0408C88.6179 35.0408 89.5331 35.3922 90.2381 36.0273C90.6984 36.441 91.0519 36.9599 91.2684 37.5397C91.4848 38.1195 91.5579 38.743 91.4812 39.3572C91.4046 39.9713 91.1806 40.5578 90.8284 41.0667C90.4761 41.5755 90.006 41.9916 89.4581 42.2795V42.1186C90.3689 42.43 91.21 42.9165 91.9342 43.5506C92.4885 44.0341 92.9463 44.6179 93.2837 45.2715C93.4016 45.5135 93.4996 45.7647 93.5767 46.0226C93.6408 46.2094 93.6892 46.4013 93.7211 46.5962C93.7418 46.7406 93.7583 46.8603 93.7707 46.9594C93.783 47.0584 93.8078 47.0625 93.7995 47.0625Z" fill="#263238"/>
<path d="M97.2226 40.1378C97.2097 40.0865 97.2028 40.0339 97.202 39.981C97.202 39.8695 97.202 39.721 97.169 39.5311L97.1483 39.1969C97.1483 39.0731 97.1071 38.941 97.0823 38.7842C97.0395 38.4508 96.9719 38.1212 96.8801 37.7979C96.656 36.9073 96.2984 36.0558 95.8195 35.2722C94.686 33.3804 92.9291 31.9424 90.8506 31.2051C88.772 30.4678 86.5017 30.4774 84.4294 31.232C84.0047 31.385 83.5911 31.5671 83.1913 31.7768C82.7876 31.9979 82.4 32.2476 82.0317 32.5237C81.6543 32.8037 81.2958 33.1084 80.9587 33.4358C80.6253 33.7808 80.3151 34.1475 80.0302 34.5335C79.4437 35.3236 78.9881 36.2028 78.6807 37.1376C78.0314 39.0751 78.0314 41.1715 78.6807 43.1091C78.9881 44.0451 79.4437 44.9257 80.0302 45.7173C80.3162 46.1025 80.6263 46.4691 80.9587 46.815C81.2958 47.1424 81.6543 47.4471 82.0317 47.7271C82.401 48.0018 82.7885 48.2514 83.1913 48.474C85.0901 49.475 87.2687 49.8134 89.3816 49.4356C90.7083 49.1915 91.9683 48.6693 93.0786 47.9032C94.189 47.1371 95.1245 46.1446 95.8236 44.9909C96.3032 44.2063 96.6609 43.3533 96.8842 42.4612C96.976 42.1393 97.0436 41.811 97.0864 41.479C97.1112 41.3346 97.136 41.2025 97.1525 41.0663L97.1731 40.732C97.1731 40.5422 97.1979 40.3936 97.2061 40.2781C97.2071 40.2266 97.214 40.1753 97.2268 40.1254C97.2322 40.1775 97.2322 40.2301 97.2268 40.2822C97.2268 40.3936 97.2268 40.5463 97.2268 40.7362C97.2268 40.8393 97.2268 40.9508 97.2268 41.0704C97.2268 41.1901 97.1896 41.3304 97.1731 41.4831C97.1362 41.8188 97.0742 42.1513 96.9874 42.4777C96.7732 43.3825 96.4225 44.2494 95.9474 45.0487C95.252 46.2259 94.3144 47.242 93.1967 48.0296C92.079 48.8171 90.8067 49.3583 89.4642 49.6171C87.7656 49.935 86.013 49.7926 84.3881 49.2045C83.9553 49.0486 83.5334 48.8638 83.1253 48.6515C82.712 48.4263 82.3149 48.1725 81.9368 47.8921C81.5501 47.6065 81.1834 47.2949 80.839 46.9595C80.4976 46.6087 80.1805 46.235 79.8899 45.8411C79.2872 45.0329 78.8189 44.1326 78.5033 43.1751C78.1868 42.1889 78.0185 41.1611 78.0039 40.1254C78.0172 39.0879 78.1869 38.0584 78.5074 37.0715C78.8208 36.1151 79.2877 35.2161 79.8899 34.4097C80.1805 34.0145 80.4976 33.6394 80.839 33.2872C81.1853 32.9552 81.552 32.6451 81.9368 32.3587C82.3149 32.0783 82.712 31.8245 83.1253 31.5993C83.5334 31.387 83.9553 31.2022 84.3881 31.0463C86.0116 30.4584 87.7629 30.3159 89.46 30.6337C90.8034 30.8917 92.0766 31.4325 93.1951 32.2201C94.3135 33.0078 95.2517 34.0242 95.9474 35.2021C96.4224 35.9999 96.7731 36.8655 96.9874 37.769C97.0742 38.0968 97.1363 38.4306 97.1731 38.7677C97.1731 38.9121 97.2144 39.0483 97.2268 39.1803C97.2391 39.3124 97.2268 39.4156 97.2268 39.5188C97.2268 39.7086 97.2268 39.8613 97.2268 39.9727C97.2314 40.0277 97.23 40.0831 97.2226 40.1378Z" fill="#263238"/>
<path d="M48.1361 83.5522C43.1178 86.1522 39.2675 90.6298 36.5025 95.5572C33.7375 100.485 31.963 105.895 30.1843 111.264L28.6367 138.955C34.4762 129.022 39.1643 117.343 40.4312 105.887L36.5438 105.54C39.1519 105.127 41.3392 103.254 42.734 101.001C44.1289 98.7473 44.8428 96.1763 45.5403 93.6383L40.7985 94.3398C44.539 91.8197 47.1664 87.957 48.1361 83.5522Z" fill="#455A64"/>
<path d="M48.1361 83.5522C43.1178 86.1522 39.2675 90.6298 36.5025 95.5572C33.7375 100.485 31.963 105.895 30.1843 111.264L28.6367 138.955C34.4762 129.022 39.1643 117.343 40.4312 105.887L36.5438 105.54C39.1519 105.127 41.3392 103.254 42.734 101.001C44.1289 98.7473 44.8428 96.1763 45.5403 93.6383L40.7985 94.3398C44.539 91.8197 47.1664 87.957 48.1361 83.5522Z" fill="#455A64"/>
<path d="M27.7689 145.447C27.7689 145.447 15.0954 130.272 15.2398 115.787H20.3612C20.3612 115.787 14.7982 112.131 15.2398 110.084C15.6814 108.037 15.8258 100.278 15.8258 100.278L20.5098 101.45C20.5098 101.45 16.9978 99.6964 16.5563 96.9108C16.1147 94.1251 17.5797 81.27 17.5797 81.27C17.5797 81.27 23.2872 87.2663 25.0452 93.4112C26.8032 99.5561 31.4088 106.724 30.0552 125.452C28.7016 144.18 27.7689 145.447 27.7689 145.447Z" fill="#455A64"/>
<path d="M34.1988 146.887C34.1988 146.887 47.9329 137.738 50.9827 126.059L46.8558 124.94C46.8558 124.94 52.1299 123.215 52.2207 121.474C52.3115 119.732 53.8714 113.463 53.8714 113.463L49.8519 113.381C49.8519 113.381 53.0585 112.737 54.02 110.599C54.9816 108.462 56.6571 97.7773 56.6571 97.7773C56.6571 97.7773 50.7557 101.355 47.9907 105.911C45.2257 110.467 39.9598 115.222 36.9514 130.573C33.9429 145.925 34.1988 146.887 34.1988 146.887Z" fill="#455A64"/>
<path d="M21.0469 94.4758C21.0469 94.4758 21.0469 94.5295 21.0881 94.6327C21.1294 94.7358 21.1542 94.905 21.1996 95.099C21.2945 95.5117 21.4265 96.1307 21.6123 96.9024C21.798 97.6741 21.9919 98.6439 22.2106 99.7582C22.4294 100.872 22.6976 102.144 22.9535 103.551C23.4982 106.365 24.0677 109.741 24.6579 113.455C25.248 117.169 25.801 121.325 26.3086 125.667C26.8162 130.008 27.1918 134.16 27.4889 137.936C27.786 141.712 27.98 145.12 28.0914 147.98C28.1657 149.412 28.1987 150.708 28.2358 151.847C28.273 152.986 28.2936 153.964 28.3019 154.765C28.3101 155.566 28.3019 156.176 28.3225 156.61V157.088C28.3225 157.196 28.3225 157.253 28.3225 157.253C28.3156 157.199 28.3156 157.143 28.3225 157.088V156.61C28.3225 156.176 28.2854 155.557 28.2606 154.765C28.2358 153.973 28.207 152.986 28.1574 151.851C28.1079 150.717 28.0625 149.421 27.9841 147.989C27.8479 145.129 27.6209 141.728 27.3321 137.952C27.0432 134.176 26.6305 130.033 26.1353 125.691C25.6401 121.35 25.0623 117.227 24.4845 113.484C23.9068 109.741 23.3497 106.378 22.8338 103.58C22.5862 102.168 22.3345 100.901 22.124 99.7829C21.9135 98.6646 21.7113 97.7195 21.5586 96.9189C21.4059 96.1183 21.2821 95.5364 21.1996 95.1114C21.1624 94.9092 21.1294 94.7565 21.1088 94.6368C21.0831 94.5852 21.0624 94.5313 21.0469 94.4758Z" fill="#263238"/>
<path d="M26.0115 154.728C26.0115 154.728 14.4109 141.576 10.8123 133.619L13.5319 132.443C11.5593 132.769 9.54127 131.923 8.01021 130.635C6.47915 129.348 5.36077 127.656 4.25891 125.989L7.84101 125.382C4.54432 124.446 1.73569 122.274 0 119.32C4.22589 120.017 8.05148 122.336 11.2003 125.242C13.7548 127.59 15.9131 130.318 17.9889 133.107C19.0044 134.464 19.8874 135.915 20.626 137.441C22.5904 141.481 26.0198 149.904 26.0115 154.728Z" fill="#455A64"/>
<path d="M51.1635 105.441C51.1516 105.487 51.1335 105.532 51.1098 105.573L50.9324 105.957C50.7632 106.303 50.5197 106.782 50.2225 107.414C49.9254 108.045 49.5334 108.821 49.1042 109.725C48.675 110.628 48.1756 111.652 47.6515 112.795C46.5785 115.077 45.3487 117.809 44.024 120.863C42.6993 123.917 41.3168 127.309 39.9261 130.891C38.5353 134.473 37.3014 137.907 36.2119 141.064C35.1224 144.221 34.2062 147.068 33.4634 149.474C33.0837 150.675 32.766 151.769 32.473 152.726C32.18 153.684 31.9406 154.509 31.7466 155.202C31.5527 155.896 31.4 156.391 31.2886 156.758L31.1648 157.171C31.1531 157.218 31.1365 157.264 31.1152 157.307C31.1207 157.258 31.1304 157.21 31.1441 157.163C31.1689 157.06 31.206 156.927 31.2473 156.75L31.66 155.182C31.8416 154.505 32.0727 153.671 32.3492 152.706C32.6257 151.74 32.9393 150.642 33.3107 149.445C34.0329 147.031 34.9615 144.176 36.0138 141.018C37.0661 137.861 38.3331 134.416 39.728 130.829C41.1228 127.243 42.5218 123.859 43.8548 120.801C45.1878 117.743 46.4382 115.023 47.5236 112.75C48.0601 111.606 48.5677 110.587 49.0092 109.687C49.4508 108.788 49.8346 108.037 50.1606 107.393L50.9035 105.953L51.1016 105.581C51.1174 105.532 51.1381 105.485 51.1635 105.441Z" fill="#263238"/>
<path d="M26.9972 160.377C26.9701 160.299 26.9521 160.217 26.9435 160.134L26.8321 159.437C26.7867 159.131 26.7331 158.76 26.6505 158.331C26.568 157.901 26.502 157.41 26.3823 156.874C26.1759 155.797 25.8788 154.526 25.4991 153.122C25.1195 151.719 24.6284 150.209 24.0382 148.641C23.4481 147.073 22.8002 145.616 22.1729 144.308C21.5456 142.999 20.9348 141.856 20.3571 140.911C20.0888 140.428 19.8206 140.012 19.5936 139.64C19.3666 139.269 19.1809 138.947 18.9993 138.691L18.6197 138.093C18.5734 138.025 18.5334 137.953 18.5 137.878C18.5607 137.934 18.6134 137.998 18.6568 138.068L19.0695 138.646C19.247 138.893 19.4616 139.207 19.6968 139.574C19.932 139.941 20.2085 140.354 20.485 140.833C21.0628 141.77 21.6942 142.921 22.3503 144.221C23.0065 145.521 23.6421 146.994 24.2404 148.562C24.8388 150.131 25.3093 151.666 25.689 153.073C26.0686 154.48 26.3451 155.764 26.5143 156.845C26.6216 157.386 26.6835 157.881 26.7496 158.314C26.8156 158.747 26.8651 159.119 26.894 159.424C26.9229 159.73 26.9477 159.944 26.9642 160.13C26.9862 160.211 26.9973 160.294 26.9972 160.377Z" fill="#263238"/>
<path d="M42.3044 157.282H16.916V162.462H42.3044V157.282Z" fill="#407BFF"/>
<path d="M19.334 162.462L22.0825 179.881H37.422L39.9806 162.462H19.334Z" fill="#407BFF"/>
<path d="M40.7487 162.462C40.7487 162.52 35.945 162.569 30.0189 162.569C24.0927 162.569 19.2891 162.52 19.2891 162.462C19.2891 162.404 24.0927 162.35 30.0189 162.35C35.945 162.35 40.7487 162.4 40.7487 162.462Z" fill="#263238"/>
<g opacity="0.3">
<path d="M48.1361 83.5522C43.1178 86.1522 39.2675 90.6298 36.5025 95.5572C33.7375 100.485 31.963 105.895 30.1843 111.264L28.6367 138.955C34.4762 129.022 39.1643 117.343 40.4312 105.887L36.5438 105.54C39.1519 105.127 41.3392 103.254 42.734 101.001C44.1289 98.7473 44.8428 96.1763 45.5403 93.6383L40.7985 94.3398C44.539 91.8197 47.1664 87.957 48.1361 83.5522Z" fill="black"/>
</g>
<path d="M166.341 105.903C166.341 105.903 170.55 112.89 171.177 119.542C171.805 126.195 167.36 179.951 167.36 179.951H114.99C114.99 179.951 129.022 113.571 133.611 109.312L133.924 104.896L166.341 105.903Z" fill="#263238"/>
<path d="M168.576 111.231C168.587 111.543 168.581 111.856 168.555 112.168C168.495 113.064 168.327 113.949 168.056 114.805C167.632 116.167 166.97 117.442 166.1 118.573C165.558 119.28 164.935 119.921 164.243 120.483C163.462 121.098 162.634 121.649 161.767 122.134C160.863 122.662 159.897 123.174 158.932 123.785C157.92 124.383 156.998 125.122 156.195 125.98C155.375 126.933 154.742 128.032 154.33 129.22C153.918 130.493 153.632 131.803 153.476 133.132C153.29 134.494 153.17 135.901 152.985 137.337C152.818 138.809 152.486 140.257 151.994 141.654C151.462 143.107 150.592 144.412 149.456 145.463C148.268 146.51 146.923 147.363 145.47 147.993C142.581 149.318 139.544 150.164 136.981 151.707C135.724 152.451 134.624 153.432 133.741 154.596C132.935 155.744 132.315 157.013 131.905 158.355C131.079 160.972 130.708 163.584 130.023 165.949C129.932 166.242 129.841 166.535 129.755 166.824C129.668 167.113 129.553 167.389 129.453 167.67C129.242 168.214 129.002 168.747 128.735 169.267C128.492 169.783 128.182 170.253 127.91 170.724C127.757 170.951 127.601 171.173 127.448 171.392L127.221 171.718L126.973 172.028C125.81 173.512 124.417 174.801 122.846 175.845C121.663 176.635 120.388 177.278 119.05 177.76C118.204 178.057 117.336 178.287 116.454 178.449L115.765 178.552L115.525 178.581L115.761 178.532L116.446 178.408C117.321 178.229 118.182 177.987 119.021 177.681C122.117 176.53 124.832 174.54 126.862 171.933L127.105 171.627L127.332 171.301L127.786 170.637C128.059 170.171 128.364 169.704 128.612 169.188C128.875 168.674 129.11 168.147 129.317 167.608C129.416 167.331 129.511 167.051 129.61 166.782C129.709 166.514 129.788 166.205 129.874 165.912C130.551 163.564 130.898 160.959 131.74 158.306C132.155 156.943 132.783 155.655 133.601 154.489C134.498 153.296 135.619 152.291 136.902 151.53C139.498 149.957 142.527 149.111 145.408 147.791C146.841 147.177 148.168 146.341 149.341 145.315C150.447 144.289 151.296 143.016 151.817 141.6C152.297 140.206 152.618 138.762 152.774 137.296C152.96 135.868 153.084 134.461 153.274 133.095C153.435 131.754 153.725 130.431 154.14 129.146C154.566 127.936 155.214 126.816 156.051 125.844C156.87 124.977 157.808 124.231 158.837 123.628C159.811 123.034 160.78 122.522 161.68 122.006C162.546 121.52 163.374 120.968 164.156 120.355C164.841 119.804 165.46 119.175 166.001 118.482C166.867 117.367 167.534 116.11 167.969 114.768C168.251 113.92 168.432 113.041 168.51 112.151C168.543 111.846 168.543 111.615 168.555 111.454C168.568 111.293 168.576 111.231 168.576 111.231Z" fill="#455A64"/>
<path d="M170.046 116.117C170.076 116.186 170.103 116.256 170.125 116.328C170.199 116.532 170.259 116.742 170.302 116.955C170.462 117.784 170.447 118.637 170.257 119.46C169.961 120.763 169.375 121.983 168.544 123.03C167.42 124.383 166.145 125.603 164.743 126.665C163.245 127.903 161.541 129.228 160.233 131.102C159.555 132.064 159.081 133.153 158.838 134.304C158.61 135.531 158.472 136.772 158.425 138.018C158.376 139.343 158.192 140.66 157.876 141.947C157.53 143.289 157.024 144.584 156.37 145.806C154.993 148.385 152.996 150.582 150.559 152.198C148.038 153.849 145.195 154.641 142.698 155.883C141.46 156.465 140.322 157.237 139.322 158.17C138.394 159.094 137.644 160.181 137.11 161.376C136.049 163.712 135.612 166.143 135.022 168.355C134.748 169.43 134.412 170.488 134.015 171.524C133.637 172.477 133.154 173.385 132.575 174.231C132.038 174.992 131.412 175.685 130.709 176.295C130.387 176.596 130.037 176.844 129.711 177.1C129.385 177.355 129.038 177.566 128.691 177.748C127.538 178.424 126.284 178.911 124.977 179.192C124.156 179.363 123.319 179.45 122.48 179.452L121.828 179.419H122.48C123.313 179.397 124.142 179.296 124.956 179.118C126.244 178.823 127.478 178.329 128.613 177.653C128.951 177.471 129.269 177.24 129.612 177.005C129.954 176.769 130.28 176.501 130.598 176.2C131.289 175.588 131.904 174.895 132.43 174.137C132.997 173.297 133.471 172.397 133.842 171.454C134.23 170.423 134.56 169.37 134.828 168.301C135.414 166.097 135.839 163.654 136.891 161.286C137.433 160.066 138.194 158.957 139.136 158.013C140.151 157.064 141.308 156.28 142.566 155.69C145.083 154.431 147.931 153.626 150.407 152.013C153.981 149.642 156.558 146.038 157.645 141.889C157.958 140.614 158.142 139.31 158.194 137.998C158.235 136.739 158.373 135.484 158.607 134.246C158.856 133.073 159.342 131.962 160.035 130.982C161.372 129.088 163.097 127.759 164.599 126.533C166.017 125.49 167.312 124.288 168.458 122.951C169.287 121.923 169.877 120.723 170.187 119.439C170.378 118.628 170.406 117.786 170.269 116.963C170.15 116.402 170.03 116.121 170.046 116.117Z" fill="#455A64"/>
<path d="M116.891 78.7362C116.891 78.7362 120.287 102.16 125.512 104.434C128.145 105.585 130.262 104.595 131.702 101.958C133.142 99.3209 136.819 80.1599 136.819 80.1599L126.655 79.9206L126.275 83.7296L122.355 76.4375L116.891 78.7362Z" fill="#936760"/>
<path d="M131.877 94.0304C131.857 93.9647 131.828 93.9021 131.79 93.8446L131.514 93.3329L130.49 91.4552C129.615 89.8705 128.427 87.675 127.102 85.2443C125.777 82.8136 124.626 80.6222 123.772 79.0004L122.765 77.1062L122.488 76.5944C122.422 76.4789 122.385 76.417 122.377 76.4211C122.395 76.4867 122.42 76.5502 122.451 76.6109L122.699 77.1392C122.918 77.5972 123.239 78.2534 123.648 79.0664C124.473 80.6841 125.617 82.9044 126.95 85.3351C128.282 87.7658 129.483 89.953 130.387 91.5254C130.841 92.3095 131.213 92.9367 131.481 93.3701L131.79 93.8653C131.814 93.923 131.843 93.9783 131.877 94.0304Z" fill="#6F4C47"/>
<path d="M167.298 84.2126L164.396 97.1915L165.771 105.903H133.887L135.971 65.2415L143.919 64.5647L163.34 67.8455L167.298 84.2126Z" fill="#407BFF"/>
<path d="M159.188 67.6102C159.188 67.6102 167.491 66.8468 171.448 72.4964C173.871 75.9547 177.267 83.8989 177.267 83.8989L166.211 85.8096L159.188 67.6102Z" fill="#407BFF"/>
<g opacity="0.3">
<path d="M164.223 84.3653C163.661 83.2173 162.785 82.2525 161.697 81.5832C160.608 80.9139 159.352 80.5678 158.074 80.5851C157.521 80.5851 156.898 80.7337 156.605 81.2C156.312 81.6663 156.473 82.3349 156.687 82.8755C156.964 83.5812 157.331 84.3281 158.008 84.6665C158.503 84.9142 159.085 84.9018 159.617 85.0792C160.253 85.3232 160.833 85.6907 161.326 86.1605C161.768 86.4897 162.149 86.8933 162.452 87.3531C162.656 87.7429 162.804 88.1598 162.89 88.5912C163.431 90.7124 163.86 95.091 164.396 97.2122L164.99 95.384C165.007 93.6397 165.022 91.8954 165.036 90.1511C165.052 88.1702 165.052 86.1398 164.223 84.3653Z" fill="black"/>
</g>
<path d="M154.311 95.1859C154.311 95.1529 154.723 95.2272 155.441 95.2808C156.348 95.3525 157.259 95.3303 158.161 95.2148C159.063 95.0938 159.951 94.8823 160.81 94.5834C161.471 94.3523 161.867 94.1707 161.879 94.1996C161.801 94.2652 161.713 94.3194 161.619 94.3605C161.373 94.4914 161.119 94.6085 160.86 94.7113C159.137 95.3961 157.27 95.6401 155.429 95.4211C155.151 95.389 154.876 95.3408 154.604 95.2767C154.501 95.2636 154.402 95.2329 154.311 95.1859Z" fill="#263238"/>
<path d="M140.395 95.7553C140.395 95.7058 144.934 96.9933 150.468 98.6441C156.002 100.295 160.509 101.648 160.492 101.702C160.476 101.756 155.953 100.464 150.415 98.8133C144.876 97.1625 140.395 95.8089 140.395 95.7553Z" fill="#263238"/>
<g opacity="0.3">
<path d="M154.537 95.2394C154.944 95.8423 155.507 96.3227 156.167 96.6289C156.827 96.935 157.557 97.0554 158.28 96.9768C158.97 96.8995 159.624 96.6248 160.162 96.1856C160.7 95.7464 161.099 95.1614 161.313 94.5007C159.158 95.3329 156.822 95.5875 154.537 95.2394Z" fill="black"/>
</g>
<g opacity="0.3">
<path d="M159.284 101.29L159.168 101.335C156.321 101.843 153.651 101.335 150.915 100.361C148.178 99.387 145.645 97.9922 143.123 96.5767L159.284 101.29Z" fill="black"/>
</g>
<path d="M135.97 65.2414C135.97 65.2414 130.713 65.8852 128.674 70.3752C127.273 73.5776 126.087 76.8698 125.125 80.2301L135.855 82.6443C135.855 82.6443 137.543 73.5653 137.671 70.3752C137.815 66.8715 137.955 65.1382 135.97 65.2414Z" fill="#407BFF"/>
<path d="M134.96 84.0804C134.865 83.0806 134.835 82.0757 134.869 81.072C134.84 80.0693 134.874 79.0658 134.973 78.0676C135.068 79.0661 135.098 80.0696 135.063 81.072C135.093 82.076 135.059 83.0808 134.96 84.0804Z" fill="#263238"/>
<path d="M140.783 36.4731C143.618 33.0066 147.432 31.0092 151.926 30.9349C154.451 30.8936 155.5 31.4177 157.319 31.9088C159.138 32.3488 160.745 33.4135 161.859 34.9173C163.151 36.7496 164.236 38.8007 164.48 41.025C164.727 43.3154 164.979 45.6182 164.806 47.9128C164.632 50.2073 164.013 52.5142 162.66 54.3795L156.82 55.3947C153.593 55.502 150.324 55.6093 147.184 54.8747C144.043 54.1402 140.994 52.4482 139.31 49.6956C136.974 45.87 137.944 39.9438 140.783 36.4731Z" fill="#263238"/>
<path d="M160.889 57.6644C160.889 57.6644 160.984 57.8089 161.239 57.9698C161.604 58.196 162.014 58.3371 162.44 58.3825C163.083 58.4537 163.733 58.3224 164.297 58.007C164.983 57.5917 165.483 56.9281 165.692 56.1541C165.901 55.3801 165.803 54.5553 165.42 53.8512C165.092 53.2952 164.598 52.8553 164.009 52.5925C163.62 52.4169 163.197 52.3295 162.771 52.3367C162.614 52.3257 162.458 52.3556 162.317 52.4233C162.869 52.4455 163.412 52.5715 163.918 52.7948C164.438 53.0653 164.868 53.4811 165.156 53.9915C165.474 54.6262 165.547 55.3557 165.361 56.0407C165.175 56.7257 164.744 57.3184 164.149 57.7057C163.65 58.0001 163.077 58.1435 162.498 58.1184C161.937 58.073 161.391 57.9188 160.889 57.6644Z" fill="#E0E0E0"/>
<path d="M135.119 53.422C135.175 52.7574 135.382 52.1143 135.725 51.542C136.067 50.9698 136.536 50.4835 137.096 50.1206C137.665 49.7761 138.328 49.6212 138.99 49.6783C139.653 49.7355 140.28 50.0016 140.781 50.4383L141.702 51.5319C142.413 51.8622 143.003 52.4055 143.391 53.0866C143.78 53.7677 143.946 54.5527 143.868 55.3328C143.761 56.1101 143.435 56.841 142.928 57.4396C142.421 58.0382 141.753 58.4798 141.004 58.7127C140.25 58.9247 139.453 58.9393 138.692 58.755C137.93 58.5707 137.228 58.1938 136.654 57.6603C136.093 57.1172 135.663 56.4531 135.397 55.7187C135.131 54.9842 135.036 54.1987 135.119 53.422Z" fill="#263238"/>
<path d="M136.268 57.3591C136.043 57.0139 135.933 56.6066 135.954 56.1953C136.003 55.4484 136.544 54.4703 137.287 53.5748C137.94 52.8053 138.734 52.1679 139.627 51.6971C140.312 51.3298 140.782 51.1977 140.766 51.1482C140.332 51.1842 139.911 51.3093 139.528 51.5155C138.572 51.9464 137.726 52.5867 137.052 53.3891C136.677 53.826 136.36 54.3086 136.107 54.8252C135.878 55.2457 135.75 55.7131 135.731 56.1912C135.722 56.5185 135.813 56.8408 135.991 57.1156C136.156 57.3055 136.268 57.3715 136.268 57.3591Z" fill="#455A64"/>
<path d="M139.104 59.0841C139.199 59.0841 138.802 57.3137 139.364 55.2255C139.925 53.1373 141.105 51.7919 141.014 51.7383C140.706 51.9767 140.444 52.2706 140.243 52.6049C139.707 53.3802 139.312 54.2434 139.075 55.1553C138.837 56.0663 138.759 57.0115 138.844 57.9492C138.861 58.3401 138.949 58.7247 139.104 59.0841Z" fill="#455A64"/>
<path d="M156.819 64.8658C156.782 62.8024 156.732 61.1517 156.732 61.1517C156.732 61.1517 161.494 60.6276 162.807 54.5281C163.463 51.4948 163.583 46.4642 163.55 42.3498C163.521 38.6356 160.364 33.6008 155.791 33.5843L153.757 33.345L145.973 36.4401C145.43 36.4657 144.916 36.6946 144.534 37.0815C144.152 37.4683 143.929 37.9848 143.91 38.5283L143.695 64.5852L151.219 82.8506L156.616 75.5337L156.819 64.8658Z" fill="#936760"/>
<path d="M153.658 53.096C153.703 52.7835 153.862 52.4986 154.103 52.2954C154.325 52.105 154.603 51.9926 154.894 51.9754C155.186 51.9583 155.475 52.0374 155.717 52.2005C155.968 52.3936 156.163 52.6505 156.281 52.9444C156.399 53.2383 156.437 53.5586 156.39 53.8718C156.256 54.0597 156.084 54.2166 155.885 54.3319C155.685 54.4473 155.463 54.5184 155.234 54.5404C155.161 54.5446 155.088 54.5446 155.015 54.5404C154.652 54.5387 154.303 54.4001 154.037 54.1525C153.898 54.0165 153.792 53.8508 153.726 53.6678C153.661 53.4848 153.637 53.2893 153.658 53.096Z" fill="#6F4C47"/>
<path d="M160.526 46.5592C160.517 46.7654 160.428 46.9599 160.278 47.1011C160.127 47.2423 159.927 47.3189 159.721 47.3144C159.62 47.3172 159.52 47.2997 159.426 47.263C159.332 47.2263 159.246 47.1711 159.174 47.1007C159.101 47.0302 159.044 46.9461 159.005 46.8531C158.965 46.7601 158.945 46.6601 158.945 46.5592C158.955 46.3534 159.044 46.1595 159.195 46.0185C159.345 45.8775 159.544 45.8005 159.75 45.804C159.851 45.8012 159.951 45.8187 160.045 45.8554C160.139 45.8922 160.225 45.9474 160.297 46.0178C160.37 46.0882 160.427 46.1724 160.466 46.2654C160.506 46.3584 160.526 46.4583 160.526 46.5592Z" fill="#263238"/>
<path d="M162.036 44.6319C161.933 44.7268 161.359 44.2523 160.509 44.2192C159.659 44.1862 159.015 44.5659 158.929 44.4586C158.842 44.3513 158.995 44.2275 159.275 44.0459C159.658 43.8128 160.103 43.7019 160.55 43.7281C160.993 43.752 161.416 43.9152 161.76 44.1945C162.007 44.3967 162.086 44.5865 162.036 44.6319Z" fill="#263238"/>
<path d="M156.699 51.0658C157.153 50.9485 157.621 50.8902 158.09 50.8925C158.309 50.8925 158.503 50.8512 158.56 50.7026C158.593 50.4807 158.555 50.2542 158.453 50.0547C158.276 49.5182 158.094 48.9528 157.9 48.3668C157.141 45.965 156.6 43.9965 156.699 43.9676C156.798 43.9387 157.492 45.8577 158.251 48.2595C158.432 48.8497 158.61 49.415 158.775 49.9557C158.898 50.2235 158.921 50.5264 158.841 50.8099C158.806 50.8855 158.754 50.9519 158.689 51.0035C158.624 51.0551 158.547 51.0906 158.465 51.1071C158.344 51.1352 158.219 51.1464 158.094 51.1401C157.628 51.1758 157.159 51.1508 156.699 51.0658Z" fill="#263238"/>
<path d="M156.733 61.1475C153.833 61.0329 151.021 60.1158 148.611 58.498C148.611 58.498 150.572 62.8849 156.766 62.6455L156.733 61.1475Z" fill="#6F4C47"/>
<path d="M154.166 51.5156C154.306 51.5156 154.257 52.4359 154.991 53.1333C155.726 53.8308 156.733 53.7854 156.733 53.9133C156.733 53.9711 156.506 54.0825 156.089 54.0701C155.548 54.0474 155.033 53.8356 154.632 53.4717C154.25 53.1206 154.018 52.6358 153.984 52.1181C153.989 51.7302 154.104 51.5073 154.166 51.5156Z" fill="#263238"/>
<path d="M161.853 41.4295C161.7 41.6276 161.057 41.4543 160.293 41.4749C159.53 41.4956 158.89 41.6607 158.733 41.4749C158.663 41.38 158.758 41.1819 159.03 40.988C159.405 40.7448 159.843 40.6171 160.289 40.6207C160.733 40.6055 161.171 40.7234 161.548 40.9591C161.853 41.1365 161.931 41.3305 161.853 41.4295Z" fill="#263238"/>
<path d="M150.642 46.3364C150.631 46.5448 150.704 46.7487 150.844 46.9035C150.984 47.0582 151.18 47.1511 151.389 47.1618C151.489 47.1708 151.59 47.1599 151.685 47.1296C151.781 47.0994 151.87 47.0504 151.947 46.9855C152.024 46.9206 152.087 46.8411 152.133 46.7517C152.178 46.6622 152.206 46.5645 152.214 46.4643C152.224 46.2559 152.151 46.052 152.011 45.8972C151.871 45.7425 151.675 45.6496 151.467 45.6389C151.367 45.6293 151.266 45.6399 151.169 45.6699C151.073 45.6999 150.984 45.7489 150.907 45.8139C150.83 45.8788 150.767 45.9585 150.722 46.0483C150.676 46.138 150.649 46.236 150.642 46.3364Z" fill="#263238"/>
<path d="M150.398 44.3267C150.493 44.4298 151.099 43.9965 151.949 44.013C152.799 44.0295 153.414 44.467 153.509 44.3638C153.604 44.2607 153.46 44.1327 153.192 43.9511C152.831 43.6901 152.399 43.546 151.953 43.5385C151.511 43.5277 151.077 43.6593 150.715 43.914C150.439 44.0956 150.348 44.2772 150.398 44.3267Z" fill="#263238"/>
<path d="M149.907 42.4984C150.072 42.6965 150.732 42.4984 151.521 42.4984C152.309 42.4984 152.977 42.6553 153.134 42.453C153.2 42.3581 153.101 42.1642 152.812 41.9743C152.416 41.7424 151.963 41.6253 151.504 41.6359C151.048 41.6325 150.6 41.7584 150.212 41.9991C149.932 42.2054 149.837 42.4035 149.907 42.4984Z" fill="#263238"/>
<path d="M144.975 48.8702C144.999 48.408 144.529 47.302 144.079 47.2195C142.882 46.9678 140.695 46.943 140.509 50.0134C140.249 54.2062 144.513 53.5996 144.529 53.4799C144.546 53.3602 144.892 50.4508 144.975 48.8702Z" fill="#936760"/>
<path d="M143.469 51.8621C143.448 51.8621 143.39 51.9075 143.262 51.9571C143.085 52.0199 142.89 52.0125 142.718 51.9364C142.284 51.7466 141.954 51.0161 141.979 50.2609C141.99 49.9 142.082 49.5462 142.247 49.2251C142.293 49.0959 142.371 48.9803 142.474 48.8888C142.576 48.7973 142.7 48.7327 142.833 48.701C142.918 48.6845 143.005 48.6981 143.081 48.7396C143.156 48.7811 143.214 48.8478 143.246 48.928C143.295 49.0476 143.266 49.1302 143.287 49.1384C143.308 49.1467 143.382 49.0724 143.357 48.8991C143.341 48.7936 143.289 48.6972 143.209 48.6267C143.153 48.577 143.087 48.5395 143.016 48.5168C142.945 48.494 142.87 48.4865 142.796 48.4946C142.621 48.5173 142.455 48.5847 142.315 48.6903C142.174 48.7958 142.062 48.936 141.991 49.0972C141.792 49.4492 141.68 49.8441 141.665 50.2485C141.64 51.0987 142.024 51.8993 142.623 52.1263C142.733 52.1658 142.851 52.18 142.967 52.1679C143.083 52.1557 143.196 52.1175 143.295 52.0561C143.452 51.9694 143.481 51.8704 143.469 51.8621Z" fill="#6F4C47"/>
<path d="M143.907 47.2153L144.976 48.3213C149.577 43.9179 158.574 32.8869 158.07 33.543C155.973 32.7599 153.713 32.5145 151.496 32.8291C148.071 33.411 141.592 35.1236 141.683 39.1638C141.773 43.204 143.907 47.2153 143.907 47.2153Z" fill="#263238"/>
<path d="M144.004 57.6644C144.004 57.6644 143.909 57.8089 143.658 57.9698C143.292 58.1966 142.88 58.3377 142.452 58.3825C141.811 58.4537 141.163 58.3223 140.6 58.007C139.914 57.5917 139.414 56.9284 139.204 56.1546C138.995 55.3808 139.091 54.556 139.473 53.8512C139.803 53.2949 140.297 52.855 140.888 52.5925C141.277 52.4161 141.7 52.3287 142.126 52.3367C142.284 52.3272 142.441 52.357 142.585 52.4233C142.034 52.4517 141.494 52.5833 140.992 52.8113C140.472 53.0822 140.042 53.4979 139.754 54.0081C139.436 54.6427 139.363 55.3722 139.549 56.0572C139.734 56.7423 140.166 57.3349 140.76 57.7222C141.267 58.0202 141.849 58.1637 142.436 58.1349C142.984 58.0803 143.517 57.9205 144.004 57.6644Z" fill="#E0E0E0"/>
<path d="M137.811 46.2909C137.825 46.2079 137.847 46.1264 137.877 46.0474C137.953 45.8196 138.048 45.5987 138.161 45.3871C138.595 44.6097 139.194 43.9364 139.915 43.4145C140.986 42.6504 142.179 42.0754 143.444 41.7142C144.847 41.2603 146.432 40.8888 147.983 40.2368C149.444 39.6255 150.829 38.8473 152.11 37.9175C153.161 37.1547 154.14 36.2983 155.036 35.3589C155.637 34.7227 156.202 34.0531 156.728 33.3532L157.141 32.7713C157.192 32.6997 157.25 32.6334 157.314 32.5732C157.285 32.6515 157.244 32.7251 157.194 32.792C157.104 32.9323 156.98 33.1386 156.782 33.3945C156.281 34.1207 155.73 34.8103 155.131 35.4579C154.244 36.4199 153.267 37.2947 152.213 38.0702C150.919 39.0211 149.515 39.8136 148.033 40.4308C146.547 41.0002 145.031 41.4906 143.493 41.8999C142.244 42.2457 141.062 42.7965 139.994 43.53C139.28 44.0332 138.677 44.678 138.223 45.4242C137.918 45.9649 137.835 46.2991 137.811 46.2909Z" fill="#455A64"/>
<path d="M139.033 46.9512C139.022 46.6376 139.078 46.3253 139.198 46.035C139.513 45.2328 140.062 44.544 140.774 44.0583C141.649 43.4062 142.899 43.0018 144.274 42.6882C145.77 42.3896 147.229 41.9259 148.623 41.3057C150.01 40.6706 151.313 39.8667 152.503 38.9121C153.472 38.1302 154.362 37.2553 155.16 36.2998C155.696 35.652 156.191 34.9711 156.642 34.2611L156.997 33.6751C157.035 33.6046 157.081 33.5382 157.133 33.4771C157.111 33.5547 157.078 33.6285 157.034 33.6958C156.951 33.8567 156.844 34.0589 156.712 34.3065C156.286 35.0374 155.806 35.7354 155.276 36.3947C153.515 38.5839 151.268 40.3331 148.714 41.5038C147.307 42.1326 145.832 42.5978 144.319 42.8904C142.945 43.1958 141.723 43.5754 140.861 44.1945C140.162 44.656 139.612 45.3095 139.276 46.0763C139.168 46.3598 139.086 46.6527 139.033 46.9512Z" fill="#455A64"/>
<path d="M117.316 81.0226C117.081 80.9359 116.772 77.5973 116.772 77.5973C116.772 77.5973 113.433 74.9272 112.979 73.8419C112.525 72.7565 112.591 70.169 112.591 70.169L118.059 66.4548C118.059 66.4548 121.291 69.3436 122.137 70.4826C122.611 71.1182 122.962 72.8721 123.21 74.2917C123.408 75.4986 123.453 76.7257 123.346 77.944L123.267 78.8849C123.267 78.8849 121.068 82.4175 117.316 81.0226Z" fill="#936760"/>
<path d="M113.233 74.498C112.84 74.149 112.466 73.7784 112.114 73.3879C111.404 72.6203 110.616 71.9022 111.289 71.0892C111.39 70.9548 111.518 70.8434 111.666 70.7623C111.813 70.6812 111.976 70.6323 112.143 70.6188C112.143 70.6188 111.73 69.9048 112.089 69.455C112.191 69.3222 112.322 69.2154 112.473 69.1436C112.624 69.0718 112.789 69.0371 112.956 69.0423C112.956 69.0423 112.424 68.0188 112.915 67.3297C113.102 67.078 113.356 66.8837 113.647 66.7685C113.939 66.6533 114.257 66.6218 114.566 66.6776C114.566 66.6776 112.349 62.1628 112.217 61.9317C111.722 61.0775 111.768 60.1448 112.758 60.0416C113.121 60.0045 113.435 60.2893 114.376 61.6924C115.317 63.0955 116.893 65.4685 116.893 65.4685C116.893 65.4685 118.614 66.9252 119.477 67.7423C120.339 68.5595 122.142 70.4743 122.444 71.0438C123.215 72.5254 123.05 74.9107 123.05 74.9107L116.778 77.5973C116.778 77.5973 113.637 74.857 113.233 74.498Z" fill="#936760"/>
<path d="M112.332 70.7754C112.592 70.9287 112.84 71.1011 113.075 71.2912L113.863 71.8773C114.022 71.9921 114.171 72.1205 114.309 72.2611C114.469 72.417 114.574 72.6215 114.606 72.8429C114.626 72.9574 114.616 73.0752 114.575 73.1841C114.534 73.293 114.465 73.389 114.375 73.462C114.199 73.5836 113.983 73.6325 113.772 73.5982C113.596 73.5796 113.422 73.5437 113.252 73.4909C113.091 73.4455 112.947 73.4001 112.811 73.3547C112.546 73.268 112.332 73.1896 112.187 73.1277C112.043 73.0658 111.969 73.0286 111.973 73.0163C111.977 73.0039 112.307 73.1112 112.839 73.2597C113.148 73.3548 113.464 73.4252 113.784 73.4702C113.961 73.4914 114.139 73.4505 114.288 73.3547C114.358 73.2946 114.411 73.2173 114.442 73.1305C114.473 73.0437 114.481 72.9503 114.465 72.8594C114.434 72.6684 114.343 72.4921 114.205 72.356C114.079 72.2194 113.941 72.0937 113.793 71.9804L113.021 71.3655C112.775 71.1892 112.544 70.9918 112.332 70.7754Z" fill="#6F4C47"/>
<path d="M117.791 69.4385C117.613 69.1226 117.513 68.769 117.498 68.4067C117.435 68.0505 117.457 67.6845 117.56 67.3379C117.605 67.3379 117.56 67.8166 117.638 68.3944C117.717 68.9721 117.832 69.4261 117.791 69.4385Z" fill="#6F4C47"/>
<path d="M120.828 69.8964C120.03 69.5394 119.145 69.4205 118.281 69.5539C117.421 69.6868 116.586 69.9512 115.805 70.338C115.178 70.6351 114.493 71.0726 114.406 71.7618C114.32 72.4509 114.968 73.1112 115.669 73.2474C116.383 73.3267 117.104 73.1825 117.732 72.8347C118.356 72.4786 119.021 72.2014 119.713 72.0094" fill="#936760"/>
<path d="M119.723 72.0301C119.723 72.0301 119.537 72.0755 119.211 72.1993C118.759 72.3841 118.317 72.5921 117.886 72.8225C117.583 72.9788 117.267 73.1086 116.941 73.2104C116.562 73.3349 116.161 73.3757 115.765 73.3301C115.316 73.2717 114.907 73.0408 114.626 72.6863C114.473 72.5005 114.373 72.2765 114.337 72.0384C114.311 71.789 114.36 71.5376 114.477 71.3162C114.733 70.9122 115.102 70.5922 115.538 70.3959C115.924 70.2023 116.321 70.0315 116.726 69.8842C117.415 69.6265 118.142 69.487 118.877 69.4715C119.371 69.4595 119.864 69.5335 120.333 69.6902C120.462 69.7328 120.587 69.7838 120.709 69.8429C120.751 69.862 120.791 69.8855 120.829 69.913C120.829 69.913 120.651 69.8388 120.317 69.7438C119.848 69.6129 119.362 69.5558 118.877 69.5746C118.155 69.6079 117.444 69.7599 116.772 70.0245C116.372 70.1712 115.982 70.3421 115.604 70.5362C115.194 70.7216 114.847 71.0229 114.605 71.4028C114.498 71.5948 114.455 71.816 114.481 72.0342C114.511 72.2474 114.598 72.4484 114.733 72.6161C114.994 72.9423 115.368 73.1576 115.781 73.2187C116.16 73.2626 116.544 73.2275 116.908 73.1155C117.23 73.0188 117.543 72.896 117.845 72.7482C118.282 72.5255 118.733 72.3298 119.194 72.1622C119.321 72.1205 119.451 72.0874 119.582 72.0631C119.627 72.0456 119.674 72.0344 119.723 72.0301Z" fill="#6F4C47"/>
<path d="M112.41 70.8333C113.454 71.6132 114.474 72.5253 115.415 73.4043C115.672 73.6865 115.999 73.8958 116.364 74.0109C116.657 74.0728 117.164 73.5983 117.4 73.3919L114.028 69.8511" fill="#936760"/>
<path d="M114.028 69.8511C114.131 69.9242 114.225 70.0086 114.309 70.1028L115.035 70.8374C115.65 71.4647 116.5 72.3437 117.453 73.3424L117.503 73.396L117.445 73.4456C117.265 73.6071 117.076 73.7587 116.88 73.8995C116.795 73.9557 116.705 74.004 116.611 74.044C116.561 74.0645 116.508 74.0771 116.454 74.0811C116.4 74.0922 116.344 74.0922 116.289 74.0811C116.102 74.026 115.928 73.9364 115.774 73.817C115.472 73.5859 115.233 73.3341 114.981 73.1113C114.486 72.6573 114.04 72.2529 113.661 71.9186C113.281 71.5843 112.963 71.3202 112.744 71.1386C112.627 71.0496 112.515 70.9531 112.41 70.8498C112.541 70.9189 112.664 71.0019 112.777 71.0974C113.009 71.2625 113.335 71.5101 113.722 71.8402C114.11 72.1704 114.573 72.5624 115.068 73.0164C115.32 73.2351 115.571 73.491 115.856 73.7055C115.996 73.8142 116.156 73.8954 116.327 73.9449C116.411 73.9547 116.497 73.9466 116.578 73.921C116.659 73.8954 116.734 73.8529 116.797 73.7963C116.991 73.6593 117.177 73.5119 117.354 73.3548V73.429C116.401 72.4262 115.567 71.5348 114.969 70.891L114.271 70.1276C114.185 70.0403 114.103 69.948 114.028 69.8511Z" fill="#6F4C47"/>
<path d="M113.078 68.7782L116.479 72.6079C116.704 72.8939 116.976 73.1396 117.283 73.3342C117.438 73.4305 117.614 73.487 117.795 73.4985C117.977 73.51 118.158 73.4763 118.323 73.4003C118.529 73.2581 118.681 73.0514 118.756 72.8129C118.831 72.5745 118.824 72.3179 118.736 72.0838C118.552 71.6169 118.271 71.1948 117.911 70.8458C116.885 69.682 115.95 68.4402 115.117 67.1316" fill="#936760"/>
<path d="M115.126 67.1191C115.126 67.1191 115.163 67.1563 115.221 67.2388L115.468 67.5979C115.687 67.9074 116.001 68.3531 116.405 68.8937C116.809 69.4343 117.317 70.0575 117.903 70.7301C118.235 71.067 118.513 71.4525 118.728 71.8733C118.836 72.1109 118.878 72.3733 118.848 72.6326C118.827 72.907 118.703 73.1632 118.501 73.3507C118.396 73.4401 118.272 73.5052 118.139 73.5416C118.006 73.5779 117.866 73.5846 117.73 73.5611C117.472 73.5229 117.229 73.4176 117.024 73.2558C116.671 72.9432 116.344 72.6023 116.046 72.2364L114.482 70.4495C114.049 69.9502 113.698 69.5375 113.438 69.2362L113.157 68.8896C113.122 68.852 113.092 68.8105 113.066 68.7657C113.066 68.7657 113.108 68.7988 113.178 68.8689L113.479 69.1867L114.556 70.3711L116.145 72.1374C116.44 72.4939 116.763 72.8265 117.111 73.132C117.296 73.2785 117.517 73.3739 117.75 73.4085C117.867 73.4278 117.986 73.4219 118.1 73.3913C118.214 73.3607 118.32 73.306 118.411 73.231C118.585 73.0664 118.691 72.8426 118.708 72.6037C118.735 72.3699 118.698 72.1331 118.601 71.9187C118.383 71.5076 118.105 71.1319 117.775 70.8044C117.189 70.1276 116.694 69.4879 116.298 68.9391C115.902 68.3902 115.596 67.9363 115.394 67.6144C115.295 67.4534 115.216 67.3296 115.167 67.2429C115.149 67.2033 115.135 67.1618 115.126 67.1191Z" fill="#6F4C47"/>
<path d="M120.314 75.9051C120.187 75.972 120.044 76.002 119.901 75.9918C119.566 76.0101 119.231 75.9508 118.923 75.8185C118.608 75.6918 118.326 75.4957 118.098 75.2448C117.998 75.1469 117.923 75.0267 117.879 74.894C118.175 75.2395 118.548 75.5109 118.968 75.6864C119.388 75.862 119.843 75.9369 120.297 75.9051H120.314Z" fill="#6F4C47"/>
<path d="M163.558 65.1092L162.37 80.1062C162.35 80.3628 162.229 80.6012 162.035 80.7696C161.84 80.938 161.587 81.0229 161.33 81.0058L152.973 80.4446C152.842 80.4369 152.715 80.4029 152.598 80.3447C152.48 80.2865 152.376 80.2053 152.291 80.106C152.206 80.0066 152.142 79.8911 152.102 79.7663C152.063 79.6416 152.049 79.5101 152.061 79.3799L153.427 64.3953C153.449 64.1409 153.57 63.9052 153.763 63.7387C153.957 63.5721 154.208 63.4878 154.463 63.5039L162.646 64.0363C162.777 64.045 162.905 64.08 163.023 64.1391C163.14 64.1981 163.244 64.2801 163.329 64.3801C163.414 64.4802 163.478 64.5962 163.518 64.7214C163.557 64.8467 163.571 64.9785 163.558 65.1092Z" fill="#455A64"/>
<path d="M175.522 84.2002C175.522 84.2002 178.019 101.071 177.92 103.336C177.821 105.602 175.258 110.633 171.808 111.124C168.358 111.615 165.106 108.462 165.007 104.323C164.908 100.183 164.396 87.0931 164.396 87.0931L166.972 85.6735L175.522 84.2002Z" fill="#936760"/>
<path d="M161.306 70.2598C161.306 70.2598 163.89 71.8486 164.653 72.2654C165.417 72.6822 165.318 75.7608 165.318 75.7608L169.667 85.8716L164.426 87.7493C164.426 87.7493 162.557 84.2126 162.02 83.7669C161.653 83.4782 161.232 83.265 160.782 83.1397C160.782 83.1397 160.514 84.1218 159.709 83.6761C159.071 83.2548 158.498 82.7417 158.009 82.1533C158.009 82.1533 157.291 82.6032 157.023 82.0667C156.754 81.5302 156.309 80.3664 156.309 80.3664C156.309 80.3664 157.827 78.3979 158.455 78.3979C159.082 78.3979 162.301 78.5754 162.301 78.5754C162.301 78.5754 162.123 78.3071 161.228 77.9522C160.332 77.5973 155.009 76.025 154.757 75.93C154.382 75.7856 153.961 74.8075 155.124 74.7168C156.288 74.626 162.837 75.798 162.837 75.798C162.837 75.798 163.196 74.106 162.928 73.7346C162.66 73.3632 160.32 71.8692 161.306 70.2598Z" fill="#936760"/>
<path d="M157.987 82.0953C157.941 81.8518 157.948 81.6013 158.007 81.3607C158.063 81.0806 158.208 80.826 158.42 80.6344C158.699 80.4325 159.038 80.3307 159.381 80.3455C159.969 80.3076 160.56 80.3284 161.144 80.4074C161.388 80.4232 161.627 80.479 161.853 80.5725C161.853 80.6344 160.747 80.4487 159.377 80.5395C159.074 80.5244 158.774 80.6052 158.519 80.7706C158.334 80.936 158.203 81.1531 158.143 81.3937C158.104 81.6302 158.051 81.8644 157.987 82.0953Z" fill="#6F4C47"/>
<path d="M159.027 82.3967C159.37 82.5369 159.705 82.6953 160.03 82.8713C160.382 82.9869 160.727 83.1248 161.062 83.284C160.677 83.3096 160.292 83.2267 159.952 83.0446C159.587 82.9242 159.265 82.6989 159.027 82.3967Z" fill="#6F4C47"/>
<path d="M162.526 75.7607C162.874 75.8133 163.197 75.9731 163.45 76.218C163.703 76.4628 163.874 76.7805 163.938 77.1267C163.884 77.1267 163.706 76.714 163.314 76.3591C162.922 76.0042 162.505 75.8144 162.526 75.7607Z" fill="#6F4C47"/>
<path d="M117.87 166.044C117.812 166.044 120.066 156.552 122.905 144.881C125.744 133.211 128.088 123.777 128.146 123.777C128.204 123.777 125.951 133.268 123.111 144.943C120.272 156.618 117.928 166.056 117.87 166.044Z" fill="#455A64"/>
<path d="M179.629 179.819C179.629 179.877 140.259 179.927 91.7027 179.927C43.1462 179.927 3.76367 179.877 3.76367 179.819C3.76367 179.761 43.1297 179.712 91.7027 179.712C140.276 179.712 179.629 179.757 179.629 179.819Z" fill="#263238"/>
<path d="M159.13 30.9967L160.343 26.6181C158.737 24.0157 158.162 20.9066 158.732 17.902C159.302 14.8975 160.976 12.2148 163.423 10.3815C165.871 8.54819 168.916 7.69684 171.96 7.99484C175.003 8.29284 177.825 9.71862 179.871 11.9919C181.917 14.2651 183.038 17.2214 183.014 20.2795C182.991 23.3375 181.824 26.2761 179.743 28.5176C177.663 30.759 174.819 32.1411 171.772 32.3922C168.724 32.6432 165.692 31.745 163.273 29.8742L159.13 30.9967Z" fill="white"/>
<path d="M159.13 30.9967L159.407 30.9142L160.203 30.6913L163.265 29.8329L163.237 29.9113C163.228 29.9023 163.224 29.8905 163.224 29.8783C163.224 29.8661 163.228 29.8544 163.237 29.8453C163.246 29.8394 163.257 29.8363 163.267 29.8363C163.278 29.8363 163.289 29.8394 163.298 29.8453C164.925 31.0938 166.842 31.9088 168.87 32.2141C170.168 32.4135 171.49 32.3968 172.782 32.1646C175.189 31.7466 177.414 30.6132 179.168 28.912C180.921 27.2108 182.121 25.0208 182.612 22.6275C182.97 20.7996 182.908 18.9144 182.43 17.114C181.941 15.2337 181.003 13.5002 179.696 12.0625C178.39 10.6249 176.753 9.52598 174.928 8.86029C173.053 8.17204 171.038 7.95701 169.06 8.23426C167.082 8.51151 165.204 9.27249 163.59 10.4497C161.977 11.6269 160.679 13.184 159.812 14.9829C158.945 16.7818 158.535 18.7668 158.619 20.7621C158.705 22.8188 159.313 24.8197 160.385 26.5768C160.389 26.5903 160.389 26.6047 160.385 26.6181C159.972 28.0254 159.671 29.0942 159.456 29.8494C159.353 30.2167 159.271 30.4932 159.213 30.6748C159.155 30.8564 159.126 30.9678 159.126 30.9678C159.126 30.9678 159.147 30.877 159.192 30.6913C159.238 30.5056 159.316 30.2209 159.415 29.8659C159.613 29.1107 159.91 28.0089 160.29 26.5645V26.6057C158.991 24.5181 158.353 22.0872 158.458 19.631C158.564 17.1748 159.408 14.8074 160.88 12.8386C162.768 10.3175 165.549 8.61384 168.653 8.07675C171.756 7.53966 174.948 8.20977 177.573 9.94978C178.391 10.5045 179.142 11.1527 179.81 11.8811C180.483 12.6188 181.069 13.4317 181.556 14.3036C182.917 16.8567 183.354 19.8014 182.794 22.6398C182.296 25.0697 181.075 27.2922 179.291 29.0156C177.507 30.739 175.244 31.8827 172.798 32.2967C171.487 32.5282 170.147 32.5393 168.833 32.3297C166.785 32.0022 164.854 31.1602 163.22 29.8825L163.29 29.8164C163.295 29.8207 163.298 29.8258 163.301 29.8315C163.303 29.8371 163.304 29.8433 163.304 29.8494C163.304 29.8556 163.303 29.8617 163.301 29.8674C163.298 29.8731 163.295 29.8782 163.29 29.8825L160.174 30.7078L159.378 30.9224L159.13 30.9967Z" fill="#263238"/>
<path d="M165.283 20.5186L166.711 19.0866L169.468 21.5379L174.878 16.3298L176.207 17.7619L169.266 24.2947L165.283 20.5186Z" fill="#407BFF"/>
</svg>
